<svg id="Layer_1" data-name="Layer 1" xmlns="http://www.w3.org/2000/svg" viewBox="0 0 121.16 94.45"><defs><style>.cls-1{fill:#eaa4af}.cls-2{fill:#eac2bf}.cls-3{fill:#eba2aa}.cls-4{fill:#e77a87}.cls-5{fill:#f3d4d1}.cls-6,.cls-8,.cls-9{fill:#1a3964}.cls-7{fill:#412867}.cls-8{fill-rule:evenodd}.cls-9{font-size:13.25px;font-family:Myriad Hebrew;font-weight:700}</style></defs><title>logoBC</title><path class="cls-1" d="M72.8 61.68zM53.97 55.2zM53.36 53.99a1.36 1.36 0 0 1 1.25.94c.09-.19.14-.4.23-.59a.3.3 0 0 1 .19-.16h-.13a2.39 2.39 0 0 0-1.41-.74 3.76 3.76 0 0 0-1.68.42c-.18.1-.38.21-.58.33a3.88 3.88 0 0 1 1.07-.31 1.74 1.74 0 0 1 1.06.11zM73.43 59.78a3.1 3.1 0 0 0-2.15-1.7c-.86-.13-1.82.34-2.61-.09a15.31 15.31 0 0 0-1.23 1.27v.46a.82.82 0 0 1 .2.12.48.48 0 0 1 .18.37l.1.06.07.07a6.72 6.72 0 0 1 2.12-.18 3.77 3.77 0 0 1 2.15 1 4.83 4.83 0 0 1 1.67-.86.38.38 0 0 1-.1-.19l-.06-.22a.24.24 0 0 1-.34-.11zM47.94 92.06h.49l-.15-.26a1.43 1.43 0 0 1-.34.26zM46.98 68.21l-.07-.07a.67.67 0 0 1 0 .09zM58.96 64.02c-.05-.11-.1-.21-.15-.32a.66.66 0 0 1-.09.33h.24zM65.11 61.63h.06-.06zM56.25 93.08h-.09l-.07.06zM38.41 64.94a.33.33 0 0 1-.1.17l.16.15a4.47 4.47 0 0 1 0-.52z"/><path class="cls-2" d="M34.25 83.91a3.53 3.53 0 0 0 1.58 2.86 12.08 12.08 0 0 0 1.7.31 6.69 6.69 0 0 0 2.83-.39c.59-.22 1.67-.51 1.86-1.19.23-.84 0-1.72.26-2.56a.71.71 0 0 1 .33-.46.44.44 0 0 1 .06-.82c.57-.12 1.16-.08 1.73-.21a17.89 17.89 0 0 1-2-2.15.23.23 0 0 1 0-.38 5 5 0 0 1-.85-1.29.38.38 0 0 1 .17-.47 6.85 6.85 0 0 0 1.31 1.55.25.25 0 0 1 .2-.07c.95.08 1.84.35 2.8.4a5.7 5.7 0 0 0 1.56-.09 5 5 0 0 0 .51-.16.48.48 0 0 1-.14-.16l-.22-.44a3.85 3.85 0 0 1-.79-1.92 6 6 0 0 1-.26-2.07.25.25 0 0 1 .08-.19 4.25 4.25 0 0 1 .06-1.71.4.4 0 0 1 .43-.28 10.12 10.12 0 0 0 .04 1.76.32.32 0 0 1 .14.12 9.47 9.47 0 0 0 .78 1.44 3 3 0 0 0 1.18.9 3 3 0 0 0 1.39.22c.52-.06.92-.37 1.42-.47h.13a1.94 1.94 0 0 1-.11-.28 1.2 1.2 0 0 1 0-.74 1.74 1.74 0 0 1 .24-.41v-.11c-.11-.35.2-.95.65-.66a10.37 10.37 0 0 0 1.73 1 .35.35 0 0 1 .33-.34 11.48 11.48 0 0 0 2 .17 6 6 0 0 0 2.21-.77 6.75 6.75 0 0 0 2.88-2.95.66.66 0 0 1 .54-.41l-.07-.24a.29.29 0 0 1-.3 0 3.48 3.48 0 0 1-.62-1 2.25 2.25 0 0 0-.32-.44l-.09-.09c-.09-.09.1 0 0 0a.37.37 0 0 1-.23-.29h-.07a.42.42 0 0 1 .06-.84 2.77 2.77 0 0 0 1-.18.44.44 0 0 1 .33-.17 3.59 3.59 0 0 0 1.34-3.1 9 9 0 0 0-.32-2.68 10.83 10.83 0 0 0-.86-1.86c-.16-.31.24-.92.61-.63a2.11 2.11 0 0 1 .51.58 23.5 23.5 0 0 0 2.73-1.26 2.7 2.7 0 0 0 1.34-1.09 1 1 0 0 0 0-.65 2.11 2.11 0 0 0-.34-1.3.27.27 0 0 1 .4 0 1.72 1.72 0 0 1 .68 1.61 4.75 4.75 0 0 1 3.91.05 4.27 4.27 0 0 1 1.86 3 .39.39 0 0 1 0 .24c.28-.07.57-.13.84-.18a3.84 3.84 0 0 1 3 .33 2.33 2.33 0 0 1 .33.32.39.39 0 0 1 .26-.33 3.64 3.64 0 0 1 1.64 0 3.39 3.39 0 0 1 1.83.93c.14.14.28.3.42.46a3.76 3.76 0 0 0-.62-1.05.4.4 0 0 1 .08-.57 4.76 4.76 0 0 0-2.5-1.23.33.33 0 0 1-.19-.14.35.35 0 0 1-.49.14 8.38 8.38 0 0 1-.95-1.33l-.09-.07a2.82 2.82 0 0 0-.88-.33.57.57 0 0 1-.37.06 3.31 3.31 0 0 1 .83 2 .31.31 0 0 1-.36.33.31.31 0 0 0 0-.11 2.72 2.72 0 0 0-1-1.9.43.43 0 0 0-.22-.11 6.56 6.56 0 0 0-4-1.71.26.26 0 0 1-.2-.09c0 .37-.61.51-.69.08a1.43 1.43 0 0 0-1.16-1.34.46.46 0 0 1-.51.43c-.57-.1-1.15 0-1.71-.14s-1.1-.38-1.66-.45a5.23 5.23 0 0 0-2.61.37.23.23 0 0 1-.25 0 2.64 2.64 0 0 1-.18.54 16.36 16.36 0 0 1-1.53 1.62.44.44 0 0 1-.26-.34l.07-.07a.38.38 0 0 1-.28-.23 2.76 2.76 0 0 1 .37-1.47c.14-.54 0-.44-.52-.54a.32.32 0 0 1-.21-.12 3.06 3.06 0 0 0-.52 0 9.8 9.8 0 0 0-1.68.13 18.91 18.91 0 0 0-2.31.37V54.83a.1.1 0 0 1 0 .06 1.27 1.27 0 0 1 .12.31.68.68 0 0 1 0 .16 3.08 3.08 0 0 1 .65 0 .35.35 0 0 1 0 .69 3 3 0 0 0-2 .61 1.86 1.86 0 0 1-1.57 1.64 6 6 0 0 0-.38.52.39.39 0 0 1 .31.5 14.85 14.85 0 0 0-.59 1.63 1.64 1.64 0 0 0 .06.87 2 2 0 0 1 .3.66 5.89 5.89 0 0 1 1.81-.78.34.34 0 0 1 .43.39 3.51 3.51 0 0 0-1.56 1 7.72 7.72 0 0 0-3.17 4.34 13.14 13.14 0 0 0-.62 3.37c0 1 .1 2.06.12 3.1 0 .34-.54.59-.69.21a4.44 4.44 0 0 1-.19-.63v-.06l-.15-.24-.06-.05a3.6 3.6 0 0 1-.73-1.68 8.56 8.56 0 0 1-.43-2.38c-2.19.48-4.84 2-5 3.85a1.35 1.35 0 0 0 0 .32 3.76 3.76 0 0 0 .59 2 .26.26 0 0 1-.4 0l-.09-.11a.31.31 0 0 1-.4.21 2.23 2.23 0 0 1-.68-.7 2.1 2.1 0 0 0-.76-.55.4.4 0 0 1-.21-.46 3.57 3.57 0 0 1-.53-.21.42.42 0 0 1-.14.1 1.85 1.85 0 0 0-1 1.1c-.61.68-.19 2.35.16 3.25a.3.3 0 0 1-.35-.09 2.73 2.73 0 0 1-.56-.88 3.53 3.53 0 0 0-.51 1.71 1.79 1.79 0 0 0 .26 1 4 4 0 0 0 1.51 1.59.35.35 0 0 1-.25.07 3.08 3.08 0 0 1-1.19-.39.39.39 0 0 1-.24.08 1.44 1.44 0 0 1-1-.58 1.82 1.82 0 0 1-.31-.49 2.74 2.74 0 0 0-.65 1.42 2.27 2.27 0 0 0-.25.79 4.73 4.73 0 0 0 .08 2.27.3.3 0 0 1-.42-.18 4.31 4.31 0 0 1-.3-1.13.32.32 0 0 0 0-.34c-.13-1.51.23-3.39 1.57-3.81a.53.53 0 0 1 0-.08c0-.75-1-.65-1.34-1.08a.45.45 0 0 1-.1-.35l-.09-.09a7.61 7.61 0 0 1-.61-.67.36.36 0 0 1-.05-.32 1.79 1.79 0 0 1-.07-.35.54.54 0 0 1 .15-.41 1.48 1.48 0 0 0 .37.47h.05l.07.06a2.3 2.3 0 0 0 1.86.34h1a5.34 5.34 0 0 1 .29-.46 3.55 3.55 0 0 1 .64-2.28.53.53 0 0 1-.26-.51 2.5 2.5 0 0 1 0-1.34.64.64 0 0 1 .16-.16.38.38 0 0 1 .64-.27.36.36 0 0 1 .56-.18c.39.27.77.59 1.18.83a4.15 4.15 0 0 0 1 .33 6 6 0 0 1 2.88-3.27.32.32 0 0 1-.16-.45 2.79 2.79 0 0 0 .56-1.55c0-.22-.09-.43-.15-.65a3.34 3.34 0 0 1-.32-1.17.37.37 0 0 1 0-.17 7.47 7.47 0 0 0-1.59-1.61 5.3 5.3 0 0 1 1.58.68 4 4 0 0 1 .15-1.61.39.39 0 0 1 .1-.16 3.43 3.43 0 0 0 .19 1.64 5.48 5.48 0 0 1 0-.74.34.34 0 1 1 .68 0 5.8 5.8 0 0 0 .15 1.17.36.36 0 0 1 .1.12c.37.63.76 1.27 1.17 1.88a9.88 9.88 0 0 1 .91 1.35 5.73 5.73 0 0 1 .88-.08.47.47 0 0 1 .26.07 10.79 10.79 0 0 1 .4-1.22 9.76 9.76 0 0 1 1.82-3 2.51 2.51 0 0 1-.39-2.07.31.31 0 0 1-.16-.18 4.24 4.24 0 0 1-.12-1.8 3 3 0 0 1 .37-1.34c-.25 0-.49-.06-.73-.07a2.79 2.79 0 0 0-2.06.3.53.53 0 0 1 0-.56c1-1.1 2.24-.64 3.49-.47a.52.52 0 0 1 .26-.54c.24-.11.49-.12.73-.21a1 1 0 0 0 .17-.09h.06a4 4 0 0 0 .15-.93.25.25 0 0 1-.22-.12 1 1 0 0 0-.56-.65 1.9 1.9 0 0 0-.92.12 5.9 5.9 0 0 0-1.73.83c-.23.18-.42 0-.47-.22a4.4 4.4 0 0 0-.36.88.37.37 0 0 1-.29-.4 2 2 0 0 1 0-.36C44.46 57.89 38.56 58 35.87 62.9c-.22.41-.72 0-.52-.34s.3-.51.46-.75a.3.3 0 0 1-.35-.39 6.64 6.64 0 0 1 2.57-2.76 30 30 0 0 1 3.68-2.08 41.49 41.49 0 0 1 4.58-1.66c.74-.27 1.5-.49 2.23-.77a9.09 9.09 0 0 1 1.73-.67.29.29 0 0 1 .23.06.36.36 0 0 1 .19-.16c.26-.11.51-.21.77-.3l.47-.24a4 4 0 0 1 2.94-.2c.38-.11.78-.11 1.18-.19s.93-.2 1.4-.27a9 9 0 0 1 3.56.16.27.27 0 0 1 .16.12 3.74 3.74 0 0 1 1.67.41 8.57 8.57 0 0 0 1.59-.35 2.76 2.76 0 0 1 1.6-.15.39.39 0 0 1 .25.39 16.72 16.72 0 0 0 2.45.57 4.57 4.57 0 0 1 2.88.83 6.22 6.22 0 0 1 2.64.1h.09l-.11-.06a7.8 7.8 0 0 0-2.2-.57c-1.52-.15-2.95-1.05-4.41-1.44a15.58 15.58 0 0 0-4.3-.07 6.94 6.94 0 0 1-3.12-.39.5.5 0 0 1-.59.2 11.75 11.75 0 0 0-5.37-.47 11.25 11.25 0 0 0-2.86.63c-.83.34-1.56.83-2.37 1.21a.26.26 0 0 1-.4-.2c-.25.21-.5.42-.76.62a.31.31 0 0 1-.15-.22 11.93 11.93 0 0 1-2.15.54c-.81.19-1.62.39-2.42.64a6.47 6.47 0 0 0-3.69 2.52.28.28 0 0 1-.36.13 1 1 0 0 0 0 .5.23.23 0 0 1-.16-.11l-.06-.1a28 28 0 0 0-3.58 2.56.37.37 0 0 1 .14.43 6.12 6.12 0 0 1-.88 1.39 3.64 3.64 0 0 0-.69 1.59.39.39 0 0 1-.51.33v.24a.3.3 0 0 1-.26-.1.67.67 0 0 1-.16-.32l-.24.1c.33.07.27.58 0 .71a2.58 2.58 0 0 0-1.2 1.14 4.83 4.83 0 0 0-.56 1.49.42.42 0 0 1-.33.36 10 10 0 0 0-.26 2.13l.12-.1a2.06 2.06 0 0 1 .25-1.37 5 5 0 0 1 .94-1.64.38.38 0 0 1 .51 0 3.55 3.55 0 0 1 .3-.38 5.49 5.49 0 0 1 2.18-1.39.37.37 0 0 1-.06-.47 6.47 6.47 0 0 0 .22-.76.33.33 0 0 1 .38-.24.31.31 0 0 1 .18.4 2.64 2.64 0 0 1 1.41.22 5 5 0 0 1 2.74-2.37h.02a2.32 2.32 0 0 1 .58-.19 2.06 2.06 0 0 1 1.06 0 .33.33 0 0 1 .19.19c.58-.17 1.17-.3 1.74-.44 1.29-.32 3.23-1.45 4.61-1.13a.32.32 0 0 1 .31-.31.31.31 0 0 1 .2.51 2.07 2.07 0 0 1 .85 1.13.45.45 0 0 1-.17.5 2.48 2.48 0 0 0-.28-.41.4.4 0 0 1-.24.21.33.33 0 0 1-.36-.1c-.32-.49-1.43-.21-1.83 0s-.85.41-1.27.61a15.61 15.61 0 0 1-2.73 1c-.7.18-2 .17-2.51.77a3 3 0 0 0-.3 2.17.41.41 0 0 1-.16.38.45.45 0 0 1-.06.16.3.3 0 0 1 .22.17 2.55 2.55 0 0 0 1.74 1.33 1.27 1.27 0 0 0 .92-.11 1.14 1.14 0 0 0 .29-.27 2.3 2.3 0 0 0 .37-1 .32.32 0 0 1 .4.26 1.72 1.72 0 0 1-1.83 2.16 3.75 3.75 0 0 1-2.53-1.91.36.36 0 0 1 0-.33.31.31 0 0 1-.25-.19 2.24 2.24 0 0 0-.56-.75 1.08 1.08 0 0 1-.46-.16.47.47 0 0 1-.29.13c-.46 0-.9-.13-1.38-.06a3.43 3.43 0 0 0-1.41.51c-.79.52-1.6 1.41-1.28 2.39a.47.47 0 0 1-.51.6l.06.09a1.29 1.29 0 0 0 1.34.41.35.35 0 0 1 .24-.05l.26-.08a.29.29 0 0 1 .31-.09 11.1 11.1 0 0 1 1.07-.37h.08a2.44 2.44 0 0 1 .05-1.8.37.37 0 0 1 .32-.24 1.94 1.94 0 0 0-.1 1.11.28.28 0 0 1 .46.07 7.7 7.7 0 0 0 1.4 1.81.34.34 0 0 1 0 .4l.12.08c.29.19.06.81-.3.66a3.67 3.67 0 0 1-1.69-1.46.43.43 0 0 1-.24.21l-.7.27a.33.33 0 0 1-.06.18 6.22 6.22 0 0 0-.9 1.24 8.32 8.32 0 0 0-.34 1.26.34.34 0 0 1 0 .1 1.41 1.41 0 0 1-.1.94.33.33 0 0 1-.35.16h-.09a.4.4 0 0 1-.27-.32 4.49 4.49 0 0 1-.08-.49.28.28 0 0 1-.14-.11 3.58 3.58 0 0 1-.53-2.61 1.4 1.4 0 0 1-.3-.23v.05c-.37.66-1.43.55-1.95 1.06a.46.46 0 0 1-.09.18 2.37 2.37 0 0 0-.64 1.29 1.36 1.36 0 0 0 .32 1.43.42.42 0 0 1 .2.46 2.67 2.67 0 0 1 2.68-1 .34.34 0 0 1 .22.36 3.67 3.67 0 0 0-1.58.59l-.19.08a.42.42 0 0 1-.18.41 2.68 2.68 0 0 0-.75.87.32.32 0 0 1-.22.16.35.35 0 0 1 0 .29c-.12.38-.31.74-.44 1.12s-.18.66-.31 1v.42a2.07 2.07 0 0 1 .65-.53.42.42 0 0 1 .31-.06 6.78 6.78 0 0 0-.62 1.74.33.33 0 0 0 0 .19 5.27 5.27 0 0 0 .53 2.9c.27.58.48 1.18.78 1.72a.88.88 0 0 0 1.14-.06 4.4 4.4 0 0 0 .49-1.42 1.45 1.45 0 0 1 .14-.42.28.28 0 0 1 .08-.09l-.07-.23.06.08a5.24 5.24 0 0 1-.09-1.64 6 6 0 0 1 .38-.91.32.32 0 0 1 .18 0v1.32a1 1 0 0 0 0 .18 4.84 4.84 0 0 0 .36 1.82 2.39 2.39 0 0 1 .4-.56.3.3 0 0 1 .14-.09 3.36 3.36 0 0 0-.17.7.22.22 0 0 1 .4-.03zM55.3 65.78a5.48 5.48 0 0 1 2.63-1.66 2.43 2.43 0 0 1-.27-2.21c.15-.57.4-1.78 1-2.06h.11a4.27 4.27 0 0 1 1.33-2.07.35.35 0 0 1 .39-.07 7.69 7.69 0 0 0-.63 1.25 3.94 3.94 0 0 0-.23.72.36.36 0 0 1 .16.43 6.72 6.72 0 0 0 .69 4.29.52.52 0 0 1-.06.43 4.1 4.1 0 0 0 1.14 1 .26.26 0 0 1-.18 0 3 3 0 0 1-2-1.12h-.07c-1.11.3-2.11.31-3 1.12a7.19 7.19 0 0 0-.77.8l-.09.11a.29.29 0 0 1 .12.3c-.14.93.32 1.86 0 2.78a.4.4 0 0 1-.2.23 4.8 4.8 0 0 1-.37 2.23.45.45 0 0 1-.42.28 3.61 3.61 0 0 0 .24-1.53.35.35 0 0 1-.58-.19c-.14-.55-.16-1.11-.27-1.66a15.26 15.26 0 0 0-.45-1.52.6.6 0 0 1 .14-.49l-.16-.31a2.42 2.42 0 0 1 0-1.33.29.29 0 0 1 .25 0 2 2 0 0 0 .13.26v.06c.05.11.14.32.18.39l.27.53a6 6 0 0 1 .97-.99zm-3-1.36a4.27 4.27 0 0 1 1.52-1.18c.46-.26.66.43.3.67a7.48 7.48 0 0 0-.73.53 7.34 7.34 0 0 1-.62.54c-.34.28-.61-.2-.43-.54zm-.93 6.3c.06-.37.64-.61.71-.12a4 4 0 0 0 .36 1.69c.25.37-.26 1-.59.6a2.83 2.83 0 0 1-.44-2.11zm-7.38.48c.29-.33.66.12.47.43a4.17 4.17 0 0 0-.52 1 3 3 0 0 0 0 1c0 .28-.4.65-.57.26a2.8 2.8 0 0 1 .67-2.67zm-4.8 4.54c.12-.33.65-.32.6.08a3.33 3.33 0 0 0 .38 1.58c.11.31-.33.86-.58.47a2.4 2.4 0 0 1-.36-2.09zm-.37 3.83c-.26-.33.24-.93.54-.55a3.49 3.49 0 0 0 1.2.88c.33.17.05.83-.31.69a3.28 3.28 0 0 1-1.39-1zm1.68-19.55c.07 0 0 0 0 0h-.14a.27.27 0 0 1-.27-.31.34.34 0 0 1 .31-.32c-.07 0 0 0 0 0h.14a.27.27 0 0 1 .26.31.34.34 0 0 1-.3.32zm4.71-1.71c-.67.19-1.31.41-2 .64a9.73 9.73 0 0 1-1.66.58c-.42.07-.49-.45-.2-.66a9.55 9.55 0 0 1 3.77-1.29c.44-.06.38.63.07.73zM31.5 79.23a3.25 3.25 0 0 0-.51 1.84c.07.41-.57.68-.65.2a3.38 3.38 0 0 1 .61-2.3.31.31 0 0 1 .55.26zm2.36-4.12h-.14c-.45 0-.36-.72.05-.73h.14a.28.28 0 0 1 .29.23.36.36 0 0 1 0 .13.39.39 0 0 1-.38.37z"/><path class="cls-1" d="M76.04 55.56a2.2 2.2 0 0 1 .45-.07l-.2-.23a.39.39 0 0 1-.25.3zM29.17 75.23a1.4 1.4 0 0 1-.32-.32.49.49 0 0 0 .49.41h.11a.38.38 0 0 1-.28-.09zM57.75 93.67h.43l-.4-.07zM77.34 55.61v-.06.05h.05zM84.67 65.64v.01-.01zM29.69 70.11v.16l.05-.07a.29.29 0 0 1-.05-.09zM58.5 79.03l-.06.1h.21a.35.35 0 0 1-.15-.1zM39.51 72.96zM55.15 55.41a2.12 2.12 0 0 1-.17.33l.28-.14a.84.84 0 0 1-.11-.21zM78.7 80.93v.01-.01zM63.39 71.71v-.12l-.11.21a.38.38 0 0 1 .11-.09zM33.36 70.78v.12zM33.74 86.96l-.08-.17-.17.1zM61.15 79.78v-.1zM74.64 55.5a3.33 3.33 0 0 0-.93-.32 6.42 6.42 0 0 1 .93.32zM75.92 75.85v.08h.12-.06zM84.86 64.78v-.05.05zM31.5 69.17a3 3 0 0 1-.06-.61 4.4 4.4 0 0 0-.21.63 1.38 1.38 0 0 1 .27-.02zM84.4 62.72c-.13-.24-.28-.48-.43-.72a4.78 4.78 0 0 1 .16.53.54.54 0 0 1 .27.19z"/><path class="cls-2" d="M89.6 71.19c-.09.55-.81.64-.84 0a6.82 6.82 0 0 0-.37-2.14.38.38 0 0 1-.56.1l-.16-.12a.58.58 0 0 1-.15.48.41.41 0 0 1-.6 0 1 1 0 0 1-.33-.76.47.47 0 0 1 .31-.41c-.26-.25-.52-.49-.8-.71l-.73-.57a4.81 4.81 0 0 1-1.19 2 .36.36 0 0 1-.17.1c-.08.15-.17.3-.27.44a4.67 4.67 0 0 1-3.56 2.28c-.55 0-.48-.8 0-.94a8.94 8.94 0 0 0 1.45-.58c-.39 0-.37-.51-.06-.65a3.81 3.81 0 0 0 1.71-2.2.32.32 0 0 1 .52-.1 4.12 4.12 0 0 0-.08-2.19 10.31 10.31 0 0 0-1.15-2.53.44.44 0 0 1-.6.25 3.48 3.48 0 0 0-.68-.42 1.47 1.47 0 0 0-.74 0 1.38 1.38 0 0 0-.54.25 6.16 6.16 0 0 1-.23.9c-.08.24-.33.4-.41.64a.37.37 0 0 1-.25.23c-.25.48-.54.94-.81 1.42a15.41 15.41 0 0 0 .32-2.41v-.47a.29.29 0 0 1-.26-.2 1.86 1.86 0 0 0-1.27-1.43 5.15 5.15 0 0 0-1.93-.07.3.3 0 0 1-.31-.18.56.56 0 0 1-.25.41 1.53 1.53 0 0 0-.58.71 2.6 2.6 0 0 1-.23 2.25 8.9 8.9 0 0 1-.11 1.4.29.29 0 0 1-.22-.22c-.1-.32-.19-.65-.28-1a.5.5 0 0 1-.18-.55c-.39-1.27-.94-2.49-2.36-2.86a.43.43 0 0 1-.23.2 15.46 15.46 0 0 1-1.72.26 8 8 0 0 0-1.49.36 8.39 8.39 0 0 0-2.28 1.86 6.92 6.92 0 0 1-.07.76 4.92 4.92 0 0 1-1.51 3.09 6.41 6.41 0 0 1 .55 1.39.3.3 0 0 1 .27.21c.46 1.14.91 3 2.42 3.21 1.76.24 2.32-1.36 2.85-2.63a.47.47 0 0 1 .55-.29c0-.81-.11-1.65-.2-2.45a13.48 13.48 0 0 1 .58-2.54.47.47 0 0 1 0 .2 16.77 16.77 0 0 0 .18 2.63c1.82-.55 4.38.07 4.63 2.09a2.6 2.6 0 0 1 .55.25 2.68 2.68 0 0 1 1.26 2.3.4.4 0 0 1-.78.13c0-.1 0-.2-.07-.3a1.86 1.86 0 0 1 0 .22.36.36 0 0 1-.59.27 6.59 6.59 0 0 1-.69-1.22 1 1 0 0 0-.14-.16 3.07 3.07 0 0 1-.32-.23c-.22-.11-.46-.17-.71-.3a.3.3 0 0 1-.12-.38l-.67-.06c-.45 0-.37-.72.05-.73a11.83 11.83 0 0 1 1.21 0 2.38 2.38 0 0 0-.45-.64.38.38 0 0 1-.35.15 4.44 4.44 0 0 0-1.7.06 1.87 1.87 0 0 0-.49 1c0 .12-.06.25-.1.39a.27.27 0 0 1 .16.32 1.87 1.87 0 0 0 .11 1.31c.21.37.46.71.71 1.06a.43.43 0 0 1 .06.12 2.32 2.32 0 0 1 .75.79c.13.26-.13.77-.48.63-.95-.39-1.76-1.46-2.92-1h-.06a3.55 3.55 0 0 1-1.9 1.11 3 3 0 0 1-2.77-.76h-.1a3.28 3.28 0 0 0-1.46.11h-.1a1.65 1.65 0 0 1-1.44.68 8.86 8.86 0 0 1-3.24 1.43 7.73 7.73 0 0 1-4-.1c-1 1.15-2.62 2.46-4.2 2.41a14.79 14.79 0 0 1-3.34 3l-.15.09c-1.14 2.47-3.95 4.84-3.27 7.8a3.26 3.26 0 0 0 1.05 1.75.32.32 0 0 1 .33-.24 5.08 5.08 0 0 0 2.9-.12.5.5 0 0 1 .46 0l.16.2a2.94 2.94 0 0 0 1.32 1.13 4.54 4.54 0 0 0 2.48 1.06.67.67 0 0 1 .36-.51 7.11 7.11 0 0 1 1.86-.16 5.56 5.56 0 0 1 1.58-.33H56c.79.13 1.58.41 2.38.51a.44.44 0 0 1 .13-.18 3 3 0 0 1 1-.39 1.83 1.83 0 0 0 .71-.5 2.66 2.66 0 0 0 .54-1.65.5.5 0 0 1 0-.18l-.2-.11c-.36-.21-.05-1 .36-.79a12.28 12.28 0 0 0 8.34.6.64.64 0 0 1 .2-.6 3 3 0 0 0 1.12-1 1.46 1.46 0 0 0-.08-1.15 1.64 1.64 0 0 0-2.27-.6.5.5 0 0 1-.31.07c-1.91 1.65-5.14 1.68-7.43.85a.38.38 0 0 1 .23-.72c.28.08.56.16.85.22a.3.3 0 0 1 .07-.09c.63-.58 1.42-.25 2.17-.57h.09a.39.39 0 0 1 .12-.1l.28-.12a3.74 3.74 0 0 0 1.22-1.4 2.8 2.8 0 0 1-.36-.22.31.31 0 0 1-.12-.17 19.72 19.72 0 0 1 3.1 0 9.63 9.63 0 0 0 1.53.2 9.9 9.9 0 0 0 4.35-1.19.29.29 0 0 1 .28 0c-.34.5-.74 1-1 1.48a7 7 0 0 1-1.45.59.37.37 0 0 1 0 .37 3.82 3.82 0 0 1 .84 2.6 9.34 9.34 0 0 0 1.25-1.05l.1-.09a3.49 3.49 0 0 0 .89.28h.15a8.68 8.68 0 0 0 1.13.08.46.46 0 0 0 .19 0h1.88a6.47 6.47 0 0 0 2.71-.78 16.7 16.7 0 0 1 2.29-1.46h.09a.49.49 0 0 0 0-.42.55.55 0 0 1-.1-.31 4.61 4.61 0 0 1-1.06-.73.54.54 0 0 1 .17-.85 5.85 5.85 0 0 0 1.33.47.49.49 0 0 1 .44-.24 4.38 4.38 0 0 0 2 0 2.64 2.64 0 0 0 1.26-1.15 2.22 2.22 0 0 0 .22-1.85 5.94 5.94 0 0 0-1.15-1.42.25.25 0 0 1 0-.1 3.59 3.59 0 0 0-1.35-.38.39.39 0 0 1 .05-.76 4 4 0 0 1 1.41.27.33.33 0 0 1 0-.08v-.16a.48.48 0 0 1-.75-.47 2.42 2.42 0 0 0-.39-1.32.43.43 0 0 1-.36-.34.33.33 0 0 1-.08-.19 1.2 1.2 0 0 1-.85-.85.47.47 0 0 1 .42-.55 4 4 0 0 1 .93.21 2.75 2.75 0 0 0 1.16 0 2.05 2.05 0 0 0 1.65-1.19c.11-.34.66-.31.59.08a2.92 2.92 0 0 1-1.66 2 5.55 5.55 0 0 1 .67 3.39.5.5 0 0 1-.07.2 3.8 3.8 0 0 1 .87 4.56h-.22a7.92 7.92 0 0 1-.64 1.63 10.57 10.57 0 0 0 2.27-4.16c.92-3 1.14-6.5-.55-9.25.04.06.03.13.02.19zm-21.29 16a.82.82 0 0 1 .43-.39.32.32 0 0 1 .2 0l.19-.09a.32.32 0 0 1 .41.27.43.43 0 0 1-.2.44l-.13.07a.78.78 0 0 1-.49.39.38.38 0 0 1-.46-.21.53.53 0 0 1 .04-.51zm-2.4 1.1a5.89 5.89 0 0 0 1.35-.62.39.39 0 0 1 .57.16.53.53 0 0 1-.21.65 3.16 3.16 0 0 1-1.68.63c-.5-.01-.44-.72-.04-.85zm13.27-19.13l.26-.14a.39.39 0 0 1-.22-.5 1.84 1.84 0 0 1 .58-.71 5.75 5.75 0 0 1 .63-.57.35.35 0 0 1 .52.15 5.36 5.36 0 0 0 .39-1 .3.3 0 0 1 .3-.24 7.09 7.09 0 0 1-.14 1.63 3.48 3.48 0 0 1-2.22 2c-.44.05-.43-.5-.11-.65zm-9.4 6.44a1.83 1.83 0 0 1 1.9-.46c.43.09.19.69-.14.75a2.36 2.36 0 0 0-1.34.23c-.38.31-.7-.23-.43-.55zm-16.34 3a2.17 2.17 0 0 1 .27-.52 1.25 1.25 0 0 1 .18-.28.42.42 0 0 1 .34-.21.35.35 0 0 1 .34.27.85.85 0 0 1-.06.84 1 1 0 0 1-.75.55.44.44 0 0 1-.33-.68zm-5.08 3.39c.49-.45 1-.85 1.56-1.26a8.12 8.12 0 0 1 1.53-1 .48.48 0 0 1 .5.82 17.76 17.76 0 0 1-1.58 1.24 9.72 9.72 0 0 1-1.54 1 .482.482 0 0 1-.49-.83zm-3.18 8.67c-1 0-1.2-1.09-1.2-1.81 0-.34.52-.58.69-.21s.18 1.09.58 1.09c.55-.04.44.89-.09.9zm15.67-6.45a.35.35 0 0 1-.69 0c-.22-.86-.31-2.76-1.7-2.54-.37.06-.33-.56 0-.65 1.66-.54 2.68 1.86 2.37 3.16zm11.7-5.35a9.32 9.32 0 0 1-1.47.44.31.31 0 0 1-.23.22 9.17 9.17 0 0 1-2.92.48c-.82-.11-1.62-.35-2.44-.44s-3.34-.51-3.62.7a.38.38 0 0 1-.12.21 4.52 4.52 0 0 1 .73 1.69 6.18 6.18 0 0 1 0 1.27.39.39 0 0 1-.43 0 4.51 4.51 0 0 0-.47-2.1 1.93 1.93 0 0 0-1.1-.9 3.84 3.84 0 0 0-2.72-.32 9.14 9.14 0 0 1-2.57 2 15.37 15.37 0 0 0-4 2.34c-.23.23-.7.74-1.28 1.29a.4.4 0 0 1 0 .1.43.43 0 0 1 .06.23 5.87 5.87 0 0 0-.15 1.31 1.31 1.31 0 0 0 .22.61c.84.19 1.84-.13 2.54.35a.51.51 0 0 1 .17.6l.32-.09a.43.43 0 0 1-.17.33 3.8 3.8 0 0 1-.46.29l.11.08a.36.36 0 0 1 .33-.16 8.35 8.35 0 0 0 2.28.14 3.69 3.69 0 0 0 1.28-.44 1.28 1.28 0 0 1 .43-.2 3.59 3.59 0 0 1 .77-3.3.27.27 0 0 1 .48.06 3.13 3.13 0 0 0-.59 2.56 2.48 2.48 0 0 0 1.95 2.05c.48.15.22 1-.27.84a3.76 3.76 0 0 1-1.56-.9c-1.7 1.67-4.22 1.15-5.9-.25a.35.35 0 0 1-.1-.14 3.42 3.42 0 0 1-2.17 0 2.08 2.08 0 0 1-1.41-2.55c-1.08.68-2.12.88-2.55-.41a.44.44 0 0 1 0-.31 1.1 1.1 0 0 0 .85.33h.13a.65.65 0 0 0 .38 0 3.47 3.47 0 0 0 1.68-1c.86-.77 1.61-1.64 2.46-2.42a18.38 18.38 0 0 1 3.77-2.09 8.37 8.37 0 0 0 1.94-1.34 16.83 16.83 0 0 0 1.58-2.1.38.38 0 0 1 .56-.09.31.31 0 0 1 .27.11.59.59 0 0 1 .12.4h.11a4.67 4.67 0 0 1 .48.24 1.08 1.08 0 0 1 .68.65.4.4 0 0 1 0 .23h.09c.1-1 1.59-1.34 2.42-1.42a10.85 10.85 0 0 1 2.32 0 5.32 5.32 0 0 1 1.16.19 3.06 3.06 0 0 1 1.44-2.2h.1a1.42 1.42 0 0 1 .83-.2 3.51 3.51 0 0 0-.48.41l-.11.1a.57.57 0 0 1 .07.47 1.54 1.54 0 0 1-.1.22.92.92 0 0 0 .29.3 2.44 2.44 0 0 0 .94.38.23.23 0 0 1 .17.12h.17a12.16 12.16 0 0 0 3.92-1.26.31.31 0 0 1 .44.21 8.32 8.32 0 0 0 1.26-2 .36.36 0 0 1 .62-.05 1.36 1.36 0 0 1 .39.15 1.1 1.1 0 0 1 .61.63.44.44 0 0 1-.08.37 1.79 1.79 0 0 1 1.65 1.7.35.35 0 0 1-.64.2c-.57-1.14-1.65-1.19-2.76-.75h-.07a7.05 7.05 0 0 1-2.68 1.81zM51.4 86.95a.55.55 0 0 1-.52-.08.62.62 0 0 1-.25-.55.81.81 0 0 1 .33-.56 1 1 0 0 1 .35-.15.43.43 0 0 1 .55.36.58.58 0 0 1-.14.47.49.49 0 0 1-.34.49zm28.9-6.93a.55.55 0 0 1-.16.73.76.76 0 0 0-.48.65 1.54 1.54 0 0 0 .16 1c.19.3.55.54.31.94a.54.54 0 0 1-.14.15l.22.06a.41.41 0 0 1-.15.77l-.63.06a4.85 4.85 0 0 0-2.67 1h-.1a.48.48 0 0 1 .12-.6 4.36 4.36 0 0 0 .52-.37 1.2 1.2 0 0 1-.45.11c-.47 0-.47-.58-.25-.83a1.57 1.57 0 0 0 .77-1 1.25 1.25 0 0 0-.36-.81.45.45 0 0 1-.32-.33.52.52 0 0 1 0-.37 2.22 2.22 0 0 1-2.09-1.73.36.36 0 0 1 .35-.43c0-.3.31-.73.65-.48a2.43 2.43 0 0 0 1 .7 2.91 2.91 0 0 0 1.36-.14c.8-.27 1.43-.85 2.22-1.11a3.8 3.8 0 0 0 .14-2.8 5.27 5.27 0 0 0-1.18-1.46.3.3 0 0 1 0-.38l-.65-.62c-.35-.35.15-1.09.61-.79a6.52 6.52 0 0 1 2.88 3.92 4.53 4.53 0 0 1-1.7 4.14zm5.6 1.32c.07.35-.46.69-.63.29q-.08-.19-.18-.37c-.09.22-.34.47-.58.27s-.38-.45-.61-.65a.64.64 0 0 0-.58-.25.41.41 0 0 1-.43-.11 1.74 1.74 0 0 1-.37.21.29.29 0 0 1-.29 0 2.37 2.37 0 0 0 .28-.37.32.32 0 0 1-.08-.17 1 1 0 0 1 .24-.68 2.86 2.86 0 0 1 .46-.56.4.4 0 0 1 .21-.11 5 5 0 0 0 .28-1.2 2.81 2.81 0 0 1 .12 1.36 3.26 3.26 0 0 1 2.14 2.32zm1.29-9a.372.372 0 0 1-.55-.5 2.12 2.12 0 0 0 .56-1.6c0-.36.54-.64.74-.23a2.17 2.17 0 0 1-.78 2.36z"/><path class="cls-1" d="M52.42 58.34v.01-.01zM42.06 73.78zM46.15 80.84l.23-.12h-.27a.38.38 0 0 1 .04.12zM52.28 63.04h-.1zM49.09 69.21a4.43 4.43 0 0 0-.08 1.36v-.14c0-.51.11-1 .21-1.54h-.16a.6.6 0 0 1 .03.32zM71.92 55.15l.07-.09h-.09v.09zM70.17 72.6h.06v-.06zM62.7 90.57h-.06v.06zM71.85 88.4l.09-.05v-.07.11zM67.84 84.9h-.15a1.2 1.2 0 0 1 0 .16z"/><path class="cls-3" d="M38.5 71.86a2.5 2.5 0 0 0 0 1.34.53.53 0 0 0 .26.51 2.93 2.93 0 0 1 .76-.74 3.24 3.24 0 0 1-.82-1 .37.37 0 0 1 0-.22.64.64 0 0 0-.2.11z"/><path class="cls-4" d="M34.83 76l.12.1-.07-.06z"/><path class="cls-3" d="M37.91 80.95a.39.39 0 0 0 .24-.08 2.08 2.08 0 0 1-1-1.56.41.41 0 0 1-.12.16 2.9 2.9 0 0 0-.44.41 1.82 1.82 0 0 0 .31.49 1.44 1.44 0 0 0 1.01.58zM34.43 76.62a7.61 7.61 0 0 0 .61.67l.09.09a.45.45 0 0 0 .1.35c.37.43 1.37.33 1.34 1.08a.53.53 0 0 0 0 .08 1.69 1.69 0 0 1 .33-.07.24.24 0 0 1 .2 0 4.46 4.46 0 0 1 .26-1.43c-1.14 0-2.63 0-3-1.14a.36.36 0 0 0 .07.37zM29.71 74.33a1.36 1.36 0 0 1-.32-1.43 2.37 2.37 0 0 1 .64-1.29.46.46 0 0 0 .09-.18l-.08.08a.26.26 0 0 1-.26.12 6.07 6.07 0 0 0-.51 1 5 5 0 0 0-.42 2.24 1.4 1.4 0 0 0 .32.32.38.38 0 0 0 .32.07 4.56 4.56 0 0 1 .43-.52.42.42 0 0 0-.21-.41zM32.92 73.16a.28.28 0 0 0 .14.11 5.91 5.91 0 0 1 .26-2.4v-.12a1.73 1.73 0 0 1-.93-.2 3.58 3.58 0 0 0 .53 2.61zM31.58 66.57a5 5 0 0 0-.94 1.64 2.06 2.06 0 0 0-.25 1.37 1.92 1.92 0 0 1 .86-.39 4.4 4.4 0 0 1 .21-.63 3.58 3.58 0 0 1 .63-2 .38.38 0 0 0-.51.01z"/><path class="cls-4" d="M30.23 86.13l-.07-.11a.47.47 0 0 0 .07.11z"/><path class="cls-3" d="M32.67 83.13a1.45 1.45 0 0 0-.14.42 4.4 4.4 0 0 1-.49 1.42.88.88 0 0 1-1.14.06 3.1 3.1 0 0 0 1.35 1.35 7.77 7.77 0 0 0 1.25.48l.17-.1a4.15 4.15 0 0 1-.29-2.31l-.12-.22h-.05c-.16-.4-.31-.81-.45-1.22a.28.28 0 0 0-.09.12zM42.81 82.48a.71.71 0 0 0-.33.46c-.23.85 0 1.73-.26 2.56-.19.68-1.27 1-1.86 1.19a6.69 6.69 0 0 1-2.83.39 12.08 12.08 0 0 1-1.7-.31 3.94 3.94 0 0 0 .67.34 5.81 5.81 0 0 0 2.87.46 29.07 29.07 0 0 0 3-.86.41.41 0 0 1 .35.05 9.64 9.64 0 0 1 .57-1.3 20.46 20.46 0 0 1 2.09-3.16 3.54 3.54 0 0 1-2.57.18zM42.5 79.28a17.89 17.89 0 0 0 2 2.15h.2a8.17 8.17 0 0 0 1.38-.55.38.38 0 0 0 0-.13 5.42 5.42 0 0 1-3.58-1.81.23.23 0 0 0 0 .34zM40.95 74.1a2.1 2.1 0 0 1 .76.55 2.23 2.23 0 0 0 .68.7.31.31 0 0 0 .4-.21 3.43 3.43 0 0 1-.72-1.33 3.11 3.11 0 0 1-1.3-.14.4.4 0 0 0 .18.43zM47.1 76.25a3.85 3.85 0 0 0 .79 1.92l.22.44a.48.48 0 0 0 .14.16 2.15 2.15 0 0 1 .68-.14h.14l.27-.28a2.79 2.79 0 0 1-.66-.39 5 5 0 0 1-1.48-2.67 11.76 11.76 0 0 1-.28-1.33.25.25 0 0 0-.08.19 6 6 0 0 0 .26 2.1zM52.5 75.68a1.94 1.94 0 0 0 .11.28.46.46 0 0 1 .43.41c.24-.19.47-.39.67-.58a2.51 2.51 0 0 1-1-1.26 1.74 1.74 0 0 0-.24.41 1.2 1.2 0 0 0 .03.74zM48.87 73.13l.06.05.15.24v.06a9.58 9.58 0 0 1-.11-2.91 4.43 4.43 0 0 1 .08-1.36.6.6 0 0 0 0-.31 6.54 6.54 0 0 0-1.37.17 8.56 8.56 0 0 0 .43 2.38 3.6 3.6 0 0 0 .76 1.68zM45.2 66.52c.06.21.11.43.15.65a2.79 2.79 0 0 1-.56 1.55.32.32 0 0 0 .16.45 10.89 10.89 0 0 1 2-.92.67.67 0 0 0 0-.09 7 7 0 0 1-1.66-2.48.22.22 0 0 1-.13-.05 2.27 2.27 0 0 0-.21-.45.37.37 0 0 0 0 .17 3.34 3.34 0 0 0 .25 1.17zM41.14 61.34a2.06 2.06 0 0 0-1.06 0 2.32 2.32 0 0 0-.58.19h-.08a5 5 0 0 0-2.74 2.37 2.64 2.64 0 0 0-1.41-.22 7.76 7.76 0 0 1-.24.9 4 4 0 0 1 2.79.16c.17-2 1.77-2.76 3.5-3.26a.33.33 0 0 0-.18-.14z"/><path class="cls-4" d="M37.87 65.78a2.1 2.1 0 0 0-.37-.26l-.08.1a1.08 1.08 0 0 0 .45.16z"/><path class="cls-3" d="M50.33 53.49a.29.29 0 0 0-.23-.06 9.09 9.09 0 0 0-1.73.67c-.74.27-1.49.5-2.23.77a41.49 41.49 0 0 0-4.58 1.66 30 30 0 0 0-3.68 2.08 6.64 6.64 0 0 0-2.57 2.76.3.3 0 0 0 .35.39c3-4.48 9.23-5.24 14-7.4a6.06 6.06 0 0 1 1.62-1.31c-.26.08-.51.19-.77.3a.36.36 0 0 0-.18.14zM56.25 55.21a1.27 1.27 0 0 0-.12-.31.1.1 0 0 0 0-.06v-.15c0-.02 0 0 0 0v-.27a3.09 3.09 0 0 0-.77.33h-.07a3 3 0 0 1-.25.73.84.84 0 0 0 .11.21 3.41 3.41 0 0 1 1-.25.68.68 0 0 0 .1-.23zM60.85 52.3a9 9 0 0 0-3.56-.16c-.47.06-.94.17-1.4.27s-.81.07-1.18.19a1.25 1.25 0 0 1 .74.89 4.46 4.46 0 0 1 1.25-.48 14.36 14.36 0 0 1 3.77-.59h.55a.27.27 0 0 0-.17-.12zM60.77 53.86a.32.32 0 0 0 .21.12c.52.1.67 0 .52.54a2.76 2.76 0 0 0-.37 1.47.38.38 0 0 0 .28.23 4.3 4.3 0 0 0 .8-1.33 1.78 1.78 0 0 0 .2-.43h-.14a6 6 0 0 0-1.5-.6zM65.87 52.34a2.76 2.76 0 0 0-1.6.15 8.57 8.57 0 0 1-1.59.35 1.44 1.44 0 0 1 .54.56v.05a2.93 2.93 0 0 1 2.26-.82 4.92 4.92 0 0 1 .62.1.39.39 0 0 0-.23-.39zM75.84 55.51a8.54 8.54 0 0 0-1.66-1.25h-.09a6.22 6.22 0 0 0-2.64-.1 1.65 1.65 0 0 1 .45.93h.09a.31.31 0 0 1 .18-.07 5.28 5.28 0 0 1 1.55.19 3.33 3.33 0 0 1 .93.32 6.66 6.66 0 0 1 1 .52.46.46 0 0 1 .26-.37h.16a.24.24 0 0 1-.23-.17zM53.94 55.3a.47.47 0 0 1-.43.32 4 4 0 0 1-.15.93h-.06a1 1 0 0 1-.17.09c-.24.09-.49.1-.73.21a.52.52 0 0 0-.26.54 5.2 5.2 0 0 0 .73.05 1.37 1.37 0 0 0 1.16-1.95v-.06-.25zM52.64 60.97a14.85 14.85 0 0 1 .59-1.63.39.39 0 0 0-.31-.5 6.51 6.51 0 0 0-.83 1.92 3.92 3.92 0 0 0-.14 1.55 1.58 1.58 0 0 0 .28.65h.1a6.38 6.38 0 0 1 .68-.5 2 2 0 0 0-.3-.66 1.64 1.64 0 0 1-.07-.83zM51.14 61.36a.31.31 0 0 0 .16.18 5.43 5.43 0 0 1 .1-.58 7.76 7.76 0 0 1 1-2.61c-.34 0-.68-.08-1-.13a3 3 0 0 0-.37 1.34 4.24 4.24 0 0 0 .11 1.8zM58.81 63.69a4.15 4.15 0 0 1-.33-1.38 7.26 7.26 0 0 1 .31-2.49h-.11c-.62.28-.88 1.49-1 2.06a2.43 2.43 0 0 0 .27 2.21 4 4 0 0 1 .79-.12.66.66 0 0 0 .07-.28zM55.14 67.44a1 1 0 0 0-.09.23.37.37 0 0 0 0 .16.46.46 0 0 0 0 .16.57.57 0 0 0 0 .15l.07.2a8.07 8.07 0 0 1 .33 1.81.4.4 0 0 0 .2-.23c.32-.92-.14-1.85 0-2.78a.29.29 0 0 0-.12-.3 3.52 3.52 0 0 0-.32.45 1.2 1.2 0 0 0-.07.15zM61.56 68.7c.13.06-.1 0 0 0s0 0 .09.09a2.25 2.25 0 0 1 .32.44 3.48 3.48 0 0 0 .62 1 .29.29 0 0 0 .3 0l-.1-.34c-.15-.53-.35-1.06-.49-1.6a3 3 0 0 1-1 .08.37.37 0 0 0 .26.33zM58.9 78.11a5.31 5.31 0 0 1-.42.92.35.35 0 0 0 .15.09 4 4 0 0 1 1.84.26.4.4 0 0 0 0-.23 1.08 1.08 0 0 0-.68-.65 4.67 4.67 0 0 0-.48-.24h-.11a.59.59 0 0 0-.12-.4.31.31 0 0 0-.27-.11.35.35 0 0 1 .09.36zM63.1 74.15h.1a3.28 3.28 0 0 1 1.46-.11h.1a4.72 4.72 0 0 1-1.05-1.52 6.41 6.41 0 0 1-2 2.36 1.65 1.65 0 0 0 1.39-.73zM71.35 72.07a1.87 1.87 0 0 1-.11-1.31.27.27 0 0 0-.16-.32c0-.14.07-.27.1-.39a1.87 1.87 0 0 1 .49-1 4.44 4.44 0 0 1 1.7-.06.38.38 0 0 0 .35-.15 1.87 1.87 0 0 0-.77-.45 3.71 3.71 0 0 0-2.31 0 11.18 11.18 0 0 1 0 2.43 5.68 5.68 0 0 1-.49 1.73v.06a3.63 3.63 0 0 1 1.89.66.43.43 0 0 0-.06-.12c-.17-.37-.41-.71-.63-1.08z"/><path class="cls-4" d="M73.14 64.78c-.05-.2-.11-.39-.17-.59a.5.5 0 0 0 .17.59z"/><path class="cls-3" d="M73.99 62.3a1.53 1.53 0 0 1 .58-.71.56.56 0 0 0 .25-.41.51.51 0 0 1 0-.27 5.12 5.12 0 0 0-2 .77 6.55 6.55 0 0 1 .91 1.83v1a2.6 2.6 0 0 0 .26-2.21zM79.31 64.28c.08-.25.32-.4.41-.64a6.16 6.16 0 0 0 .23-.9 1.38 1.38 0 0 1 .54-.25 1.47 1.47 0 0 1 .74 0 3.48 3.48 0 0 1 .68.42.44.44 0 0 0 .6-.25 4.09 4.09 0 0 0-1-1 3.45 3.45 0 0 0-1.6-.59 5.37 5.37 0 0 1-1-.13 5.11 5.11 0 0 1 .44 2.88c-.1.24-.22.48-.34.71a.37.37 0 0 0 .3-.25zM82.23 60.57a3.76 3.76 0 0 1 .62 1.05 8.52 8.52 0 0 1 1.65 3.16.34.34 0 0 1 .18-.06h.11v-.05a8 8 0 0 0-.26-1.39.42.42 0 0 1 0-.26l-.18-.34a.54.54 0 0 0-.27-.2 4.78 4.78 0 0 0-.16-.53 9.42 9.42 0 0 0-1.66-2 .4.4 0 0 0-.03.62z"/><path class="cls-4" d="M68.56 57.43z"/><path class="cls-3" d="M67.84 60.18a.48.48 0 0 0-.18-.37.82.82 0 0 0-.2-.12v-.46a15.31 15.31 0 0 1 1.23-1.27h-.06a.31.31 0 0 1-.1-.41 3.82 3.82 0 0 1-.79.93c-1 .87-2.35 1.13-3.4 1.86a9.9 9.9 0 0 1 .32 1.16c0 .19.08.38.11.57a2.77 2.77 0 0 1 .36-.39h.06a6.77 6.77 0 0 1 2.84-1.29l-.07-.07z"/><path class="cls-4" d="M77.22 57.04a3.24 3.24 0 0 0-.47-.06l.1.12a.57.57 0 0 0 .37-.06zM76.11 56.38l.25.21a.51.51 0 0 1 .07-.22h-.32z"/><path class="cls-3" d="M86.34 74.78a2.92 2.92 0 0 1-1.45 0 .33.33 0 0 0 .08.19.43.43 0 0 0 .36.34 2.42 2.42 0 0 1 .39 1.32.48.48 0 0 0 .75.47v.16a.33.33 0 0 0 0 .08 4.14 4.14 0 0 1 .51.24 5.56 5.56 0 0 0-.64-2.8zM75.92 75.85h.06a2.63 2.63 0 0 1 1 0 .44.44 0 0 0 .08-.37 1.1 1.1 0 0 0-.61-.63 1.36 1.36 0 0 0-.39-.15.38.38 0 0 1 .07.25 3.17 3.17 0 0 1-.21.9zM75.09 79.26c1.1 2 3.8 1 5-.44l.2-.26a.43.43 0 0 1-.19-.47c-.78.27-1.42.85-2.22 1.11a2.91 2.91 0 0 1-1.36.14 2.43 2.43 0 0 1-1-.7c-.34-.25-.66.18-.65.48a.28.28 0 0 1 .22.14zM67.86 76.78a1.1 1.1 0 0 0-.24.6v.06a3.82 3.82 0 0 0-.32.93 8.21 8.21 0 0 0 4.73-.3 6.18 6.18 0 0 0 2.18-1.36.31.31 0 0 0-.44-.21 12.16 12.16 0 0 1-3.92 1.26h-.17a.23.23 0 0 0-.17-.12 2.44 2.44 0 0 1-.94-.38.92.92 0 0 1-.29-.3 1.54 1.54 0 0 0 .1-.22.57.57 0 0 0-.07-.47 2.61 2.61 0 0 0-.35.45zM48.5 86.85a.28.28 0 0 1 .15.22c.18.87.24 1.61 1.28 1.83a3.18 3.18 0 0 0 1.68.12 3 3 0 0 0 1.08-.11.51.51 0 0 0-.17-.6c-.7-.47-1.71-.15-2.54-.35a1.31 1.31 0 0 1-.22-.61 5.87 5.87 0 0 1 .15-1.31.43.43 0 0 0-.06-.23.4.4 0 0 0 0-.1 14.74 14.74 0 0 1-1.35 1.14zM57.12 89.6a3 3 0 0 1-.34-.74 1.28 1.28 0 0 0-.43.2 3.69 3.69 0 0 1-1.28.44 8.35 8.35 0 0 1-2.28-.14.36.36 0 0 0-.33.16 4.21 4.21 0 0 0 2.16.88 4 4 0 0 0 2.5-.8zM47.76 90.84a5.08 5.08 0 0 1-2.9.12.32.32 0 0 0-.33.24 3.17 3.17 0 0 0 .92.55 6.06 6.06 0 0 0 2.48.31 1.43 1.43 0 0 0 .34-.28 3.81 3.81 0 0 1-.19-.4.55.55 0 0 1 .13-.57.5.5 0 0 0-.45.03zM54.45 92.49a7.11 7.11 0 0 0-1.86.16.67.67 0 0 0-.36.51 15.88 15.88 0 0 0 3.86-.06l.07-.06-.37-.19c-.33-.18-.09-.68.24-.69a5.56 5.56 0 0 0-1.58.33zM60.31 91.6a1.83 1.83 0 0 1-.71.5 3 3 0 0 0-1 .39.44.44 0 0 0-.13.18 3.78 3.78 0 0 0 1.27 0 5.33 5.33 0 0 0 2.88-2v-.06a10.31 10.31 0 0 1-1.81-.78.5.5 0 0 0 0 .18 2.66 2.66 0 0 1-.5 1.59zM68.18 86.15a1.64 1.64 0 0 1 2.27.6 1.46 1.46 0 0 1 .19 1.16 3 3 0 0 1-1.12 1 .64.64 0 0 0-.2.6 10.92 10.92 0 0 0 2.53-1.07v-.11a.36.36 0 0 1 0-.21 3.11 3.11 0 0 0-.57-2 4 4 0 0 0-.58-.72 1.51 1.51 0 0 0-.23-.19c-.08 0-.2-.14-.28-.14a.27.27 0 0 1-.39 0c-.33 0-.67.15-1 .1a4.35 4.35 0 0 1-.94 1.13.5.5 0 0 0 .32-.15z"/><path class="cls-4" d="M71.79 84.92l-.29.07.2.26v.07a.37.37 0 0 0 .09-.4z"/><path class="cls-3" d="M64.25 85.65l-.28.12a.39.39 0 0 0-.12.1h-.09c-.75.32-1.54 0-2.17.57a.3.3 0 0 0-.07.09 7.44 7.44 0 0 0 3.43 0 6.79 6.79 0 0 0 2.73-1.54 1.2 1.2 0 0 0 0-.16l-.28-.07a8.87 8.87 0 0 1-1.92-.59 3.74 3.74 0 0 1-1.23 1.48zM78.7 80.93a4.14 4.14 0 0 1 .06 2.58 2.23 2.23 0 0 1 1.15-.05.54.54 0 0 0 .14-.15c.24-.4-.12-.63-.31-.94a1.54 1.54 0 0 1-.16-1 .76.76 0 0 1 .48-.65.55.55 0 0 0 .16-.73 5 5 0 0 1-1.53.89zM83.16 84.1a.55.55 0 0 0 .1.31.49.49 0 0 1 0 .42h-.09.07c.38-.12.5.34.37.59a3.06 3.06 0 0 1-.2.32 7.43 7.43 0 0 0 2.32 0 4.51 4.51 0 0 0 1.88-1.09l.25-.26a7.92 7.92 0 0 0 .64-1.61 4 4 0 0 1-5.34 1.32zM83.5 79.78a2 2 0 0 1-.61.75.41.41 0 0 0 .43.11.64.64 0 0 1 .58.25c.22.2.38.45.61.65s.49 0 .58-.27a3.08 3.08 0 0 0-1.59-1.49zM85.36 67.07l.73.57c.28.22.54.47.8.71a.36.36 0 0 1 .37.11.69.69 0 0 1 .09.11l.05.09.15.18a.34.34 0 0 1 .09.19l.16.12a.38.38 0 0 0 .56-.1 4.35 4.35 0 0 0-1-1.62 8.28 8.28 0 0 0-1.5-1.17c-.36-.22-.82-.39-1.17-.64a5.84 5.84 0 0 1-.68 3.5.36.36 0 0 0 .17-.1 4.81 4.81 0 0 0 1.18-1.95z"/><path class="cls-5" d="M74.81 61.17a.3.3 0 0 0 .31.18 5.15 5.15 0 0 1 1.93.07 1.86 1.86 0 0 1 1.27 1.43.29.29 0 0 0 .26.2 2.82 2.82 0 0 0-.62-2c-.68-.64-2-.38-2.84-.2l-.34.08a.51.51 0 0 0 .03.24zM67.17 62.11a8 8 0 0 1 1.49-.36 15.46 15.46 0 0 0 1.72-.26.43.43 0 0 0 .23-.2l-.25-.06a6.36 6.36 0 0 0-3.16.28 4.45 4.45 0 0 0-1.54.81 3.28 3.28 0 0 0-.65 1 .36.36 0 0 1-.12.12v.55a8.39 8.39 0 0 1 2.28-1.88zM69.41 69.99c-.53 1.27-1.1 2.87-2.85 2.63-1.51-.21-2-2.07-2.42-3.21a.3.3 0 0 0-.27-.21c.61 2.06 1 4.71 3.43 4.41 2.23-.27 2.69-2 2.66-3.92a.47.47 0 0 0-.55.3zM59.4 60.85a3.93 3.93 0 0 0-.08 1.21 3.6 3.6 0 0 0 .63 1.88 3 3 0 0 0 .45.83.52.52 0 0 0 .06-.43 6.72 6.72 0 0 1-.69-4.29.36.36 0 0 0-.16-.43 4 4 0 0 0-.21 1.23zM54.15 67.99c-.09-.2-.25-.45-.4-.72a.6.6 0 0 0-.14.49 15.26 15.26 0 0 1 .45 1.52c.11.55.13 1.11.27 1.66a.35.35 0 0 0 .58.19 6.64 6.64 0 0 0-.29-1.67 5.89 5.89 0 0 0-.47-1.47zM52.57 75.96h-.13c-.5.09-.9.4-1.42.47a3 3 0 0 1-1.39-.22 3 3 0 0 1-1.18-.9 9.47 9.47 0 0 1-.78-1.44.32.32 0 0 0-.17-.09 5.7 5.7 0 0 0 .57 1.72 3.05 3.05 0 0 0 1 1.53c1.24 1 2.75.31 3.93-.62a.46.46 0 0 0-.43-.45zM62.5 70.91a6.75 6.75 0 0 1-2.88 2.95 6 6 0 0 1-2.21.77 11.48 11.48 0 0 1-2-.17.35.35 0 0 0-.33.34 3.17 3.17 0 0 0 .53.16 6.58 6.58 0 0 0 2.86-.08 8.21 8.21 0 0 0 4.78-3l.07-.08.11-.21c-.13-.36-.25-.72-.35-1.08a.66.66 0 0 0-.58.4zM48.25 78.78a5 5 0 0 1-.51.16 5.7 5.7 0 0 1-1.56.09c-1 0-1.86-.31-2.8-.4a.25.25 0 0 0-.2.07 3.83 3.83 0 0 0 1.24.72h.09a4.28 4.28 0 0 0 3.09.26.31.31 0 0 1 .29 0 12 12 0 0 0 1.2-1.06h-.14a2.15 2.15 0 0 0-.7.16zM42.35 86.71a29.07 29.07 0 0 1-3 .86 5.81 5.81 0 0 1-2.87-.46 3.94 3.94 0 0 1-.67-.34 3.53 3.53 0 0 1-1.58-2.86.22.22 0 0 0-.23-.23 3.62 3.62 0 0 0 0 1.07.36.36 0 0 0 0 .12 7.5 7.5 0 0 0 .81 2.42c.68.2 1.36.42 2.05.59a7.69 7.69 0 0 0 2.87.31 11.77 11.77 0 0 0 2.15-1 .29.29 0 0 1 .31 0h.13a.25.25 0 0 1 .15 0c0-.16.1-.32.15-.48a.41.41 0 0 0-.27 0zM29.94 76.58a.35.35 0 0 0 0-.29.32.32 0 0 0 .22-.16 2.68 2.68 0 0 1 .75-.87.42.42 0 0 0 .18-.41 1.78 1.78 0 0 0-.28.16 3.48 3.48 0 0 0-1.07 1.28 4.67 4.67 0 0 0-.5 2.38c.13-.31.2-.64.31-1s.27-.71.39-1.09zM34.5 69.58l.32-.11a.29.29 0 0 0-.32.11zM34.33 71.64a6.22 6.22 0 0 1 .9-1.24.33.33 0 0 0 .06-.18c-.32.13-.65.26-1 .36a6.23 6.23 0 0 0-.4 1.73 4.44 4.44 0 0 0 .06.71.34.34 0 0 0 0-.1 8.32 8.32 0 0 1 .38-1.28zM30.04 71.51l.08-.08c.52-.51 1.57-.4 1.95-1.06v-.05a1.76 1.76 0 0 1-.31-.42h-.07a4.24 4.24 0 0 0-1.94 1.68.26.26 0 0 0 .29-.07zM33.06 68.63c-.33-1 .49-1.87 1.28-2.39a3.43 3.43 0 0 1 1.41-.51c.47-.07.92.09 1.38.06a.47.47 0 0 0 .29-.13l.08-.1c-1.31-.7-3.3 0-4.32 1-.6.62-1.19 1.81-.63 2.63a.47.47 0 0 0 .51-.56zM38.07 70.05a7.7 7.7 0 0 1-1.4-1.81.28.28 0 0 0-.46-.07 1.5 1.5 0 0 0 .26.55 4.45 4.45 0 0 0 1.62 1.72.34.34 0 0 0-.02-.39zM39.88 71.27a.36.36 0 0 0-.56.18 6.47 6.47 0 0 0 1.23 1.15 3.29 3.29 0 0 0 1.43.36 2.91 2.91 0 0 1 .08-.52 4.15 4.15 0 0 1-1-.33c-.41-.25-.78-.56-1.18-.84zM39.29 65.99a3 3 0 0 1 .3-2.17c.47-.59 1.81-.59 2.51-.77a15.61 15.61 0 0 0 2.73-1c.43-.2.84-.42 1.27-.61s1.52-.45 1.83 0a.33.33 0 0 0 .36.1.4.4 0 0 0 .24-.21 1.93 1.93 0 0 0-2.52-.62c-1 .24-2.14.88-3.05 1.12a19.88 19.88 0 0 0-2.75.76 2.93 2.93 0 0 0-1.79 2.08 4.47 4.47 0 0 0 0 .52 2.81 2.81 0 0 1 .63.91.37.37 0 0 1 0 .21.41.41 0 0 0 .24-.32zM46.25 64.64a.36.36 0 0 0-.1-.12 5.8 5.8 0 0 1-.15-1.17.34.34 0 1 0-.68 0 5.48 5.48 0 0 0 0 .74 2.78 2.78 0 0 0 .56.93 26.35 26.35 0 0 0 1.79 2.87.26.26 0 0 1 0 .08l.63-.13a9.88 9.88 0 0 0-.91-1.35c-.38-.58-.77-1.22-1.14-1.85zM30.85 67.19a4.83 4.83 0 0 1 .56-1.49 2.58 2.58 0 0 1 1.2-1.14c.24-.13.3-.64 0-.71a4 4 0 0 0-1.75 2.64c-.1.35-.19.7-.27 1.06a.42.42 0 0 0 .26-.36zM33.71 63.6a3.64 3.64 0 0 1 .69-1.59 6.12 6.12 0 0 0 .88-1.39.37.37 0 0 0-.14-.43 6.3 6.3 0 0 0-1.69 2.48 2.57 2.57 0 0 0-.25 1.26.39.39 0 0 0 .51-.33zM39.26 57.22a6.47 6.47 0 0 1 3.69-2.52c.79-.25 1.6-.46 2.42-.64a11.93 11.93 0 0 0 2.15-.54.29.29 0 0 1 .05-.21l.17-.22a16.53 16.53 0 0 0-4.89 1.16c-1 .37-2.66.95-3.31 1.93a2.45 2.45 0 0 0-.66 1.18.28.28 0 0 0 .38-.14zM48.86 53.3c.8-.39 1.53-.87 2.37-1.21a11.25 11.25 0 0 1 2.86-.63 11.75 11.75 0 0 1 5.37.47.5.5 0 0 0 .59-.2 6.94 6.94 0 0 0 3.12.39 15.58 15.58 0 0 1 4.3.07c1.46.38 2.89 1.29 4.41 1.44a7.8 7.8 0 0 1 2.2.57l.11.06a8.54 8.54 0 0 1 1.66 1.25.24.24 0 0 0 .19.05.39.39 0 0 0 .26-.26 5 5 0 0 0-2.8-1.82c-.79-.16-1.6-.12-2.39-.27a5 5 0 0 1-1.58-.67 8.58 8.58 0 0 0-5-.95 20.69 20.69 0 0 1-4.42.11c-.25 0-.24-.33-.11-.51a16.37 16.37 0 0 0-9.53.81 4.39 4.39 0 0 0-2 1.1.26.26 0 0 0 .39.2zM78.09 57.36l.09.07a8.38 8.38 0 0 0 .95 1.33.35.35 0 0 0 .49-.14v-.07a3.33 3.33 0 0 0-3.14-2.18.51.51 0 0 0-.07.22 5.39 5.39 0 0 1 .38.38 3.24 3.24 0 0 1 .47.06 2.82 2.82 0 0 1 .83.33zM55.05 54.18z"/><path class="cls-5" d="M56.25 54.3a18.91 18.91 0 0 1 2.31-.37 9.8 9.8 0 0 1 1.68-.13 3.06 3.06 0 0 1 .52 0 6 6 0 0 1 1.52.56h.14a.58.58 0 0 0-.1-.6 3.1 3.1 0 0 0-2.17-.47 13.89 13.89 0 0 0-1.56.12 8.54 8.54 0 0 1-1.37.24 2.94 2.94 0 0 0-1.07.3 2 2 0 0 0-.32.14.56.56 0 0 1-.41.34 1.07 1.07 0 0 1 0 .14h.07a3.09 3.09 0 0 1 .76-.27zM63.58 54.5a5.23 5.23 0 0 1 2.61-.37c.57.08 1.1.34 1.66.45s1.14 0 1.71.14a.46.46 0 0 0 .51-.43h-.16c-.62-.11-1.26-.12-1.89-.2-.78-.1-1.48-.49-2.26-.61a2.56 2.56 0 0 0-2.4.88v.15a.23.23 0 0 0 .22-.01zM50.08 55.78a5.9 5.9 0 0 1 1.73-.83 1.9 1.9 0 0 1 .92-.12 1 1 0 0 1 .56.65.25.25 0 0 0 .22.12.47.47 0 0 0 .43-.32v-.09a2.23 2.23 0 0 0-.23-.66 1.21 1.21 0 0 0-.53-.5h.17a1.74 1.74 0 0 0-1.05-.17 3.88 3.88 0 0 0-1.07.31 5.39 5.39 0 0 0-.46.31 2.4 2.4 0 0 0-1.17 1.13c.06.17.25.36.48.17zM40.5 59.38h-.14s-.1 0 0 0a.34.34 0 0 0-.31.32.27.27 0 0 0 .27.31h.14s.1 0 0 0a.34.34 0 0 0 .31-.32.27.27 0 0 0-.27-.31zM45.15 57.58a9.55 9.55 0 0 0-3.77 1.29c-.29.2-.22.73.2.66a9.73 9.73 0 0 0 1.66-.58c.64-.24 1.29-.46 2-.64.26-.1.32-.79-.09-.73zM52.81 65.01a7.34 7.34 0 0 0 .62-.54 7.48 7.48 0 0 1 .73-.53c.36-.24.15-.93-.3-.67a4.27 4.27 0 0 0-1.52 1.18c-.18.33.09.81.47.56zM43.94 73.68a3 3 0 0 1 0-1 4.17 4.17 0 0 1 .52-1c.18-.31-.19-.76-.47-.43a2.8 2.8 0 0 0-.66 2.71c.17.36.63 0 .61-.28zM40.2 77.42a3.33 3.33 0 0 1-.38-1.58c.05-.4-.47-.41-.6-.08a2.4 2.4 0 0 0 .39 2.13c.26.39.71-.16.59-.47zM40.61 79.92a3.49 3.49 0 0 1-1.2-.88c-.3-.38-.8.22-.54.55a3.28 3.28 0 0 0 1.43 1c.36.19.64-.5.31-.67zM30.91 78.97a3.38 3.38 0 0 0-.61 2.3c.09.48.72.21.65-.2a3.25 3.25 0 0 1 .51-1.84.31.31 0 0 0-.55-.26zM68.62 57.92h.06c.79.43 1.74 0 2.61.09a3.1 3.1 0 0 1 2.15 1.7.24.24 0 0 0 .35.09 3.5 3.5 0 0 0-1.7-2.27 4 4 0 0 0-3.16 0 .27.27 0 0 1-.36-.14v.08a.31.31 0 0 0 .05.45zM83.22 67.5a3.81 3.81 0 0 1-1.71 2.2c-.31.14-.33.7.06.65a3.84 3.84 0 0 0 1.65-1.59 5 5 0 0 0 .51-1.36.32.32 0 0 0-.51.1zM80.95 67.35a.35.35 0 0 0-.52-.15 5.75 5.75 0 0 0-.63.57 1.84 1.84 0 0 0-.58.71.39.39 0 0 0 .22.5 4.09 4.09 0 0 0 1.51-1.63zM73.7 70.58c.25.13.49.2.71.3a3.07 3.07 0 0 0 .32.23 1 1 0 0 1 .14.16 6.59 6.59 0 0 0 .69 1.22.36.36 0 0 0 .59-.27 1.86 1.86 0 0 0 0-.22 1.89 1.89 0 0 0-1.19-1.51 6.19 6.19 0 0 0-1.38-.29.3.3 0 0 0 .12.38zM80.26 78.55a2.94 2.94 0 0 0 .46-3 6.9 6.9 0 0 0-1.69-2.12.3.3 0 0 0 0 .38 5.27 5.27 0 0 1 1.18 1.46 3.8 3.8 0 0 1-.14 2.8.43.43 0 0 0 .19.48zM70.19 76.09a2.36 2.36 0 0 1 1.34-.23c.33-.05.58-.65.14-.75a1.83 1.83 0 0 0-1.9.46c-.27.32.05.86.42.52zM66.89 79.06a.39.39 0 0 1-.19.13 3 3 0 0 1-1.26-.15 10.39 10.39 0 0 0-1.8-.2c-1 0-2 .05-2.44.9v.1a3.74 3.74 0 0 1 .55.63.38.38 0 0 0 .12-.21c.28-1.21 2.7-.8 3.62-.7s1.62.33 2.44.44a9.17 9.17 0 0 0 2.92-.48.31.31 0 0 0 .23-.22 7.5 7.5 0 0 1-4.19-.24zM45.22 89.7c-.4 0-.45-.8-.58-1.09s-.69-.13-.69.21c0 .72.24 1.83 1.2 1.81.54-.01.65-.94.07-.93zM58.4 81c-.3.09-.34.71 0 .65 1.39-.22 1.48 1.67 1.7 2.54a.35.35 0 0 0 .69 0c.35-1.31-.67-3.71-2.39-3.19zM68.73 87.85a.78.78 0 0 0 .49-.39l.13-.07a.43.43 0 0 0 .2-.44.32.32 0 0 0-.41-.27l-.19.09a.32.32 0 0 0-.2 0 .82.82 0 0 0-.43.39.53.53 0 0 0 0 .47.38.38 0 0 0 .41.22zM65.94 89.09a3.16 3.16 0 0 0 1.68-.63.53.53 0 0 0 .21-.65.39.39 0 0 0-.57-.16 5.89 5.89 0 0 1-1.35.62c-.41.12-.47.83.03.82zM78.01 83.01a10.09 10.09 0 0 0-.09-1.84 4.36 4.36 0 0 1-1.34.09.52.52 0 0 0 0 .37.45.45 0 0 0 .32.33 1.25 1.25 0 0 1 .36.81 1.57 1.57 0 0 1-.77 1c-.22.25-.22.85.25.83a1.2 1.2 0 0 0 .45-.11 2.07 2.07 0 0 0 .82-1.48zM84.29 83.14c1.3.43 2.74.54 3.45-.77a3 3 0 0 0-1.38-4.15.25.25 0 0 0 0 .1 5.94 5.94 0 0 1 1.15 1.42 2.22 2.22 0 0 1-.22 1.85 2.64 2.64 0 0 1-1.26 1.15 4.38 4.38 0 0 1-2 0 .49.49 0 0 0-.44.24l.46.13a.39.39 0 0 0 .24.03zM83.32 78.78a.4.4 0 0 0-.21.11 2.86 2.86 0 0 0-.46.56 1 1 0 0 0-.24.68.32.32 0 0 0 .08.17l.11-.19a5.33 5.33 0 0 0 .72-1.33zM87.18 70.28a2.12 2.12 0 0 1-.56 1.6.372.372 0 0 0 .55.5 2.17 2.17 0 0 0 .76-2.32c-.2-.42-.73-.15-.75.22zM87.43 68.67l-.05-.09a.69.69 0 0 0-.09-.11.36.36 0 0 0-.37-.11.47.47 0 0 0-.31.41 1 1 0 0 0 .33.76.41.41 0 0 0 .6 0 .58.58 0 0 0 .15-.48.34.34 0 0 0-.09-.19zM51.83 85.94a.43.43 0 0 0-.55-.36 1 1 0 0 0-.35.15.81.81 0 0 0-.33.56.62.62 0 0 0 .25.55.55.55 0 0 0 .52.08.49.49 0 0 0 .32-.51.58.58 0 0 0 .14-.47zM53.8 79.17a1 1 0 0 0 .75-.55.85.85 0 0 0 .06-.84.35.35 0 0 0-.34-.27.42.42 0 0 0-.34.21 1.25 1.25 0 0 0-.18.28 2.17 2.17 0 0 0-.27.52.44.44 0 0 0 .32.65zM48.81 82.71a9.72 9.72 0 0 0 1.54-1 17.76 17.76 0 0 0 1.58-1.24.48.48 0 0 0-.5-.82 8.12 8.12 0 0 0-1.53 1c-.53.41-1.07.82-1.56 1.26a.464.464 0 0 0 .47.8zM52.5 72.31a4 4 0 0 1-.36-1.69c-.08-.49-.65-.25-.71.12a2.83 2.83 0 0 0 .48 2.17c.32.43.83-.23.59-.6z"/><path class="cls-6" d="M79.28 69.78a3.48 3.48 0 0 0 2.22-2 7.09 7.09 0 0 0 .14-1.58.3.3 0 0 0-.3.24 5.36 5.36 0 0 1-.39 1 4.09 4.09 0 0 1-1.52 1.64l-.26.14c-.32.06-.33.61.11.56zM88.5 82.78l.05-.1a3.8 3.8 0 0 0-.87-4.56.5.5 0 0 0 .07-.2 5.55 5.55 0 0 0-.67-3.39 2.92 2.92 0 0 0 1.66-2c.07-.39-.49-.42-.59-.08a2.05 2.05 0 0 1-1.65 1.13 2.75 2.75 0 0 1-1.16 0 4 4 0 0 0-.93-.21.47.47 0 0 0-.42.55 1.2 1.2 0 0 0 .85.85 2.92 2.92 0 0 0 1.45 0 5.56 5.56 0 0 1 .66 2.79 4.14 4.14 0 0 0-.51-.24 4 4 0 0 0-1.41-.27.39.39 0 0 0-.05.76 3.59 3.59 0 0 1 1.35.38 3 3 0 0 1 1.38 4.15c-.71 1.31-2.15 1.21-3.45.77a.39.39 0 0 1-.23 0l-.46-.13a5.85 5.85 0 0 1-1.33-.47.54.54 0 0 0-.17.85 4.61 4.61 0 0 0 1.06.73 4 4 0 0 0 5.37-1.31z"/><path class="cls-6" d="M83.6 77.6a5 5 0 0 1-.28 1.2 5.33 5.33 0 0 1-.72 1.33l-.11.19a2.37 2.37 0 0 1-.28.37.29.29 0 0 0 .29 0 1.74 1.74 0 0 0 .37-.21 2 2 0 0 0 .63-.7 3.08 3.08 0 0 1 1.59 1.49q.1.18.18.37c.17.4.71.05.63-.29a3.26 3.26 0 0 0-2.15-2.36 2.81 2.81 0 0 0-.15-1.39zM78.99 72c-.46-.3-1 .45-.61.79l.65.62a6.9 6.9 0 0 1 1.69 2.12 2.94 2.94 0 0 1-.46 3l-.2.26c-1.17 1.42-3.87 2.44-5 .44a.28.28 0 0 0-.24-.16.36.36 0 0 0-.35.43 2.22 2.22 0 0 0 2.09 1.73 4.36 4.36 0 0 0 1.34-.09 10.09 10.09 0 0 1 .09 1.84 2.07 2.07 0 0 1-.79 1.44 4.36 4.36 0 0 1-.52.37.48.48 0 0 0-.12.6h.1a4.85 4.85 0 0 1 2.67-1l.63-.06a.41.41 0 0 0 .15-.77l-.22-.06a2.23 2.23 0 0 0-1.15.05 4.14 4.14 0 0 0-.06-2.58 5 5 0 0 0 1.53-.89 4.53 4.53 0 0 0 1.6-4.08 6.52 6.52 0 0 0-2.82-4z"/><path class="cls-6" d="M75.18 77.03h.07c1.11-.44 2.2-.39 2.76.75a.35.35 0 0 0 .64-.2 1.79 1.79 0 0 0-1.65-1.7 2.63 2.63 0 0 0-1 0h-.12v-.08a3.17 3.17 0 0 0 .23-.9.38.38 0 0 0-.07-.25.36.36 0 0 0-.62.05 8.32 8.32 0 0 1-1.26 2 6.18 6.18 0 0 1-2.18 1.36 8.21 8.21 0 0 1-4.73.3 3.82 3.82 0 0 1 .32-.93v-.06a1.1 1.1 0 0 1 .24-.6l.07-.07a2.61 2.61 0 0 1 .35-.45l.11-.1a3.51 3.51 0 0 1 .48-.41 1.42 1.42 0 0 0-.83.2h-.1a3.06 3.06 0 0 0-1.44 2.2 5.32 5.32 0 0 0-1.16-.19 10.85 10.85 0 0 0-2.32 0c-.83.08-2.32.46-2.42 1.42h-.09a4 4 0 0 0-1.84-.26h-.22l.06-.1a5.31 5.31 0 0 0 .42-.92.35.35 0 0 0-.08-.39.38.38 0 0 0-.56.09 16.83 16.83 0 0 1-1.58 2.1 8.37 8.37 0 0 1-1.94 1.34 18.38 18.38 0 0 0-3.77 2.09c-.85.78-1.6 1.65-2.46 2.42a3.47 3.47 0 0 1-1.68 1 .65.65 0 0 1-.38 0h-.12a1.1 1.1 0 0 1-.85-.33.44.44 0 0 0 0 .31c.43 1.29 1.47 1.09 2.55.41a2.08 2.08 0 0 0 1.39 2.65 3.42 3.42 0 0 0 2.17 0 .35.35 0 0 0 .1.14c1.68 1.39 4.2 1.91 5.9.25a3.76 3.76 0 0 0 1.56.9c.48.15.75-.69.27-.84a2.48 2.48 0 0 1-1.95-2.05 3.13 3.13 0 0 1 .59-2.56.27.27 0 0 0-.48-.06 3.59 3.59 0 0 0-.77 3.3 3 3 0 0 0 .34.74 4 4 0 0 1-2.49.8 4.21 4.21 0 0 1-2.16-.88l-.11-.08a3.8 3.8 0 0 0 .46-.29.43.43 0 0 0 .17-.33l-.32.09a3 3 0 0 1-1.08.11 3.18 3.18 0 0 1-1.68-.12c-1-.22-1.1-1-1.28-1.83a.28.28 0 0 0-.15-.22 14.74 14.74 0 0 0 1.33-1.14c.58-.55 1-1.06 1.28-1.29a15.37 15.37 0 0 1 4-2.34 9.14 9.14 0 0 0 2.57-2 3.84 3.84 0 0 1 2.72.32 1.93 1.93 0 0 1 1.1.9 4.51 4.51 0 0 1 .47 2.1.39.39 0 0 0 .43 0 6.18 6.18 0 0 0 0-1.27 4.52 4.52 0 0 0-.73-1.69 3.74 3.74 0 0 0-.55-.63v-.08c.49-.85 1.47-.89 2.44-.9a10.39 10.39 0 0 1 1.8.2 3 3 0 0 0 1.26.15.39.39 0 0 0 .19-.13 7.5 7.5 0 0 0 4.17.22 9.32 9.32 0 0 0 1.47-.44 7.05 7.05 0 0 0 2.74-1.8zM54.05 65.99v-.06a2 2 0 0 1-.13-.26.29.29 0 0 0-.25 0 2.42 2.42 0 0 0 0 1.33l.16.31c.15.27.31.52.4.72a5.89 5.89 0 0 1 .46 1.47 6.64 6.64 0 0 1 .29 1.67 3.61 3.61 0 0 1-.24 1.53.45.45 0 0 0 .42-.28 4.8 4.8 0 0 0 .37-2.23 8.07 8.07 0 0 0-.33-1.81l-.07-.2a.57.57 0 0 1 0-.15.46.46 0 0 1 0-.16.37.37 0 0 1 0-.16 1 1 0 0 1 .09-.23 1.2 1.2 0 0 1 .07-.15 3.52 3.52 0 0 1 .32-.45l.09-.11a7.19 7.19 0 0 1 .77-.8c.9-.82 1.89-.82 3-1.12h.07a3 3 0 0 0 2 1.12.26.26 0 0 0 .18 0 4.1 4.1 0 0 1-1.14-1 3 3 0 0 1-.45-.83 3.6 3.6 0 0 1-.63-1.88 3.93 3.93 0 0 1 .08-1.21 4 4 0 0 1 .22-1.16 3.94 3.94 0 0 1 .23-.72 7.69 7.69 0 0 1 .63-1.25.35.35 0 0 0-.39.07 4.27 4.27 0 0 0-1.31 2.07 7.26 7.26 0 0 0-.31 2.49 4.15 4.15 0 0 0 .33 1.38c0 .11.09.22.15.32h-.24a4 4 0 0 0-.79.12 5.48 5.48 0 0 0-2.8 1.41 6 6 0 0 0-.8 1.11l-.27-.53c-.03-.04-.12-.26-.18-.37z"/><path class="cls-7" d="M33.87 74.37h-.14c-.42 0-.5.7-.05.73h.14a.39.39 0 0 0 .36-.37.36.36 0 0 0 0-.13.28.28 0 0 0-.31-.23z"/><path class="cls-6" d="M68.83 91.09c3.25-.33 4.17-3.6 8.5-2.65a5.74 5.74 0 0 0 3.18-.55 7.68 7.68 0 0 0 2.33-1.44.43.43 0 0 0 .22.34c1.54.87 3.63 0 4.84-1a10.45 10.45 0 0 0 3.1-5 15.86 15.86 0 0 0 .75-6.29c-.14-1.58-.6-3.7-2-4.75a.32.32 0 0 0-.15-.07 5.68 5.68 0 0 0-1.26-2.7 6.88 6.88 0 0 0-1.63-1.37 8.92 8.92 0 0 0-1.16-.67 2.82 2.82 0 0 0-.1-1.55.32.32 0 0 0 0-.17 8.62 8.62 0 0 0-4.3-5 5.24 5.24 0 0 0-.82-.29 1.46 1.46 0 0 1-.27-.48 3.73 3.73 0 0 0-1.1-1.13 5.11 5.11 0 0 0-1.59-.71h-.05v-.05a.51.51 0 0 0 0-.49 5.62 5.62 0 0 0-4.82-2.69 5.44 5.44 0 0 1-2.46-.67c-2.58-1.37-5.48-1.06-8.32-.79a.33.33 0 0 0-.16-.15 14.12 14.12 0 0 0-12.94 1.43.41.41 0 0 0-.21-.07 9.52 9.52 0 0 0-2.69.36 20.94 20.94 0 0 0-3.84 1.23c-1.13.49-3.43 1.7-3.41 3.16h-.08c-2.51 1.47-5.1 3.22-5.7 6.14-1.24.12-1.89 1.61-2.27 2.57a11 11 0 0 0-.77 4.35.33.33 0 0 0 0 .13.29.29 0 0 0 .06.09l-.05.07a9 9 0 0 0-1.23 2.33c-.34 1-.81 3.13.56 3.51a6.41 6.41 0 0 0-.47 3.59.3.3 0 0 0 .24.28 5.84 5.84 0 0 0 .19 2.72 11.54 11.54 0 0 0 1.17 3.32l.07.11a3.9 3.9 0 0 0 .63.73c1.3 1.16 3.32 1.46 5 1.94a11.6 11.6 0 0 0 3.44.56 3.13 3.13 0 0 0 1.38-.33 13.2 13.2 0 0 1 1.45-1h.27a5.38 5.38 0 0 0 .06 2.18c.64 2.61 4 3.92 6.58 3.05a.6.6 0 0 0 .28-.21 6.11 6.11 0 0 0 2.64 1.19 11.54 11.54 0 0 0 5.48-.17.57.57 0 0 0 .34-.36v-.1l.4.07a6 6 0 0 0 1.62 0c1.42-.19 3.31-2.42 4.69-2.35M42.7 86.78c-.06.16-.11.32-.15.48a.25.25 0 0 0-.15 0h-.13a.29.29 0 0 0-.31 0 11.77 11.77 0 0 1-2.15 1 7.69 7.69 0 0 1-2.87-.31c-.69-.17-1.37-.39-2.05-.59a7.5 7.5 0 0 1-.81-2.42.36.36 0 0 1 0-.12 3.62 3.62 0 0 1 0-1.07 3.36 3.36 0 0 1 .17-.7.3.3 0 0 0-.14.09 2.39 2.39 0 0 0-.4.56 4.84 4.84 0 0 1-.36-1.82 1 1 0 0 1 0-.18v-1.32a.32.32 0 0 0-.18 0 6 6 0 0 0-.38.91 5.24 5.24 0 0 0 .09 1.64l-.06-.08.07.23c.13.41.29.82.45 1.22h.05l.12.22a4.15 4.15 0 0 0 .29 2.31l.08.17-.38-.12a7.77 7.77 0 0 1-1.25-.48 3.1 3.1 0 0 1-1.35-1.35c-.3-.54-.51-1.14-.78-1.72a5.27 5.27 0 0 1-.53-2.9.33.33 0 0 1 0-.19 6.78 6.78 0 0 1 .62-1.74.42.42 0 0 0-.31.06 2.07 2.07 0 0 0-.65.53v-.42a4.67 4.67 0 0 1 .5-2.38 3.48 3.48 0 0 1 1.07-1.28 1.78 1.78 0 0 1 .28-.16l.19-.08a3.67 3.67 0 0 1 1.58-.59.34.34 0 0 0-.22-.36 2.67 2.67 0 0 0-2.68 1 4.56 4.56 0 0 0-.43.52h-.11a.49.49 0 0 1-.49-.41 5 5 0 0 1 .42-2.24 6.07 6.07 0 0 1 .51-1 4.24 4.24 0 0 1 1.94-1.68h.07a1.76 1.76 0 0 0 .31.42 1.4 1.4 0 0 0 .3.23 1.73 1.73 0 0 0 .93.2v.12a5.91 5.91 0 0 0-.26 2.4 4.49 4.49 0 0 0 .08.49.4.4 0 0 0 .27.32h.09a.33.33 0 0 0 .35-.16 1.41 1.41 0 0 0 .1-.94 4.44 4.44 0 0 1-.06-.71 6.23 6.23 0 0 1 .4-1.73c.34-.1.67-.23 1-.36l.7-.27a.43.43 0 0 0 .24-.21 3.67 3.67 0 0 0 1.69 1.46c.36.15.59-.47.3-.66l-.12-.08a4.45 4.45 0 0 1-1.7-1.75 1.5 1.5 0 0 1-.26-.55 1.94 1.94 0 0 1 .1-1.11.37.37 0 0 0-.32.24 2.44 2.44 0 0 0-.05 1.8h-.08a11.1 11.1 0 0 0-1.07.37l-.32.11-.26.08a.35.35 0 0 0-.24.05 1.29 1.29 0 0 1-1.34-.41l-.06-.09c-.56-.82 0-2 .63-2.63 1-1 3-1.74 4.32-1a2.1 2.1 0 0 1 .37.26 2.24 2.24 0 0 1 .56.75.31.31 0 0 0 .25.19.36.36 0 0 0 0 .33 3.75 3.75 0 0 0 2.53 1.91 1.72 1.72 0 0 0 1.83-2.16.32.32 0 0 0-.4-.26 2.3 2.3 0 0 1-.37 1 1.14 1.14 0 0 1-.29.27 1.27 1.27 0 0 1-.92.11 2.55 2.55 0 0 1-1.74-1.33.3.3 0 0 0-.22-.17.45.45 0 0 0 .06-.16.37.37 0 0 0 0-.21 2.81 2.81 0 0 0-.63-.91l-.16-.15a.33.33 0 0 0 .1-.17l.06-.21a2.93 2.93 0 0 1 1.79-2.08 19.88 19.88 0 0 1 2.75-.76c.91-.25 2-.89 3.05-1.12a1.93 1.93 0 0 1 2.52.62 2.48 2.48 0 0 1 .28.41.45.45 0 0 0 .17-.5 2.07 2.07 0 0 0-.85-1.13.31.31 0 0 0-.2-.51.32.32 0 0 0-.31.31c-1.38-.32-3.31.8-4.61 1.13-.56.14-1.16.27-1.74.44-1.73.5-3.33 1.27-3.5 3.26a4 4 0 0 0-2.79-.16 7.76 7.76 0 0 0 .24-.9.31.31 0 0 0-.18-.4.33.33 0 0 0-.38.24 6.47 6.47 0 0 1-.22.76.37.37 0 0 0 .06.47 5.49 5.49 0 0 0-2.18 1.39 3.62 3.62 0 0 0-.93 2.39 3 3 0 0 0 .06.61 1.38 1.38 0 0 0-.27 0 1.92 1.92 0 0 0-.86.39l-.12.1a10 10 0 0 1 .26-2.13c.08-.36.17-.71.27-1.06a4 4 0 0 1 1.75-2.64l.24-.1a.67.67 0 0 0 .16.32.3.3 0 0 0 .26.1v-.24a2.57 2.57 0 0 1 .25-1.26 6.3 6.3 0 0 1 1.69-2.48 28 28 0 0 1 3.58-2.56l.06.1a.23.23 0 0 0 .16.11 1 1 0 0 1 0-.5 2.45 2.45 0 0 1 .66-1.18c.65-1 2.31-1.56 3.31-1.93a16.53 16.53 0 0 1 4.89-1.16l-.17.22a.29.29 0 0 0-.05.21.31.31 0 0 0 .15.22c.26-.2.51-.41.76-.62a4.39 4.39 0 0 1 2-1.1 16.37 16.37 0 0 1 9.53-.81c-.14.18-.15.47.11.51a20.69 20.69 0 0 0 4.42-.11 8.58 8.58 0 0 1 5 .95 5 5 0 0 0 1.58.67c.79.15 1.6.11 2.39.27a5 5 0 0 1 2.76 1.82l.2.23a2.2 2.2 0 0 0-.45.07h-.16a.46.46 0 0 0-.26.37 6.66 6.66 0 0 0-1-.52 6.42 6.42 0 0 0-.93-.32 5.28 5.28 0 0 0-1.55-.19.31.31 0 0 0-.18.07l-.07.09v-.09a1.65 1.65 0 0 0-.45-.93 4.57 4.57 0 0 0-2.88-.83 16.72 16.72 0 0 1-2.45-.57 4.92 4.92 0 0 0-.62-.1 2.93 2.93 0 0 0-2.26.82v-.05a1.44 1.44 0 0 0-.54-.56 3.74 3.74 0 0 0-1.67-.41h-.61a14.36 14.36 0 0 0-3.77.59 4.46 4.46 0 0 0-1.25.48 1.25 1.25 0 0 0-.74-.89 4 4 0 0 0-2.94.2l-.47.24a6.06 6.06 0 0 0-1.62 1.31c-4.78 2.17-11 2.92-14 7.4-.16.24-.32.48-.46.75s.29.75.52.34c2.69-4.9 8.6-5 13.28-7.16a2 2 0 0 0 0 .36.37.37 0 0 0 .29.4 4.4 4.4 0 0 1 .36-.88 2.4 2.4 0 0 1 1.17-1.13 5.39 5.39 0 0 1 .46-.31c.2-.12.4-.24.58-.33a3.76 3.76 0 0 1 1.68-.42 2.39 2.39 0 0 1 1.41.74h.13a.3.3 0 0 0-.19.16c-.09.19-.14.39-.23.59a1.36 1.36 0 0 0-1.25-.94h-.17a1.21 1.21 0 0 1 .53.5 2.23 2.23 0 0 1 .23.66v.31a1.37 1.37 0 0 1-1.16 1.95 5.2 5.2 0 0 1-.73-.05c-1.25-.17-2.53-.64-3.49.47a.53.53 0 0 0 0 .56 2.79 2.79 0 0 1 2.06-.3c.24 0 .49 0 .73.07s.69.1 1 .13a7.76 7.76 0 0 0-1 2.61 5.43 5.43 0 0 0-.1.58 2.51 2.51 0 0 0 .39 2.07 9.76 9.76 0 0 0-1.82 3 10.79 10.79 0 0 0-.4 1.22.47.47 0 0 0-.26-.07 5.73 5.73 0 0 0-.88.08l-.63.13a.26.26 0 0 0 0-.08 26.35 26.35 0 0 1-1.79-2.87 2.78 2.78 0 0 1-.56-.93 3.43 3.43 0 0 1-.19-1.64.39.39 0 0 0-.1.16 4 4 0 0 0-.15 1.61 5.3 5.3 0 0 0-1.58-.68 7.47 7.47 0 0 1 1.59 1.61 2.27 2.27 0 0 1 .21.45.22.22 0 0 0 .13.05 7 7 0 0 0 1.66 2.48l.07.07h-.07a10.89 10.89 0 0 0-2 .92 6 6 0 0 0-2.88 3.27 2.91 2.91 0 0 0-.08.52 3.29 3.29 0 0 1-1.43-.36 6.47 6.47 0 0 1-1.23-1.15.38.38 0 0 0-.64.27.37.37 0 0 0 0 .22 3.24 3.24 0 0 0 .82 1 2.93 2.93 0 0 0-.76.74 3.55 3.55 0 0 0-.64 2.28 5.34 5.34 0 0 0-.29.46h-1a2.3 2.3 0 0 1-1.86-.34l-.12-.1a1.48 1.48 0 0 1-.37-.47.54.54 0 0 0-.15.41 1.79 1.79 0 0 0 .07.35c.36 1.15 1.85 1.15 3 1.14a4.46 4.46 0 0 0-.26 1.43.24.24 0 0 0-.2 0 1.69 1.69 0 0 0-.33.07c-1.34.43-1.71 2.3-1.57 3.81a.32.32 0 0 1 0 .34 4.31 4.31 0 0 0 .3 1.13.3.3 0 0 0 .42.18 4.73 4.73 0 0 1-.08-2.27 2.27 2.27 0 0 1 .25-.79 2.74 2.74 0 0 1 .65-1.42 2.9 2.9 0 0 1 .44-.41.41.41 0 0 0 .12-.16 2.08 2.08 0 0 0 1 1.56 3.08 3.08 0 0 0 1.19.39.35.35 0 0 0 .25-.07 4 4 0 0 1-1.51-1.59 1.79 1.79 0 0 1-.26-1 3.53 3.53 0 0 1 .51-1.71 2.73 2.73 0 0 0 .56.88.3.3 0 0 0 .35.09c-.36-.89-.77-2.57-.16-3.25a1.85 1.85 0 0 1 1-1.1.42.42 0 0 0 .14-.1 3.57 3.57 0 0 0 .53.21 3.11 3.11 0 0 0 1.3.14 3.43 3.43 0 0 0 .72 1.33l.09.11a.26.26 0 0 0 .4 0 3.76 3.76 0 0 1-.59-2 1.35 1.35 0 0 1 0-.32c.15-1.88 2.8-3.36 5-3.85a6.54 6.54 0 0 1 1.37-.17h.16c-.09.51-.16 1-.21 1.54v.14a9.58 9.58 0 0 0 .11 2.91 4.44 4.44 0 0 0 .19.63c.15.38.69.13.69-.21 0-1-.17-2.06-.12-3.1a13.14 13.14 0 0 1 .62-3.37 7.72 7.72 0 0 1 3.17-4.34 3.51 3.51 0 0 1 1.56-1 .34.34 0 0 0-.43-.39 5.89 5.89 0 0 0-1.81.78 6.38 6.38 0 0 0-.68.5l-.05-.08a1.58 1.58 0 0 1-.28-.65 3.92 3.92 0 0 1 .14-1.55 6.51 6.51 0 0 1 .83-1.92 6 6 0 0 1 .38-.52 1.86 1.86 0 0 0 1.57-1.64 3 3 0 0 1 2-.61.35.35 0 0 0 0-.69 3.08 3.08 0 0 0-.65 0 3.41 3.41 0 0 0-1 .25l-.28.14a2.12 2.12 0 0 0 .17-.33 3 3 0 0 0 .25-.73 1.07 1.07 0 0 0 0-.14.56.56 0 0 0 .41-.34 2 2 0 0 1 .32-.14 2.94 2.94 0 0 1 1.07-.3 8.54 8.54 0 0 0 1.37-.24 13.89 13.89 0 0 1 1.56-.12 3.1 3.1 0 0 1 2.17.47.58.58 0 0 1 .1.6 1.78 1.78 0 0 1-.2.43 4.3 4.3 0 0 1-.8 1.33l-.07.07a.44.44 0 0 0 .26.34 16.36 16.36 0 0 0 1.53-1.62 2.64 2.64 0 0 0 .18-.54v-.15a2.56 2.56 0 0 1 2.4-.88c.78.12 1.48.51 2.26.61.63.08 1.26.08 1.89.2h.16a1.43 1.43 0 0 1 1.16 1.34c.08.43.64.29.69-.08a.26.26 0 0 0 .2.09 6.56 6.56 0 0 1 4 1.71.43.43 0 0 1 .22.11 2.72 2.72 0 0 1 1 1.9.31.31 0 0 1 0 .11.31.31 0 0 0 .36-.33 3.31 3.31 0 0 0-.83-2l-.1-.12a5.39 5.39 0 0 0-.38-.38l-.25-.21h.32a3.33 3.33 0 0 1 3.14 2.18v.07a.33.33 0 0 0 .19.14 4.76 4.76 0 0 1 2.5 1.23 9.42 9.42 0 0 1 1.66 2c.15.24.3.48.43.72l.18.34a.42.42 0 0 0 0 .26 8 8 0 0 1 .26 1.39v.31h-.04a.34.34 0 0 0-.18.06 8.52 8.52 0 0 0-1.66-3.2c-.14-.16-.28-.31-.42-.46a3.39 3.39 0 0 0-1.83-.93 3.64 3.64 0 0 0-1.64 0 .39.39 0 0 0-.26.33 2.33 2.33 0 0 0-.33-.32 3.84 3.84 0 0 0-3-.33c-.27.05-.56.11-.84.18a.39.39 0 0 0 0-.24 4.27 4.27 0 0 0-1.86-3 4.75 4.75 0 0 0-3.91-.05 1.72 1.72 0 0 0-.68-1.61.27.27 0 0 0-.4 0 2.11 2.11 0 0 1 .34 1.3 1 1 0 0 1 0 .65 2.7 2.7 0 0 1-1.34 1.09 23.5 23.5 0 0 1-2.73 1.26 2.11 2.11 0 0 0-.51-.58c-.37-.29-.77.31-.61.63a10.83 10.83 0 0 1 .86 1.86 9 9 0 0 1 .32 2.68 3.59 3.59 0 0 1-1.34 3.1.44.44 0 0 0-.33.17 2.77 2.77 0 0 1-1 .18.42.42 0 0 0-.06.84h.07a3 3 0 0 0 1-.08c.14.54.34 1.07.49 1.6l.1.34.07.24c.11.36.23.73.35 1.08v.12a.38.38 0 0 0-.15.09l-.07.08a8.21 8.21 0 0 1-4.78 3 6.58 6.58 0 0 1-2.86.08 3.17 3.17 0 0 1-.53-.16 10.37 10.37 0 0 1-1.73-1c-.45-.28-.76.31-.65.66v.11a2.51 2.51 0 0 0 1 1.26c-.21.2-.43.4-.67.58-1.17.93-2.69 1.63-3.93.62a3.05 3.05 0 0 1-1-1.53 5.7 5.7 0 0 1-.5-1.7 10.12 10.12 0 0 1-.13-1.75.4.4 0 0 0-.43.28 4.25 4.25 0 0 0-.06 1.71 11.76 11.76 0 0 0 .28 1.33 5 5 0 0 0 1.48 2.67 2.79 2.79 0 0 0 .66.39l-.27.28a12 12 0 0 1-1.2 1.06.31.31 0 0 0-.29 0 4.28 4.28 0 0 1-3.09-.26h-.09a3.83 3.83 0 0 1-1.24-.72 6.85 6.85 0 0 1-1.31-1.55.38.38 0 0 0-.17.47 5 5 0 0 0 .85 1.29 5.42 5.42 0 0 0 3.58 1.81h.27l-.23.12a8.17 8.17 0 0 1-1.38.55h-.2c-.57.12-1.15.09-1.73.21a.44.44 0 0 0-.06.82 3.54 3.54 0 0 0 2.55-.17 20.46 20.46 0 0 0-2.09 3.16 9.64 9.64 0 0 0-.5 1.3zm31.24-26.52a4.83 4.83 0 0 0-1.67.86 3.77 3.77 0 0 0-2.15-1 7.71 7.71 0 0 0-5 1.46h-.06a2.77 2.77 0 0 0-.36.39c0-.19-.07-.38-.11-.57a9.9 9.9 0 0 0-.32-1.16c1-.73 2.41-1 3.4-1.86a3.82 3.82 0 0 0 .79-.93v-.08a.27.27 0 0 0 .36.14 4 4 0 0 1 3.16 0 3.5 3.5 0 0 1 1.7 2.27l.06.22a.38.38 0 0 0 .2.25zm-3.72 24.92h.28a1.51 1.51 0 0 1 .23.19 4 4 0 0 1 .58.72 3.11 3.11 0 0 1 .57 2 .36.36 0 0 0 0 .21v.07l-.09.05a10.92 10.92 0 0 1-2.53 1.07 12.28 12.28 0 0 1-8.34-.6c-.41-.19-.72.57-.36.79l.2.11a10.31 10.31 0 0 0 1.81.78h.06a5.33 5.33 0 0 1-2.88 2 3.78 3.78 0 0 1-1.27 0c-.8-.1-1.59-.38-2.38-.51h-.07c-.33 0-.57.51-.24.69l.37.19h.09-.16a15.88 15.88 0 0 1-3.86.06 4.54 4.54 0 0 1-2.48-1.06 2.94 2.94 0 0 1-1.32-1.13l-.16-.2a.55.55 0 0 0-.13.57 3.81 3.81 0 0 0 .19.4l.15.26h-.49a6.06 6.06 0 0 1-2.49-.06 3.17 3.17 0 0 1-.92-.55 3.26 3.26 0 0 1-1.05-1.75c-.68-3 2.12-5.33 3.27-7.8l.15-.09a14.79 14.79 0 0 0 3.34-3c1.58.06 3.21-1.26 4.2-2.41a7.73 7.73 0 0 0 4 .1 8.86 8.86 0 0 0 3.24-1.43 6.41 6.41 0 0 0 2-2.36 4.72 4.72 0 0 0 1.05 1.52 3 3 0 0 0 2.72.77 3.55 3.55 0 0 0 1.89-1.05h.06c1.16-.46 2 .61 2.92 1 .35.14.61-.38.48-.63a2.32 2.32 0 0 0-.75-.79 3.63 3.63 0 0 0-1.89-.66h-.06v-.06a5.68 5.68 0 0 0 .49-1.73 11.18 11.18 0 0 0 0-2.43 3.71 3.71 0 0 1 2.31 0 1.87 1.87 0 0 1 .77.45 2.38 2.38 0 0 1 .45.64 11.83 11.83 0 0 0-1.21 0c-.42 0-.5.71-.05.73l.67.06a6.19 6.19 0 0 1 1.38.29 1.89 1.89 0 0 1 1.19 1.51c0 .1 0 .2.07.3a.4.4 0 0 0 .78-.13 2.68 2.68 0 0 0-1.26-2.3 2.6 2.6 0 0 0-.55-.25c-.25-2-2.82-2.64-4.63-2.09a16.77 16.77 0 0 1-.18-2.63.47.47 0 0 0 0-.2 13.48 13.48 0 0 0-.58 2.54c.09.8.19 1.64.2 2.45 0 1.93-.43 3.64-2.66 3.92-2.47.3-2.82-2.35-3.43-4.41a6.41 6.41 0 0 0-.55-1.39 4.92 4.92 0 0 0 1.51-3.09 6.92 6.92 0 0 0 .07-.76v-.55a.36.36 0 0 0 .12-.12 3.28 3.28 0 0 1 .65-1 4.45 4.45 0 0 1 1.54-.81 6.36 6.36 0 0 1 3.16-.28l.25.06c1.42.37 2 1.59 2.36 2.86.06.2.11.39.17.59s.18.68.28 1a.29.29 0 0 0 .22.22 8.9 8.9 0 0 0 .11-1.4v-1a6.55 6.55 0 0 0-.91-1.83 5.12 5.12 0 0 1 2-.77l.34-.08c.82-.19 2.16-.44 2.84.2a2.82 2.82 0 0 1 .62 2v.47a15.41 15.41 0 0 1-.32 2.41c.27-.47.55-.94.81-1.42.12-.23.24-.47.34-.71a5.11 5.11 0 0 0-.44-2.88 5.37 5.37 0 0 0 1 .13 3.45 3.45 0 0 1 1.6.59 4.09 4.09 0 0 1 1 1 10.31 10.31 0 0 1 1.15 2.53 4.12 4.12 0 0 1 .08 2.19 5 5 0 0 1-.51 1.36 3.84 3.84 0 0 1-1.65 1.59 8.94 8.94 0 0 1-1.45.58c-.44.14-.5.94 0 .94a4.67 4.67 0 0 0 3.56-2.28c.1-.14.19-.29.27-.44a5.84 5.84 0 0 0 .68-3.5c.35.25.81.42 1.17.64a8.28 8.28 0 0 1 1.5 1.17 4.35 4.35 0 0 1 1 1.62 6.82 6.82 0 0 1 .37 2.14c0 .62.75.53.84 0v-.2c1.69 2.76 1.48 6.26.55 9.25a10.57 10.57 0 0 1-2.27 4.16l-.25.26a4.51 4.51 0 0 1-1.88 1.09 7.43 7.43 0 0 1-2.32 0 3.06 3.06 0 0 0 .2-.32c.13-.25 0-.71-.37-.59h-.07a16.7 16.7 0 0 0-2.29 1.46 6.47 6.47 0 0 1-2.71.78H76.4a.46.46 0 0 1-.19 0 8.68 8.68 0 0 1-1.13-.08h-.15a3.49 3.49 0 0 1-.89-.28l-.1.09a9.34 9.34 0 0 1-1.25 1.05 3.82 3.82 0 0 0-.84-2.6v-.07l-.2-.26.29-.07a7 7 0 0 0 1.45-.59c.3-.52.7-1 1-1.48a.29.29 0 0 0-.28 0 9.9 9.9 0 0 1-4.35 1.19 9.63 9.63 0 0 1-1.53-.2 19.72 19.72 0 0 0-3.1 0 .31.31 0 0 0 .12.17 2.8 2.8 0 0 0 .36.22 8.87 8.87 0 0 0 1.92.59l.28.07h.15l-.16.13a6.79 6.79 0 0 1-2.73 1.54 7.44 7.44 0 0 1-3.43 0c-.29-.06-.57-.14-.85-.22a.38.38 0 0 0-.23.72c2.29.82 5.51.79 7.43-.85a4.35 4.35 0 0 0 .94-1.13M112.64 8.57a1.77 1.77 0 0 1 .09-.66.75.75 0 0 1 .39-.41 2 2 0 0 1 .86-.14h1.79a1.93 1.93 0 0 1 .86.15.75.75 0 0 1 .39.43 1.93 1.93 0 0 1 .09.68v.88h-4.47v-.93zm7.41 0a4.1 4.1 0 0 0-.48-2 3 3 0 0 0-1.37-1.24 5.17 5.17 0 0 0-2.17-.42h-2.31a5.74 5.74 0 0 0-2.17.36 2.77 2.77 0 0 0-1.37 1.13 3.82 3.82 0 0 0-.48 2v5a3.84 3.84 0 0 0 .48 2 2.8 2.8 0 0 0 1.37 1.13 5.72 5.72 0 0 0 2.17.36h2.14a7.59 7.59 0 0 0 2.2-.27 2.78 2.78 0 0 0 1.45-1 3 3 0 0 0 .53-1.86v-.48l-2.93-.55v.55a.9.9 0 0 1-.33.8 1.87 1.87 0 0 1-1.08.23h-1.72a1.46 1.46 0 0 1-1-.3 1.23 1.23 0 0 1-.3-.93v-1.15h7.41v-3.3zm-16.87 8.21h3.08V1.72h-3.08v4.16h-.07a2.3 2.3 0 0 0-.62-.52 3.42 3.42 0 0 0-.94-.37 5.51 5.51 0 0 0-1.28-.14h-1.43a4.06 4.06 0 0 0-1.86.39 2.62 2.62 0 0 0-1.17 1.18 4.55 4.55 0 0 0-.41 2v4.76a3.72 3.72 0 0 0 .89 2.72 3.44 3.44 0 0 0 2.54.87h1.43a5.47 5.47 0 0 0 1.28-.14 3.49 3.49 0 0 0 .94-.37 2.25 2.25 0 0 0 .62-.51h.07v1zm-2.09-9.1a2.8 2.8 0 0 1 1 .19 1.7 1.7 0 0 1 .76.59 1.77 1.77 0 0 1 .3 1v2.6a1.77 1.77 0 0 1-.3 1 1.67 1.67 0 0 1-.76.59 2.75 2.75 0 0 1-1 .19h-1.06a1.48 1.48 0 0 1-1.16-.4 1.81 1.81 0 0 1-.36-1.26V9.27a1.81 1.81 0 0 1 .36-1.26 1.47 1.47 0 0 1 1.16-.4h1.06zm-14.33 6.21a1.5 1.5 0 0 1-1-.29 1.15 1.15 0 0 1-.3-.9V8.88a1.14 1.14 0 0 1 .3-.9 1.47 1.47 0 0 1 1-.29h1.85a1.48 1.48 0 0 1 1 .29 1.13 1.13 0 0 1 .3.9v3.81a1.17 1.17 0 0 1-.3.92 1.49 1.49 0 0 1-1 .29h-1.85zm2.27 2.89a5.72 5.72 0 0 0 2.17-.36 2.79 2.79 0 0 0 1.37-1.13 3.78 3.78 0 0 0 .48-2v-5a3.76 3.76 0 0 0-.48-2 2.76 2.76 0 0 0-1.37-1.13 5.74 5.74 0 0 0-2.17-.36h-2.69a5.74 5.74 0 0 0-2.17.36 2.74 2.74 0 0 0-1.37 1.13 3.78 3.78 0 0 0-.48 2v5a3.79 3.79 0 0 0 .48 2 2.77 2.77 0 0 0 1.37 1.13 5.71 5.71 0 0 0 2.17.36h2.69zM79.72 12l-3.09-.88v1.59a1.15 1.15 0 0 1-.3.9 1.49 1.49 0 0 1-1 .29h-2.4a1.49 1.49 0 0 1-1-.29 1.15 1.15 0 0 1-.3-.9v-7a1.14 1.14 0 0 1 .3-.9 1.48 1.48 0 0 1 1-.29h2.4a1.47 1.47 0 0 1 1 .29 1.13 1.13 0 0 1 .3.9V7.1l3.09-.79V5.16a3.79 3.79 0 0 0-.48-2 2.78 2.78 0 0 0-1.37-1.13 5.69 5.69 0 0 0-2.17-.36h-3.2a5.68 5.68 0 0 0-2.17.36 2.78 2.78 0 0 0-1.37 1.13 3.8 3.8 0 0 0-.48 2v8.11a3.79 3.79 0 0 0 .48 2 2.79 2.79 0 0 0 1.37 1.13 5.71 5.71 0 0 0 2.17.38h3.24a5.72 5.72 0 0 0 2.17-.36 2.79 2.79 0 0 0 1.37-1.13 3.79 3.79 0 0 0 .48-2v-1.3zm-14.61 4.78V8.43a4.48 4.48 0 0 0-.41-2 2.6 2.6 0 0 0-1.17-1.18 4 4 0 0 0-1.86-.39H60.3a5.51 5.51 0 0 0-1.28.14 3.36 3.36 0 0 0-.94.37 2.24 2.24 0 0 0-.62.52h-.06v-1h-3.08v11.89h3.08V9.49a1.75 1.75 0 0 1 .29-1 1.7 1.7 0 0 1 .76-.59 2.79 2.79 0 0 1 1-.19h1a1.49 1.49 0 0 1 1.16.39 1.76 1.76 0 0 1 .36 1.24v7.44h3.11zM48.37 2.83V-.01h-3.19v2.84h3.19zm-7.55 13.95h11.33v-2.89h-3.77V4.83h-7.12v2.84h4v6.21h-4.45v2.9zm-8.23-5.11a5 5 0 0 1 .67 0 2.76 2.76 0 0 1 .63.16 1.16 1.16 0 0 1 .46.32.76.76 0 0 1 .18.51v.49a.76.76 0 0 1-.17.5 1.2 1.2 0 0 1-.45.32 2.49 2.49 0 0 1-.63.17 4.26 4.26 0 0 1-.69.05h-1.3a1.53 1.53 0 0 1-1-.24 1 1 0 0 1-.32-.84v-.33a1 1 0 0 1 .32-.83 1.51 1.51 0 0 1 1-.25h1.3zm4.91 5.11V8.61a4.08 4.08 0 0 0-.5-2.07 3.14 3.14 0 0 0-1.41-1.26 5.14 5.14 0 0 0-2.19-.43h-2a5.73 5.73 0 0 0-2.09.35 2.79 2.79 0 0 0-1.3 1 2.56 2.56 0 0 0-.45 1.49v.27l2.93.7v-.29a1.17 1.17 0 0 1 .1-.53.66.66 0 0 1 .35-.32 1.8 1.8 0 0 1 .69-.11h1.48a1.5 1.5 0 0 1 1.09.32 1.37 1.37 0 0 1 .33 1v1.37h-.03a2.81 2.81 0 0 0-1.15-.59 6.86 6.86 0 0 0-1.85-.22h-1a4.65 4.65 0 0 0-1.85.33 2.48 2.48 0 0 0-1.19 1.07 3.82 3.82 0 0 0-.42 1.91v.93a3.89 3.89 0 0 0 .42 1.92 2.43 2.43 0 0 0 1.18 1.06 4.68 4.68 0 0 0 1.86.27h1.1a5.59 5.59 0 0 0 1.75-.24 2.8 2.8 0 0 0 1.07-.62h.08v.86h3zM24.91 9.35v-.92a4.49 4.49 0 0 0-.41-2 2.6 2.6 0 0 0-1.17-1.18 4 4 0 0 0-1.86-.39H20.2a5.5 5.5 0 0 0-1.28.14 3.36 3.36 0 0 0-.94.37 2.26 2.26 0 0 0-.62.52h-.06v-1h-3.1v11.89h3.08V9.49a1.77 1.77 0 0 1 .29-1 1.72 1.72 0 0 1 .77-.59 2.86 2.86 0 0 1 1.06-.19h.95a1.93 1.93 0 0 1 .85.14.86.86 0 0 1 .44.49 2.56 2.56 0 0 1 .12.91v.92zM3.13 13.89v-3.37H6.5a1.46 1.46 0 0 1 1 .29 1.16 1.16 0 0 1 .3.9v1a1.52 1.52 0 0 1-.12.67.79.79 0 0 1-.42.39 1.93 1.93 0 0 1-.78.13H3.09zm0-6.17V4.55H6.5a1.89 1.89 0 0 1 .78.13.79.79 0 0 1 .42.39 1.53 1.53 0 0 1 .12.67v.75a1.22 1.22 0 0 1-.3.92 1.39 1.39 0 0 1-1 .31H3.13zM0 16.78h6.9a5.72 5.72 0 0 0 2.17-.36 2.79 2.79 0 0 0 1.37-1.13 3.79 3.79 0 0 0 .48-2V11.7a3.19 3.19 0 0 0-.18-1.08 2.44 2.44 0 0 0-.58-.92 2.37 2.37 0 0 0-1-.59 2.36 2.36 0 0 0 1.63-1.52 3.18 3.18 0 0 0 .18-1.08V5.19a3.79 3.79 0 0 0-.48-2 2.79 2.79 0 0 0-1.37-1.13 5.69 5.69 0 0 0-2.17-.36H.05v15.08z"/><path class="cls-8" d="M82.41 30.14h38.75v1H82.41v-1zm-81.36 0h38.83v1H1.05v-1z"/><path class="cls-6" d="M82.79 38.3H39.43V23h43.36v15.3zm-42.54-.81h41.73V23.78H40.24v13.7z"/><text class="cls-9" transform="translate(46.4 35.18)">2016</text></svg>