<?xml version="1.0" encoding="utf-8"?>
<svg version="1.1" id="Layer_1" xmlns="http://www.w3.org/2000/svg" xmlns:xlink="http://www.w3.org/1999/xlink" x="0px" y="0px"
	 viewBox="0 0 121.2 94.4" style="enable-background:new 0 0 121.2 94.4;" xml:space="preserve">
<style type="text/css">
	.st0{fill:#EAA4AF;}
	.st1{fill:#EAC2BF;}
	.st2{fill:#EBA2AA;}
	.st3{fill:#E77A87;}
	.st4{fill:#F3D4D1;}
	.st5{fill:#1A3964;}
	.st6{fill:#412867;}
	.st7{enable-background:new    ;}
</style>
<title>logoBC</title>
<path class="st0" d="M53.4,54c0.6,0,1.1,0.4,1.2,0.9c0.1-0.2,0.1-0.4,0.2-0.6c0-0.1,0.1-0.1,0.2-0.2h-0.1c-0.4-0.4-0.9-0.7-1.4-0.7
	c-0.6,0-1.2,0.2-1.7,0.4c-0.2,0.1-0.4,0.2-0.6,0.3c0.3-0.2,0.7-0.3,1.1-0.3C52.7,53.8,53,53.8,53.4,54z M73.4,59.8
	c-0.4-0.9-1.2-1.5-2.2-1.7c-0.9-0.1-1.8,0.3-2.6-0.1c-0.4,0.4-0.8,0.8-1.2,1.3v0.5c0.1,0,0.1,0.1,0.2,0.1c0.1,0.1,0.2,0.2,0.2,0.4
	l0.1,0.1l0.1,0.1c0.7-0.2,1.4-0.2,2.1-0.2c0.8,0.1,1.6,0.4,2.2,1c0.5-0.4,1.1-0.7,1.7-0.9c-0.1-0.1-0.1-0.1-0.1-0.2l-0.1-0.2
	C73.7,60,73.5,59.9,73.4,59.8C73.4,59.8,73.4,59.8,73.4,59.8z M47.9,92.1h0.5l-0.2-0.3C48.2,91.9,48.1,92,47.9,92.1z M47,68.2
	L47,68.2C46.9,68.2,46.9,68.2,47,68.2L47,68.2z M59,64c0-0.1-0.1-0.2-0.2-0.3c0,0.1,0,0.2-0.1,0.3L59,64L59,64z M65.1,61.6
	L65.1,61.6L65.1,61.6z M56.2,93.1L56.2,93.1l-0.2,0.1L56.2,93.1z M38.4,64.9c0,0.1-0.1,0.1-0.1,0.2l0.2,0.2c0-0.2,0-0.3,0-0.5
	L38.4,64.9z"/>
<path class="st1" d="M34.2,83.9c0,1.2,0.6,2.2,1.6,2.9c0.6,0.1,1.1,0.2,1.7,0.3c1,0.1,1.9-0.1,2.8-0.4c0.6-0.2,1.7-0.5,1.9-1.2
	c0.2-0.8,0-1.7,0.3-2.6c0-0.2,0.2-0.4,0.3-0.5c-0.2-0.1-0.3-0.4-0.2-0.6c0.1-0.1,0.2-0.2,0.3-0.2c0.6-0.1,1.2-0.1,1.7-0.2
	c-0.7-0.7-1.4-1.4-2-2.2c-0.1-0.1-0.1-0.2-0.1-0.3c0,0,0,0,0.1-0.1c-0.3-0.4-0.6-0.8-0.8-1.3c-0.1-0.2,0-0.4,0.2-0.5
	c0.4,0.6,0.8,1.1,1.3,1.6c0.1-0.1,0.1-0.1,0.2-0.1c1,0.1,1.8,0.3,2.8,0.4c0.5,0,1,0,1.6-0.1c0.2,0,0.3-0.1,0.5-0.2
	c-0.1,0-0.1-0.1-0.1-0.2l-0.2-0.4c-0.4-0.6-0.7-1.2-0.8-1.9c-0.2-0.7-0.3-1.4-0.3-2.1c0-0.1,0-0.1,0.1-0.2c-0.1-0.6-0.1-1.1,0.1-1.7
	c0.1-0.2,0.2-0.3,0.4-0.3c0,0.6,0,1.2,0,1.8c0.1,0,0.1,0.1,0.1,0.1c0.2,0.5,0.5,1,0.8,1.4c0.3,0.4,0.7,0.7,1.2,0.9
	c0.4,0.2,0.9,0.3,1.4,0.2c0.5-0.1,0.9-0.4,1.4-0.5h0.1c0-0.1-0.1-0.2-0.1-0.3c-0.1-0.2-0.1-0.5,0-0.7c0.1-0.1,0.1-0.3,0.2-0.4v-0.1
	c-0.1-0.3,0.2-0.9,0.7-0.7c0.5,0.4,1.1,0.7,1.7,1c0-0.2,0.1-0.3,0.3-0.3c0.7,0.1,1.3,0.2,2,0.2c0.8-0.1,1.5-0.4,2.2-0.8
	c1.2-0.7,2.3-1.7,2.9-2.9c0.1-0.2,0.3-0.4,0.5-0.4l-0.1-0.2c-0.1,0.1-0.2,0.1-0.3,0c-0.3-0.3-0.5-0.6-0.6-1
	c-0.1-0.2-0.2-0.3-0.3-0.4l-0.1-0.1c-0.1-0.1,0.1,0,0,0c-0.1,0-0.2-0.2-0.2-0.3h-0.1c-0.2,0-0.4-0.2-0.4-0.4c0-0.2,0.2-0.4,0.4-0.4
	c0.3,0,0.7-0.1,1-0.2c0.1-0.1,0.2-0.2,0.3-0.2c0.9-0.7,1.4-1.9,1.3-3.1c0-0.9-0.1-1.8-0.3-2.7c-0.2-0.6-0.5-1.3-0.9-1.9
	c-0.2-0.3,0.2-0.9,0.6-0.6c0.2,0.2,0.4,0.4,0.5,0.6c0.9-0.4,1.8-0.8,2.7-1.3c0.6-0.2,1-0.6,1.3-1.1c0.1-0.2,0.1-0.4,0-0.7
	c0-0.5-0.1-0.9-0.3-1.3c0.1-0.1,0.3-0.1,0.4,0c0,0,0,0,0,0c0.5,0.4,0.8,1,0.7,1.6c1.3-0.5,2.7-0.5,3.9,0c1,0.7,1.7,1.8,1.9,3
	c0,0.1,0,0.2,0,0.2c0.3-0.1,0.6-0.1,0.8-0.2c1-0.3,2.1-0.2,3,0.3c0.1,0.1,0.2,0.2,0.3,0.3c0-0.2,0.1-0.3,0.3-0.3
	c0.5-0.1,1.1-0.1,1.6,0c0.7,0.1,1.3,0.4,1.8,0.9c0.1,0.1,0.3,0.3,0.4,0.5c-0.1-0.4-0.4-0.7-0.6-1c-0.1-0.2-0.1-0.4,0.1-0.6
	c0,0,0,0,0,0c-0.7-0.7-1.6-1.1-2.5-1.2c-0.1,0-0.1-0.1-0.2-0.1c-0.1,0.2-0.3,0.2-0.5,0.2c0,0,0,0,0,0c-0.4-0.4-0.7-0.9-0.9-1.3
	l-0.1-0.1c-0.3-0.2-0.6-0.3-0.9-0.3c-0.1,0.1-0.2,0.1-0.4,0.1c0.5,0.6,0.8,1.3,0.8,2c0,0.2-0.1,0.3-0.3,0.3c0,0-0.1,0-0.1,0
	c0,0,0-0.1,0-0.1c-0.1-0.7-0.4-1.4-1-1.9c-0.1-0.1-0.1-0.1-0.2-0.1c-1.1-1-2.5-1.6-4-1.7c-0.1,0-0.1,0-0.2-0.1
	c0,0.4-0.6,0.5-0.7,0.1c0-0.7-0.5-1.2-1.2-1.3c0,0.3-0.2,0.4-0.5,0.4c0,0,0,0,0,0c-0.6-0.1-1.2,0-1.7-0.1s-1.1-0.4-1.7-0.5
	c-0.9-0.1-1.8,0-2.6,0.4c-0.1,0-0.2,0-0.2,0c0,0.2-0.1,0.4-0.2,0.5c-0.5,0.6-1,1.1-1.5,1.6c-0.1-0.1-0.2-0.2-0.3-0.3l0.1-0.1
	c-0.1,0-0.2-0.1-0.3-0.2c0-0.5,0.1-1,0.4-1.5c0.1-0.5,0-0.4-0.5-0.5c-0.1,0-0.2-0.1-0.2-0.1c-0.2,0-0.3,0-0.5,0
	c-0.6,0-1.1,0-1.7,0.1c-0.8,0.1-1.5,0.2-2.3,0.4v0.4c0,0,0,0,0,0.1c0.1,0.1,0.1,0.2,0.1,0.3c0,0.1,0,0.1,0,0.2c0.2,0,0.4,0,0.7,0
	c0.2,0,0.3,0.2,0.3,0.4c0,0.1-0.1,0.3-0.3,0.3c-0.7,0-1.4,0.2-2,0.6c-0.1,0.8-0.7,1.5-1.6,1.6c-0.1,0.2-0.3,0.3-0.4,0.5
	c0.2,0,0.4,0.2,0.3,0.4c0,0,0,0,0,0.1c-0.2,0.5-0.4,1.1-0.6,1.6c-0.1,0.3,0,0.6,0.1,0.9c0.1,0.2,0.2,0.4,0.3,0.7
	c0.6-0.4,1.2-0.6,1.8-0.8c0.2-0.1,0.4,0,0.4,0.2c0,0.1,0,0.1,0,0.2c-0.6,0.2-1.1,0.5-1.6,1c-1.5,1-2.7,2.6-3.2,4.3
	c-0.4,1.1-0.6,2.2-0.6,3.4c0,1,0.1,2.1,0.1,3.1c0,0.3-0.5,0.6-0.7,0.2c-0.1-0.2-0.1-0.4-0.2-0.6v-0.1l-0.2-0.2l-0.1-0.1
	c-0.4-0.5-0.6-1.1-0.7-1.7c-0.3-0.8-0.4-1.6-0.4-2.4c-2.2,0.5-4.8,2-5,3.8c0,0.1,0,0.2,0,0.3c0,0.7,0.2,1.4,0.6,2
	c-0.1,0.1-0.3,0.1-0.4,0c0,0,0,0,0,0L43,75.1c0,0.2-0.2,0.3-0.4,0.2c0,0,0,0,0,0c-0.3-0.2-0.5-0.4-0.7-0.7c-0.2-0.2-0.5-0.4-0.8-0.6
	C41,74,40.9,73.8,41,73.6c-0.2-0.1-0.4-0.1-0.5-0.2c0,0-0.1,0.1-0.1,0.1c-0.5,0.2-0.8,0.6-1,1.1c-0.6,0.7-0.2,2.3,0.2,3.2
	c-0.1,0.1-0.3,0-0.3-0.1c-0.2-0.3-0.4-0.6-0.6-0.9c-0.3,0.5-0.5,1.1-0.5,1.7c0,0.4,0.1,0.7,0.3,1c0.3,0.7,0.9,1.2,1.5,1.6
	c-0.1,0.1-0.2,0.1-0.2,0.1c-0.4,0-0.8-0.2-1.2-0.4c-0.1,0.1-0.2,0.1-0.2,0.1c-0.4,0-0.8-0.3-1-0.6c-0.1-0.1-0.2-0.3-0.3-0.5
	c-0.3,0.4-0.6,0.9-0.7,1.4c-0.1,0.2-0.2,0.5-0.2,0.8c-0.2,0.8-0.1,1.5,0.1,2.3c-0.1,0.1-0.3,0-0.4-0.1c0,0,0,0,0,0
	c-0.2-0.4-0.3-0.7-0.3-1.1c0.1-0.1,0.1-0.2,0-0.3c-0.1-1.5,0.2-3.4,1.6-3.8c0,0,0-0.1,0-0.1c0-0.8-1-0.7-1.3-1.1
	c-0.1-0.1-0.1-0.2-0.1-0.3l-0.1-0.1c-0.2-0.2-0.4-0.4-0.6-0.7c-0.1-0.1-0.1-0.2,0-0.3c0-0.1-0.1-0.2-0.1-0.3c0-0.2,0-0.3,0.2-0.4
	c0.1,0.2,0.2,0.3,0.4,0.5h0l0.1,0.1c0.5,0.4,1.2,0.5,1.9,0.3h1c0.1-0.2,0.2-0.3,0.3-0.5c-0.1-0.8,0.2-1.6,0.6-2.3
	c-0.2-0.1-0.3-0.3-0.3-0.5c-0.1-0.4-0.1-0.9,0-1.3c0-0.1,0.1-0.1,0.2-0.2c0-0.2,0.2-0.4,0.4-0.4c0.1,0,0.2,0,0.3,0.1
	c0.1-0.2,0.3-0.3,0.5-0.2c0,0,0.1,0,0.1,0.1c0.4,0.3,0.8,0.6,1.2,0.8c0.3,0.2,0.7,0.3,1,0.3c0.5-1.4,1.5-2.6,2.9-3.3
	C45,69.1,45,68.9,45,68.7c0,0,0,0,0,0c0.3-0.4,0.5-1,0.6-1.6c0-0.2-0.1-0.4-0.2-0.7c-0.2-0.4-0.3-0.8-0.3-1.2c0-0.1,0-0.1,0-0.2
	c-0.4-0.6-1-1.2-1.6-1.6c0.6,0.1,1.1,0.4,1.6,0.7c-0.1-0.5,0-1.1,0.2-1.6c0-0.1,0.1-0.1,0.1-0.2c-0.1,0.6,0,1.1,0.2,1.6
	c0-0.2,0-0.5,0-0.7c0-0.2,0.2-0.3,0.3-0.3s0.3,0.2,0.3,0.3c0,0.4,0.1,0.8,0.2,1.2c0,0,0.1,0.1,0.1,0.1c0.4,0.6,0.8,1.3,1.2,1.9
	c0.3,0.4,0.6,0.9,0.9,1.3c0.3,0,0.6-0.1,0.9-0.1c0.1,0,0.2,0,0.3,0.1c0.1-0.4,0.2-0.8,0.4-1.2c0.4-1.1,1-2.1,1.8-3
	c-0.4-0.6-0.6-1.4-0.4-2.1c-0.1,0-0.1-0.1-0.2-0.2c-0.2-0.6-0.2-1.2-0.1-1.8c0-0.5,0.1-0.9,0.4-1.3c-0.2,0-0.5-0.1-0.7-0.1
	c-0.7-0.2-1.4-0.1-2.1,0.3c-0.1-0.2-0.1-0.4,0-0.6c1-1.1,2.2-0.6,3.5-0.5c0-0.2,0.1-0.4,0.3-0.5c0.2-0.1,0.5-0.1,0.7-0.2
	c0.1,0,0.1-0.1,0.2-0.1h0.1c0.1-0.3,0.1-0.6,0.2-0.9c-0.1,0-0.2,0-0.2-0.1c-0.1-0.3-0.3-0.5-0.6-0.7c-0.3,0-0.6,0-0.9,0.1
	c-0.6,0.2-1.2,0.5-1.7,0.8c-0.2,0.2-0.4,0-0.5-0.2c-0.2,0.3-0.3,0.6-0.4,0.9c-0.2,0-0.3-0.2-0.3-0.4c0-0.1,0-0.2,0-0.4
	c-4.7,2.1-10.6,2.3-13.3,7.2c-0.2,0.4-0.7,0-0.5-0.3s0.3-0.5,0.5-0.8c-0.2,0-0.3-0.1-0.4-0.2c0-0.1,0-0.1,0-0.2
	c0.6-1.1,1.5-2.1,2.6-2.8c1.2-0.8,2.4-1.5,3.7-2.1c1.5-0.6,3-1.2,4.6-1.7c0.7-0.3,1.5-0.5,2.2-0.8c0.6-0.3,1.1-0.5,1.7-0.7
	c0.1,0,0.2,0,0.2,0.1c0-0.1,0.1-0.1,0.2-0.2c0.3-0.1,0.5-0.2,0.8-0.3l0.5-0.2c0.9-0.4,2-0.5,2.9-0.2c0.4-0.1,0.8-0.1,1.2-0.2
	s0.9-0.2,1.4-0.3c1.2-0.2,2.4-0.1,3.6,0.2c0.1,0,0.1,0.1,0.2,0.1c0.6,0,1.2,0.1,1.7,0.4c0.5-0.1,1.1-0.2,1.6-0.3
	c0.5-0.2,1.1-0.3,1.6-0.2c0.2,0.1,0.3,0.2,0.2,0.4c0.8,0.3,1.6,0.4,2.4,0.6c1-0.1,2,0.2,2.9,0.8c0.9-0.2,1.8-0.1,2.6,0.1h0.1
	l-0.1-0.1c-0.7-0.3-1.4-0.5-2.2-0.6c-1.5-0.2-2.9-1-4.4-1.4c-1.4-0.2-2.9-0.2-4.3-0.1c-1.1,0.1-2.1,0-3.1-0.4
	c-0.1,0.2-0.4,0.3-0.6,0.2c-1.7-0.6-3.6-0.7-5.4-0.5c-1,0.1-1.9,0.3-2.9,0.6c-0.8,0.3-1.6,0.8-2.4,1.2c-0.1,0.1-0.3,0-0.4-0.1
	c0,0,0-0.1,0-0.1c-0.2,0.2-0.5,0.4-0.8,0.6c-0.1,0-0.1-0.1-0.2-0.2c-0.7,0.2-1.4,0.4-2.2,0.5c-0.8,0.2-1.6,0.4-2.4,0.6
	c-1.5,0.4-2.8,1.3-3.7,2.5c-0.1,0.1-0.2,0.2-0.4,0.1c0,0.2,0,0.3,0,0.5c-0.1,0-0.1-0.1-0.2-0.1l-0.1-0.1c-1.3,0.8-2.5,1.6-3.6,2.6
	c0.1,0.1,0.2,0.3,0.1,0.4c-0.2,0.5-0.5,1-0.9,1.4c-0.4,0.5-0.6,1-0.7,1.6c0,0.2-0.2,0.4-0.4,0.3c0,0-0.1,0-0.1,0v0.2
	c-0.1,0-0.2,0-0.3-0.1c-0.1-0.1-0.1-0.2-0.2-0.3l-0.2,0.1c0.3,0.1,0.3,0.6,0,0.7c-0.5,0.2-0.9,0.6-1.2,1.1c-0.3,0.5-0.5,1-0.6,1.5
	c0,0.2-0.2,0.3-0.3,0.4c-0.2,0.7-0.2,1.4-0.3,2.1l0.1-0.1c-0.1-0.5,0-1,0.2-1.4c0.2-0.6,0.5-1.2,0.9-1.6c0.1-0.1,0.4-0.1,0.5,0
	c0.1-0.1,0.2-0.3,0.3-0.4c0.6-0.6,1.4-1.1,2.2-1.4c-0.1-0.1-0.2-0.3-0.1-0.5c0.1-0.2,0.2-0.5,0.2-0.8c0-0.2,0.2-0.3,0.4-0.2
	c0.2,0.1,0.2,0.2,0.2,0.4c0,0,0,0,0,0c0.5-0.1,1,0,1.4,0.2c0.6-1.1,1.6-2,2.7-2.4h0c0.2-0.1,0.4-0.2,0.6-0.2c0.3-0.1,0.7-0.1,1.1,0
	c0.1,0,0.2,0.1,0.2,0.2c0.6-0.2,1.2-0.3,1.7-0.4c1.3-0.3,3.2-1.5,4.6-1.1c0-0.2,0.1-0.3,0.3-0.3c0.2,0,0.3,0.2,0.3,0.3
	c0,0.1,0,0.1-0.1,0.2c0.4,0.3,0.7,0.7,0.8,1.1c0.1,0.2,0,0.4-0.2,0.5c-0.1-0.1-0.2-0.3-0.3-0.4c0,0.1-0.1,0.2-0.2,0.2
	c-0.1,0-0.3,0-0.4-0.1c-0.3-0.5-1.4-0.2-1.8,0s-0.8,0.4-1.3,0.6c-0.9,0.4-1.8,0.8-2.7,1c-0.7,0.2-2,0.2-2.5,0.8
	c-0.4,0.7-0.5,1.4-0.3,2.2c0,0.1,0,0.3-0.2,0.4c0,0.1,0,0.1-0.1,0.2c0.1,0,0.2,0.1,0.2,0.2c0.4,0.7,1,1.2,1.7,1.3
	c0.3,0.1,0.6,0,0.9-0.1c0.1-0.1,0.2-0.2,0.3-0.3c0.2-0.3,0.3-0.6,0.4-1c0.2,0,0.3,0.1,0.4,0.2c0,0,0,0,0,0c0.2,0.9-0.3,1.9-1.2,2.1
	c-0.2,0.1-0.4,0.1-0.6,0.1c-1.1-0.2-2-0.9-2.5-1.9c-0.1-0.1-0.1-0.2,0-0.3c-0.1,0-0.2-0.1-0.2-0.2c-0.1-0.3-0.3-0.5-0.6-0.8
	c-0.2,0-0.3-0.1-0.5-0.2c-0.1,0.1-0.2,0.1-0.3,0.1c-0.5,0-0.9-0.1-1.4-0.1c-0.5,0.1-1,0.2-1.4,0.5c-0.8,0.5-1.6,1.4-1.3,2.4
	c0.1,0.2-0.1,0.5-0.3,0.6c-0.1,0-0.1,0-0.2,0l0.1,0.1c0.3,0.4,0.9,0.5,1.3,0.4c0.1,0,0.2-0.1,0.2-0.1l0.3-0.1
	c0.1-0.1,0.2-0.1,0.3-0.1c0.4-0.1,0.7-0.3,1.1-0.4h0.1c-0.2-0.6-0.2-1.2,0-1.8c0.1-0.1,0.2-0.2,0.3-0.2c-0.1,0.4-0.2,0.7-0.1,1.1
	c0.1-0.1,0.3-0.1,0.4,0c0,0,0,0.1,0.1,0.1c0.4,0.7,0.8,1.3,1.4,1.8c0.1,0.1,0.1,0.3,0,0.4l0.1,0.1c0.3,0.2,0.1,0.8-0.3,0.7
	c-0.7-0.3-1.3-0.8-1.7-1.5c-0.1,0.1-0.1,0.2-0.2,0.2l-0.7,0.3c0,0.1,0,0.1-0.1,0.2c-0.3,0.4-0.7,0.8-0.9,1.2
	c-0.1,0.4-0.3,0.8-0.3,1.3c0,0,0,0.1,0,0.1c0.1,0.3,0,0.6-0.1,0.9c-0.1,0.1-0.2,0.2-0.3,0.2h-0.1c-0.1,0-0.2-0.2-0.3-0.3
	c0-0.2-0.1-0.3-0.1-0.5c-0.1,0-0.1-0.1-0.1-0.1c-0.5-0.8-0.7-1.7-0.5-2.6c-0.1-0.1-0.2-0.1-0.3-0.2v0.1c-0.4,0.7-1.4,0.6-2,1.1
	c0,0.1,0,0.1-0.1,0.2c-0.3,0.4-0.6,0.8-0.6,1.3c-0.2,0.5-0.1,1.1,0.3,1.4c0.2,0.1,0.2,0.3,0.2,0.5c0.6-0.8,1.7-1.2,2.7-1
	c0.1,0.1,0.2,0.2,0.2,0.4c-0.6,0.1-1.1,0.3-1.6,0.6L31.1,75c0,0.2,0,0.3-0.2,0.4c-0.3,0.2-0.6,0.5-0.8,0.9c0,0.1-0.1,0.1-0.2,0.2
	c0,0.1,0,0.2,0,0.3c-0.1,0.4-0.3,0.7-0.4,1.1s-0.2,0.7-0.3,1v0.4c0.2-0.2,0.4-0.4,0.6-0.5c0.1-0.1,0.2-0.1,0.3-0.1
	c-0.3,0.5-0.5,1.1-0.6,1.7c0,0.1,0,0.1,0,0.2c-0.1,1,0.1,2,0.5,2.9c0.3,0.6,0.5,1.2,0.8,1.7c0.3,0.3,0.8,0.2,1.1-0.1
	c0.2-0.4,0.4-0.9,0.5-1.4c0-0.1,0.1-0.3,0.1-0.4c0,0,0-0.1,0.1-0.1L32.6,83l0.1,0.1c-0.1-0.5-0.1-1.1-0.1-1.6
	c0.1-0.3,0.2-0.6,0.4-0.9c0.1,0,0.1,0,0.2,0v1.3c0,0.1,0,0.1,0,0.2c0,0.6,0.1,1.2,0.4,1.8c0.1-0.2,0.2-0.4,0.4-0.6
	c0,0,0.1-0.1,0.1-0.1c-0.1,0.2-0.1,0.5-0.2,0.7c0-0.1,0.2-0.2,0.3-0.1C34.2,83.8,34.2,83.9,34.2,83.9L34.2,83.9z M55.3,65.8
	c0.7-0.8,1.6-1.4,2.6-1.7c-0.4-0.6-0.5-1.5-0.3-2.2c0.2-0.6,0.4-1.8,1-2.1h0.1c0.2-0.8,0.7-1.5,1.3-2.1c0.1-0.1,0.3-0.1,0.4-0.1
	c-0.2,0.4-0.5,0.8-0.6,1.2c-0.1,0.2-0.2,0.5-0.2,0.7c0.1,0.1,0.2,0.3,0.2,0.4c-0.3,1.5,0,3,0.7,4.3c0,0.1,0,0.3-0.1,0.4
	c0.3,0.4,0.7,0.7,1.1,1c-0.1,0-0.1,0-0.2,0c-0.8-0.1-1.5-0.5-2-1.1h-0.1c-1.1,0.3-2.1,0.3-3,1.1c-0.3,0.2-0.5,0.5-0.8,0.8l-0.1,0.1
	c0.1,0.1,0.1,0.2,0.1,0.3c-0.1,0.9,0.3,1.9,0,2.8c0,0.1-0.1,0.2-0.2,0.2c0.1,0.8-0.1,1.5-0.4,2.2c-0.1,0.2-0.2,0.3-0.4,0.3
	c0.2-0.5,0.3-1,0.2-1.5c-0.1,0.1-0.4,0.1-0.5,0c0,0-0.1-0.1-0.1-0.2c-0.1-0.6-0.2-1.1-0.3-1.7c-0.1-0.5-0.3-1-0.5-1.5
	c0-0.2,0-0.4,0.1-0.5l-0.2-0.3c-0.1-0.4-0.1-0.9,0-1.3c0.1,0,0.2,0,0.2,0c0,0.1,0.1,0.2,0.1,0.3v0.1c0,0.1,0.1,0.3,0.2,0.4l0.3,0.5
	C54.6,66.4,54.9,66.1,55.3,65.8z M52.3,64.4c0.4-0.5,0.9-0.9,1.5-1.2c0.5-0.3,0.7,0.4,0.3,0.7c-0.3,0.2-0.5,0.3-0.7,0.5
	c-0.2,0.2-0.4,0.4-0.6,0.5C52.4,65.3,52.2,64.8,52.3,64.4L52.3,64.4z M51.4,70.7c0.1-0.4,0.6-0.6,0.7-0.1c0,0.6,0.1,1.2,0.4,1.7
	c0.2,0.4-0.3,1-0.6,0.6C51.4,72.3,51.3,71.5,51.4,70.7L51.4,70.7z M44,71.2c0.3-0.3,0.7,0.1,0.5,0.4c-0.2,0.3-0.4,0.6-0.5,1
	c-0.1,0.3-0.1,0.7,0,1c0,0.3-0.4,0.7-0.6,0.3C43.1,72.9,43.4,71.9,44,71.2L44,71.2z M39.2,75.7c0.1-0.3,0.7-0.3,0.6,0.1
	c0,0.5,0.1,1.1,0.4,1.6c0.1,0.3-0.3,0.9-0.6,0.5C39.2,77.3,39,76.5,39.2,75.7L39.2,75.7z M38.8,79.6c-0.3-0.3,0.2-0.9,0.5-0.6
	c0.3,0.4,0.7,0.7,1.2,0.9c0.3,0.2,0,0.8-0.3,0.7C39.7,80.4,39.2,80,38.8,79.6L38.8,79.6z M40.5,60C40.6,60,40.5,60,40.5,60h-0.1
	c-0.1,0-0.3-0.1-0.3-0.3c0,0,0,0,0,0c0-0.2,0.1-0.3,0.3-0.3c-0.1,0,0,0,0,0h0.1c0.1,0,0.3,0.1,0.3,0.3c0,0,0,0,0,0
	C40.8,59.9,40.7,60,40.5,60z M45.2,58.3c-0.7,0.2-1.3,0.4-2,0.6c-0.5,0.2-1.1,0.4-1.7,0.6c-0.4,0.1-0.5-0.5-0.2-0.7
	c1.2-0.7,2.4-1.1,3.8-1.3C45.6,57.5,45.5,58.2,45.2,58.3L45.2,58.3z M31.5,79.2c-0.4,0.5-0.5,1.2-0.5,1.8c0.1,0.4-0.6,0.7-0.6,0.2
	c-0.1-0.8,0.1-1.6,0.6-2.3c0.1-0.1,0.3-0.2,0.4-0.1C31.5,79,31.5,79.1,31.5,79.2z M33.9,75.1h-0.1c-0.5,0-0.4-0.7,0-0.7h0.1
	c0.1,0,0.3,0.1,0.3,0.2c0,0,0,0.1,0,0.1C34.2,74.9,34,75.1,33.9,75.1L33.9,75.1z"/>
<path class="st0" d="M76,55.6c0.1,0,0.3-0.1,0.4-0.1l-0.2-0.2C76.3,55.4,76.2,55.5,76,55.6z M29.2,75.2c-0.1-0.1-0.2-0.2-0.3-0.3
	c0,0.2,0.2,0.4,0.5,0.4h0.1C29.3,75.3,29.2,75.3,29.2,75.2z M57.8,93.7h0.4H57.8L57.8,93.7z M77.3,55.6L77.3,55.6L77.3,55.6
	L77.3,55.6L77.3,55.6z M84.7,65.6L84.7,65.6L84.7,65.6z M29.7,70.1v0.2V70.1C29.7,70.2,29.7,70.1,29.7,70.1z M58.5,79L58.5,79
	l0.1,0.1C58.6,79.1,58.5,79.1,58.5,79z M55.2,55.4c0,0.1-0.1,0.2-0.2,0.3l0.3-0.1C55.2,55.5,55.2,55.5,55.2,55.4L55.2,55.4z
	 M78.7,80.9L78.7,80.9L78.7,80.9z M63.4,71.7v-0.1l-0.1,0.2C63.3,71.8,63.3,71.7,63.4,71.7z M33.4,70.8v0.1V70.8z M33.7,87l-0.1-0.2
	l-0.2,0.1L33.7,87z M61.2,79.8L61.2,79.8L61.2,79.8z M74.6,55.5c-0.3-0.2-0.6-0.3-0.9-0.3C74,55.3,74.3,55.4,74.6,55.5z M75.9,75.8
	L75.9,75.8l0.1,0.1L75.9,75.8L75.9,75.8z M84.9,64.8L84.9,64.8L84.9,64.8z M31.5,69.2c0-0.2-0.1-0.4-0.1-0.6
	c-0.1,0.2-0.2,0.4-0.2,0.6C31.3,69.2,31.4,69.2,31.5,69.2z M84.4,62.7c-0.1-0.2-0.3-0.5-0.4-0.7c0.1,0.2,0.1,0.4,0.2,0.5
	C84.2,62.6,84.3,62.6,84.4,62.7z"/>
<path class="st1" d="M89.6,71.2c-0.1,0.6-0.8,0.6-0.8,0c0-0.7-0.1-1.5-0.4-2.1c-0.1,0.2-0.3,0.2-0.5,0.1c0,0,0,0,0,0L87.7,69
	c0,0.2,0,0.4-0.2,0.5c-0.2,0.2-0.4,0.2-0.6,0c0,0,0,0,0,0c-0.2-0.2-0.3-0.5-0.3-0.8c0-0.2,0.1-0.3,0.3-0.4c-0.3-0.2-0.5-0.5-0.8-0.7
	l-0.7-0.6c-0.2,0.8-0.6,1.4-1.2,2c0,0-0.1,0.1-0.2,0.1c-0.1,0.2-0.2,0.3-0.3,0.4c-0.8,1.3-2.1,2.1-3.6,2.3c-0.6,0-0.5-0.8,0-0.9
	c0.5-0.2,1-0.3,1.4-0.6c-0.4,0-0.4-0.5-0.1-0.7c0.8-0.5,1.4-1.3,1.7-2.2c0.1-0.2,0.3-0.2,0.4-0.2c0,0,0.1,0,0.1,0.1
	c0.2-0.7,0.1-1.5-0.1-2.2c-0.3-0.9-0.7-1.7-1.2-2.5C82.5,62.9,82.2,63,82,63c0,0,0,0,0,0c-0.2-0.2-0.4-0.3-0.7-0.4
	c-0.2-0.1-0.5-0.1-0.7,0c-0.2,0-0.4,0.1-0.5,0.2c-0.1,0.3-0.1,0.6-0.2,0.9c-0.1,0.2-0.3,0.4-0.4,0.6c0,0.1-0.1,0.2-0.2,0.2
	c-0.2,0.5-0.5,0.9-0.8,1.4c0.2-0.8,0.3-1.6,0.3-2.4v-0.5c-0.1,0-0.2-0.1-0.3-0.2c-0.1-0.7-0.6-1.2-1.3-1.4c-0.6-0.1-1.3-0.2-1.9-0.1
	c-0.1,0-0.3-0.1-0.3-0.2c0,0.2-0.1,0.3-0.2,0.4c-0.3,0.2-0.5,0.4-0.6,0.7c0.3,0.7,0.2,1.6-0.2,2.2c0,0.5,0,0.9-0.1,1.4
	c-0.1,0-0.2-0.1-0.2-0.2c-0.1-0.3-0.2-0.7-0.3-1c-0.2-0.1-0.2-0.3-0.2-0.6c-0.4-1.3-0.9-2.5-2.4-2.9c0,0.1-0.1,0.2-0.2,0.2
	c-0.6,0.1-1.1,0.2-1.7,0.3c-0.5,0.1-1,0.2-1.5,0.4c-0.9,0.5-1.6,1.1-2.3,1.9c0,0.3,0,0.5-0.1,0.8c-0.1,1.2-0.7,2.3-1.5,3.1
	c0.2,0.4,0.4,0.9,0.5,1.4c0.1,0,0.2,0.1,0.3,0.2c0.5,1.1,0.9,3,2.4,3.2c1.8,0.2,2.3-1.4,2.8-2.6c0.1-0.2,0.3-0.3,0.6-0.3
	c0-0.8-0.1-1.7-0.2-2.4c0.1-0.9,0.3-1.7,0.6-2.5c0,0.1,0,0.1,0,0.2c0,0.9,0.1,1.8,0.2,2.6c1.8-0.6,4.4,0.1,4.6,2.1
	c0.2,0.1,0.4,0.1,0.6,0.2c0.8,0.5,1.3,1.4,1.3,2.3c0,0.2-0.2,0.4-0.4,0.4c-0.2,0-0.3-0.1-0.4-0.3c0-0.1,0-0.2-0.1-0.3
	c0,0.1,0,0.1,0,0.2c0,0.2-0.2,0.4-0.4,0.4c-0.1,0-0.2,0-0.2-0.1c-0.3-0.4-0.5-0.8-0.7-1.2c0-0.1-0.1-0.1-0.1-0.2
	c-0.1-0.1-0.2-0.1-0.3-0.2c-0.2-0.1-0.5-0.2-0.7-0.3c-0.1-0.1-0.2-0.2-0.1-0.4l-0.7-0.1c-0.4,0-0.4-0.7,0.1-0.7c0.4,0,0.8,0,1.2,0
	c-0.1-0.2-0.3-0.5-0.4-0.6c-0.1,0.1-0.2,0.2-0.3,0.2c-0.6-0.1-1.1-0.1-1.7,0.1c-0.3,0.3-0.4,0.6-0.5,1c0,0.1-0.1,0.2-0.1,0.4
	c0.1,0.1,0.2,0.2,0.2,0.3c-0.1,0.4-0.1,0.9,0.1,1.3c0.2,0.4,0.5,0.7,0.7,1.1c0,0,0,0.1,0.1,0.1c0.3,0.2,0.6,0.5,0.8,0.8
	c0.1,0.3-0.1,0.8-0.5,0.6c-0.9-0.4-1.8-1.5-2.9-1h-0.1c-0.5,0.6-1.2,1-1.9,1.1c-1,0.2-2-0.1-2.8-0.8h-0.1c-0.5-0.1-1,0-1.5,0.1h-0.1
	c-0.3,0.5-0.9,0.7-1.4,0.7c-1,0.7-2.1,1.2-3.2,1.4c-1.3,0.3-2.7,0.3-4-0.1c-1,1.2-2.6,2.5-4.2,2.4c-1,1.2-2.1,2.2-3.3,3l-0.2,0.1
	c-1.1,2.5-4,4.8-3.3,7.8c0.2,0.7,0.5,1.3,1,1.8c0-0.1,0.2-0.2,0.3-0.2c1,0.2,2,0.2,2.9-0.1c0.1-0.1,0.3-0.1,0.5,0l0.2,0.2
	c0.3,0.5,0.8,0.9,1.3,1.1c0.7,0.6,1.6,1,2.5,1.1c0-0.2,0.2-0.4,0.4-0.5c0.6-0.1,1.2-0.2,1.9-0.2c0.5-0.2,1-0.3,1.6-0.3H56
	c0.8,0.1,1.6,0.4,2.4,0.5c0-0.1,0.1-0.1,0.1-0.2c0.3-0.2,0.6-0.3,1-0.4c0.3-0.1,0.5-0.3,0.7-0.5c0.4-0.5,0.5-1.1,0.5-1.7
	c0-0.1,0-0.1,0-0.2l-0.2-0.1c-0.4-0.2,0-1,0.4-0.8c2.6,1.2,5.6,1.4,8.3,0.6c0-0.2,0-0.4,0.2-0.6c0.5-0.2,0.8-0.6,1.1-1
	c0.1-0.4,0.1-0.8-0.1-1.2c-0.4-0.8-1.4-1.1-2.2-0.6c0,0,0,0,0,0c-0.1,0.1-0.2,0.1-0.3,0.1c-1.9,1.7-5.1,1.7-7.4,0.8
	c-0.2-0.1-0.3-0.3-0.2-0.5c0.1-0.2,0.2-0.3,0.4-0.2c0.3,0.1,0.6,0.2,0.8,0.2c0,0,0-0.1,0.1-0.1c0.6-0.6,1.4-0.2,2.2-0.6h0.1
	c0,0,0.1-0.1,0.1-0.1l0.3-0.1c0.5-0.4,0.9-0.8,1.2-1.4c-0.1-0.1-0.2-0.1-0.4-0.2c-0.1,0-0.1-0.1-0.1-0.2c1-0.1,2.1-0.1,3.1,0
	c0.5,0.1,1,0.2,1.5,0.2c1.5-0.1,3-0.5,4.3-1.2c0.1,0,0.2,0,0.3,0c-0.3,0.5-0.7,1-1,1.5c-0.5,0.3-0.9,0.4-1.4,0.6
	c0.1,0.1,0.1,0.3,0,0.4c0.6,0.7,0.9,1.7,0.8,2.6c0.4-0.3,0.9-0.7,1.2-1.1l0.1-0.1c0.3,0.1,0.6,0.2,0.9,0.3h0.2
	c0.4,0.1,0.8,0.1,1.1,0.1c0.1,0,0.1,0,0.2,0h1.9c0.9-0.1,1.9-0.3,2.7-0.8c0.7-0.5,1.5-1,2.3-1.5h0.1c0.1-0.1,0.1-0.3,0-0.4
	c-0.1-0.1-0.1-0.2-0.1-0.3c-0.4-0.2-0.7-0.4-1.1-0.7c-0.2-0.2-0.2-0.6,0-0.8c0,0,0.1-0.1,0.1-0.1c0.4,0.2,0.9,0.4,1.3,0.5
	c0.1-0.2,0.3-0.2,0.4-0.2c0.7,0.2,1.3,0.2,2,0c0.5-0.2,1-0.6,1.3-1.2c0.3-0.6,0.4-1.2,0.2-1.8c-0.3-0.5-0.7-1-1.2-1.4
	c0,0,0-0.1,0-0.1c-0.4-0.2-0.9-0.3-1.3-0.4c-0.2-0.1-0.3-0.3-0.3-0.5c0-0.1,0.2-0.3,0.3-0.3c0.5,0,1,0.1,1.4,0.3c0,0,0-0.1,0-0.1
	v-0.2c-0.2,0.2-0.5,0.1-0.7-0.1c-0.1-0.1-0.1-0.2-0.1-0.4c0-0.5-0.1-0.9-0.4-1.3c-0.2,0-0.3-0.2-0.4-0.3c0-0.1-0.1-0.1-0.1-0.2
	c-0.4-0.1-0.7-0.4-0.8-0.8c0-0.3,0.1-0.5,0.4-0.5c0,0,0,0,0,0c0.3,0,0.6,0.1,0.9,0.2c0.4,0.1,0.8,0.1,1.2,0c0.7-0.1,1.3-0.5,1.7-1.2
	c0.1-0.3,0.7-0.3,0.6,0.1c-0.2,0.9-0.8,1.6-1.7,2c0.6,1,0.8,2.2,0.7,3.4c0,0.1,0,0.1-0.1,0.2c1.3,1.1,1.7,3,0.9,4.6h-0.2
	c-0.2,0.6-0.4,1.1-0.6,1.6c1.1-1.2,1.8-2.6,2.3-4.2c0.9-3,1.1-6.5-0.6-9.2C89.6,71.1,89.6,71.1,89.6,71.2L89.6,71.2z M68.3,87.2
	c0.1-0.2,0.2-0.3,0.4-0.4c0.1,0,0.1,0,0.2,0l0.2-0.1c0.2-0.1,0.3,0,0.4,0.2c0,0,0,0,0,0.1c0,0.2,0,0.3-0.2,0.4l-0.1,0.1
	c-0.1,0.2-0.3,0.3-0.5,0.4c-0.2,0.1-0.4,0-0.5-0.2C68.2,87.5,68.2,87.3,68.3,87.2L68.3,87.2z M65.9,88.3c0.5-0.1,0.9-0.4,1.3-0.6
	c0.2-0.1,0.4-0.1,0.5,0.1c0,0,0,0,0,0.1c0.1,0.2,0,0.5-0.2,0.7c-0.5,0.4-1.1,0.6-1.7,0.6C65.4,89.1,65.5,88.4,65.9,88.3L65.9,88.3z
	 M79.2,69.2l0.3-0.1c-0.2-0.1-0.3-0.3-0.2-0.5c0.1-0.3,0.3-0.5,0.6-0.7c0.2-0.2,0.4-0.4,0.6-0.6c0.2-0.1,0.4-0.1,0.5,0.1
	c0,0,0,0,0,0.1c0.2-0.3,0.3-0.7,0.4-1c0-0.1,0.2-0.2,0.3-0.2c0,0.5,0,1.1-0.1,1.6c-0.4,1-1.2,1.7-2.2,2
	C78.8,69.8,78.8,69.3,79.2,69.2L79.2,69.2z M69.8,75.6c0.5-0.5,1.2-0.7,1.9-0.5c0.4,0.1,0.2,0.7-0.1,0.8c-0.5-0.1-0.9,0-1.3,0.2
	C69.8,76.4,69.5,75.9,69.8,75.6L69.8,75.6z M53.4,78.6c0.1-0.2,0.2-0.4,0.3-0.5c0-0.1,0.1-0.2,0.2-0.3c0.1-0.1,0.2-0.2,0.3-0.2
	c0.2,0,0.3,0.1,0.3,0.3c0.1,0.3,0.1,0.6-0.1,0.8c-0.1,0.3-0.4,0.5-0.8,0.6c-0.2,0-0.4-0.2-0.4-0.5C53.4,78.7,53.4,78.6,53.4,78.6
	L53.4,78.6z M48.4,82c0.5-0.4,1-0.8,1.6-1.3c0.5-0.4,1-0.7,1.5-1c0.2-0.1,0.5-0.1,0.7,0.2c0.1,0.2,0.1,0.5-0.2,0.7
	c-0.5,0.4-1,0.9-1.6,1.2c-0.5,0.4-1,0.7-1.5,1c-0.2,0.1-0.5,0-0.7-0.2C48,82.4,48.1,82.1,48.4,82L48.4,82z M45.2,90.7
	c-1,0-1.2-1.1-1.2-1.8c0-0.3,0.5-0.6,0.7-0.2s0.2,1.1,0.6,1.1C45.8,89.7,45.7,90.6,45.2,90.7L45.2,90.7z M60.8,84.2
	c0,0.2-0.2,0.3-0.4,0.3c-0.1,0-0.3-0.1-0.3-0.3c-0.2-0.9-0.3-2.8-1.7-2.5c-0.4,0.1-0.3-0.6,0-0.7C60.1,80.5,61.1,82.9,60.8,84.2
	L60.8,84.2z M72.5,78.9c-0.5,0.2-1,0.3-1.5,0.4c0,0.1-0.1,0.2-0.2,0.2c-0.9,0.3-1.9,0.5-2.9,0.5c-0.8-0.1-1.6-0.3-2.4-0.4
	s-3.3-0.5-3.6,0.7c0,0.1-0.1,0.2-0.1,0.2c0.4,0.5,0.6,1.1,0.7,1.7c0,0.4,0,0.8,0,1.3c-0.1,0.1-0.3,0.1-0.4,0c0-0.7-0.1-1.4-0.5-2.1
	c-0.2-0.4-0.6-0.8-1.1-0.9c-0.8-0.4-1.8-0.6-2.7-0.3c-0.7,0.8-1.6,1.5-2.6,2c-1.4,0.6-2.8,1.4-4,2.3c-0.2,0.2-0.7,0.7-1.3,1.3
	c0,0,0,0.1,0,0.1c0,0.1,0.1,0.1,0.1,0.2c-0.1,0.4-0.1,0.9-0.2,1.3c0,0.2,0.1,0.4,0.2,0.6c0.8,0.2,1.8-0.1,2.5,0.3
	c0.2,0.1,0.3,0.4,0.2,0.6l0.3-0.1c0,0.1-0.1,0.3-0.2,0.3c-0.1,0.1-0.3,0.2-0.5,0.3l0.1,0.1c0.1-0.1,0.2-0.2,0.3-0.2
	c0.7,0.2,1.5,0.2,2.3,0.1c0.5-0.1,0.9-0.2,1.3-0.4c0.1-0.1,0.3-0.2,0.4-0.2c-0.3-1.2,0-2.4,0.8-3.3c0.1-0.1,0.2-0.2,0.4-0.1
	c0,0,0.1,0.1,0.1,0.1c-0.6,0.7-0.8,1.7-0.6,2.6c0.2,1,0.9,1.8,2,2.1c0.5,0.2,0.2,1-0.3,0.8c-0.6-0.2-1.1-0.5-1.6-0.9
	c-1.7,1.7-4.2,1.2-5.9-0.2c0,0-0.1-0.1-0.1-0.1c-0.7,0.2-1.5,0.2-2.2,0c-1.1-0.3-1.7-1.5-1.4-2.6c-1.1,0.7-2.1,0.9-2.5-0.4
	c0-0.1,0-0.2,0-0.3c0.2,0.2,0.5,0.3,0.8,0.3h0.1c0.1,0,0.3,0,0.4,0c0.6-0.2,1.2-0.5,1.7-1c0.9-0.8,1.6-1.6,2.5-2.4
	c1.2-0.8,2.4-1.5,3.8-2.1c0.7-0.4,1.4-0.8,1.9-1.3c0.6-0.7,1.1-1.4,1.6-2.1c0.1-0.2,0.3-0.2,0.5-0.1c0,0,0,0,0,0
	c0.1,0,0.2,0,0.3,0.1c0.1,0.1,0.1,0.3,0.1,0.4h0.1c0.2,0.1,0.3,0.2,0.5,0.2c0.3,0.1,0.6,0.3,0.7,0.7c0,0.1,0,0.2,0,0.2h0.1
	c0.1-1,1.6-1.3,2.4-1.4c0.8-0.1,1.5-0.1,2.3,0c0.4,0,0.8,0.1,1.2,0.2c0.1-0.9,0.7-1.7,1.4-2.2h0.1c0.2-0.2,0.5-0.2,0.8-0.2
	c-0.2,0.1-0.3,0.3-0.5,0.4l-0.1,0.1c0.1,0.1,0.1,0.3,0.1,0.5c0,0.1-0.1,0.1-0.1,0.2c0.1,0.1,0.2,0.2,0.3,0.3
	c0.3,0.2,0.6,0.3,0.9,0.4c0.1,0,0.1,0.1,0.2,0.1h0.2c1.4-0.2,2.7-0.6,3.9-1.3c0.2-0.1,0.3,0,0.4,0.1c0,0,0,0,0,0.1
	c0.5-0.6,0.9-1.3,1.3-2c0.1-0.2,0.3-0.3,0.5-0.2c0.1,0,0.1,0.1,0.1,0.1c0.1,0,0.3,0.1,0.4,0.2c0.3,0.1,0.5,0.3,0.6,0.6
	c0,0.1,0,0.3-0.1,0.4c0.9,0.1,1.6,0.8,1.7,1.7c0,0.2-0.2,0.4-0.3,0.4c-0.1,0-0.2-0.1-0.3-0.2c-0.6-1.1-1.7-1.2-2.8-0.8h-0.1
	C74.4,77.8,73.5,78.5,72.5,78.9L72.5,78.9z M51.4,86.9c-0.2,0.1-0.4,0-0.5-0.1c-0.2-0.1-0.3-0.3-0.2-0.6c0-0.2,0.1-0.4,0.3-0.6
	c0.1-0.1,0.2-0.1,0.3-0.2c0.2-0.1,0.5,0.1,0.5,0.3c0,0,0,0,0,0.1c0,0.2,0,0.3-0.1,0.5C51.7,86.7,51.6,86.9,51.4,86.9L51.4,86.9z
	 M80.3,80c0.1,0.2,0.1,0.6-0.2,0.7c-0.3,0.1-0.5,0.4-0.5,0.7c-0.1,0.3,0,0.7,0.2,1c0.2,0.3,0.6,0.5,0.3,0.9c0,0.1-0.1,0.1-0.1,0.2
	l0.2,0.1c0.2,0.1,0.3,0.4,0.2,0.6c-0.1,0.1-0.2,0.2-0.3,0.2l-0.6,0.1c-1,0.1-1.9,0.4-2.7,1h-0.1c-0.1-0.2-0.1-0.5,0.1-0.6
	c0.2-0.1,0.4-0.2,0.5-0.4c-0.1,0.1-0.3,0.1-0.4,0.1c-0.5,0-0.5-0.6-0.2-0.8c0.4-0.2,0.7-0.6,0.8-1c0-0.3-0.1-0.6-0.4-0.8
	c-0.2,0-0.3-0.2-0.3-0.3c0-0.1,0-0.3,0-0.4c-1,0-1.9-0.7-2.1-1.7c0-0.2,0.1-0.4,0.3-0.4c0,0,0,0,0.1,0c0-0.3,0.3-0.7,0.7-0.5
	c0.3,0.3,0.6,0.6,1,0.7c0.5,0.1,0.9,0,1.4-0.1c0.8-0.3,1.4-0.8,2.2-1.1c0.4-0.9,0.5-1.9,0.1-2.8c-0.3-0.6-0.7-1-1.2-1.5
	c-0.1-0.1-0.1-0.3,0-0.4l-0.7-0.6c-0.3-0.3,0.2-1.1,0.6-0.8c1.4,0.9,2.5,2.3,2.9,3.9C82.2,77.4,81.5,79,80.3,80L80.3,80z M85.9,81.3
	c0.1,0.3-0.5,0.7-0.6,0.3c-0.1-0.1-0.1-0.2-0.2-0.4c-0.1,0.2-0.3,0.5-0.6,0.3s-0.4-0.4-0.6-0.7c-0.1-0.2-0.4-0.3-0.6-0.2
	c-0.2,0.1-0.3,0-0.4-0.1c-0.1,0.1-0.2,0.2-0.4,0.2c-0.1,0.1-0.2,0.1-0.3,0c0.1-0.1,0.2-0.2,0.3-0.4c0,0-0.1-0.1-0.1-0.2
	c0-0.2,0.1-0.5,0.2-0.7c0.1-0.2,0.3-0.4,0.5-0.6c0.1-0.1,0.1-0.1,0.2-0.1c0.1-0.4,0.2-0.8,0.3-1.2c0.2,0.4,0.2,0.9,0.1,1.4
	C84.8,79.4,85.6,80.2,85.9,81.3L85.9,81.3z M87.2,72.3c-0.1,0.1-0.4,0.1-0.5,0c-0.1-0.1-0.1-0.4,0-0.5c0.4-0.4,0.6-1,0.6-1.6
	c0-0.4,0.5-0.6,0.7-0.2C88.2,70.9,87.9,71.8,87.2,72.3L87.2,72.3z"/>
<path class="st0" d="M52.4,58.3L52.4,58.3L52.4,58.3z M46.2,80.8l0.2-0.1h-0.3C46.1,80.8,46.1,80.8,46.2,80.8z M52.3,63L52.3,63
	L52.3,63z M49.1,69.2C49,69.7,49,70.1,49,70.6v-0.1c0-0.5,0.1-1,0.2-1.5h-0.2C49.1,69,49.1,69.1,49.1,69.2z M71.9,55.2L71.9,55.2
	L71.9,55.2L71.9,55.2L71.9,55.2z M70.2,72.6L70.2,72.6L70.2,72.6L70.2,72.6z M62.7,90.6L62.7,90.6L62.7,90.6L62.7,90.6z M71.8,88.4
	L71.8,88.4l0.1-0.1L71.8,88.4L71.8,88.4z M67.8,84.9h-0.2c0,0.1,0,0.1,0,0.2L67.8,84.9z"/>
<path class="st2" d="M38.5,71.9c-0.1,0.4-0.1,0.9,0,1.3c0,0.2,0.1,0.4,0.3,0.5c0.2-0.3,0.5-0.5,0.8-0.7c-0.3-0.3-0.6-0.6-0.8-1
	c0-0.1,0-0.1,0-0.2C38.6,71.8,38.6,71.8,38.5,71.9z"/>
<path class="st3" d="M34.8,76l0.1,0.1L34.8,76L34.8,76z"/>
<path class="st2" d="M37.9,80.9c0.1,0,0.2,0,0.2-0.1c-0.6-0.3-0.9-0.9-1-1.6c0,0.1-0.1,0.1-0.1,0.2c-0.2,0.1-0.3,0.3-0.4,0.4
	c0.1,0.2,0.2,0.3,0.3,0.5C37.1,80.7,37.5,80.9,37.9,80.9z M34.4,76.6c0.2,0.2,0.4,0.5,0.6,0.7l0.1,0.1c0,0.1,0,0.3,0.1,0.3
	c0.4,0.4,1.4,0.3,1.3,1.1c0,0,0,0.1,0,0.1c0.1,0,0.2-0.1,0.3-0.1c0.1,0,0.1,0,0.2,0c0-0.5,0.1-1,0.3-1.4c-1.1,0-2.6,0-3-1.1
	C34.3,76.4,34.3,76.5,34.4,76.6z M29.7,74.3c-0.4-0.4-0.5-0.9-0.3-1.4c0.1-0.5,0.3-0.9,0.6-1.3c0-0.1,0.1-0.1,0.1-0.2L30,71.5
	c-0.1,0.1-0.2,0.1-0.3,0.1c-0.2,0.3-0.4,0.7-0.5,1c-0.3,0.7-0.5,1.5-0.4,2.2c0.1,0.1,0.2,0.2,0.3,0.3c0.1,0.1,0.2,0.1,0.3,0.1
	c0.1-0.2,0.3-0.4,0.4-0.5C29.9,74.6,29.9,74.4,29.7,74.3z M32.9,73.2c0,0.1,0.1,0.1,0.1,0.1c-0.1-0.8,0-1.6,0.3-2.4v-0.1
	c-0.3,0-0.6,0-0.9-0.2C32.2,71.5,32.4,72.4,32.9,73.2z M31.6,66.6c-0.4,0.5-0.7,1-0.9,1.6c-0.2,0.4-0.3,0.9-0.2,1.4
	c0.2-0.2,0.5-0.3,0.9-0.4c0.1-0.2,0.1-0.4,0.2-0.6c0-0.7,0.2-1.4,0.6-2C31.9,66.4,31.7,66.4,31.6,66.6z"/>
<path class="st3" d="M30.2,86.1L30.2,86C30.2,86.1,30.2,86.1,30.2,86.1z"/>
<path class="st2" d="M32.7,83.1c-0.1,0.1-0.1,0.3-0.1,0.4c-0.1,0.5-0.2,1-0.5,1.4c-0.3,0.3-0.8,0.3-1.1,0.1c0.3,0.6,0.8,1.1,1.3,1.3
	c0.4,0.2,0.8,0.4,1.2,0.5l0.2-0.1c-0.3-0.7-0.4-1.5-0.3-2.3l-0.1-0.2h0c-0.2-0.4-0.3-0.8-0.5-1.2C32.7,83,32.7,83.1,32.7,83.1z
	 M42.8,82.5c-0.2,0.1-0.3,0.3-0.3,0.5c-0.2,0.8,0,1.7-0.3,2.6c-0.2,0.7-1.3,1-1.9,1.2c-0.9,0.3-1.9,0.5-2.8,0.4
	c-0.6-0.1-1.1-0.2-1.7-0.3c0.2,0.1,0.4,0.2,0.7,0.3c0.9,0.4,1.9,0.6,2.9,0.5c1-0.2,2-0.5,3-0.9c0.1,0,0.2,0,0.3,0.1
	c0.2-0.4,0.3-0.9,0.6-1.3c0.6-1.1,1.3-2.2,2.1-3.2C44.6,82.7,43.7,82.7,42.8,82.5z M42.5,79.3c0.6,0.8,1.3,1.5,2,2.2h0.2
	c0.5-0.1,0.9-0.3,1.4-0.6c0,0,0-0.1,0-0.1c-1.4-0.1-2.7-0.8-3.6-1.8C42.4,79,42.4,79.2,42.5,79.3C42.5,79.3,42.5,79.3,42.5,79.3z
	 M41,74.1c0.3,0.1,0.6,0.3,0.8,0.6c0.2,0.3,0.4,0.5,0.7,0.7c0.2,0.1,0.3,0,0.4-0.2c0,0,0,0,0,0c-0.3-0.4-0.6-0.8-0.7-1.3
	c-0.4,0-0.9,0-1.3-0.1C40.7,73.8,40.8,74,41,74.1z M47.1,76.2c0.1,0.7,0.4,1.4,0.8,1.9l0.2,0.4c0,0.1,0.1,0.1,0.1,0.2
	c0.2-0.1,0.4-0.1,0.7-0.1h0.1l0.3-0.3c-0.2-0.1-0.5-0.2-0.7-0.4c-0.8-0.7-1.3-1.6-1.5-2.7c-0.1-0.4-0.2-0.9-0.3-1.3
	c-0.1,0-0.1,0.1-0.1,0.2C46.8,74.9,46.9,75.6,47.1,76.2z M52.5,75.7c0,0.1,0.1,0.2,0.1,0.3c0.2,0,0.4,0.2,0.4,0.4
	c0.2-0.2,0.5-0.4,0.7-0.6c-0.5-0.3-0.8-0.7-1-1.3c-0.1,0.1-0.2,0.3-0.2,0.4C52.4,75.2,52.4,75.4,52.5,75.7z M48.9,73.1L48.9,73.1
	l0.2,0.3v0.1c-0.2-1-0.2-1.9-0.1-2.9c0-0.5,0-0.9,0.1-1.4c0-0.1,0-0.2,0-0.3c-0.5,0-0.9,0.1-1.4,0.2c0,0.8,0.2,1.6,0.4,2.4
	C48.2,72.1,48.5,72.6,48.9,73.1z M45.2,66.5c0.1,0.2,0.1,0.4,0.2,0.7c0,0.6-0.2,1.1-0.6,1.6c-0.1,0.2,0,0.3,0.1,0.4c0,0,0,0,0,0
	c0.6-0.4,1.3-0.7,2-0.9c0,0,0-0.1,0-0.1c-0.7-0.7-1.3-1.5-1.7-2.5c0,0-0.1,0-0.1-0.1c-0.1-0.2-0.1-0.3-0.2-0.4c0,0.1,0,0.1,0,0.2
	C45,65.8,45,66.1,45.2,66.5z M41.1,61.3c-0.3-0.1-0.7-0.1-1.1,0c-0.2,0-0.4,0.1-0.6,0.2h-0.1c-1.2,0.4-2.2,1.3-2.7,2.4
	c-0.4-0.2-0.9-0.3-1.4-0.2c-0.1,0.3-0.1,0.6-0.2,0.9c0.9-0.3,1.9-0.2,2.8,0.2c0.2-2,1.8-2.8,3.5-3.3C41.3,61.4,41.2,61.4,41.1,61.3z
	"/>
<path class="st3" d="M37.9,65.8c-0.1-0.1-0.2-0.2-0.4-0.3l-0.1,0.1C37.6,65.7,37.7,65.8,37.9,65.8z"/>
<path class="st2" d="M50.3,53.5c-0.1-0.1-0.1-0.1-0.2-0.1c-0.6,0.2-1.2,0.4-1.7,0.7c-0.7,0.3-1.5,0.5-2.2,0.8
	c-1.6,0.5-3.1,1-4.6,1.7c-1.3,0.6-2.5,1.3-3.7,2.1c-1.1,0.7-2,1.6-2.6,2.8c-0.1,0.2,0,0.3,0.2,0.4c0.1,0,0.1,0,0.2,0
	c3-4.5,9.2-5.2,14-7.4c0.5-0.5,1-1,1.6-1.3c-0.3,0.1-0.5,0.2-0.8,0.3C50.4,53.4,50.4,53.4,50.3,53.5z M56.2,55.2
	c0-0.1-0.1-0.2-0.1-0.3c0,0,0,0,0-0.1v-0.2c0,0,0,0,0,0v-0.3c-0.3,0.1-0.5,0.2-0.8,0.3h-0.1c-0.1,0.3-0.1,0.5-0.2,0.7
	c0,0.1,0.1,0.1,0.1,0.2c0.3-0.1,0.7-0.2,1-0.2C56.2,55.4,56.2,55.3,56.2,55.2z M60.8,52.3c-1.2-0.3-2.4-0.3-3.6-0.2
	c-0.5,0.1-0.9,0.2-1.4,0.3s-0.8,0.1-1.2,0.2c0.4,0.2,0.7,0.5,0.7,0.9c0.4-0.2,0.8-0.4,1.2-0.5c1.2-0.4,2.5-0.6,3.8-0.6H61
	C61,52.4,60.9,52.3,60.8,52.3z M60.8,53.9c0.1,0.1,0.1,0.1,0.2,0.1c0.5,0.1,0.7,0,0.5,0.5c-0.3,0.4-0.4,1-0.4,1.5
	c0,0.1,0.2,0.2,0.3,0.2c0.3-0.4,0.6-0.8,0.8-1.3c0.1-0.1,0.2-0.3,0.2-0.4h-0.1C61.8,54.2,61.3,54,60.8,53.9z M65.9,52.3
	c-0.5-0.1-1.1-0.1-1.6,0.2c-0.5,0.2-1.1,0.3-1.6,0.3c0.2,0.1,0.4,0.3,0.5,0.6v0c0.6-0.6,1.4-0.9,2.3-0.8c0.2,0,0.4,0.1,0.6,0.1
	C66.1,52.6,66,52.4,65.9,52.3z M75.8,55.5c-0.5-0.5-1.1-0.9-1.7-1.2h-0.1c-0.9-0.2-1.8-0.3-2.6-0.1c0.2,0.3,0.4,0.6,0.4,0.9H72
	c0.1,0,0.1-0.1,0.2-0.1c0.5,0,1,0.1,1.6,0.2c0.3,0.1,0.6,0.2,0.9,0.3c0.3,0.1,0.7,0.3,1,0.5c0-0.2,0.1-0.3,0.3-0.4h0.2
	C76,55.7,75.9,55.6,75.8,55.5z M53.9,55.3c-0.1,0.2-0.2,0.3-0.4,0.3c0,0.3-0.1,0.6-0.2,0.9h-0.1c-0.1,0-0.1,0.1-0.2,0.1
	c-0.2,0.1-0.5,0.1-0.7,0.2c-0.2,0.1-0.3,0.3-0.3,0.5c0.2,0,0.5,0.1,0.7,0c0.8,0,1.3-0.7,1.3-1.4c0-0.2-0.1-0.3-0.1-0.5v-0.1v-0.2
	L53.9,55.3z M52.6,61c0.2-0.6,0.4-1.1,0.6-1.6c0.1-0.2-0.1-0.4-0.3-0.5c0,0,0,0-0.1,0c-0.4,0.6-0.7,1.2-0.8,1.9
	c-0.1,0.5-0.2,1-0.1,1.5c0,0.2,0.1,0.5,0.3,0.7h0.1c0.2-0.2,0.4-0.3,0.7-0.5c-0.1-0.2-0.2-0.5-0.3-0.7C52.6,61.5,52.6,61.2,52.6,61z
	 M51.1,61.4c0,0.1,0.1,0.1,0.2,0.2c0-0.2,0.1-0.4,0.1-0.6c0.2-0.9,0.5-1.8,1-2.6c-0.3,0-0.7-0.1-1-0.1c-0.2,0.4-0.4,0.9-0.4,1.3
	C50.9,60.2,51,60.8,51.1,61.4z M58.8,63.7c-0.2-0.4-0.3-0.9-0.3-1.4c0-0.8,0.1-1.7,0.3-2.5h-0.1c-0.6,0.3-0.9,1.5-1,2.1
	c-0.3,0.7-0.2,1.6,0.3,2.2c0.3-0.1,0.5-0.1,0.8-0.1C58.8,63.9,58.8,63.8,58.8,63.7z M55.1,67.4c0,0.1-0.1,0.1-0.1,0.2
	c0,0.1,0,0.1,0,0.2c0,0.1,0,0.1,0,0.2c0,0,0,0.1,0,0.2l0.1,0.2c0.2,0.6,0.3,1.2,0.3,1.8c0.1,0,0.2-0.1,0.2-0.2
	c0.3-0.9-0.1-1.8,0-2.8c0-0.1,0-0.2-0.1-0.3c-0.1,0.1-0.2,0.3-0.3,0.4C55.2,67.3,55.2,67.4,55.1,67.4z M61.6,68.7
	C61.7,68.8,61.5,68.7,61.6,68.7S61.6,68.7,61.6,68.7c0.2,0.2,0.3,0.4,0.4,0.5c0.1,0.4,0.4,0.7,0.6,1c0.1,0.1,0.2,0.1,0.3,0l-0.1-0.3
	c-0.2-0.5-0.3-1.1-0.5-1.6c-0.3,0.1-0.7,0.1-1,0.1C61.3,68.5,61.4,68.7,61.6,68.7z M58.9,78.1c-0.1,0.3-0.3,0.6-0.4,0.9
	c0,0,0.1,0.1,0.2,0.1c0.6-0.1,1.3,0,1.8,0.3c0-0.1,0-0.2,0-0.2c-0.1-0.3-0.4-0.5-0.7-0.7c-0.2-0.1-0.3-0.2-0.5-0.2h-0.1
	c0-0.1,0-0.3-0.1-0.4c-0.1-0.1-0.2-0.1-0.3-0.1C58.9,77.8,58.9,78,58.9,78.1z M63.1,74.2L63.1,74.2c0.6-0.1,1.1-0.2,1.6-0.1h0.1
	c-0.4-0.4-0.8-0.9-1-1.5c-0.5,0.9-1.2,1.7-2,2.4C62.3,74.9,62.8,74.6,63.1,74.2z M71.3,72.1c-0.2-0.4-0.2-0.9-0.1-1.3
	c0-0.1,0-0.3-0.2-0.3c0-0.1,0.1-0.3,0.1-0.4c0.1-0.4,0.2-0.7,0.5-1c0.6-0.1,1.1-0.1,1.7-0.1c0.1,0,0.3,0,0.3-0.2
	c-0.2-0.2-0.5-0.4-0.8-0.4c-0.8-0.2-1.6-0.2-2.3,0c0.1,0.8,0.1,1.6,0,2.4c-0.1,0.6-0.2,1.2-0.5,1.7v0.1c0.7,0,1.3,0.3,1.9,0.7
	c0,0,0-0.1-0.1-0.1C71.8,72.8,71.6,72.4,71.3,72.1z"/>
<path class="st3" d="M73.1,64.8c-0.1-0.2-0.1-0.4-0.2-0.6C72.9,64.4,73,64.6,73.1,64.8z"/>
<path class="st2" d="M74,62.3c0.1-0.3,0.3-0.5,0.6-0.7c0.1-0.1,0.2-0.2,0.2-0.4c0-0.1,0-0.2,0-0.3c-0.7,0.1-1.4,0.4-2,0.8
	c0.4,0.6,0.7,1.2,0.9,1.8v1C74.1,63.8,74.2,63,74,62.3z M79.3,64.3c0.1-0.2,0.3-0.4,0.4-0.6c0.1-0.3,0.2-0.6,0.2-0.9
	c0.2-0.1,0.3-0.2,0.5-0.2c0.2-0.1,0.5-0.1,0.7,0c0.2,0.1,0.5,0.3,0.7,0.4c0.2,0.1,0.5,0,0.6-0.2c0,0,0,0,0,0c-0.3-0.4-0.6-0.7-1-1
	c-0.5-0.3-1-0.5-1.6-0.6c-0.3,0-0.7-0.1-1-0.1c0.4,0.9,0.6,1.9,0.4,2.9c-0.1,0.2-0.2,0.5-0.3,0.7C79.1,64.5,79.3,64.4,79.3,64.3
	L79.3,64.3z M82.2,60.6c0.3,0.3,0.5,0.7,0.6,1c0.8,0.9,1.3,2,1.7,3.2c0.1,0,0.1-0.1,0.2-0.1h0.1v-0.1c0-0.5-0.1-0.9-0.3-1.4
	c0-0.1,0-0.2,0-0.3l-0.2-0.3c-0.1-0.1-0.2-0.2-0.3-0.2c0-0.2-0.1-0.4-0.2-0.5c-0.5-0.7-1-1.4-1.7-2C82.1,60.1,82,60.3,82.2,60.6
	C82.2,60.5,82.2,60.6,82.2,60.6z"/>
<path class="st3" d="M68.6,57.4"/>
<path class="st2" d="M67.8,60.2c0-0.1-0.1-0.3-0.2-0.4c-0.1,0-0.1-0.1-0.2-0.1v-0.5c0.4-0.4,0.8-0.9,1.2-1.3h-0.1
	c-0.1-0.1-0.2-0.3-0.1-0.4c-0.2,0.4-0.5,0.7-0.8,0.9c-1,0.9-2.3,1.1-3.4,1.9c0.1,0.4,0.2,0.8,0.3,1.2c0,0.2,0.1,0.4,0.1,0.6
	c0.1-0.1,0.2-0.3,0.4-0.4h0.1C66,61,67,60.6,68,60.4L68,60.3L67.8,60.2z"/>
<path class="st3" d="M77.2,57c-0.2,0-0.3-0.1-0.5-0.1l0.1,0.1C77,57.1,77.1,57.1,77.2,57z M76.1,56.4l0.2,0.2c0-0.1,0-0.2,0.1-0.2
	L76.1,56.4L76.1,56.4z"/>
<path class="st2" d="M86.3,74.8c-0.5,0.1-1,0.1-1.4,0c0,0.1,0,0.1,0.1,0.2c0,0.2,0.2,0.3,0.4,0.3c0.3,0.4,0.4,0.9,0.4,1.3
	c0,0.3,0.1,0.5,0.4,0.6c0.1,0,0.3,0,0.4-0.1v0.2c0,0,0,0.1,0,0.1c0.2,0.1,0.3,0.1,0.5,0.2C87,76.6,86.8,75.6,86.3,74.8z M75.9,75.8
	L75.9,75.8c0.4-0.1,0.7-0.1,1.1,0c0.1-0.1,0.1-0.2,0.1-0.4c-0.1-0.3-0.3-0.5-0.6-0.6c-0.1-0.1-0.3-0.1-0.4-0.2
	c0.1,0.1,0.1,0.2,0.1,0.2C76.1,75.3,76,75.6,75.9,75.8z M75.1,79.3c1.1,2,3.8,1,5-0.4l0.2-0.3c-0.2-0.1-0.2-0.3-0.2-0.5
	c-0.8,0.3-1.4,0.8-2.2,1.1c-0.4,0.2-0.9,0.2-1.4,0.1c-0.4-0.1-0.7-0.4-1-0.7c-0.3-0.2-0.7,0.2-0.7,0.5C75,79.1,75,79.2,75.1,79.3z
	 M67.9,76.8c-0.1,0.2-0.2,0.4-0.2,0.6v0.1c-0.1,0.3-0.3,0.6-0.3,0.9c1.6,0.4,3.2,0.3,4.7-0.3c0.8-0.3,1.6-0.8,2.2-1.4
	c0-0.2-0.2-0.3-0.4-0.2c0,0,0,0-0.1,0c-1.2,0.6-2.6,1.1-3.9,1.3h-0.2c0-0.1-0.1-0.1-0.2-0.1c-0.3-0.1-0.7-0.2-0.9-0.4
	c-0.1-0.1-0.2-0.2-0.3-0.3c0-0.1,0.1-0.1,0.1-0.2c0-0.2,0-0.3-0.1-0.5c-0.1,0.1-0.3,0.3-0.3,0.4L67.9,76.8z M48.5,86.8
	c0.1,0,0.1,0.1,0.2,0.2c0.2,0.9,0.2,1.6,1.3,1.8c0.5,0.2,1.1,0.2,1.7,0.1c0.4,0,0.7,0,1.1-0.1c0.1-0.2,0-0.5-0.2-0.6
	c-0.7-0.5-1.7-0.2-2.5-0.3c-0.1-0.2-0.2-0.4-0.2-0.6c0-0.4,0.1-0.9,0.2-1.3c0-0.1,0-0.2-0.1-0.2c0,0,0-0.1,0-0.1
	C49.4,86.1,49,86.5,48.5,86.8z M57.1,89.6c-0.1-0.2-0.3-0.5-0.3-0.7c-0.2,0-0.3,0.1-0.4,0.2c-0.4,0.2-0.8,0.4-1.3,0.4
	c-0.8,0.1-1.5,0-2.3-0.1c-0.1,0-0.3,0.1-0.3,0.2c0.6,0.5,1.4,0.8,2.2,0.9C55.5,90.4,56.4,90.1,57.1,89.6z M47.8,90.8
	c-0.9,0.3-1.9,0.4-2.9,0.1c-0.2,0-0.3,0.1-0.3,0.2c0.3,0.2,0.6,0.4,0.9,0.6c0.8,0.3,1.6,0.4,2.5,0.3c0.1-0.1,0.2-0.2,0.3-0.3
	c-0.1-0.1-0.1-0.3-0.2-0.4c-0.1-0.2,0-0.4,0.1-0.6C48.1,90.7,47.9,90.8,47.8,90.8z M54.5,92.5c-0.6,0-1.2,0-1.9,0.2
	c-0.2,0.1-0.3,0.3-0.4,0.5c1.3,0.1,2.6,0.1,3.9-0.1l0.1-0.1l-0.4-0.2c-0.3-0.2-0.1-0.7,0.2-0.7C55.5,92.2,55,92.3,54.5,92.5z
	 M60.3,91.6c-0.2,0.2-0.4,0.4-0.7,0.5c-0.4,0.1-0.7,0.2-1,0.4c-0.1,0-0.1,0.1-0.1,0.2c0.4,0.1,0.8,0.1,1.3,0c1.2-0.3,2.2-1,2.9-2
	v-0.1c-0.6-0.2-1.2-0.5-1.8-0.8c0,0.1,0,0.1,0,0.2C60.8,90.6,60.6,91.1,60.3,91.6z M68.2,86.2c0.8-0.5,1.8-0.2,2.2,0.6c0,0,0,0,0,0
	c0.2,0.3,0.3,0.8,0.2,1.2c-0.3,0.4-0.7,0.8-1.1,1c-0.2,0.2-0.2,0.4-0.2,0.6c0.9-0.2,1.7-0.6,2.5-1.1v-0.1c0-0.1,0-0.1,0-0.2
	c0-0.7-0.2-1.4-0.6-2c-0.2-0.3-0.4-0.5-0.6-0.7c-0.1-0.1-0.1-0.1-0.2-0.2c-0.1,0-0.2-0.1-0.3-0.1c-0.1,0.1-0.3,0.1-0.4,0
	c0,0,0,0,0,0c-0.3,0-0.7,0.2-1,0.1c-0.2,0.4-0.6,0.8-0.9,1.1C68,86.3,68.1,86.2,68.2,86.2z"/>
<path class="st3" d="M71.8,84.9L71.5,85l0.2,0.3v0.1C71.8,85.2,71.8,85.1,71.8,84.9z"/>
<path class="st2" d="M64.2,85.7L64,85.8c0,0-0.1,0.1-0.1,0.1h-0.1c-0.8,0.3-1.5,0-2.2,0.6c0,0-0.1,0.1-0.1,0.1
	c1.1,0.3,2.3,0.3,3.4,0c1-0.3,2-0.8,2.7-1.5c0-0.1,0-0.1,0-0.2l-0.3-0.1c-0.7-0.1-1.3-0.3-1.9-0.6C65.2,84.8,64.8,85.3,64.2,85.7z
	 M78.7,80.9c0.3,0.8,0.3,1.7,0.1,2.6c0.4-0.1,0.8-0.1,1.2-0.1c0.1,0,0.1-0.1,0.1-0.2c0.2-0.4-0.1-0.6-0.3-0.9
	c-0.2-0.3-0.2-0.7-0.2-1c0-0.3,0.2-0.5,0.5-0.7c0.2-0.2,0.3-0.5,0.2-0.7C79.8,80.4,79.2,80.7,78.7,80.9L78.7,80.9z M83.2,84.1
	c0,0.1,0,0.2,0.1,0.3c0.1,0.1,0.1,0.3,0,0.4h-0.1h0.1c0.4-0.1,0.5,0.3,0.4,0.6c-0.1,0.1-0.1,0.2-0.2,0.3c0.8,0.1,1.6,0.1,2.3,0
	c0.7-0.2,1.4-0.6,1.9-1.1l0.2-0.3c0.3-0.5,0.5-1.1,0.6-1.6C87.4,84.6,85,85.1,83.2,84.1z M83.5,79.8c-0.1,0.3-0.3,0.6-0.6,0.8
	c0.1,0.1,0.3,0.2,0.4,0.1c0.2,0,0.4,0.1,0.6,0.2c0.2,0.2,0.4,0.4,0.6,0.7s0.5,0,0.6-0.3C84.8,80.6,84.2,80.1,83.5,79.8z M85.4,67.1
	l0.7,0.6c0.3,0.2,0.5,0.5,0.8,0.7c0.1,0,0.3,0,0.4,0.1c0,0,0.1,0.1,0.1,0.1l0.1,0.1l0.2,0.2c0,0.1,0.1,0.1,0.1,0.2l0.2,0.1
	c0.2,0.1,0.4,0.1,0.5-0.1c0,0,0,0,0,0c-0.2-0.6-0.6-1.2-1-1.6c-0.5-0.4-1-0.8-1.5-1.2c-0.4-0.2-0.8-0.4-1.2-0.6
	c0.1,1.2-0.1,2.4-0.7,3.5c0.1,0,0.1-0.1,0.2-0.1C84.7,68.5,85.1,67.8,85.4,67.1z"/>
<path class="st4" d="M74.8,61.2c0.1,0.1,0.2,0.2,0.3,0.2c0.6-0.1,1.3-0.1,1.9,0.1c0.7,0.2,1.1,0.8,1.3,1.4c0,0.1,0.1,0.2,0.3,0.2
	c0.1-0.7-0.2-1.4-0.6-2c-0.7-0.6-2-0.4-2.8-0.2l-0.3,0.1C74.8,61,74.8,61.1,74.8,61.2z M67.2,62.1c0.5-0.2,1-0.3,1.5-0.4
	c0.6-0.1,1.2-0.1,1.7-0.3c0.1,0,0.2-0.1,0.2-0.2l-0.2-0.1c-1.1-0.2-2.1-0.1-3.2,0.3c-0.6,0.2-1.1,0.4-1.5,0.8
	c-0.3,0.3-0.5,0.6-0.7,1c0,0-0.1,0.1-0.1,0.1V64C65.5,63.2,66.3,62.6,67.2,62.1z M69.4,70c-0.5,1.3-1.1,2.9-2.8,2.6
	c-1.5-0.2-2-2.1-2.4-3.2c0-0.1-0.1-0.2-0.3-0.2c0.6,2.1,1,4.7,3.4,4.4c2.2-0.3,2.7-2,2.7-3.9C69.7,69.6,69.5,69.8,69.4,70z
	 M59.4,60.8c-0.1,0.4-0.1,0.8-0.1,1.2c0,0.7,0.2,1.3,0.6,1.9c0.1,0.3,0.3,0.6,0.5,0.8c0.1-0.1,0.1-0.3,0.1-0.4
	c-0.7-1.3-0.9-2.8-0.7-4.3c0.1-0.2,0-0.3-0.2-0.4C59.5,60,59.4,60.4,59.4,60.8z M54.2,68c-0.1-0.2-0.2-0.4-0.4-0.7
	c-0.1,0.1-0.2,0.3-0.1,0.5c0.2,0.5,0.3,1,0.5,1.5c0.1,0.6,0.1,1.1,0.3,1.7c0,0.2,0.2,0.3,0.4,0.3c0.1,0,0.1,0,0.2-0.1
	c0-0.6-0.1-1.1-0.3-1.7C54.5,69,54.4,68.5,54.2,68z M52.6,76h-0.1c-0.5,0.1-0.9,0.4-1.4,0.5c-0.5,0-1,0-1.4-0.2
	c-0.5-0.2-0.9-0.5-1.2-0.9c-0.3-0.5-0.6-0.9-0.8-1.4c0,0-0.1-0.1-0.2-0.1c0.1,0.6,0.3,1.2,0.6,1.7c0.2,0.6,0.5,1.1,1,1.5
	c1.2,1,2.8,0.3,3.9-0.6C53,76.2,52.8,76,52.6,76z M62.5,70.9c-0.6,1.3-1.6,2.3-2.9,2.9c-0.7,0.4-1.4,0.7-2.2,0.8
	c-0.7,0-1.3-0.1-2-0.2c-0.2,0-0.3,0.2-0.3,0.3c0.2,0.1,0.3,0.1,0.5,0.2c0.9,0.2,1.9,0.2,2.9-0.1c1.9-0.4,3.6-1.5,4.8-3l0.1-0.1
	l0.1-0.2c-0.1-0.4-0.2-0.7-0.3-1.1C62.8,70.5,62.6,70.7,62.5,70.9z M48.2,78.8c-0.2,0.1-0.3,0.1-0.5,0.2c-0.5,0.1-1,0.1-1.6,0.1
	c-1,0-1.9-0.3-2.8-0.4c-0.1,0-0.1,0-0.2,0.1c0.4,0.3,0.8,0.6,1.2,0.7h0.1c1,0.5,2.1,0.6,3.1,0.3c0.1,0,0.2,0,0.3,0
	c0.4-0.3,0.8-0.7,1.2-1.1H49C48.7,78.6,48.5,78.7,48.2,78.8z M42.3,86.7c-1,0.3-2,0.6-3,0.9c-1,0.1-2-0.1-2.9-0.5
	c-0.2-0.1-0.5-0.2-0.7-0.3c-1-0.6-1.6-1.7-1.6-2.9c0-0.1-0.1-0.2-0.2-0.2c0,0,0,0,0,0c-0.1,0.4-0.1,0.7,0,1.1c0,0,0,0.1,0,0.1
	c0.1,0.8,0.4,1.7,0.8,2.4c0.7,0.2,1.4,0.4,2,0.6c0.9,0.3,1.9,0.4,2.9,0.3c0.7-0.3,1.5-0.6,2.2-1c0.1-0.1,0.2-0.1,0.3,0h0.1
	c0,0,0.1,0,0.2,0c0-0.2,0.1-0.3,0.2-0.5C42.5,86.7,42.4,86.7,42.3,86.7z M29.9,76.6c0-0.1,0-0.2,0-0.3c0.1,0,0.2-0.1,0.2-0.2
	c0.2-0.3,0.4-0.6,0.8-0.9c0.1-0.1,0.2-0.3,0.2-0.4c-0.1,0-0.2,0.1-0.3,0.2c-0.5,0.3-0.8,0.8-1.1,1.3c-0.4,0.7-0.5,1.6-0.5,2.4
	c0.1-0.3,0.2-0.6,0.3-1S29.8,77,29.9,76.6z M34.5,69.6l0.3-0.1C34.7,69.4,34.6,69.5,34.5,69.6z M34.3,71.6c0.2-0.4,0.6-0.9,0.9-1.2
	c0-0.1,0.1-0.1,0.1-0.2c-0.3,0.1-0.7,0.3-1,0.4c-0.2,0.6-0.3,1.1-0.4,1.7c0,0.2,0,0.5,0.1,0.7c0,0,0-0.1,0-0.1
	C34,72.5,34.2,72.1,34.3,71.6z M30,71.5L30,71.5c0.6-0.6,1.6-0.5,2-1.1v-0.1c-0.1-0.1-0.2-0.3-0.3-0.4h-0.1
	c-0.8,0.3-1.5,0.9-1.9,1.7C29.9,71.6,30,71.6,30,71.5z M33.1,68.6c-0.3-1,0.5-1.9,1.3-2.4c0.4-0.3,0.9-0.4,1.4-0.5
	c0.5-0.1,0.9,0.1,1.4,0.1c0.1,0,0.2-0.1,0.3-0.1l0.1-0.1c-1.3-0.7-3.3,0-4.3,1c-0.6,0.6-1.2,1.8-0.6,2.6c0.3,0,0.5-0.2,0.5-0.4
	C33.1,68.7,33.1,68.7,33.1,68.6z M38.1,70.1c-0.6-0.5-1-1.1-1.4-1.8c-0.1-0.1-0.2-0.2-0.4-0.1c0,0-0.1,0-0.1,0.1
	c0,0.2,0.1,0.4,0.3,0.6c0.4,0.7,0.9,1.3,1.6,1.7C38.2,70.3,38.2,70.2,38.1,70.1z M39.9,71.3c-0.2-0.1-0.4-0.1-0.5,0.1
	c0,0,0,0.1-0.1,0.1c0.4,0.4,0.8,0.8,1.2,1.2c0.4,0.2,0.9,0.3,1.4,0.4c0-0.2,0-0.3,0.1-0.5c-0.3-0.1-0.7-0.2-1-0.3
	C40.7,71.9,40.3,71.6,39.9,71.3z M39.3,66c-0.2-0.7-0.1-1.5,0.3-2.2c0.5-0.6,1.8-0.6,2.5-0.8c0.9-0.2,1.9-0.6,2.7-1
	c0.4-0.2,0.8-0.4,1.3-0.6s1.5-0.5,1.8,0c0.1,0.1,0.2,0.1,0.4,0.1c0.1,0,0.2-0.1,0.2-0.2c-0.6-0.8-1.6-1.1-2.5-0.6
	c-1,0.2-2.1,0.9-3,1.1c-0.9,0.2-1.9,0.4-2.8,0.8c-0.9,0.4-1.6,1.1-1.8,2.1c0,0.2,0,0.3,0,0.5c0.3,0.3,0.5,0.6,0.6,0.9
	c0,0.1,0,0.1,0,0.2C39.2,66.3,39.3,66.1,39.3,66z M46.2,64.6c0,0-0.1-0.1-0.1-0.1c-0.1-0.4-0.1-0.8-0.2-1.2c0-0.2-0.2-0.3-0.3-0.3
	s-0.3,0.2-0.3,0.3c0,0.2,0,0.5,0,0.7c0.1,0.3,0.3,0.7,0.6,0.9c0.5,1,1.1,2,1.8,2.9c0,0,0,0.1,0,0.1l0.6-0.1
	c-0.3-0.5-0.6-0.9-0.9-1.3C47,65.9,46.6,65.3,46.2,64.6z M30.9,67.2c0.1-0.5,0.3-1,0.6-1.5c0.3-0.5,0.7-0.9,1.2-1.1
	c0.2-0.1,0.3-0.6,0-0.7c-0.9,0.6-1.6,1.6-1.8,2.6c-0.1,0.3-0.2,0.7-0.3,1.1C30.7,67.5,30.8,67.3,30.9,67.2z M33.7,63.6
	c0.1-0.6,0.3-1.1,0.7-1.6c0.4-0.4,0.7-0.9,0.9-1.4c0.1-0.2,0-0.3-0.1-0.4c-0.8,0.7-1.3,1.5-1.7,2.5c-0.2,0.4-0.3,0.8-0.2,1.3
	C33.4,64,33.6,63.9,33.7,63.6C33.7,63.7,33.7,63.6,33.7,63.6z M39.3,57.2c0.9-1.3,2.2-2.1,3.7-2.5c0.8-0.2,1.6-0.5,2.4-0.6
	c0.7-0.1,1.5-0.3,2.2-0.5c0-0.1,0-0.1,0-0.2l0.2-0.2c-1.7,0.1-3.3,0.5-4.9,1.2c-1,0.4-2.7,1-3.3,1.9c-0.3,0.3-0.6,0.7-0.7,1.2
	C39,57.4,39.2,57.4,39.3,57.2C39.3,57.2,39.3,57.2,39.3,57.2z M48.9,53.3c0.8-0.4,1.5-0.9,2.4-1.2c0.9-0.3,1.9-0.5,2.9-0.6
	c1.8-0.3,3.6-0.1,5.4,0.5c0.2,0.1,0.5,0,0.6-0.2c1,0.4,2.1,0.5,3.1,0.4c1.4-0.2,2.9-0.2,4.3,0.1c1.5,0.4,2.9,1.3,4.4,1.4
	c0.8,0.1,1.5,0.3,2.2,0.6l0.1,0.1c0.6,0.3,1.2,0.8,1.7,1.2c0.1,0,0.1,0.1,0.2,0c0.1,0,0.2-0.1,0.3-0.3c-0.7-0.9-1.7-1.6-2.8-1.8
	c-0.8-0.2-1.6-0.1-2.4-0.3c-0.6-0.1-1.1-0.4-1.6-0.7c-1.5-0.8-3.3-1.1-5-1c-1.5,0.2-2.9,0.2-4.4,0.1c-0.2,0-0.2-0.3-0.1-0.5
	c-3.2-0.7-6.5-0.4-9.5,0.8c-0.8,0.2-1.4,0.6-2,1.1c0,0.1,0.1,0.2,0.3,0.2C48.8,53.3,48.8,53.3,48.9,53.3z M78.1,57.4L78.1,57.4
	c0.4,0.5,0.7,1,1,1.4c0.2,0.1,0.4,0,0.5-0.1c0,0,0,0,0,0v-0.1c-0.5-1.3-1.7-2.2-3.1-2.2c0,0.1-0.1,0.1-0.1,0.2
	c0.1,0.1,0.3,0.2,0.4,0.4c0.2,0,0.3,0,0.5,0.1C77.6,57.1,77.8,57.2,78.1,57.4z"/>
<path class="st4" d="M56.2,54.3c0.8-0.2,1.5-0.3,2.3-0.4c0.6-0.1,1.1-0.1,1.7-0.1c0.2,0,0.3,0,0.5,0c0.5,0.1,1,0.3,1.5,0.6h0.1
	c0.1-0.2,0-0.4-0.1-0.6c-0.6-0.4-1.4-0.6-2.2-0.5c-0.5,0-1,0.1-1.6,0.1c-0.4,0.1-0.9,0.2-1.4,0.2c-0.4,0-0.7,0.1-1.1,0.3
	c-0.1,0-0.2,0.1-0.3,0.1c-0.1,0.2-0.2,0.3-0.4,0.3c0,0,0,0.1,0,0.1h0.1C55.7,54.4,56,54.4,56.2,54.3z M63.6,54.5
	c0.8-0.3,1.7-0.5,2.6-0.4c0.6,0.1,1.1,0.3,1.7,0.5s1.1,0,1.7,0.1c0.3,0,0.5-0.2,0.5-0.4c0,0,0,0,0,0h-0.2c-0.6-0.1-1.3-0.1-1.9-0.2
	c-0.8-0.1-1.5-0.5-2.3-0.6c-0.9-0.2-1.8,0.2-2.4,0.9v0.2C63.4,54.5,63.5,54.5,63.6,54.5z M50.1,55.8c0.5-0.4,1.1-0.6,1.7-0.8
	c0.3-0.1,0.6-0.2,0.9-0.1c0.3,0.1,0.5,0.4,0.6,0.7c0,0.1,0.1,0.1,0.2,0.1c0.2,0,0.4-0.1,0.4-0.3v-0.1c0-0.2-0.1-0.5-0.2-0.7
	c-0.1-0.2-0.3-0.4-0.5-0.5h0.2c-0.3-0.2-0.7-0.2-1-0.2c-0.4,0.1-0.7,0.2-1.1,0.3c-0.2,0.1-0.3,0.2-0.5,0.3c-0.5,0.2-0.9,0.6-1.2,1.1
	C49.7,55.8,49.9,56,50.1,55.8z M40.5,59.4h-0.1c0,0-0.1,0,0,0c-0.2,0-0.3,0.2-0.3,0.3c0,0.1,0.1,0.3,0.2,0.3c0,0,0,0,0,0h0.1
	c0,0,0.1,0,0,0c0.2,0,0.3-0.2,0.3-0.3C40.8,59.5,40.7,59.4,40.5,59.4C40.5,59.4,40.5,59.4,40.5,59.4z M45.2,57.6
	c-1.3,0.2-2.6,0.6-3.8,1.3c-0.3,0.2-0.2,0.7,0.2,0.7c0.6-0.1,1.1-0.3,1.7-0.6c0.6-0.2,1.3-0.5,2-0.6C45.5,58.2,45.6,57.5,45.2,57.6z
	 M52.8,65c0.2-0.2,0.4-0.3,0.6-0.5c0.2-0.2,0.5-0.4,0.7-0.5c0.4-0.2,0.2-0.9-0.3-0.7c-0.6,0.3-1.1,0.7-1.5,1.2
	C52.2,64.8,52.4,65.3,52.8,65z M43.9,73.7c-0.1-0.3-0.1-0.7,0-1c0.1-0.4,0.3-0.7,0.5-1c0.2-0.3-0.2-0.8-0.5-0.4
	C43.3,72,43.1,73,43.3,74C43.5,74.3,44,74,43.9,73.7z M40.2,77.4c-0.3-0.5-0.4-1-0.4-1.6c0-0.4-0.5-0.4-0.6-0.1
	c-0.2,0.7-0.1,1.5,0.4,2.1C39.9,78.3,40.3,77.7,40.2,77.4z M40.6,79.9c-0.5-0.2-0.9-0.5-1.2-0.9c-0.3-0.4-0.8,0.2-0.5,0.6
	c0.4,0.5,0.9,0.8,1.4,1C40.7,80.8,40.9,80.1,40.6,79.9z M30.9,79c-0.5,0.7-0.7,1.5-0.6,2.3c0.1,0.5,0.7,0.2,0.6-0.2
	c0-0.7,0.2-1.3,0.5-1.8c0-0.2-0.1-0.3-0.2-0.4C31.1,78.8,31,78.9,30.9,79z M68.6,57.9L68.6,57.9c0.8,0.4,1.8,0,2.7,0.1
	c0.9,0.2,1.7,0.8,2.2,1.7c0.1,0.1,0.2,0.2,0.3,0.1c0,0,0,0,0,0c-0.2-1-0.8-1.8-1.7-2.3c-1-0.4-2.2-0.4-3.2,0c-0.1,0.1-0.3,0-0.4-0.1
	c0,0,0,0,0,0v0.1C68.5,57.6,68.5,57.8,68.6,57.9C68.6,57.9,68.6,57.9,68.6,57.9z M83.2,67.5c-0.3,0.9-0.9,1.7-1.7,2.2
	c-0.3,0.1-0.3,0.7,0.1,0.7c0.7-0.3,1.3-0.9,1.7-1.6c0.2-0.4,0.4-0.9,0.5-1.4C83.6,67.3,83.4,67.3,83.2,67.5
	C83.3,67.4,83.2,67.5,83.2,67.5z M80.9,67.3c-0.1-0.2-0.3-0.3-0.5-0.2c0,0,0,0-0.1,0c-0.2,0.2-0.4,0.4-0.6,0.6
	c-0.3,0.2-0.4,0.4-0.6,0.7c-0.1,0.2,0,0.4,0.2,0.5C80.1,68.6,80.6,68,80.9,67.3z M73.7,70.6c0.2,0.1,0.5,0.2,0.7,0.3
	c0.1,0.1,0.2,0.2,0.3,0.2c0.1,0,0.1,0.1,0.1,0.2c0.2,0.4,0.4,0.8,0.7,1.2c0.2,0.1,0.4,0.1,0.5,0c0.1-0.1,0.1-0.1,0.1-0.2
	c0-0.1,0-0.1,0-0.2c-0.1-0.7-0.5-1.3-1.2-1.5c-0.4-0.1-0.9-0.2-1.4-0.3C73.5,70.3,73.6,70.5,73.7,70.6z M80.3,78.6
	c0.7-0.8,0.9-2,0.5-3c-0.4-0.8-1-1.5-1.7-2.1c-0.1,0.1-0.1,0.3,0,0.4c0.5,0.4,0.9,0.9,1.2,1.5c0.3,0.9,0.3,1.9-0.1,2.8
	C80,78.3,80.1,78.5,80.3,78.6z M70.2,76.1c0.4-0.2,0.9-0.3,1.3-0.2c0.3-0.1,0.6-0.7,0.1-0.8c-0.7-0.2-1.4,0-1.9,0.5
	C69.5,75.9,69.8,76.4,70.2,76.1z M66.9,79.1c0,0.1-0.1,0.1-0.2,0.1c-0.4,0-0.9,0-1.3-0.2c-0.6-0.1-1.2-0.2-1.8-0.2
	c-1,0-2,0.1-2.4,0.9v0.1c0.2,0.2,0.4,0.4,0.5,0.6c0.1-0.1,0.1-0.1,0.1-0.2c0.3-1.2,2.7-0.8,3.6-0.7s1.6,0.3,2.4,0.4
	c1,0,2-0.2,2.9-0.5c0.1,0,0.2-0.1,0.2-0.2C69.7,79.6,68.2,79.5,66.9,79.1z M45.2,89.7c-0.4,0-0.5-0.8-0.6-1.1S44,88.5,44,88.8
	c0,0.7,0.2,1.8,1.2,1.8C45.7,90.6,45.8,89.7,45.2,89.7z M58.4,81c-0.3,0.1-0.3,0.7,0,0.7c1.4-0.2,1.5,1.7,1.7,2.5
	c0,0.2,0.2,0.3,0.4,0.3c0.1,0,0.3-0.1,0.3-0.3C61.1,82.9,60.1,80.5,58.4,81z M68.7,87.8c0.2-0.1,0.4-0.2,0.5-0.4l0.1-0.1
	c0.2-0.1,0.2-0.3,0.2-0.4c0-0.2-0.2-0.3-0.4-0.3c0,0,0,0-0.1,0l-0.2,0.1c-0.1,0-0.1,0-0.2,0c-0.2,0.1-0.3,0.2-0.4,0.4
	c-0.1,0.1-0.1,0.3,0,0.5C68.4,87.8,68.6,87.9,68.7,87.8z M65.9,89.1c0.6,0,1.2-0.3,1.7-0.6c0.2-0.1,0.3-0.4,0.2-0.7
	c-0.1-0.2-0.3-0.3-0.5-0.2c0,0,0,0-0.1,0c-0.4,0.3-0.9,0.5-1.3,0.6C65.5,88.4,65.4,89.1,65.9,89.1z M78,83c0-0.6,0-1.2-0.1-1.8
	c-0.4,0.1-0.9,0.1-1.3,0.1c0,0.1,0,0.3,0,0.4c0,0.2,0.2,0.3,0.3,0.3c0.2,0.2,0.3,0.5,0.4,0.8c-0.1,0.4-0.4,0.8-0.8,1
	c-0.2,0.2-0.2,0.8,0.2,0.8c0.2,0,0.3,0,0.4-0.1C77.7,84.1,78,83.6,78,83z M84.3,83.1c1.3,0.4,2.7,0.5,3.4-0.8
	c0.8-1.5,0.2-3.3-1.2-4.1c-0.1,0-0.1-0.1-0.2-0.1c0,0,0,0.1,0,0.1c0.5,0.4,0.8,0.9,1.2,1.4c0.2,0.6,0.1,1.3-0.2,1.8
	c-0.3,0.5-0.7,0.9-1.3,1.2c-0.7,0.2-1.3,0.2-2,0c-0.2,0-0.3,0.1-0.4,0.2l0.5,0.1C84.1,83.1,84.2,83.2,84.3,83.1z M83.3,78.8
	c-0.1,0-0.2,0.1-0.2,0.1c-0.2,0.2-0.3,0.4-0.5,0.6c-0.2,0.2-0.2,0.4-0.2,0.7c0,0.1,0,0.1,0.1,0.2l0.1-0.2
	C82.9,79.7,83.1,79.3,83.3,78.8z M87.2,70.3c0,0.6-0.2,1.2-0.6,1.6c-0.1,0.2-0.1,0.4,0,0.5c0.1,0.1,0.4,0.1,0.5,0
	c0.7-0.5,1-1.5,0.8-2.3C87.7,69.6,87.2,69.9,87.2,70.3z M87.4,68.7L87.4,68.7c-0.1-0.1-0.1-0.2-0.1-0.2c-0.1-0.1-0.2-0.1-0.4-0.1
	c-0.2,0.1-0.3,0.2-0.3,0.4c0,0.3,0.1,0.6,0.3,0.8c0.2,0.2,0.4,0.2,0.6,0c0,0,0,0,0,0c0.1-0.1,0.2-0.3,0.2-0.5c0-0.1,0-0.1-0.1-0.2
	L87.4,68.7z M51.8,85.9c0-0.2-0.2-0.4-0.5-0.4c0,0,0,0-0.1,0c-0.1,0-0.2,0.1-0.3,0.2c-0.2,0.1-0.3,0.3-0.3,0.6
	c0,0.2,0.1,0.4,0.2,0.6c0.1,0.1,0.3,0.1,0.5,0.1c0.2-0.1,0.3-0.3,0.3-0.5C51.8,86.3,51.9,86.1,51.8,85.9z M53.8,79.2
	c0.3,0,0.6-0.3,0.8-0.6c0.2-0.2,0.2-0.6,0.1-0.8c0-0.2-0.2-0.3-0.3-0.3c-0.1,0-0.3,0.1-0.3,0.2c-0.1,0.1-0.1,0.2-0.2,0.3
	c-0.1,0.2-0.2,0.3-0.3,0.5c-0.1,0.2,0,0.5,0.2,0.6C53.7,79.1,53.7,79.2,53.8,79.2z M48.8,82.7c0.5-0.3,1.1-0.6,1.5-1
	c0.5-0.4,1.1-0.8,1.6-1.2c0.2-0.1,0.3-0.4,0.2-0.7c-0.1-0.2-0.4-0.3-0.7-0.2c-0.5,0.3-1.1,0.6-1.5,1c-0.5,0.4-1.1,0.8-1.6,1.3
	c-0.2,0.1-0.3,0.4-0.2,0.6C48.3,82.8,48.6,82.8,48.8,82.7z M52.5,72.3c-0.2-0.5-0.4-1.1-0.4-1.7c-0.1-0.5-0.7-0.2-0.7,0.1
	c-0.1,0.8,0,1.5,0.5,2.2C52.2,73.3,52.7,72.7,52.5,72.3z"/>
<path class="st5" d="M79.3,69.8c1-0.3,1.8-1,2.2-2c0.1-0.5,0.2-1,0.1-1.6c-0.1,0-0.3,0.1-0.3,0.2c-0.1,0.3-0.2,0.7-0.4,1
	c-0.3,0.7-0.9,1.2-1.5,1.6l-0.3,0.1C78.8,69.3,78.8,69.8,79.3,69.8z M88.5,82.8L88.5,82.8c0.8-1.6,0.5-3.5-0.8-4.7
	c0-0.1,0.1-0.1,0.1-0.2c0.1-1.2-0.1-2.4-0.7-3.4c0.8-0.4,1.5-1.1,1.7-2c0.1-0.4-0.5-0.4-0.6-0.1c-0.3,0.6-0.9,1.1-1.7,1.1
	c-0.4,0.1-0.8,0.1-1.2,0c-0.3-0.1-0.6-0.2-0.9-0.2c-0.3,0-0.4,0.3-0.4,0.5c0,0,0,0,0,0c0.1,0.4,0.4,0.7,0.8,0.8c0.5,0.1,1,0.1,1.4,0
	c0.5,0.9,0.7,1.8,0.7,2.8c-0.2-0.1-0.3-0.2-0.5-0.2c-0.4-0.2-0.9-0.3-1.4-0.3c-0.2,0-0.4,0.2-0.3,0.4c0,0.2,0.1,0.3,0.3,0.3
	c0.5,0,0.9,0.2,1.3,0.4c1.5,0.7,2.2,2.5,1.5,4c0,0.1-0.1,0.1-0.1,0.2c-0.7,1.3-2.2,1.2-3.4,0.8c-0.1,0-0.2,0-0.2,0L83.6,83
	c-0.5-0.1-0.9-0.3-1.3-0.5C82,82.6,81.9,83,82,83.2c0,0,0.1,0.1,0.1,0.1c0.3,0.3,0.7,0.5,1.1,0.7C85,85.2,87.3,84.6,88.5,82.8
	L88.5,82.8z"/>
<path class="st5" d="M83.6,77.6c0,0.4-0.1,0.8-0.3,1.2c-0.2,0.5-0.4,0.9-0.7,1.3l-0.1,0.2c-0.1,0.1-0.2,0.3-0.3,0.4
	c0.1,0.1,0.2,0.1,0.3,0c0.1-0.1,0.3-0.1,0.4-0.2c0.3-0.2,0.5-0.4,0.6-0.7c0.7,0.3,1.3,0.8,1.6,1.5c0.1,0.1,0.1,0.2,0.2,0.4
	c0.2,0.4,0.7,0.1,0.6-0.3c-0.3-1.1-1.1-2-2.2-2.4C83.8,78.5,83.8,78,83.6,77.6z M79,72c-0.5-0.3-1,0.4-0.6,0.8l0.7,0.6
	c0.7,0.6,1.3,1.3,1.7,2.1c0.4,1,0.2,2.2-0.5,3l-0.2,0.3c-1.2,1.4-3.9,2.4-5,0.4c0-0.1-0.1-0.2-0.2-0.2c-0.2,0-0.4,0.2-0.4,0.4
	c0,0,0,0,0,0.1c0.2,1,1.1,1.7,2.1,1.7c0.4,0,0.9,0,1.3-0.1C78,81.7,78,82.4,78,83c-0.1,0.6-0.3,1.1-0.8,1.4
	c-0.2,0.1-0.3,0.3-0.5,0.4c-0.2,0.1-0.2,0.4-0.1,0.6h0.1c0.8-0.6,1.7-0.9,2.7-1l0.6-0.1c0.2,0,0.4-0.2,0.4-0.4
	c0-0.1-0.1-0.3-0.2-0.3l-0.2-0.1c-0.4-0.1-0.8-0.1-1.2,0.1c0.3-0.8,0.2-1.7-0.1-2.6c0.6-0.2,1.1-0.5,1.5-0.9c1.2-1,1.8-2.5,1.6-4.1
	C81.4,74.4,80.4,72.9,79,72L79,72z"/>
<path class="st5" d="M75.2,77L75.2,77c1.2-0.4,2.3-0.4,2.8,0.8c0.1,0.2,0.3,0.2,0.5,0.1c0.1-0.1,0.2-0.2,0.2-0.3
	c0-0.9-0.8-1.6-1.7-1.7c-0.3-0.1-0.7-0.1-1,0h-0.1v-0.1c0.1-0.3,0.2-0.6,0.2-0.9c0-0.1,0-0.2-0.1-0.2c-0.1-0.2-0.3-0.2-0.5-0.1
	c-0.1,0-0.1,0.1-0.1,0.1c-0.3,0.7-0.7,1.4-1.3,2c-0.6,0.6-1.4,1.1-2.2,1.4c-1.5,0.6-3.2,0.7-4.7,0.3c0.1-0.3,0.2-0.6,0.3-0.9v-0.1
	c0-0.2,0.1-0.4,0.2-0.6l0.1-0.1c0.1-0.2,0.2-0.3,0.3-0.4l0.1-0.1c0.1-0.2,0.3-0.3,0.5-0.4c-0.3,0-0.6,0-0.8,0.2h-0.1
	c-0.8,0.5-1.3,1.3-1.4,2.2C66.1,78,65.7,78,65.3,78c-0.8-0.1-1.5-0.1-2.3,0c-0.8,0.1-2.3,0.5-2.4,1.4h-0.1c-0.6-0.2-1.2-0.3-1.8-0.3
	h-0.2l0.1-0.1c0.2-0.3,0.3-0.6,0.4-0.9c0.1-0.1,0-0.3-0.1-0.4c-0.2-0.1-0.4-0.1-0.5,0.1c0,0,0,0,0,0c-0.5,0.7-1,1.4-1.6,2.1
	c-0.6,0.5-1.2,1-1.9,1.3c-1.3,0.5-2.6,1.2-3.8,2.1c-0.8,0.8-1.6,1.7-2.5,2.4c-0.5,0.5-1,0.8-1.7,1c-0.1,0-0.3,0-0.4,0h-0.1
	c-0.3,0-0.6-0.1-0.8-0.3c0,0.1,0,0.2,0,0.3c0.4,1.3,1.5,1.1,2.5,0.4c-0.4,1.1,0.2,2.3,1.3,2.6c0,0,0,0,0.1,0c0.7,0.2,1.5,0.2,2.2,0
	c0,0.1,0.1,0.1,0.1,0.1c1.7,1.4,4.2,1.9,5.9,0.2c0.4,0.4,1,0.7,1.6,0.9c0.5,0.2,0.8-0.7,0.3-0.8c-1-0.2-1.8-1-2-2.1
	c-0.2-0.9,0-1.8,0.6-2.6c0-0.1-0.2-0.2-0.3-0.2c-0.1,0-0.1,0.1-0.1,0.1c-0.8,0.9-1.1,2.1-0.8,3.3c0.1,0.3,0.2,0.5,0.3,0.7
	c-0.7,0.5-1.6,0.8-2.5,0.8c-0.8-0.1-1.5-0.4-2.2-0.9l-0.1-0.1c0.2-0.1,0.3-0.2,0.5-0.3c0.1-0.1,0.2-0.2,0.2-0.3l-0.3,0.1
	C52.3,89,52,89,51.6,89c-0.6,0.1-1.1,0.1-1.7-0.1c-1-0.2-1.1-1-1.3-1.8c0-0.1-0.1-0.2-0.2-0.2c0.5-0.4,0.9-0.7,1.3-1.1
	c0.6-0.6,1-1.1,1.3-1.3c1.2-1,2.6-1.8,4-2.3c1-0.5,1.8-1.2,2.6-2c0.9-0.2,1.9-0.1,2.7,0.3c0.5,0.1,0.9,0.5,1.1,0.9
	c0.3,0.7,0.5,1.4,0.5,2.1c0.1,0.1,0.3,0.1,0.4,0c0-0.4,0-0.8,0-1.3c-0.1-0.6-0.4-1.2-0.7-1.7c-0.2-0.2-0.3-0.4-0.5-0.6v-0.1
	c0.5-0.8,1.5-0.9,2.4-0.9c0.6,0,1.2,0.1,1.8,0.2c0.4,0.1,0.8,0.2,1.3,0.2c0.1,0,0.1-0.1,0.2-0.1c1.3,0.5,2.8,0.5,4.2,0.2
	c0.5-0.1,1-0.3,1.5-0.4C73.5,78.5,74.4,77.8,75.2,77L75.2,77z M54,66L54,66c0-0.1-0.1-0.2-0.1-0.3c-0.1,0-0.2,0-0.2,0
	c-0.1,0.4-0.1,0.9,0,1.3l0.2,0.3c0.2,0.3,0.3,0.5,0.4,0.7c0.2,0.5,0.4,1,0.5,1.5c0.2,0.5,0.3,1.1,0.3,1.7c0,0.5-0.1,1-0.2,1.5
	c0.2,0,0.4-0.1,0.4-0.3c0.3-0.7,0.4-1.5,0.4-2.2c0-0.6-0.2-1.2-0.3-1.8l-0.1-0.2c0,0,0-0.1,0-0.2c0-0.1,0-0.1,0-0.2
	c0-0.1,0-0.1,0-0.2c0-0.1,0.1-0.2,0.1-0.2c0-0.1,0-0.1,0.1-0.2c0.1-0.2,0.2-0.3,0.3-0.4l0.1-0.1c0.2-0.3,0.5-0.6,0.8-0.8
	c0.9-0.8,1.9-0.8,3-1.1h0.1c0.5,0.6,1.2,1,2,1.1c0.1,0,0.1,0,0.2,0c-0.4-0.3-0.8-0.6-1.1-1c-0.2-0.3-0.3-0.5-0.5-0.8
	c-0.4-0.6-0.6-1.2-0.6-1.9c0-0.4,0-0.8,0.1-1.2c0-0.4,0.1-0.8,0.2-1.2c0.1-0.2,0.1-0.5,0.2-0.7c0.2-0.4,0.4-0.9,0.6-1.2
	c-0.1-0.1-0.3,0-0.4,0.1c-0.6,0.5-1.1,1.3-1.3,2.1c-0.2,0.8-0.4,1.6-0.3,2.5c0,0.5,0.1,0.9,0.3,1.4c0,0.1,0.1,0.2,0.2,0.3h-0.2
	c-0.3,0-0.5,0.1-0.8,0.1c-1.1,0.2-2,0.7-2.8,1.4c-0.3,0.3-0.6,0.7-0.8,1.1l-0.3-0.5C54.2,66.3,54.1,66.1,54,66z"/>
<path class="st6" d="M33.9,74.4h-0.1c-0.4,0-0.5,0.7,0,0.7h0.1c0.2,0,0.4-0.2,0.4-0.4c0,0,0-0.1,0-0.1C34.2,74.5,34,74.4,33.9,74.4z
	"/>
<path class="st5" d="M68.8,91.1c3.2-0.3,4.2-3.6,8.5-2.7c1.1,0.1,2.2-0.1,3.2-0.6c0.9-0.3,1.6-0.8,2.3-1.4c0,0.1,0.1,0.3,0.2,0.3
	c1.5,0.9,3.6,0,4.8-1c1.5-1.3,2.6-3.1,3.1-5c0.7-2,0.9-4.2,0.8-6.3c-0.1-1.6-0.6-3.7-2-4.8c0,0-0.1-0.1-0.2-0.1
	c-0.2-1-0.6-1.9-1.3-2.7c-0.5-0.5-1-1-1.6-1.4c-0.4-0.3-0.8-0.5-1.2-0.7c0.1-0.5,0.1-1.1-0.1-1.5c0-0.1,0-0.1,0-0.2
	c-0.7-2.2-2.3-4-4.3-5c-0.3-0.1-0.5-0.2-0.8-0.3c-0.1-0.1-0.2-0.3-0.3-0.5c-0.3-0.5-0.7-0.8-1.1-1.1c-0.5-0.3-1-0.6-1.6-0.7h-0.1v0
	c0.1-0.2,0.1-0.3,0-0.5c-1-1.7-2.9-2.7-4.8-2.7c-0.9,0-1.7-0.3-2.5-0.7c-2.6-1.4-5.5-1.1-8.3-0.8c0-0.1-0.1-0.1-0.2-0.2
	c-4.3-1.7-9.1-1.1-12.9,1.4c-0.1,0-0.1-0.1-0.2-0.1c-0.9,0-1.8,0.1-2.7,0.4c-1.3,0.3-2.6,0.7-3.8,1.2c-1.1,0.5-3.4,1.7-3.4,3.2h-0.1
	c-2.5,1.5-5.1,3.2-5.7,6.1c-1.2,0.1-1.9,1.6-2.3,2.6c-0.5,1.4-0.8,2.9-0.8,4.3c0,0,0,0.1,0,0.1c0,0,0,0.1,0.1,0.1l0,0.1
	c-0.5,0.7-0.9,1.5-1.2,2.3c-0.3,1-0.8,3.1,0.6,3.5c-0.5,1.1-0.7,2.4-0.5,3.6c0,0.1,0.1,0.3,0.2,0.3c-0.2,0.9-0.1,1.8,0.2,2.7
	c0.2,1.2,0.6,2.3,1.2,3.3l0.1,0.1c0.2,0.3,0.4,0.5,0.6,0.7c1.3,1.2,3.3,1.5,5,1.9c1.1,0.4,2.3,0.5,3.4,0.6c0.5,0,1-0.1,1.4-0.3
	c0.5-0.4,0.9-0.7,1.5-1h0.3c-0.1,0.7-0.1,1.5,0.1,2.2c0.6,2.6,4,3.9,6.6,3.1c0.1,0,0.2-0.1,0.3-0.2c0.8,0.6,1.7,1,2.6,1.2
	c1.8,0.4,3.7,0.3,5.5-0.2c0.2-0.1,0.3-0.2,0.3-0.4v-0.1l0.4,0.1c0.5,0.1,1.1,0.1,1.6,0c1.4-0.2,3.3-2.4,4.7-2.3 M42.7,86.8
	c-0.1,0.2-0.1,0.3-0.2,0.5c0,0-0.1,0-0.2,0h-0.1c-0.1-0.1-0.2-0.1-0.3,0c-0.7,0.4-1.4,0.7-2.2,1c-1,0.1-1.9,0-2.9-0.3
	c-0.7-0.2-1.4-0.4-2-0.6c-0.4-0.8-0.7-1.6-0.8-2.4c0,0,0-0.1,0-0.1c-0.1-0.4-0.1-0.7,0-1.1c0-0.2,0.1-0.5,0.2-0.7
	c-0.1,0-0.1,0-0.1,0.1c-0.2,0.2-0.3,0.4-0.4,0.6c-0.2-0.6-0.4-1.2-0.4-1.8c0-0.1,0-0.1,0-0.2v-1.3c-0.1,0-0.1,0-0.2,0
	c-0.2,0.3-0.3,0.6-0.4,0.9c-0.1,0.5,0,1.1,0.1,1.6l-0.1-0.1l0.1,0.2c0.1,0.4,0.3,0.8,0.5,1.2h0l0.1,0.2c-0.1,0.8,0,1.6,0.3,2.3
	l0.1,0.2l-0.4-0.1c-0.4-0.1-0.8-0.3-1.2-0.5c-0.6-0.3-1.1-0.8-1.4-1.3c-0.3-0.5-0.5-1.1-0.8-1.7c-0.4-0.9-0.6-1.9-0.5-2.9
	c0-0.1,0-0.1,0-0.2c0.1-0.6,0.3-1.2,0.6-1.7c-0.1,0-0.2,0-0.3,0.1c-0.3,0.1-0.5,0.3-0.6,0.5v-0.4c0-0.8,0.1-1.6,0.5-2.4
	c0.2-0.5,0.6-0.9,1.1-1.3c0.1-0.1,0.2-0.1,0.3-0.2l0.2-0.1c0.5-0.3,1-0.5,1.6-0.6c0-0.2-0.1-0.3-0.2-0.4c-1-0.2-2.1,0.2-2.7,1
	c-0.2,0.2-0.3,0.3-0.4,0.5h-0.1c-0.2,0-0.5-0.2-0.5-0.4c0-0.8,0.1-1.5,0.4-2.2c0.1-0.3,0.3-0.7,0.5-1c0.5-0.7,1.1-1.3,1.9-1.7h0.1
	c0.1,0.2,0.2,0.3,0.3,0.4c0.1,0.1,0.2,0.2,0.3,0.2c0.3,0.2,0.6,0.2,0.9,0.2V71c-0.3,0.8-0.3,1.6-0.3,2.4c0,0.2,0,0.3,0.1,0.5
	c0,0.1,0.1,0.3,0.3,0.3h0.1c0.1,0,0.3,0,0.3-0.2c0.1-0.3,0.2-0.6,0.1-0.9c0-0.2-0.1-0.5-0.1-0.7c0.1-0.6,0.2-1.2,0.4-1.7
	c0.3-0.1,0.7-0.2,1-0.4l0.7-0.3c0.1,0,0.2-0.1,0.2-0.2c0.4,0.7,1,1.2,1.7,1.5c0.4,0.2,0.6-0.5,0.3-0.7l-0.1-0.1
	c-0.7-0.4-1.3-1-1.7-1.8c-0.1-0.2-0.2-0.4-0.3-0.6c-0.1-0.4,0-0.8,0.1-1.1c-0.1,0-0.3,0.1-0.3,0.2c-0.2,0.6-0.3,1.2,0,1.8h-0.1
	c-0.4,0.1-0.7,0.2-1.1,0.4l-0.3,0.1l-0.3,0.1c-0.1,0-0.2,0-0.2,0.1c-0.5,0.1-1,0-1.3-0.4l-0.1-0.1c-0.6-0.8,0-2,0.6-2.6
	c1-1,3-1.7,4.3-1c0.1,0.1,0.3,0.2,0.4,0.3c0.2,0.2,0.4,0.5,0.6,0.8c0,0.1,0.1,0.2,0.2,0.2c-0.1,0.1-0.1,0.2,0,0.3
	c0.5,1,1.4,1.7,2.5,1.9c0.9,0.1,1.8-0.6,1.9-1.5c0-0.2,0-0.4-0.1-0.6c0-0.2-0.2-0.3-0.4-0.3c0,0,0,0,0,0c0,0.4-0.2,0.7-0.4,1
	c-0.1,0.1-0.2,0.2-0.3,0.3c-0.3,0.2-0.6,0.2-0.9,0.1c-0.8-0.2-1.4-0.6-1.7-1.3c0-0.1-0.1-0.2-0.2-0.2c0,0,0.1-0.1,0.1-0.2
	c0-0.1,0-0.1,0-0.2c-0.1-0.3-0.4-0.7-0.6-0.9l-0.2-0.2c0,0,0.1-0.1,0.1-0.2l0.1-0.2c0.2-0.9,0.9-1.7,1.8-2.1
	c0.9-0.3,1.8-0.6,2.8-0.8c0.9-0.2,2-0.9,3-1.1c0.9-0.5,2-0.2,2.5,0.6c0.1,0.1,0.2,0.3,0.3,0.4c0.2-0.1,0.2-0.3,0.2-0.5
	c-0.1-0.5-0.4-0.9-0.8-1.1c0.1-0.1,0.1-0.3,0-0.4c0,0-0.1-0.1-0.2-0.1c-0.2,0-0.3,0.1-0.3,0.3c-1.4-0.3-3.3,0.8-4.6,1.1
	c-0.6,0.1-1.2,0.3-1.7,0.4c-1.7,0.5-3.3,1.3-3.5,3.3c-0.9-0.4-1.9-0.4-2.8-0.2c0.1-0.3,0.2-0.6,0.2-0.9c0.1-0.2,0-0.3-0.2-0.4
	c0,0,0,0,0,0c-0.2,0-0.3,0.1-0.4,0.2c-0.1,0.3-0.1,0.5-0.2,0.8c-0.1,0.2-0.1,0.3,0.1,0.5c-0.8,0.3-1.6,0.8-2.2,1.4
	c-0.6,0.7-0.9,1.5-0.9,2.4c0,0.2,0,0.4,0.1,0.6c-0.1,0-0.2,0-0.3,0c-0.3,0.1-0.6,0.2-0.9,0.4l-0.1,0.1c0-0.7,0.1-1.4,0.3-2.1
	c0.1-0.4,0.2-0.7,0.3-1.1c0.2-1.1,0.8-2,1.8-2.6l0.2-0.1c0,0.1,0.1,0.2,0.2,0.3c0.1,0.1,0.2,0.1,0.3,0.1v-0.2c0-0.4,0.1-0.9,0.2-1.3
	c0.4-1,0.9-1.8,1.7-2.5c1.1-0.9,2.3-1.8,3.6-2.6l0.1,0.1c0,0.1,0.1,0.1,0.2,0.1c0-0.2,0-0.3,0-0.5c0.1-0.4,0.3-0.9,0.7-1.2
	c0.7-1,2.3-1.6,3.3-1.9c1.6-0.6,3.2-1,4.9-1.2l-0.2,0.2c0,0.1-0.1,0.1,0,0.2c0,0.1,0.1,0.2,0.2,0.2c0.3-0.2,0.5-0.4,0.8-0.6
	c0.6-0.5,1.2-0.9,2-1.1c3-1.2,6.3-1.5,9.5-0.8c-0.1,0.2-0.2,0.5,0.1,0.5c1.5,0.1,3,0.1,4.4-0.1c1.7-0.2,3.5,0.1,5,1
	c0.5,0.3,1,0.5,1.6,0.7c0.8,0.2,1.6,0.1,2.4,0.3c1.1,0.3,2.1,0.9,2.8,1.8l0.2,0.2c-0.2,0-0.3,0-0.4,0.1H76c-0.1,0.1-0.2,0.2-0.3,0.4
	c-0.3-0.2-0.7-0.4-1-0.5c-0.3-0.1-0.6-0.2-0.9-0.3c-0.5-0.1-1-0.2-1.6-0.2c-0.1,0-0.1,0-0.2,0.1L72,55.1V55c0-0.4-0.2-0.7-0.4-0.9
	c-0.8-0.6-1.9-0.9-2.9-0.8c-0.8-0.1-1.6-0.3-2.4-0.6c-0.2,0-0.4-0.1-0.6-0.1c-0.8-0.1-1.7,0.2-2.3,0.8v0c-0.1-0.2-0.3-0.4-0.5-0.6
	c-0.5-0.3-1.1-0.4-1.7-0.4h-0.6c-1.3,0-2.5,0.2-3.8,0.6c-0.4,0.1-0.9,0.3-1.2,0.5c-0.1-0.4-0.4-0.7-0.7-0.9c-1-0.3-2-0.2-2.9,0.2
	L51.3,53c-0.6,0.3-1.2,0.8-1.6,1.3c-4.8,2.2-11,2.9-14,7.4c-0.2,0.2-0.3,0.5-0.5,0.8s0.3,0.8,0.5,0.3c2.7-4.9,8.6-5,13.3-7.2
	c0,0.1,0,0.2,0,0.4c0,0.2,0.1,0.4,0.3,0.4c0.1-0.3,0.2-0.6,0.4-0.9c0.2-0.5,0.7-0.9,1.2-1.1c0.1-0.1,0.3-0.2,0.5-0.3
	c0.2-0.1,0.4-0.2,0.6-0.3c0.5-0.3,1.1-0.4,1.7-0.4c0.5,0.1,1,0.3,1.4,0.7h0.1c-0.1,0-0.2,0.1-0.2,0.2c-0.1,0.2-0.1,0.4-0.2,0.6
	c-0.2-0.5-0.7-0.9-1.2-0.9h-0.2c0.2,0.1,0.4,0.3,0.5,0.5c0.1,0.2,0.2,0.4,0.2,0.7v0.3c0.3,0.7,0,1.5-0.7,1.8
	c-0.2,0.1-0.3,0.1-0.5,0.1c-0.2,0-0.5,0-0.7,0c-1.2-0.2-2.5-0.6-3.5,0.5c-0.1,0.2-0.1,0.4,0,0.6c0.6-0.4,1.4-0.5,2.1-0.3
	c0.2,0,0.5,0,0.7,0.1s0.7,0.1,1,0.1c-0.5,0.8-0.8,1.7-1,2.6c0,0.2-0.1,0.4-0.1,0.6c-0.2,0.7,0,1.5,0.4,2.1c-0.8,0.9-1.4,1.9-1.8,3
	c-0.2,0.4-0.3,0.8-0.4,1.2c-0.1,0-0.2-0.1-0.3-0.1c-0.3,0-0.6,0-0.9,0.1l-0.6,0.1c0,0,0-0.1,0-0.1c-0.7-0.9-1.3-1.9-1.8-2.9
	c-0.2-0.3-0.4-0.6-0.6-0.9c-0.2-0.5-0.3-1.1-0.2-1.6c0,0-0.1,0.1-0.1,0.2C45,63,44.9,63.5,45,64.1c-0.5-0.3-1-0.5-1.6-0.7
	c0.6,0.5,1.1,1,1.6,1.6c0.1,0.1,0.2,0.3,0.2,0.4c0,0,0.1,0,0.1,0.1c0.4,0.9,0.9,1.8,1.7,2.5L47,68H47c-0.7,0.2-1.4,0.5-2,0.9
	c-1.3,0.7-2.4,1.9-2.9,3.3c0,0.2-0.1,0.3-0.1,0.5c-0.5,0-1-0.1-1.4-0.4c-0.5-0.3-0.9-0.7-1.2-1.2c-0.2-0.1-0.4-0.1-0.5,0
	c-0.1,0.1-0.1,0.2-0.1,0.3c0,0.1,0,0.1,0,0.2c0.2,0.4,0.5,0.7,0.8,1c-0.3,0.2-0.6,0.4-0.8,0.7c-0.5,0.7-0.7,1.5-0.6,2.3
	c-0.1,0.1-0.2,0.3-0.3,0.5h-1c-0.6,0.2-1.3,0-1.9-0.3l-0.1-0.1c-0.2-0.1-0.3-0.3-0.4-0.5c-0.1,0.1-0.2,0.3-0.2,0.4
	c0,0.1,0,0.2,0.1,0.3c0.4,1.2,1.8,1.2,3,1.1c-0.2,0.5-0.3,0.9-0.3,1.4c-0.1,0-0.1,0-0.2,0c-0.1,0-0.2,0-0.3,0.1
	c-1.3,0.4-1.7,2.3-1.6,3.8c0.1,0.1,0.1,0.2,0,0.3c0,0.4,0.1,0.8,0.3,1.1c0,0.2,0.2,0.2,0.4,0.2c0,0,0,0,0,0
	c-0.2-0.7-0.2-1.5-0.1-2.3c0-0.3,0.1-0.5,0.2-0.8c0.1-0.5,0.3-1,0.7-1.4c0.1-0.2,0.3-0.3,0.4-0.4c0.1,0,0.1-0.1,0.1-0.2
	c0.1,0.6,0.4,1.2,1,1.6c0.4,0.2,0.8,0.3,1.2,0.4c0.1,0,0.2,0,0.2-0.1c-0.6-0.4-1.2-0.9-1.5-1.6c-0.2-0.3-0.3-0.6-0.3-1
	c0-0.6,0.2-1.2,0.5-1.7c0.1,0.3,0.3,0.6,0.6,0.9c0.1,0.1,0.2,0.1,0.3,0.1c-0.4-0.9-0.8-2.6-0.2-3.2c0.2-0.5,0.5-0.9,1-1.1
	c0.1,0,0.1-0.1,0.1-0.1c0.2,0.1,0.3,0.2,0.5,0.2c0.4,0.1,0.9,0.2,1.3,0.1c0.1,0.5,0.4,0.9,0.7,1.3l0.1,0.1c0.1,0.1,0.3,0.1,0.4,0
	c0,0,0,0,0,0c-0.4-0.6-0.6-1.3-0.6-2c0-0.1,0-0.2,0-0.3c0.2-1.9,2.8-3.4,5-3.8c0.4-0.1,0.9-0.2,1.4-0.2h0.2c-0.1,0.5-0.2,1-0.2,1.5
	v0.1c-0.1,1-0.1,2,0.1,2.9c0,0.2,0.1,0.4,0.2,0.6c0.2,0.4,0.7,0.1,0.7-0.2c0-1-0.2-2.1-0.1-3.1c0.1-1.1,0.3-2.3,0.6-3.4
	c0.5-1.8,1.6-3.3,3.2-4.3c0.4-0.5,1-0.8,1.6-1c0-0.2-0.1-0.4-0.3-0.4c-0.1,0-0.1,0-0.2,0c-0.6,0.2-1.3,0.4-1.8,0.8
	c-0.2,0.2-0.5,0.3-0.7,0.5l0-0.1C52.1,62.5,52,62.3,52,62c-0.1-0.5,0-1,0.1-1.5c0.2-0.7,0.5-1.3,0.8-1.9c0.1-0.2,0.2-0.4,0.4-0.5
	c0.8-0.1,1.5-0.8,1.6-1.6c0.6-0.4,1.3-0.7,2-0.6c0.2,0,0.3-0.2,0.3-0.4c0-0.1-0.1-0.3-0.3-0.3c-0.2,0-0.4,0-0.7,0
	c-0.3,0-0.7,0.1-1,0.2L55,55.5c0.1-0.1,0.1-0.2,0.2-0.3c0.1-0.2,0.2-0.5,0.2-0.7c0,0,0-0.1,0-0.1c0.2,0,0.3-0.2,0.4-0.3
	c0.1-0.1,0.2-0.1,0.3-0.1c0.3-0.2,0.7-0.3,1.1-0.3c0.5,0,0.9-0.1,1.4-0.2c0.5-0.1,1-0.1,1.6-0.1c0.8-0.1,1.5,0.1,2.2,0.5
	c0.1,0.2,0.2,0.4,0.1,0.6c0,0.2-0.1,0.3-0.2,0.4c-0.2,0.5-0.5,0.9-0.8,1.3L61.3,56c0,0.2,0.1,0.3,0.3,0.3c0.5-0.5,1.1-1,1.5-1.6
	c0.1-0.2,0.1-0.4,0.2-0.5v-0.2c0.6-0.7,1.5-1,2.4-0.9c0.8,0.1,1.5,0.5,2.3,0.6c0.6,0.1,1.3,0.1,1.9,0.2H70c0.7,0.1,1.1,0.7,1.2,1.3
	c0.1,0.4,0.6,0.3,0.7-0.1c0.1,0.1,0.1,0.1,0.2,0.1c1.5,0.1,2.9,0.7,4,1.7c0.1,0,0.2,0.1,0.2,0.1c0.6,0.5,0.9,1.2,1,1.9
	c0,0,0,0.1,0,0.1c0.2,0,0.3-0.1,0.4-0.3c0,0,0-0.1,0-0.1c0-0.7-0.3-1.4-0.8-2l-0.1-0.1c-0.1-0.1-0.2-0.3-0.4-0.4l-0.2-0.2h0.3
	c1.4,0,2.7,0.9,3.1,2.2v0.1c0,0.1,0.1,0.1,0.2,0.1c0.9,0.2,1.8,0.6,2.5,1.2c0.6,0.6,1.2,1.3,1.7,2c0.2,0.2,0.3,0.5,0.4,0.7l0.2,0.3
	c0,0.1,0,0.2,0,0.3c0.1,0.5,0.2,0.9,0.3,1.4v0.3h0c-0.1,0-0.1,0-0.2,0.1c-0.3-1.2-0.9-2.3-1.7-3.2c-0.1-0.2-0.3-0.3-0.4-0.5
	c-0.5-0.5-1.1-0.8-1.8-0.9c-0.5-0.1-1.1-0.1-1.6,0c-0.1,0-0.2,0.2-0.3,0.3c-0.1-0.1-0.2-0.2-0.3-0.3c-0.9-0.5-2-0.6-3-0.3
	c-0.3,0-0.6,0.1-0.8,0.2c0-0.1,0-0.2,0-0.2c-0.2-1.2-0.8-2.3-1.9-3c-1.2-0.6-2.7-0.6-3.9,0c0.1-0.6-0.2-1.2-0.7-1.6
	c-0.1-0.1-0.3-0.1-0.4,0c0,0,0,0,0,0c0.3,0.4,0.4,0.8,0.3,1.3c0.1,0.2,0.1,0.4,0,0.7c-0.3,0.5-0.8,0.9-1.3,1.1
	c-0.9,0.5-1.8,0.9-2.7,1.3c-0.1-0.2-0.3-0.4-0.5-0.6c-0.4-0.3-0.8,0.3-0.6,0.6c0.3,0.6,0.6,1.2,0.9,1.9c0.2,0.9,0.3,1.8,0.3,2.7
	c0.1,1.2-0.4,2.4-1.3,3.1c-0.1,0-0.3,0.1-0.3,0.2c-0.3,0.1-0.7,0.2-1,0.2c-0.2,0-0.4,0.2-0.4,0.4c0,0.2,0.2,0.4,0.4,0.4h0.1
	c0.3,0,0.7,0,1-0.1c0.1,0.5,0.3,1.1,0.5,1.6l0.1,0.3l0.1,0.2c0.1,0.4,0.2,0.7,0.3,1.1v0.1c-0.1,0-0.1,0-0.2,0.1l-0.1,0.1
	c-1.2,1.5-2.9,2.6-4.8,3c-0.9,0.2-1.9,0.3-2.9,0.1c-0.2,0-0.4-0.1-0.5-0.2c-0.6-0.3-1.2-0.6-1.7-1c-0.5-0.3-0.8,0.3-0.7,0.7v0.1
	c0.2,0.5,0.5,1,1,1.3c-0.2,0.2-0.4,0.4-0.7,0.6C51.8,77.3,50.2,78,49,77c-0.5-0.4-0.8-0.9-1-1.5c-0.3-0.5-0.4-1.1-0.5-1.7
	c-0.1-0.6-0.1-1.2-0.1-1.8c-0.2,0-0.4,0.1-0.4,0.3c-0.1,0.6-0.2,1.1-0.1,1.7c0.1,0.4,0.2,0.9,0.3,1.3c0.2,1,0.7,2,1.5,2.7
	c0.2,0.2,0.4,0.3,0.7,0.4L49,78.7c-0.4,0.4-0.8,0.7-1.2,1.1c-0.1,0-0.2,0-0.3,0c-1,0.3-2.1,0.2-3.1-0.3h-0.1
	c-0.5-0.2-0.9-0.4-1.2-0.7c-0.5-0.4-1-1-1.3-1.6c-0.2,0.1-0.2,0.3-0.2,0.5c0.2,0.5,0.5,0.9,0.8,1.3c0.9,1,2.2,1.7,3.6,1.8h0.3
	l-0.2,0.1c-0.4,0.2-0.9,0.4-1.4,0.6h-0.2c-0.6,0.1-1.2,0.1-1.7,0.2c-0.2,0.1-0.4,0.3-0.3,0.5c0,0.1,0.1,0.2,0.2,0.3
	c0.8,0.3,1.8,0.2,2.5-0.2c-0.8,1-1.5,2-2.1,3.2C43,85.9,42.8,86.3,42.7,86.8L42.7,86.8z M73.9,60.3c-0.6,0.2-1.2,0.5-1.7,0.9
	c-0.6-0.6-1.3-0.9-2.2-1c-1.8-0.1-3.6,0.4-5,1.5h-0.1c-0.1,0.1-0.3,0.2-0.4,0.4c0-0.2-0.1-0.4-0.1-0.6c-0.1-0.4-0.2-0.8-0.3-1.2
	c1-0.7,2.4-1,3.4-1.9c0.3-0.3,0.6-0.6,0.8-0.9v-0.1c0.1,0.1,0.2,0.2,0.4,0.1c0,0,0,0,0,0c1-0.4,2.2-0.4,3.2,0
	c0.9,0.5,1.5,1.3,1.7,2.3l0.1,0.2C73.8,60.1,73.8,60.2,73.9,60.3L73.9,60.3z M70.2,85.2h0.3c0.1,0.1,0.2,0.1,0.2,0.2
	c0.2,0.2,0.4,0.5,0.6,0.7c0.4,0.6,0.6,1.3,0.6,2c0,0.1,0,0.1,0,0.2v0.1l-0.1,0.1c-0.8,0.5-1.6,0.8-2.5,1.1c-2.8,0.8-5.7,0.6-8.3-0.6
	c-0.4-0.2-0.7,0.6-0.4,0.8l0.2,0.1c0.6,0.3,1.2,0.6,1.8,0.8h0.1c-0.7,1-1.7,1.7-2.9,2c-0.4,0.1-0.8,0.1-1.3,0
	c-0.8-0.1-1.6-0.4-2.4-0.5H56c-0.3,0-0.6,0.5-0.2,0.7l0.4,0.2h0.1h-0.2c-1.3,0.2-2.6,0.2-3.9,0.1c-0.9-0.1-1.8-0.5-2.5-1.1
	c-0.5-0.2-1-0.6-1.3-1.1l-0.2-0.2c-0.1,0.1-0.2,0.4-0.1,0.6c0.1,0.1,0.1,0.3,0.2,0.4l0.2,0.3H48c-0.8,0.2-1.7,0.1-2.5-0.1
	c-0.3-0.1-0.6-0.3-0.9-0.6c-0.5-0.5-0.9-1.1-1-1.8c-0.7-3,2.1-5.3,3.3-7.8l0.2-0.1c1.3-0.8,2.4-1.8,3.3-3c1.6,0.1,3.2-1.3,4.2-2.4
	c1.3,0.4,2.7,0.4,4,0.1c1.2-0.3,2.3-0.7,3.2-1.4c0.8-0.6,1.5-1.4,2-2.4c0.2,0.6,0.6,1.1,1.1,1.5c0.7,0.7,1.7,1,2.7,0.8
	c0.7-0.1,1.4-0.5,1.9-1.1h0.1c1.2-0.5,2,0.6,2.9,1c0.3,0.1,0.6-0.4,0.5-0.6c-0.2-0.3-0.4-0.6-0.8-0.8c-0.6-0.4-1.2-0.6-1.9-0.7h-0.1
	v-0.1c0.3-0.5,0.4-1.1,0.5-1.7c0.1-0.8,0.1-1.6,0-2.4c0.8-0.2,1.6-0.2,2.3,0c0.3,0.1,0.6,0.2,0.8,0.4c0.2,0.2,0.3,0.4,0.4,0.6
	c-0.4,0-0.8,0-1.2,0c-0.4,0-0.5,0.7-0.1,0.7l0.7,0.1c0.5,0,0.9,0.1,1.4,0.3c0.6,0.2,1.1,0.8,1.2,1.5c0,0.1,0,0.2,0.1,0.3
	c0.1,0.2,0.3,0.3,0.5,0.3c0.2-0.1,0.3-0.2,0.3-0.4c0-0.9-0.5-1.8-1.3-2.3c-0.2-0.1-0.4-0.2-0.6-0.2c-0.2-2-2.8-2.6-4.6-2.1
	c-0.1-0.9-0.2-1.7-0.2-2.6c0-0.1,0-0.1,0-0.2c-0.3,0.8-0.5,1.7-0.6,2.5c0.1,0.8,0.2,1.6,0.2,2.4c0,1.9-0.4,3.6-2.7,3.9
	c-2.5,0.3-2.8-2.3-3.4-4.4c-0.1-0.5-0.3-0.9-0.5-1.4c0.9-0.8,1.4-1.9,1.5-3.1c0-0.3,0.1-0.5,0.1-0.8v-0.5c0,0,0.1-0.1,0.1-0.1
	c0.2-0.4,0.4-0.7,0.7-1c0.5-0.4,1-0.6,1.5-0.8c1-0.4,2.1-0.5,3.2-0.3l0.2,0.1c1.4,0.4,2,1.6,2.4,2.9c0.1,0.2,0.1,0.4,0.2,0.6
	s0.2,0.7,0.3,1c0,0.1,0.1,0.2,0.2,0.2c0.1-0.5,0.1-0.9,0.1-1.4v-1c-0.2-0.7-0.5-1.3-0.9-1.8c0.6-0.4,1.3-0.7,2-0.8l0.3-0.1
	c0.8-0.2,2.2-0.4,2.8,0.2c0.5,0.6,0.7,1.3,0.6,2v0.5c0,0.8-0.2,1.6-0.3,2.4c0.3-0.5,0.6-0.9,0.8-1.4c0.1-0.2,0.2-0.5,0.3-0.7
	c0.1-1,0-2-0.4-2.9c0.3,0.1,0.7,0.1,1,0.1c0.6,0.1,1.1,0.3,1.6,0.6c0.4,0.3,0.7,0.6,1,1c0.5,0.8,0.9,1.6,1.2,2.5
	c0.2,0.7,0.3,1.5,0.1,2.2c-0.1,0.5-0.3,0.9-0.5,1.4c-0.4,0.7-1,1.2-1.7,1.6c-0.5,0.2-1,0.4-1.4,0.6c-0.4,0.1-0.5,0.9,0,0.9
	c1.5-0.1,2.8-1,3.6-2.3c0.1-0.1,0.2-0.3,0.3-0.4c0.6-1.1,0.8-2.3,0.7-3.5c0.3,0.2,0.8,0.4,1.2,0.6c0.5,0.3,1,0.7,1.5,1.2
	c0.4,0.5,0.8,1,1,1.6c0.2,0.7,0.4,1.4,0.4,2.1c0,0.6,0.8,0.5,0.8,0v-0.2c1.7,2.8,1.5,6.3,0.6,9.2c-0.4,1.5-1.2,3-2.3,4.2l-0.2,0.3
	c-0.5,0.5-1.2,0.9-1.9,1.1c-0.8,0.1-1.6,0.1-2.3,0c0.1-0.1,0.1-0.2,0.2-0.3c0.1-0.2,0-0.7-0.4-0.6h-0.1c-0.8,0.4-1.6,0.9-2.3,1.5
	c-0.8,0.5-1.8,0.7-2.7,0.8h-1.9c-0.1,0-0.1,0-0.2,0c-0.4,0-0.8,0-1.1-0.1h-0.2C74.6,87,74.3,87,74,86.8l-0.1,0.1
	c-0.4,0.4-0.8,0.7-1.2,1.1c0.1-0.9-0.2-1.9-0.8-2.6v-0.1L71.7,85l0.3-0.1c0.5-0.1,1-0.3,1.4-0.6c0.3-0.5,0.7-1,1-1.5
	c-0.1,0-0.2,0-0.3,0c-1.3,0.7-2.8,1.1-4.3,1.2c-0.5,0-1-0.1-1.5-0.2c-1-0.1-2.1-0.1-3.1,0c0,0.1,0.1,0.1,0.1,0.2
	c0.1,0.1,0.2,0.2,0.4,0.2c0.6,0.3,1.3,0.5,1.9,0.6l0.3,0.1H68l-0.2,0.1c-0.8,0.7-1.7,1.2-2.7,1.5c-1.1,0.3-2.3,0.3-3.4,0
	c-0.3-0.1-0.6-0.1-0.8-0.2c-0.2,0-0.4,0.1-0.4,0.3c0,0.2,0.1,0.4,0.2,0.4c2.3,0.8,5.5,0.8,7.4-0.8c0.4-0.3,0.7-0.7,0.9-1.1
	 M112.6,8.6c0-0.2,0-0.4,0.1-0.7c0.1-0.2,0.2-0.3,0.4-0.4c0.3-0.1,0.6-0.2,0.9-0.1h1.8c0.3,0,0.6,0,0.9,0.2c0.2,0.1,0.3,0.2,0.4,0.4
	c0.1,0.2,0.1,0.4,0.1,0.7v0.9h-4.5C112.6,9.5,112.6,8.6,112.6,8.6z M120.1,8.6c0-0.7-0.2-1.4-0.5-2c-0.3-0.5-0.8-1-1.4-1.2
	c-0.7-0.3-1.4-0.4-2.2-0.4h-2.3c-0.7,0-1.5,0.1-2.2,0.4c-0.6,0.2-1,0.6-1.4,1.1c-0.3,0.6-0.5,1.3-0.5,2v5c0,0.7,0.1,1.4,0.5,2
	c0.3,0.5,0.8,0.9,1.4,1.1c0.7,0.3,1.4,0.4,2.2,0.4h2.1c0.7,0,1.5-0.1,2.2-0.3c0.6-0.2,1.1-0.5,1.4-1c0.4-0.5,0.6-1.2,0.5-1.9v-0.5
	l-2.9-0.6v0.6c0,0.3-0.1,0.6-0.3,0.8c-0.3,0.2-0.7,0.3-1.1,0.2H114c-0.4,0-0.7-0.1-1-0.3c-0.2-0.3-0.3-0.6-0.3-0.9v-1.1h7.4
	L120.1,8.6L120.1,8.6z M103.2,16.8h3.1V1.7h-3.1v4.2h-0.1c-0.2-0.2-0.4-0.4-0.6-0.5c-0.3-0.2-0.6-0.3-0.9-0.4
	c-0.4-0.1-0.8-0.1-1.3-0.1h-1.4c-0.6,0-1.3,0.1-1.9,0.4c-0.5,0.3-0.9,0.7-1.2,1.2c-0.3,0.6-0.4,1.3-0.4,2v4.8c-0.1,1,0.2,2,0.9,2.7
	c0.7,0.6,1.6,0.9,2.5,0.9h1.4c0.4,0,0.9,0,1.3-0.1c0.3-0.1,0.6-0.2,0.9-0.4c0.2-0.1,0.4-0.3,0.6-0.5h0.1L103.2,16.8L103.2,16.8z
	 M101.1,7.7c0.3,0,0.7,0.1,1,0.2c0.3,0.1,0.6,0.3,0.8,0.6c0.2,0.3,0.3,0.6,0.3,1v2.6c0,0.4-0.1,0.7-0.3,1c-0.2,0.3-0.5,0.5-0.8,0.6
	c-0.3,0.1-0.7,0.2-1,0.2H100c-0.4,0-0.8-0.1-1.2-0.4c-0.3-0.4-0.4-0.8-0.4-1.3V9.3c0-0.5,0.1-0.9,0.4-1.3c0.3-0.3,0.7-0.4,1.2-0.4
	L101.1,7.7L101.1,7.7z M86.8,13.9c-0.4,0-0.7-0.1-1-0.3c-0.2-0.2-0.3-0.6-0.3-0.9V8.9c0-0.3,0.1-0.7,0.3-0.9c0.3-0.2,0.6-0.3,1-0.3
	h1.8c0.4,0,0.7,0.1,1,0.3c0.2,0.2,0.3,0.6,0.3,0.9v3.8c0,0.3-0.1,0.7-0.3,0.9c-0.3,0.2-0.6,0.3-1,0.3L86.8,13.9L86.8,13.9z M89,16.8
	c0.7,0,1.5-0.1,2.2-0.4c0.6-0.2,1-0.6,1.4-1.1c0.3-0.6,0.5-1.3,0.5-2v-5c0-0.7-0.1-1.4-0.5-2c-0.3-0.5-0.8-0.9-1.4-1.1
	c-0.7-0.3-1.4-0.4-2.2-0.4h-2.7c-0.7,0-1.5,0.1-2.2,0.4c-0.6,0.2-1.1,0.6-1.4,1.1c-0.3,0.6-0.5,1.3-0.5,2v5c0,0.7,0.1,1.4,0.5,2
	c0.3,0.5,0.8,0.9,1.4,1.1c0.7,0.3,1.4,0.4,2.2,0.4H89z M79.7,12l-3.1-0.9v1.6c0,0.3-0.1,0.7-0.3,0.9c-0.3,0.2-0.6,0.3-1,0.3h-2.4
	c-0.4,0-0.7-0.1-1-0.3c-0.2-0.2-0.3-0.6-0.3-0.9v-7c0-0.3,0.1-0.7,0.3-0.9c0.3-0.2,0.6-0.3,1-0.3h2.4c0.4,0,0.7,0.1,1,0.3
	c0.2,0.2,0.3,0.6,0.3,0.9v1.4l3.1-0.8V5.2c0-0.7-0.1-1.4-0.5-2c-0.3-0.5-0.8-0.9-1.4-1.1c-0.7-0.3-1.4-0.4-2.2-0.4h-3.2
	c-0.7,0-1.5,0.1-2.2,0.4c-0.6,0.2-1,0.6-1.4,1.1c-0.3,0.6-0.5,1.3-0.5,2v8.1c0,0.7,0.1,1.4,0.5,2c0.3,0.5,0.8,0.9,1.4,1.1
	c0.7,0.3,1.4,0.4,2.2,0.4h3.2c0.7,0,1.5-0.1,2.2-0.4c0.6-0.2,1-0.6,1.4-1.1c0.3-0.6,0.5-1.3,0.5-2L79.7,12L79.7,12z M65.1,16.8V8.4
	c0-0.7-0.1-1.4-0.4-2c-0.3-0.5-0.7-0.9-1.2-1.2C63,5,62.3,4.8,61.7,4.9h-1.4c-0.4,0-0.9,0-1.3,0.1c-0.3,0.1-0.6,0.2-0.9,0.4
	c-0.2,0.1-0.4,0.3-0.6,0.5h-0.1v-1h-3.1v11.9h3.1V9.5c0-0.4,0.1-0.7,0.3-1c0.2-0.3,0.5-0.5,0.8-0.6c0.3-0.1,0.7-0.2,1-0.2h1
	c0.4,0,0.8,0.1,1.2,0.4C61.9,8.5,62,8.9,62,9.3v7.4L65.1,16.8L65.1,16.8z M48.4,2.8V0h-3.2v2.8H48.4z M40.8,16.8h11.3v-2.9h-3.8V4.8
	h-7.1v2.8h4v6.2h-4.5L40.8,16.8L40.8,16.8z M32.6,11.7c0.2,0,0.4,0,0.7,0c0.2,0,0.4,0.1,0.6,0.2c0.2,0.1,0.3,0.2,0.5,0.3
	c0.1,0.1,0.2,0.3,0.2,0.5v0.5c0,0.2-0.1,0.4-0.2,0.5c-0.1,0.1-0.3,0.2-0.5,0.3c-0.2,0.1-0.4,0.1-0.6,0.2c-0.2,0-0.5,0.1-0.7,0.1
	h-1.3c-0.4,0-0.7,0-1-0.2c-0.2-0.2-0.4-0.5-0.3-0.8v-0.3c0-0.3,0.1-0.6,0.3-0.8c0.3-0.2,0.6-0.3,1-0.2L32.6,11.7L32.6,11.7z
	 M37.5,16.8V8.6c0-0.7-0.2-1.4-0.5-2.1c-0.3-0.6-0.8-1-1.4-1.3c-0.7-0.3-1.4-0.4-2.2-0.4h-2c-0.7,0-1.4,0.1-2.1,0.3
	c-0.5,0.2-1,0.5-1.3,1c-0.3,0.4-0.5,1-0.5,1.5V8l2.9,0.7V8.4c0-0.2,0-0.4,0.1-0.5c0.1-0.1,0.2-0.3,0.4-0.3c0.2-0.1,0.5-0.1,0.7-0.1
	h1.5c0.4,0,0.8,0.1,1.1,0.3c0.2,0.3,0.4,0.6,0.3,1v1.4h0c-0.3-0.3-0.7-0.5-1.2-0.6c-0.6-0.2-1.2-0.2-1.9-0.2h-1
	c-0.6,0-1.3,0.1-1.9,0.3c-0.5,0.2-0.9,0.6-1.2,1.1c-0.3,0.6-0.4,1.2-0.4,1.9v0.9c0,0.7,0.1,1.3,0.4,1.9c0.3,0.5,0.7,0.8,1.2,1.1
	c0.6,0.2,1.2,0.3,1.9,0.3h1.1c0.6,0,1.2-0.1,1.8-0.2c0.4-0.1,0.8-0.3,1.1-0.6h0.1v0.9C34.5,16.8,37.5,16.8,37.5,16.8z M24.9,9.4V8.4
	c0-0.7-0.1-1.4-0.4-2c-0.3-0.5-0.7-0.9-1.2-1.2c-0.6-0.3-1.2-0.4-1.9-0.4h-1.3c-0.4,0-0.9,0-1.3,0.1c-0.3,0.1-0.6,0.2-0.9,0.4
	c-0.2,0.1-0.4,0.3-0.6,0.5h-0.1v-1h-3.1v11.9h3.1V9.5c0-0.4,0.1-0.7,0.3-1C17.8,8.2,18,8,18.3,7.9c0.3-0.1,0.7-0.2,1.1-0.2h1
	c0.3,0,0.6,0,0.9,0.1c0.2,0.1,0.4,0.3,0.4,0.5c0.1,0.3,0.1,0.6,0.1,0.9v0.9L24.9,9.4z M3.1,13.9v-3.4h3.4c0.4,0,0.7,0.1,1,0.3
	c0.2,0.2,0.3,0.6,0.3,0.9v1c0,0.2,0,0.5-0.1,0.7c-0.1,0.2-0.2,0.3-0.4,0.4c-0.2,0.1-0.5,0.1-0.8,0.1L3.1,13.9L3.1,13.9z M3.1,7.7
	V4.6h3.4c0.3,0,0.5,0,0.8,0.1c0.2,0.1,0.3,0.2,0.4,0.4c0.1,0.2,0.1,0.4,0.1,0.7v0.8c0,0.3-0.1,0.7-0.3,0.9c-0.3,0.2-0.6,0.3-1,0.3
	H3.1z M0,16.8h6.9c0.7,0,1.5-0.1,2.2-0.4c0.6-0.2,1-0.6,1.4-1.1c0.3-0.6,0.5-1.3,0.5-2v-1.6c0-0.4-0.1-0.7-0.2-1.1
	c-0.1-0.3-0.3-0.7-0.6-0.9c-0.3-0.3-0.6-0.5-1-0.6c0.8-0.2,1.4-0.8,1.6-1.5C10.9,7.2,11,6.9,11,6.5V5.2c0-0.7-0.1-1.4-0.5-2
	c-0.3-0.5-0.8-0.9-1.4-1.1C8.4,1.8,7.7,1.7,6.9,1.7H0.1L0,16.8L0,16.8z"/>
<path class="st5" d="M82.4,30.1h38.8v1H82.4V30.1z M1.1,30.1h38.8v1H1C1,31.1,1,30.1,1.1,30.1z"/>
<path class="st5" d="M82.8,38.3H39.4V23h43.4V38.3z M40.2,37.5H82V23.8H40.2L40.2,37.5L40.2,37.5z"/>
<g class="st7">
	<path class="st5" d="M47,35.2V34l1.1-1c1.9-1.7,2.8-2.6,2.8-3.7c0-0.7-0.4-1.3-1.4-1.3c-0.7,0-1.4,0.4-1.8,0.7l-0.6-1.4
		c0.6-0.5,1.7-0.9,2.8-0.9c1.9,0,3,1.1,3,2.7c0,1.4-1,2.6-2.3,3.7l-0.8,0.7v0h3.2v1.7H47z"/>
	<path class="st5" d="M60.7,30.8c0,2.7-1.1,4.5-3.3,4.5c-2.2,0-3.2-2-3.2-4.4c0-2.5,1.1-4.5,3.3-4.5C59.8,26.4,60.7,28.5,60.7,30.8z
		 M56.2,30.9c0,2,0.5,2.9,1.2,2.9s1.2-1,1.2-2.9c0-1.9-0.4-2.9-1.2-2.9C56.7,27.9,56.2,28.9,56.2,30.9z"/>
	<path class="st5" d="M64.2,28.4L64.2,28.4l-1.7,0.8l-0.3-1.5l2.3-1.1h1.7v8.6h-1.9V28.4z"/>
	<path class="st5" d="M74.5,28c-0.2,0-0.5,0-0.8,0c-1.8,0.1-2.6,1.1-2.8,2.1h0c0.4-0.4,1-0.7,1.8-0.7c1.4,0,2.7,1,2.7,2.8
		c0,1.7-1.3,3.1-3.2,3.1c-2.3,0-3.4-1.7-3.4-3.8c0-1.6,0.6-3,1.5-3.8c0.9-0.8,2-1.2,3.3-1.3c0.4,0,0.6,0,0.8,0V28z M73.4,32.3
		c0-0.8-0.4-1.5-1.3-1.5c-0.5,0-1,0.3-1.2,0.8c-0.1,0.1-0.1,0.3-0.1,0.5c0,0.9,0.5,1.7,1.4,1.7C73,33.8,73.4,33.2,73.4,32.3z"/>
</g>
</svg>
