<svg width="300" height="234" viewBox="0 0 300 234" xmlns="http://www.w3.org/2000/svg"><title>Untitled 4</title><g fill="none" fill-rule="evenodd"><path d="M214.523 34.493h4.57c1.211.008 2.072-.234 2.584-.715.512-.492.762-1.244.734-2.275v-9.42c.027-1.008-.223-1.752-.734-2.223-.512-.48-1.373-.725-2.584-.713h-4.57c-1.207-.012-2.068.232-2.572.713-.512.471-.762 1.215-.746 2.223v9.473c-.016 1.004.234 1.738.746 2.223.504.48 1.365.714 2.572.714M247.32 34.493h2.615c.928 0 1.795-.154 2.572-.471a4.121 4.121 0 0 0 1.871-1.451c.471-.662.713-1.508.725-2.541v-6.422c-.012-1.037-.254-1.875-.725-2.541a4.185 4.185 0 0 0-1.871-1.459c-.777-.311-1.645-.461-2.572-.461h-2.615c-1.328-.012-2.287.314-2.875.977-.6.662-.891 1.699-.879 3.104v7.184c-.012 1.404.279 2.441.879 3.104.588.661 1.547.985 2.875.977M278.713 19.696c-.174.447-.242.99-.234 1.625v2.289h11.053v-2.184c.012-.65-.064-1.207-.227-1.676a1.855 1.855 0 0 0-.973-1.047c-.477-.248-1.184-.377-2.115-.377h-4.412c-.936 0-1.643.121-2.127.352-.477.235-.799.573-.965 1.018M77.516 35.31h3.207c.584 0 1.152-.035 1.715-.129a6.094 6.094 0 0 0 1.541-.412c.461-.201.826-.455 1.107-.787.283-.33.416-.74.434-1.229v-1.199c-.018-.516-.158-.939-.453-1.27-.277-.336-.664-.598-1.127-.791a6.792 6.792 0 0 0-1.553-.387 12.619 12.619 0 0 0-1.664-.113h-3.207c-1.064-.008-1.857.203-2.383.617-.52.432-.777 1.105-.777 2.053v.98c0 .967.258 1.662.777 2.068.525.411 1.318.608 2.383.599M99.619 58.976h103.086v33.777H99.619zM18.754 18.481c.508-.508.75-1.27.734-2.273v-1.852c.008-.672-.092-1.229-.299-1.664-.209-.434-.555-.748-1.039-.959-.469-.219-1.111-.316-1.926-.316H7.843v7.832h8.381c1.188 0 2.034-.252 2.53-.768M19.189 33.212c.207-.434.311-.986.303-1.656v-2.447c.016-1.008-.23-1.744-.738-2.229-.5-.475-1.346-.711-2.533-.711H7.836v8.324h8.385c.818 0 1.461-.105 1.93-.316.484-.211.833-.526 1.038-.965M170.506 214.493h-.008a.756.756 0 0 0 .004 0h.004" fill="#FFF"/><path d="M180.053 152.53c.01.012.018.02.025.031.004-.016.004-.031.004-.045-.008.006-.02.01-.029.014M133.531 136.526a.385.385 0 0 1-.018-.1 1.377 1.377 0 0 0-.023.1h.041zM132.037 133.532c1.406-.07 2.455.943 3.09 2.322.215-.477.344-.98.57-1.451.119-.229.283-.355.461-.406.008-.012.008-.035.018-.047a.974.974 0 0 1-.318-.121c-1.236-.756-1.791-1.85-3.467-1.83a9.351 9.351 0 0 0-4.148 1.047c-.447.234-.939.508-1.438.814a9.783 9.783 0 0 1 2.637-.756c.949-.128 1.865.04 2.595.428M181.613 147.737c-1.27-1.986-2.684-3.816-5.303-4.193-2.133-.322-4.482.832-6.432-.232-1.123.967-2.049 2.076-3.041 3.146.043.402 0 .795.035 1.141.172.074.33.172.488.299.295.24.43.576.434.922.084.045.166.098.242.156.066.047.127.113.174.166 2.01-.449 3.93-.605 5.244-.439 2.232.281 3.959 1.154 5.309 2.398 1.158-.977 2.604-1.637 4.113-2.117a.94.94 0 0 1-.234-.461c-.049-.188-.104-.369-.154-.553-.291.172-.621.168-.875-.233M119.842 227.522a15.613 15.613 0 0 1-.381-.658c-.246.277-.52.516-.83.707.402-.017.803-.041 1.211-.049M116.262 168.663c-.055-.049-.111-.113-.172-.162.004.076 0 .154-.008.229.061-.024.125-.043.18-.067M145.869 158.304a10.83 10.83 0 0 1-.373-.801c0 .285-.076.564-.219.809.192-.004.393-.008.592-.008M161.062 152.411c0 .014-.006.018-.006.025.045-.043.096-.082.145-.123-.049.004-.096.018-.145.021l.006.077zM139.168 230.087l-.23-.094c-.057.039-.115.094-.174.141.134-.014.269-.031.404-.047M95.09 160.569a.8.8 0 0 1-.242.408c.143.111.279.232.41.363a10.651 10.651 0 0 1-.025-1.299c-.051.169-.098.349-.143.528" fill="#E9A3AE"/><path d="M84.824 207.435c.219 2.986 1.441 5.486 3.898 7.074 1.385.303 2.76.668 4.188.771 2.406.158 4.732-.119 6.988-.961 1.469-.541 4.119-1.246 4.596-2.938.572-2.08.088-4.248.652-6.346.154-.57.459-.936.824-1.135a.373.373 0 0 0-.094-.039c-.826-.365-.865-1.826.15-2.033 1.412-.277 2.857-.205 4.264-.508-1.961-1.516-3.375-3.518-5.037-5.311-.371-.391-.25-.73.039-.945-.873-.977-1.6-2.057-2.109-3.191-.189-.445.068-.93.43-1.152.896 1.391 1.953 2.756 3.236 3.828a.632.632 0 0 1 .496-.168c2.338.207 4.541.865 6.928.977 1.281.064 2.6.08 3.857-.205.426-.096.846-.254 1.268-.398a1.097 1.097 0 0 1-.342-.404 46.07 46.07 0 0 1-.549-1.088c-1.039-1.326-1.777-3.098-1.945-4.74-.48-1.627-.75-3.311-.646-5.121.016-.238.092-.389.199-.477-.199-1.438-.227-2.902.146-4.215a.99.99 0 0 1 1.064-.703c-.004 1.471.07 2.918.312 4.322a.785.785 0 0 1 .342.311c.719 1.199.984 2.453 1.934 3.572.77.896 1.738 1.779 2.898 2.215 1.088.406 2.25.699 3.422.557 1.293-.158 2.287-.93 3.525-1.152.105-.023.219-.023.316-.023a4.375 4.375 0 0 1-.27-.689c-.182-.588-.318-1.23-.111-1.826.135-.406.365-.684.588-1.018-.031-.086-.068-.174-.096-.27-.27-.857.492-2.334 1.596-1.635 1.461.92 2.709 1.945 4.271 2.555.053-.428.365-.855.826-.842 1.707.096 3.311.645 5.033.438 1.922-.246 3.82-.953 5.471-1.912 2.949-1.713 5.764-4.168 7.115-7.271.281-.645.809-.961 1.326-1.018-.061-.195-.129-.387-.176-.58-.254.096-.531.1-.734-.074-.727-.619-1-1.531-1.523-2.439-.227-.391-.473-.768-.783-1.094-.223-.223 0-.098-.238-.215-.33-.162.246.098-.078-.053-.334-.158-.518-.391-.568-.711-.057-.006-.107-.006-.166-.006-1.248-.117-1.041-2.057.143-2.064.98 0 1.83-.158 2.557-.451.217-.246.508-.418.822-.414 2.408-1.473 3.223-4.598 3.301-7.654.057-2.221-.189-4.473-.801-6.619-.48-1.691-1.346-3.045-2.111-4.594-.389-.775.588-2.268 1.508-1.557.496.379.906.879 1.246 1.436 2.271-.961 4.621-1.877 6.74-3.117 1.113-.652 2.863-1.393 3.301-2.686.207-.607.178-1.123.012-1.605.162-1.051-.262-2.164-.834-3.211.27-.26.627-.354.984-.047 1.453 1.283 1.906 2.648 1.684 3.982.02-.008.039-.025.062-.029 2.959-1.039 6.824-1.596 9.658.131 2.709 1.66 3.998 4.402 4.586 7.324a.978.978 0 0 1-.062.6c.701-.176 1.4-.309 2.076-.439 2.369-.432 5.391-.762 7.404.809.301.236.562.496.809.781a.96.96 0 0 1 .631-.809c1.16-.41 2.859-.182 4.047.027 1.762.311 3.27 1.074 4.533 2.309.354.35.697.729 1.031 1.127-.385-.932-.857-1.832-1.531-2.602-.389-.453-.199-1.082.197-1.406-1.758-1.564-3.799-2.705-6.172-3.041-.176-.025-.361-.176-.48-.338-.27.398-.76.646-1.219.342-1.211-.801-1.334-2.334-2.34-3.289-.062-.068-.146-.121-.213-.184-.645-.385-1.414-.652-2.168-.803-.305.133-.592.205-.918.133 1.227 1.477 2.01 3.191 2.045 5.049.012.586-.457.869-.881.818a.713.713 0 0 0 .031-.279c-.043-1.811-1.076-3.479-2.445-4.697a1.042 1.042 0 0 0-.535-.26c-2.609-2.533-6.893-4.186-9.873-4.229a.626.626 0 0 1-.488-.213c-.111.912-1.514 1.27-1.699.197-.314-1.83-1.068-2.877-2.871-3.318-.043.596-.588 1.182-1.262 1.074-1.393-.238-2.844-.086-4.225-.35-1.393-.266-2.707-.928-4.105-1.115-2.35-.32-4.283.141-6.449.916-.283.105-.482.057-.615-.062a6.508 6.508 0 0 1-.453 1.332c-1.111 1.453-2.467 2.707-3.779 4.01a1.362 1.362 0 0 0-.084.102c-.326-.102-.568-.449-.65-.842.059-.047.107-.109.162-.178a1.62 1.62 0 0 0 .08-.113c-.311-.066-.596-.285-.691-.566-.408-1.182.607-2.482.91-3.625.348-1.328-.012-1.1-1.299-1.332-.246-.051-.422-.156-.525-.303a8.263 8.263 0 0 0-1.293-.113 24.623 24.623 0 0 0-4.156.309c-1.783.289-3.887.371-5.717.906-.016.027-.031.059-.053.086 0 .012-.004.02-.016.031-.039.111-.082.205-.113.314-.041.119-.076.24-.109.355 0 .027-.008.043-.008.059 0 .023-.008.051-.008.094-.008.049.008.346-.008.379.023.078.057.182.033.148.105.262.246.484.285.773.02.125.016.258.004.391a7.3 7.3 0 0 1 1.607.016c1.064.131.857 1.605-.115 1.717-1.742.207-3.641.166-4.891 1.51-.092.664-.266 1.262-.547 1.738-.887 1.463-2.037 2.098-3.328 2.316-.342.41-.654.85-.947 1.293.555-.021.885.703.766 1.227-.318 1.395-1.307 2.557-1.473 4.021-.076.695-.15 1.479.158 2.139.277.602.654.951.73 1.629a14.62 14.62 0 0 1 4.471-1.928c.738-.178 1.096.381 1.062.951-1.469.484-2.893 1.314-3.857 2.443-3.924 2.389-6.471 6.443-7.838 10.729-.861 2.709-1.393 5.496-1.523 8.322-.127 2.578.238 5.094.293 7.666.018.826-1.32 1.471-1.695.521a10.948 10.948 0 0 1-.479-1.568c-.049-.047-.096-.088-.121-.139-.127-.203-.25-.4-.363-.6a1.204 1.204 0 0 1-.152-.127c-.955-1.025-1.508-2.672-1.805-4.152a20.933 20.933 0 0 1-1.068-5.879c-5.424 1.195-11.965 4.846-12.332 9.5-.047.25-.055.516-.039.785-.227 1.461.619 3.463 1.449 4.994-.273.246-.662.316-.992-.047-.076-.096-.15-.184-.23-.279-.178.396-.52.73-.98.533-.77-.311-1.143-1.137-1.676-1.725a5.3 5.3 0 0 0-1.885-1.35c-.441-.189-.6-.689-.508-1.131a9.372 9.372 0 0 1-1.299-.523c-.096.1-.211.188-.346.25-1.289.58-2.084 1.564-2.488 2.715-1.502 1.684-.484 5.812.404 8.027-.262.119-.572.072-.869-.238a6.72 6.72 0 0 1-1.385-2.16c-.748 1.311-1.26 2.764-1.268 4.232 0 .984.242 1.779.656 2.438.619 1.564 2.207 2.867 3.727 3.93a.903.903 0 0 1-.615.168c-1.199-.168-2.168-.502-2.945-.969a.979.979 0 0 1-.588.205c-.969.033-1.926-.77-2.492-1.445-.291-.332-.596-.754-.775-1.197-.924 1.057-1.396 2.246-1.596 3.508-.334.596-.527 1.264-.627 1.953-.465 1.811-.242 3.852.201 5.615-.381.166-.801.096-1.039-.445-.33-.723-.588-1.699-.738-2.779 0-.008.004-.016.008-.023.143-.35.072-.627-.111-.842-.316-3.748.58-8.369 3.891-9.424-.004-.064-.016-.135-.012-.207.061-1.842-2.4-1.596-3.314-2.66a1.107 1.107 0 0 1-.258-.873 3.048 3.048 0 0 1-.227-.215c-.541-.516-1.023-1.088-1.496-1.668-.176-.205-.203-.516-.127-.801a3.984 3.984 0 0 1-.172-.873c-.035-.373.127-.746.381-1.016.215.443.533.832.906 1.15.047.031.086.047.135.088.055.047.104.094.158.15 1.238.896 3.021 1.254 4.598.85.777.016 1.568-.008 2.307 0 .074 0 .135.008.201.016.223-.396.465-.777.723-1.143-.139-1.969.43-4.027 1.584-5.639-.439-.229-.682-.754-.643-1.254.076-1.057-.654-2.344.02-3.295.107-.15.238-.287.391-.391.09-.699.924-1.271 1.566-.658.016.014.033.033.045.041.254-.521.785-.846 1.389-.436.977.672 1.898 1.451 2.93 2.041.795.461 1.633.586 2.461.822.787-3.135 3.66-5.992 7.115-8.084-.385-.166-.627-.582-.402-1.109.557-1.279 1.633-2.34 1.387-3.824a17.875 17.875 0 0 0-.361-1.602c-.377-.943-.768-1.871-.795-2.891a1 1 0 0 1 .092-.428c-.93-1.543-2.58-2.812-3.938-3.982 1.27.361 2.746.869 3.898 1.682-.135-1.354-.041-2.697.365-3.975a.929.929 0 0 1 .23-.398c-.184 1.271-.021 2.736.471 4.057a15.206 15.206 0 0 1-.02-1.832c.072-1.135 1.66-1.248 1.684-.037.016.953.143 1.926.365 2.889.088.066.18.156.254.287.922 1.559 1.867 3.137 2.898 4.637.738 1.09 1.699 2.129 2.248 3.326a13.697 13.697 0 0 1 2.166-.213c.262-.004.473.07.645.176a26.96 26.96 0 0 1 .982-3.004c1.064-2.707 2.533-5.326 4.502-7.477-1.197-1.025-1.189-3.387-.963-5.121-.16-.07-.303-.203-.402-.436-.539-1.248-.396-3.139-.293-4.459.08-1.146.318-2.314.922-3.314-.613-.072-1.217-.143-1.812-.17-1.654-.387-3.754-.166-5.088.736-.219-.406-.215-1.02.1-1.383 2.381-2.732 5.541-1.576 8.633-1.154-.062-.523.156-1.098.648-1.33.592-.271 1.203-.283 1.807-.508.158-.053.262-.135.416-.219.092-.049.154-.107.146-.09.262-.521.279-1.58.381-2.305a.621.621 0 0 1-.539-.309c-.404-.615-.527-1.445-1.385-1.602-.75-.131-1.561.049-2.268.287-1.461.484-3.068 1.115-4.283 2.057-.576.449-1.045 0-1.156-.547a10.886 10.886 0 0 0-.893 2.162c-.385-.086-.707-.402-.707-.975 0-.299.035-.598.092-.889-11.576 5.314-26.17 5.586-32.814 17.68-.549 1.006-1.775.066-1.275-.854.354-.646.742-1.252 1.143-1.846-.504.197-1.051-.404-.854-.955 1.014-2.805 3.896-5.102 6.336-6.807 2.844-1.975 5.988-3.572 9.096-5.129 3.574-1.783 7.547-2.742 11.303-4.092 1.826-.66 3.699-1.221 5.51-1.9 1.43-.531 2.764-1.436 4.271-1.66a.688.688 0 0 1 .572.145.883.883 0 0 1 .469-.398c.643-.26 1.262-.529 1.912-.732.391-.227.779-.43 1.152-.6 1.811-.85 5.137-1.465 7.258-.494.932-.271 1.938-.26 2.92-.453 1.152-.232 2.303-.508 3.467-.66 2.719-.357 6.166-.41 8.797.395.18.057.307.172.385.309 1.406.082 2.959.322 4.113 1.02 1.369-.111 2.623-.49 3.938-.857 1.219-.336 2.725-.832 3.963-.377.438.164.631.557.627.959 2.033.447 3.945 1.277 6.043 1.42 2.631.178 5.549.436 7.129 2.045 1.98-.549 4.666-.141 6.523.242l.229.055c-.098-.045-.186-.1-.285-.139-1.773-.721-3.521-1.229-5.439-1.416-3.75-.377-7.283-2.605-10.896-3.557-3.59-.936-6.979-.203-10.619-.158-2.525.033-5.395.166-7.705-.967-.326.439-.834.697-1.449.492-4.232-1.424-8.824-1.785-13.256-1.16-2.525.361-4.688.582-7.07 1.561-2.061.85-3.867 2.041-5.852 3.002-.531.26-.92-.074-.988-.496-.627.516-1.246 1.047-1.881 1.531a.776.776 0 0 1-.375-.551c-.02.008-.031.02-.051.027-1.607.727-3.594.939-5.307 1.342-2.01.467-4.006.967-5.973 1.594-3.799 1.215-6.93 2.926-9.121 6.219-.254.391-.611.451-.891.322-.07.414-.055.826.08 1.223-.15-.023-.281-.102-.393-.275-.061-.082-.107-.172-.154-.256-3.105 2.08-6.301 3.941-8.85 6.334.314.197.492.6.346 1.066-.398 1.277-1.438 2.307-2.168 3.424-.818 1.244-1.525 2.439-1.699 3.924-.084.701-.795 1.012-1.254.82.004.203.008.404.023.602a.767.767 0 0 1-.648-.244 1.703 1.703 0 0 1-.389-.791 5.33 5.33 0 0 0-.592.248c.025.008.049.008.084.016.814.162.676 1.424.076 1.738-1.365.725-2.227 1.451-2.967 2.818-.613 1.133-1.182 2.402-1.385 3.674a1.054 1.054 0 0 1-.822.875c-.385 1.732-.635 3.496-.639 5.252.096-.086.199-.168.305-.24-.375-1.057.191-2.418.617-3.391.566-1.305 1.25-3.039 2.326-4.043.35-.33.949-.359 1.254-.043.227-.328.469-.645.738-.938 1.338-1.463 3.279-2.691 5.391-3.441-.373-.283-.357-.787-.158-1.16.293-.562.311-1.273.535-1.875.135-.363.502-.715.941-.588.434.129.568.621.445.99l-.012.045c1.115-.236 2.488.145 3.473.543.869-2.506 5.141-5.641 6.781-5.855.07-.014.135-.006.193 0a5.801 5.801 0 0 1 1.426-.463c.811-.154 1.83-.432 2.621-.127a.82.82 0 0 1 .459.469c1.438-.412 2.906-.744 4.293-1.09 3.195-.803 7.982-3.574 11.385-2.785.043-.389.311-.76.75-.756.684.012.799.791.492 1.252.873.527 1.596 1.414 2.096 2.797.168.471-.07.982-.42 1.23a5.74 5.74 0 0 0-.684-1.016.983.983 0 0 1-.594.514c-.033.012-.076.02-.111.027-.299.086-.699.023-.879-.252-.781-1.203-3.527-.523-4.525-.102-1.072.459-2.088 1.008-3.148 1.494-2.199 1.01-4.375 1.875-6.756 2.473-1.723.432-5.029.432-6.189 1.895-1.1 1.398-.988 3.689-.75 5.346.055.381-.123.715-.381.932a1.09 1.09 0 0 1-.143.406c.205.027.404.158.547.432.691 1.342 2.613 3.238 4.305 3.283.678.018 1.746.281 2.277-.277.025-.02.035-.039.049-.059.277-.18.52-.424.705-.668.549-.701.771-1.674.914-2.57.416-.092.865.096.984.643.572 2.674-1.35 5.803-4.518 5.326-2.533-.379-5.176-2.561-6.244-4.732-.133-.275-.1-.561.023-.809-.234-.016-.465-.158-.619-.479a5.508 5.508 0 0 0-1.395-1.861c-.377-.025-.762-.18-1.135-.396-.199.184-.445.314-.707.326-1.143.07-2.23-.318-3.406-.146-1.234.178-2.445.572-3.477 1.26-1.953 1.285-3.963 3.477-3.156 5.912.266.812-.65 1.756-1.26 1.475.049.068.096.143.16.211.881 1.09 2.057 1.246 3.299 1.021a.887.887 0 0 1 .6-.131c.207-.057.42-.117.635-.188l.049-.047c.258-.26.523-.307.754-.229.936-.35 1.85-.729 2.635-.924.076-.016.143-.027.207-.031-.488-1.436-.508-2.979.135-4.439.184-.41.484-.582.777-.598-.32.902-.461 1.842-.238 2.736.334-.318.859-.387 1.152.166.904 1.701 2.084 3.098 3.453 4.479.262.26.246.668.08.992.1.07.197.141.299.199.709.473.141 1.996-.744 1.641-1.707-.713-3.215-2.025-4.176-3.6a1.064 1.064 0 0 1-.588.504c-.531.184-1.119.42-1.73.668a.828.828 0 0 1-.143.449c-.738 1.082-1.736 1.822-2.215 3.076-.387 1.02-.617 2.064-.834 3.127a.878.878 0 0 1-.1.238c.107.854.162 1.711-.242 2.318-.207.303-.492.453-.873.389-.068-.016-.143-.023-.215-.039-.385-.062-.604-.477-.674-.797a10.033 10.033 0 0 1-.195-1.203.748.748 0 0 1-.35-.268c-1.338-1.73-1.615-4.305-1.311-6.459a3.283 3.283 0 0 1-.742-.576c-.023.049-.039.09-.062.131-.922 1.621-3.525 1.361-4.809 2.607a1.214 1.214 0 0 1-.217.449c-.842.992-1.414 1.869-1.59 3.189-.143 1.1-.4 2.879.799 3.537.441.238.568.684.496 1.119 1.711-1.789 4.145-3.172 6.617-2.365.387.127.561.516.541.896-1.398.184-2.76.668-3.91 1.445a4.891 4.891 0 0 0-.461.199c.08.389-.119.762-.438 1.008-.77.611-1.396 1.285-1.846 2.145a.798.798 0 0 1-.551.389.884.884 0 0 1 .102.723c-.293.943-.766 1.834-1.082 2.779-.258.801-.434 1.619-.768 2.389.016.342.041.691.088 1.041a5.09 5.09 0 0 1 1.596-1.326c.293-.158.557-.191.77-.135-.604 1.412-1.334 2.746-1.547 4.295-.023.191 0 .35.066.484-.455 2.326.457 5.297 1.318 7.152.666 1.438 1.18 2.924 1.918 4.258.889.35 2.156.873 2.814-.152.676-1.047.941-2.326 1.211-3.525.008-.008.012-.023.016-.039.062-.357.17-.707.342-1.039a.617.617 0 0 1 .199-.223c-.061-.191-.129-.383-.18-.572.051.062.104.127.154.182a12.936 12.936 0 0 1-.217-4.057c.014-.039.035-.062.047-.111.25-.777.576-1.516.947-2.246a.762.762 0 0 1 .438.08c-.008 1.078 0 2.166.088 3.254.012.143.039.295.074.438.029 1.531.271 3.018.887 4.486.258-.508.58-.977.977-1.383a.718.718 0 0 1 .34-.215 8.215 8.215 0 0 0-.408 1.715c.291-.009.545.159.572.572m52.002-44.731c1.762-1.9 3.977-3.479 6.502-4.105-1.322-1.385-1.1-3.775-.668-5.457.359-1.408.994-4.391 2.525-5.096.092-.043.184-.07.27-.09.637-2.006 1.672-3.867 3.229-5.121.354-.285.695-.305.953-.17-.635.975-1.127 2.045-1.561 3.084-.215.523-.438 1.143-.564 1.777.314.158.525.537.391 1.064-.922 3.914.273 6.984 1.707 10.594.127.322.051.723-.135 1.057a10.151 10.151 0 0 0 2.818 2.529.38.38 0 0 0 .098.041.61.61 0 0 1-.455.117c-1.975-.211-3.617-1.287-4.836-2.758a.671.671 0 0 1-.166.059c-2.756.74-5.209.756-7.424 2.773a18.006 18.006 0 0 0-1.891 1.986c-.078.09-.146.191-.223.281.207.133.342.381.287.752-.334 2.297.797 4.598.008 6.867a.992.992 0 0 1-.492.562c.104 1.881-.135 3.758-.918 5.51-.215.496-.643.699-1.031.695.48-1.135.639-2.451.592-3.777-.461.371-1.229.293-1.422-.467-.346-1.352-.404-2.74-.662-4.102-.26-1.297-.715-2.492-1.102-3.744-.105-.357.057-.865.334-1.215-.135-.254-.277-.518-.4-.777-.23-1.072-.273-2.135.115-3.283a.718.718 0 0 1 .619.07c.088.221.189.438.311.641 0 .02.008.035.008.047 0-.012 0-.02.008-.02.031.053.062.094.09.15.141.26.357.803.434.959.219.43.443.867.666 1.299.618-1.15 1.563-2.267 1.985-2.732m-7.308-3.351c.82-1.285 2.434-2.156 3.754-2.912 1.125-.641 1.633 1.057.744 1.65-.621.412-1.248.83-1.807 1.309-.52.445-.969.961-1.533 1.342-.934.638-1.623-.675-1.158-1.389m-2.299 15.56c.15-.914 1.58-1.512 1.762-.293.215 1.361.072 2.971.889 4.17.629.916-.635 2.539-1.451 1.492-1.161-1.504-1.501-3.556-1.2-5.369m-18.223 1.188c.707-.822 1.621.305 1.168 1.061-.484.809-1.029 1.598-1.279 2.508-.232.857-.166 1.621-.117 2.486.035.707-1.002 1.611-1.398.643-.919-2.2.13-4.956 1.626-6.698m-11.865 11.207c.307-.809 1.6-.793 1.473.199-.184 1.381.453 2.627.924 3.898.283.754-.82 2.135-1.439 1.166-1.019-1.578-1.634-3.461-.958-5.263m-.918 9.464c-.643-.826.584-2.303 1.334-1.357.783.977 1.852 1.596 2.975 2.166.826.422.131 2.057-.766 1.707-1.41-.547-2.625-1.35-3.543-2.516m3.99-48.351c.184-.025-.023.031-.076.047a1.027 1.027 0 0 1-.34.07c-.434.041-.676-.418-.66-.764.033-.408.334-.76.768-.801-.18.02.027-.037.074-.057.111-.041.227-.055.342-.066.43-.047.684.42.658.77a.857.857 0 0 1-.766.801m11.637-4.233c-1.645.459-3.24 1.006-4.832 1.596-1.338.484-2.672 1.182-4.09 1.42-1.047.174-1.219-1.121-.492-1.617 2.578-1.766 6.234-2.713 9.322-3.186 1.02-.156.926 1.555.092 1.787m-33.897 51.688c-.658 1.459-1.516 2.881-1.25 4.533.168 1.023-1.404 1.682-1.615.508-.365-2.096.477-3.891 1.5-5.686.477-.849 1.756-.23 1.365.645m5.825-10.18h-.074a.293.293 0 0 1-.119-.008c-.049 0-.096 0-.148-.008-1.107-.057-.9-1.779.123-1.795h.184c.027-.008.053-.016.088-.016.023 0 .047.008.07.008.426-.008.66.254.727.572a.874.874 0 0 1 .035.316c-.029.423-.39.963-.886.931" fill="#E9C1BD"/><path d="M188.045 137.407c.012.039.02.076.02.115a5.488 5.488 0 0 1 1.115-.174c-.166-.197-.338-.391-.5-.582-.116.307-.35.583-.635.641M72.275 185.997a3.409 3.409 0 0 1-.791-.785c.156.588.521.992 1.221 1.016.102 0 .189.016.277.049.023-.033.047-.072.074-.104a.942.942 0 0 1-.781-.176M142.859 231.54c.354-.016.707-.039 1.064-.088a18.348 18.348 0 0 1-.984-.166c-.023.088-.05.174-.08.254M191.273 137.542c-.025-.051-.053-.098-.084-.156a.406.406 0 0 1-.053.125c.046.011.096.023.137.031M73.57 173.339c0 .137.008.27.016.404.047-.062.092-.117.135-.17a.66.66 0 0 1-.151-.234M144.674 195.374c-.051.088-.1.176-.146.254.174-.016.354-.023.531-.031-.004-.008-.008-.008-.012-.008a.784.784 0 0 1-.373-.215M136.453 137.05a5.564 5.564 0 0 1-.434.826 7.9 7.9 0 0 1 .699-.334 2.131 2.131 0 0 1-.258-.508c-.007.004-.007.012-.007.016M194.631 200.075c0 .008 0 .008.004.008 0 0 0-.008.004-.008h-.008zM156.801 177.3a3.207 3.207 0 0 0-.102-.305c-.088.172-.184.35-.271.529a.897.897 0 0 1 .373-.224M82.629 174.935c-.031 0-.064 0-.096.004 0 .096-.004.197-.008.297.034-.108.065-.206.104-.301M83.549 214.962c-.066-.135-.127-.277-.189-.42a8.43 8.43 0 0 1-.416.246c.201.063.408.119.605.174M151.275 197.312c.016.008.033.031.049.049.02-.08.035-.16.059-.238-.035.069-.074.118-.108.189M184.604 137.267c-.699-.375-1.473-.627-2.295-.789a15.85 15.85 0 0 1 2.295.789M187.768 187.522c-.025.064-.045.127-.072.191.092-.033.191-.057.289-.072-.051-.031-.098-.055-.137-.08a.346.346 0 0 1-.08-.039M209.844 160.153c-.012-.041-.016-.088-.023-.135a1.095 1.095 0 0 1-.096.135h.119M78.064 171.021a7.34 7.34 0 0 1-.152-1.51 11.685 11.685 0 0 0-.523 1.551 3.19 3.19 0 0 1 .675-.041M208.705 155.106a33.965 33.965 0 0 0-1.061-1.789c.15.424.297.857.4 1.297.276.082.489.268.661.492" fill="#E9A3AE"/><path d="M206.012 209.714c.115-.334.08-.674-.117-1.031a1.297 1.297 0 0 1-.254-.771 11.448 11.448 0 0 1-2.609-1.793c-.691-.637-.295-1.66.424-2.098.91.525 2.271.881 3.289 1.152.229-.357.594-.604 1.078-.588 1.787.047 3.264.699 5.035-.047 1.346-.572 2.422-1.598 3.115-2.836.771-1.35 1.127-3.057.553-4.564-.6-1.58-1.887-2.223-2.844-3.51a.614.614 0 0 1-.119-.246 8.778 8.778 0 0 0-3.33-.945c-1.146-.104-.953-1.896.131-1.889a9.854 9.854 0 0 1 3.49.658.684.684 0 0 1-.041-.199c-.008-.102-.016-.246-.027-.396-.789.404-1.904.088-1.842-1.166.068-1.256-.408-2.264-.957-3.264-.477-.064-.773-.412-.885-.842a.853.853 0 0 1-.195-.477c-.98-.311-1.781-.961-2.092-2.088-.158-.596.373-1.365 1.037-1.365.83-.016 1.496.35 2.291.52.967.211 1.896.188 2.869-.012 1.695-.35 3.553-1.238 4.078-2.928.262-.85 1.631-.773 1.469.186-.369 2.201-2.037 4.053-4.113 5.061 1.453 2.541 1.988 5.463 1.654 8.377-.02.197-.082.365-.17.508 3.037 2.787 4.209 7.352 2.145 11.266-.045.088-.088.16-.127.238-.41 1.389-.887 2.779-1.58 4.025 2.719-2.898 4.465-6.566 5.605-10.266 2.285-7.4 2.811-16.051-1.361-22.857-.021.162-.037.336-.064.5-.219 1.361-2.012 1.566-2.064.043-.072-1.883-.311-3.65-.922-5.291-.32.426-.838.633-1.381.24-.139-.098-.266-.205-.396-.307.08.418-.092.912-.361 1.191-.434.434-1.068.447-1.494.008-.482-.5-.881-1.18-.812-1.873.035-.439.305-.875.758-1.021-.643-.605-1.281-1.223-1.977-1.766-.607-.469-1.223-.926-1.818-1.404-.484 1.828-1.707 3.572-2.938 4.861a.884.884 0 0 1-.43.256c-.201.371-.424.729-.662 1.078-1.906 2.785-5.07 5.65-8.793 5.641-1.357-.008-1.195-1.975-.111-2.316 1.295-.414 2.5-.865 3.584-1.439-.971.115-.92-1.26-.15-1.605 2.363-1.074 3.234-3.301 4.221-5.426.273-.594.904-.586 1.281-.256.398-1.793.377-3.672-.209-5.42-.668-2.008-1.533-4.338-2.84-6.256-.205.576-.9.902-1.492.605-.596-.301-.996-.861-1.676-1.041-.588-.146-1.223-.174-1.818-.016-.463.129-.965.299-1.33.617-.135.77-.324 1.492-.574 2.236-.207.602-.807.979-1.006 1.586-.09.273-.34.475-.611.561-.623 1.184-1.32 2.334-1.992 3.5.361-1.975.727-3.93.773-5.943.008-.365.012-.76.012-1.168-.254-.012-.49-.148-.631-.49-.73-1.695-1.078-2.939-3.145-3.525-1.658-.48-3.092-.293-4.768-.166-.389.023-.639-.174-.766-.451-.043.395-.23.777-.604 1.025-.727.471-1.127 1.076-1.426 1.76.457 1.938.613 4.195-.574 5.549a22.169 22.169 0 0 1-.283 3.471c-.225-.045-.424-.201-.531-.535-.242-.781-.465-1.613-.695-2.459-.4-.287-.635-.885-.455-1.359.016-.029.023-.064.043-.102-.953-3.139-2.326-6.158-5.832-7.072-.131.236-.334.426-.57.504-1.275.434-2.891.365-4.248.645-1.232.256-2.514.414-3.686.9-2.43 1-3.758 2.955-5.629 4.596a14.77 14.77 0 0 1-.174 1.871c-.422 2.834-1.541 5.883-3.713 7.639.557.959.98 2.15 1.357 3.43.283.014.537.16.68.512 1.135 2.811 2.25 7.412 5.979 7.922 4.336.582 5.721-3.371 7.043-6.502.254-.609.885-.857 1.35-.711-.035-1.992-.277-4.086-.504-6.053.258-2.131.758-4.232 1.428-6.285.053.129.088.293.08.484-.084 2.174.174 4.33.434 6.498 4.49-1.365 10.822.168 11.449 5.152.477.158.928.357 1.365.625 2.092 1.256 3.037 3.379 3.119 5.686.037 1.129-1.686 1.529-1.932.314-.053-.252-.104-.504-.164-.746.012.182.016.361.008.535-.031.742-.873 1.215-1.465.672-.885-.83-1.039-2.07-1.711-3.025a2.298 2.298 0 0 0-.338-.402 8.612 8.612 0 0 1-.805-.561c-.533-.26-1.119-.418-1.738-.744-.338-.174-.395-.582-.291-.932a40.249 40.249 0 0 0-1.654-.143c-1.107-.068-.91-1.785.127-1.807.969-.021 1.992-.039 2.988.043-.297-.586-.646-1.127-1.111-1.58a.93.93 0 0 1-.865.365c-1.27-.139-2.941-.258-4.195.146-.584.539-.99 1.398-1.215 2.58-.064.293-.148.623-.248.965.275.109.461.373.395.801-.176 1.15-.334 2.166.277 3.242.527.92 1.146 1.766 1.754 2.631.072.096.119.197.156.309.834.572 1.504 1.256 1.857 1.945.326.635-.322 1.914-1.184 1.564-2.334-.969-4.354-3.613-7.213-2.461-.055.016-.096.023-.139.039a8.765 8.765 0 0 1-4.676 2.605c-2.828.57-5.105-.254-6.846-1.875-.078.02-.162.031-.258.031-1.297.004-2.346-.262-3.596.279a1.328 1.328 0 0 1-.242.078c-.842.803-2.326 2.209-3.549 1.691-2.346 1.699-5.137 2.898-8.004 3.543-2.818.625-6.74.84-9.83-.248-2.453 2.836-6.467 6.09-10.373 5.947-2.449 2.717-5.045 5.479-8.262 7.369-.117.07-.246.15-.373.221-2.826 6.105-9.758 11.959-8.066 19.271a7.994 7.994 0 0 0 2.6 4.326c.117-.342.398-.619.807-.588 2.518.215 4.828.883 7.154-.293.477-.238.857-.23 1.143-.088l.1-.104c.123.168.258.342.4.5.676 1.191 1.891 2.152 3.248 2.795 1.635 1.51 3.787 2.279 6.133 2.621.068-.523.465-1.072.898-1.256 1.473-.578 3.053-.221 4.592-.404 1.326-.15 2.598-1.062 3.906-.816a.52.52 0 0 1 .176 0c1.953.324 3.898 1.008 5.879 1.254.066-.168.172-.318.318-.445.805-.65 1.531-.604 2.465-.953.719-.277 1.238-.689 1.746-1.238 1.049-1.135 1.207-2.65 1.342-4.08a1.112 1.112 0 0 1-.047-.445c-.166-.088-.334-.184-.5-.277-.889-.533-.127-2.414.881-1.945 6.32 2.906 13.871 3.391 20.592 1.484a1.6 1.6 0 0 1 .484-1.477c.838-.771 2.406-1.199 2.768-2.375.297-.977.051-1.984-.461-2.873-1.18-2.018-3.502-2.605-5.613-1.477-.287.143-.541.189-.758.158-4.732 4.074-12.697 4.145-18.35 2.111-1-.357-.473-2.08.555-1.77a27.28 27.28 0 0 0 2.109.549.654.654 0 0 1 .166-.225c1.549-1.42 3.51-.617 5.359-1.404.08-.039.143-.07.215-.111a.928.928 0 0 1 .309-.254c.215-.119.445-.215.684-.293 1.311-.867 2.271-2.074 3.021-3.471a.253.253 0 0 0 .051-.096 6.805 6.805 0 0 1-.893-.547.776.776 0 0 1-.289-.414c2.477-.451 5.105.104 7.664.057 1.248.246 2.51.428 3.783.484 4.059.127 7.135-1.406 10.752-2.93.27-.111.508-.096.686.023-.828 1.223-1.822 2.365-2.561 3.645a16.748 16.748 0 0 1-3.58 1.461c.146.277.111.635-.064.904a.578.578 0 0 1-.035.104c1.207 1.77 2.479 4.232 2.072 6.416a23.287 23.287 0 0 0 3.092-2.605c.08-.078.16-.15.244-.213.693.34 1.428.555 2.195.697.027.041.059.072.078.111.123-.008.25-.023.373-.023.922.135 1.863.191 2.795.207.176 0 .33-.031.453-.088 1.557.008 3.113 0 4.652-.104 2.334-.15 4.66-.793 6.689-1.92 1.889-1.041 3.637-2.898 5.67-3.605a2.48 2.48 0 0 1 .232-.109m8.172-32.014c.436-.572.936-1.312 1.158-1.992.215-.641.195-1.285.234-1.947.047-.896 1.346-1.58 1.826-.561.984 2.096-.449 4.215-1.869 5.727-.83.886-2.002-.373-1.349-1.227m-10.403 20.453c-.096-.627.266-1.174.596-1.676.318-.492.688-.984 1.123-1.389.184-.158.361-.246.533-.27.346-.945.578-1.93.686-2.971.373 1.01.48 2.209.307 3.359 2.676.889 4.752 3.16 5.328 5.828.182.857-1.137 1.707-1.568.723a13.523 13.523 0 0 0-.438-.906c-.219.549-.854 1.152-1.438.668-.564-.484-.945-1.121-1.492-1.604-.445-.391-.914-.803-1.438-.621-.408.145-.805 0-1.068-.277-.281.207-.59.383-.924.516-.291.121-.533.072-.707-.047a6.68 6.68 0 0 0 .695-.912.825.825 0 0 1-.195-.421m-34.84 17.325c.246-.451.58-.746 1.064-.951a.697.697 0 0 1 .492-.025s.008 0 .008-.008c.154-.08.314-.143.477-.213.477-.207.941.246 1.016.666.068.381-.104.904-.484 1.096-.111.055-.209.104-.312.158-.219.469-.664.795-1.203.969a.944.944 0 0 1-1.143-.531c-.176-.382-.096-.788.085-1.161m-1.175 1.58c.26.572.01 1.256-.508 1.604-1.223.826-2.615 1.533-4.152 1.564-1.23.033-1.012-1.723-.096-2.039 1.184-.43 2.295-.834 3.34-1.541.507-.35 1.183-.112 1.416.412m28.017-46.129c.225-.102.439-.221.65-.338-.523-.119-.68-.834-.533-1.244.26-.723.85-1.242 1.422-1.754.52-.471.973-1.02 1.564-1.412.516-.346 1.053-.086 1.295.357.4-.766.717-1.559.961-2.348.127-.438.436-.613.73-.596.004 1.305-.057 2.645-.342 3.889-1.156 2.33-3.09 4.566-5.486 4.992-1.064.196-1.048-1.185-.261-1.546m-23.221 15.918c1.1-1.42 3.029-1.492 4.709-1.135 1.066.23.469 1.707-.354 1.842-1.068.168-2.441-.238-3.307.557-.928.857-1.655-.477-1.048-1.264m-40.373 7.392c.094-.461.451-.865.666-1.277.127-.23.27-.492.453-.684.023-.023.072-.064.123-.119.182-.295.48-.516.854-.523.445-.008.715.293.842.666.316.66.262 1.422-.156 2.072-.4.635-1.023 1.311-1.846 1.357-.865.057-1.063-.88-.936-1.492m-12.562 8.377c1.225-1.096 2.557-2.096 3.855-3.121 1.172-.912 2.402-1.945 3.775-2.58 1.373-.627 2.23 1.088 1.238 2.018-1.184 1.104-2.588 2.07-3.898 3.047-1.215.898-2.441 1.844-3.811 2.502-1.268.619-2.083-1.026-1.159-1.866m-7.856 21.43c-2.391.055-2.965-2.693-2.973-4.479-.01-.842 1.277-1.438 1.689-.508.322.713.453 2.699 1.441 2.684 1.416-.025 1.15 2.27-.157 2.303m38.704-15.928a.877.877 0 0 1-1.715.023c-.557-2.137-.764-6.812-4.209-6.264-.926.143-.809-1.391-.076-1.613 4.255-1.3 6.777 4.637 6 7.854m28.912-13.203c-1.16.451-2.379.816-3.629 1.088-.092.262-.281.482-.574.539-2.463.412-4.611 1.541-7.219 1.184-2.023-.271-3.988-.857-6.025-1.08-2.279-.246-8.258-1.271-8.953 1.73a.947.947 0 0 1-.305.531c.889 1.248 1.484 2.684 1.799 4.176.074 1.041.02 2.105-.123 3.145a.96.96 0 0 1-1.053.033c-.043-1.787-.273-3.574-1.154-5.186-.502-.912-1.621-1.961-2.725-2.207-2-1.246-4.422-1.184-6.709-.785-1.777 1.984-4.029 3.635-6.359 4.85-3.41 1.779-7.232 3.057-9.949 5.781-.572.58-1.734 1.834-3.16 3.191.018.08.027.158.025.254.102.168.166.365.162.562-.037 1.129-.576 2.082-.361 3.25.082.508.209 1.078.551 1.5 2.064.484 4.547-.311 6.277.857.484.332.596.953.42 1.477.262-.072.525-.152.779-.23a1.065 1.065 0 0 1-.422.818c-.35.262-.73.5-1.123.723.092.062.178.127.273.189a.87.87 0 0 1 .818-.404c1.922.135 3.684.738 5.637.35 1.096-.215 2.207-.492 3.152-1.088.42-.262.707-.43 1.057-.5-.779-2.605-.176-5.623 1.896-8.162.426-.518.953-.279 1.195.15-1.242 1.977-2.242 4.701-1.457 6.336.283 2.246 1.814 4.16 4.812 5.064 1.197.365.531 2.439-.66 2.064-1.58-.492-2.865-1.27-3.842-2.23-4.201 4.113-10.434 2.834-14.586-.611a.933.933 0 0 1-.254-.357c-1.75.518-3.668.564-5.359-.078-2.588-.994-4.447-3.652-3.473-6.305-2.666 1.676-5.229 2.166-6.289-1.008-.076-.23-.023-.508.1-.771a2.743 2.743 0 0 0 2.1.811c.1 0 .203-.016.301-.031.334.094.648.094.941.008 1.441-.111 3.021-1.525 4.137-2.518 2.119-1.898 3.971-4.059 6.074-5.971 2.564-2.35 6.248-3.502 9.312-5.16 1.723-.938 3.422-1.953 4.805-3.32 1.588-1.588 2.588-3.43 3.895-5.199.4-.541 1.031-.549 1.381-.23.258-.016.488.047.676.262.25.293.305.635.305.992a.932.932 0 0 1 .277.096c.41.174.811.365 1.191.58.758.436 1.457.713 1.676 1.596.051.189.023.396-.039.58.074.031.15.062.221.086.238-2.373 3.928-3.318 5.977-3.51 1.889-.174 3.846-.246 5.729-.016.854.104 1.969.137 2.857.461.135-2.129 1.734-4.264 3.557-5.43.088-.025.176-.057.254-.105.604-.42 1.326-.49 2.057-.49.008.008.02.008.027.023a.672.672 0 0 1 .072.094 9.395 9.395 0 0 0-1.188 1.018 2.77 2.77 0 0 0-.27.262c.215.303.293.723.182 1.168-.043.143-.143.334-.258.555.164.27.377.516.719.738.684.445 1.518.826 2.334.945.211.031.35.135.43.285.143-.008.281-.023.42-.047 3.574-.342 6.496-1.668 9.691-3.105.531-.236.918.08 1.088.525 1.424-1.484 2.172-3.129 3.123-4.891.363-.676 1.18-.611 1.533-.127.33.047.719.244.957.373.662.357 1.311.834 1.5 1.555.092.334-.008.652-.193.922 2.143.326 3.965 1.746 4.068 4.209.027.824-1.172 1.301-1.576.482-1.402-2.811-4.078-2.928-6.828-1.84-.061.023-.111.039-.158.055-1.76 1.991-4.217 3.547-6.547 4.469m-51.137 17.553a1.4 1.4 0 0 1-.338 1.168c.096.549-.289 1.049-.781 1.254-.389.176-.988.072-1.295-.197-.389-.342-.701-.811-.617-1.35.098-.588.332-1.002.816-1.373.246-.184.564-.303.857-.383.669-.19 1.256.254 1.358.881m70.275-14.696a1.834 1.834 0 0 1-.119.096c.412.508.143 1.477-.389 1.811-.699.443-1.127.721-1.195 1.604-.066.801-.043 1.635.389 2.35.469.754 1.354 1.326.762 2.318-.098.16-.217.287-.352.381.182.041.365.096.535.16.984.348.615 1.816-.361 1.896-.564.057-1.08.096-1.568.158-2.295.088-4.871 1.152-6.594 2.533-.08.031-.158.064-.242.096-.299-.414-.127-1.238.311-1.492.477-.295.896-.588 1.285-.914a2.75 2.75 0 0 1-1.115.262c-1.168.057-1.164-1.436-.615-2.039.689-.779 1.945-1.168 1.914-2.367-.016-.77-.369-1.445-.891-2.008a1.107 1.107 0 0 1-.785-.818 1.311 1.311 0 0 1-.104-.904c-2.389-.24-4.43-1.477-5.152-4.264-.146-.588.377-1.096.873-1.072-.008-.754.77-1.803 1.611-1.191.854.611 1.338 1.523 2.49 1.723 1.096.184 2.314 0 3.35-.35 1.973-.658 3.541-2.104 5.471-2.754.6-2.264 1.52-4.662.346-6.916-.766-1.469-1.703-2.494-2.906-3.613-.266-.254-.23-.643-.045-.943-.527-.502-1.062-1.01-1.602-1.541-.855-.857.377-2.693 1.516-1.963 3.24 2.078 6.506 5.916 7.125 9.688.639 3.841-1.048 7.421-3.943 10.073" fill="#E9C1BD"/><path fill="#E9A3AE" d="M129.711 144.278v.004zM104.113 182.401h-.039c.016.02.039.039.061.055a.083.083 0 0 1-.022-.055M114.213 199.853c.189-.096.389-.189.572-.293-.219 0-.438-.01-.66-.025a.874.874 0 0 1 .088.318M129.361 155.876c.041-.037.076-.061.111-.09-.074-.033-.158-.064-.234-.105.041.06.084.131.123.195M121.299 174.485c.008-.121.02-.23.027-.346.111-1.268.287-2.541.518-3.801-.08.018-.168.029-.254.029h-.145c.076.219.092.467.041.756a10.814 10.814 0 0 0-.187 3.362M177.865 136.399c.053-.08.111-.148.18-.209l-.211-.012c.012.069.023.147.031.221M173.562 179.493c.045 0 .092.004.139.004-.027-.045-.055-.09-.078-.146a2.752 2.752 0 0 1-.061.142M155.088 223.886c-.041-.016-.092-.031-.135-.047.012.047.027.096.035.143l.1-.096M177.707 218.534c.084-.047.158-.078.234-.135a.574.574 0 0 1-.123-.166 3.382 3.382 0 0 1-.09.262.102.102 0 0 1-.021.039M167.791 209.88a2.873 2.873 0 0 0-.357-.078c0 .127-.016.27-.035.404.13-.103.265-.215.392-.326"/><path d="M95.32 180.964c-.035.5.203 1.025.646 1.25a7.174 7.174 0 0 1 1.867-1.83 8.044 8.044 0 0 1-2.025-2.568.863.863 0 0 1-.078-.535c-.152.102-.287.24-.395.391-.673.95.061 2.235-.015 3.292" fill="#EAA1A9"/><path d="M86.258 187.896c.094.088.193.158.293.238a1.194 1.194 0 0 0-.158-.143.67.67 0 0 0-.135-.095" fill="#E67A87"/><path d="M93.855 200.138a.93.93 0 0 0 .588-.205c-1.488-.891-2.246-2.271-2.479-3.844a.882.882 0 0 1-.285.396 7.341 7.341 0 0 0-1.092 1.01c.18.443.488.857.775 1.197.568.668 1.525 1.479 2.493 1.446M85.266 189.435c.477.58.959 1.152 1.5 1.668.07.072.15.152.227.223-.037.295.035.604.258.865.914 1.064 3.375.818 3.314 2.66-.004.072.008.143.012.207.262-.08.535-.143.83-.184.219-.031.377.025.488.119 0-1.15.234-2.357.643-3.533-2.814.008-6.506.016-7.395-2.826-.077.285-.053.595.123.801M72.814 180.237c.176-1.322.748-2.199 1.59-3.191.094-.109.174-.275.217-.443-.066.066-.131.131-.189.203-.207.266-.441.334-.656.291a15.348 15.348 0 0 0-1.25 2.566c-.305.816-1.465 3.912-1.045 5.549.219.293.477.557.795.785.262.191.531.23.781.176.307-.438.66-.865 1.049-1.279.076-.436-.055-.881-.492-1.119-1.2-.659-.942-2.438-.8-3.538M81.545 180.892c.115.152.23.23.35.271-.203-1.869.008-4.041.631-5.93 0-.096.008-.201.008-.297-.82.031-1.607-.105-2.299-.502-.309 2.157-.028 4.733 1.31 6.458M78.215 164.595c-1.076 1.002-1.76 2.738-2.326 4.043-.426.973-.998 2.334-.621 3.387.66-.5 1.371-.846 2.121-.963.143-.533.309-1.037.523-1.549-.008-1.744.564-3.514 1.557-4.961-.305-.317-.905-.291-1.254.043M80.564 206.554c-.008.023-.008.031-.016.047-.27 1.191-.531 2.463-1.207 3.518-.668 1.025-1.93.502-2.818.143.742 1.35 1.719 2.525 3.326 3.344.984.492 2.033.857 3.09 1.184a4.29 4.29 0 0 0 .416-.246c-.758-1.779-1.053-3.844-.715-5.717-.107-.184-.211-.357-.301-.533-.041 0-.092.008-.131 0a44.576 44.576 0 0 1-1.1-3.008.78.78 0 0 0-.203.23c-.175.331-.282.68-.341 1.038M105.971 203.901c-.365.199-.67.564-.824 1.145-.564 2.088-.08 4.256-.652 6.328-.477 1.689-3.127 2.404-4.596 2.945-2.26.842-4.582 1.119-6.988.951-1.428-.086-2.803-.467-4.184-.762.5.318 1.049.613 1.656.85 2.242.898 4.639 1.422 7.078 1.129 2.627-.318 4.852-1.557 7.375-2.129.365-.078.65-.008.857.143a23.928 23.928 0 0 1 1.422-3.215 50.35 50.35 0 0 1 5.168-7.805c-2.115.803-4.414 1.215-6.312.42M105.25 196.011c1.666 1.793 3.08 3.795 5.041 5.311.166-.031.338-.072.504-.119 1.188-.35 2.33-.803 3.418-1.35a.88.88 0 0 0-.084-.311v-.008c-3.334-.205-6.592-1.984-8.832-4.469-.293.215-.41.555-.047.946M103.264 184.544c.533.588.906 1.414 1.676 1.732.461.189.811-.145.977-.541-.92-1.096-1.5-2.191-1.781-3.279-.025-.016-.041-.039-.061-.051a7.593 7.593 0 0 1-3.203-.346c-.096.445.066.945.508 1.135a5.376 5.376 0 0 1 1.884 1.35M116.562 188.522c.164 1.643.906 3.414 1.945 4.74.184.357.361.73.549 1.088.088.174.207.301.342.404.547-.182 1.104-.342 1.691-.342.117 0 .229.018.332.057.223-.223.445-.461.664-.699a6.825 6.825 0 0 1-1.637-.969c-1.996-1.58-3.053-4.271-3.656-6.598-.258-1.016-.523-2.135-.682-3.279-.104.088-.184.238-.191.477-.103 1.811.159 3.495.643 5.121M129.807 187.118c.062.223.158.459.27.689a1.15 1.15 0 0 1 1.072 1.025 25.366 25.366 0 0 0 1.656-1.438c-1.131-.738-2.021-1.754-2.521-3.121-.219.334-.453.619-.584 1.008-.212.607-.075 1.249.107 1.837M120.938 180.813c.049.047.1.096.152.127.113.199.236.4.359.596a.998.998 0 0 0 .125.146c-.541-2.322-.469-4.891-.279-7.195a11.104 11.104 0 0 1 .191-3.367 1.472 1.472 0 0 0-.041-.752c-1.016.004-2.166.146-3.385.414a21.308 21.308 0 0 0 1.066 5.881c.304 1.475.86 3.125 1.812 4.15M111.859 164.47c.143.529.273 1.061.357 1.602.242 1.484-.83 2.545-1.383 3.826-.232.525.014.943.402 1.109a26.905 26.905 0 0 1 4.846-2.275c.008-.078.012-.156.008-.229-1.723-1.65-3.199-3.797-4.1-6.117a.53.53 0 0 1-.322-.133 5.744 5.744 0 0 0-.512-1.105.854.854 0 0 0-.088.432c.017 1.019.412 1.946.792 2.89M99.223 151.806c-.492.09-.977.248-1.426.465-.059-.006-.123-.014-.193 0-1.641.213-5.912 3.348-6.781 5.855-.984-.398-2.357-.775-3.473-.543-.227.746-.283 1.512-.6 2.23 2.389-.635 4.891-.617 6.898.387.43-4.92 4.383-6.824 8.654-8.053a.805.805 0 0 0-.459-.463c-.79-.306-1.81-.031-2.62.122" fill="#EAA1A9"/><path d="M93.768 162.743a5.505 5.505 0 0 0-.928-.637c-.061.09-.127.172-.203.24.373.217.75.37 1.131.397" fill="#E67A87"/><path d="M124.551 132.3a.725.725 0 0 0-.572-.146c-1.516.227-2.842 1.135-4.271 1.662-1.818.68-3.684 1.24-5.506 1.9-3.76 1.354-7.732 2.312-11.307 4.096-3.104 1.559-6.252 3.15-9.096 5.127-2.439 1.703-5.326 4-6.34 6.805-.197.549.354 1.156.854.959 7.512-11.068 22.812-12.934 34.611-18.289 1.107-1.312 2.58-2.434 4.004-3.242-.646.201-1.266.471-1.908.73a.888.888 0 0 0-.469.398M138.891 135.772c.02.033-.01-.07-.033-.148.012-.037.004-.33.008-.379.004-.043.004-.07.008-.094.004-.016.008-.031.008-.059.029-.115.072-.236.105-.355.031-.109.078-.203.121-.314.012-.012.012-.02.012-.031a.21.21 0 0 0 .049-.09c-.684.203-1.322.463-1.898.826-.062.035-.127.07-.182.09-.092.633-.381 1.234-.627 1.812.062.186.15.355.258.512a8.281 8.281 0 0 1 2.457-.605 1.598 1.598 0 0 0 0-.391c-.04-.289-.177-.512-.286-.774M141.732 128.964c-1.168.148-2.318.428-3.471.658-.982.199-1.992.184-2.92.459.893.412 1.57 1.105 1.816 2.201.934-.621 2.303-.971 3.098-1.18 3.049-.807 6.105-1.488 9.305-1.467.418 0 .877.008 1.35.031a.636.636 0 0 0-.389-.305c-2.632-.807-6.074-.757-8.789-.397M150.338 133.204c.109.146.275.252.525.303 1.287.234 1.643.004 1.295 1.332-.295 1.143-1.311 2.443-.906 3.625.096.281.381.5.695.566.799-1.102 1.688-2.121 1.973-3.273.227-.357.404-.719.508-1.072a.987.987 0 0 1-.334-.088c-1.309-.612-2.42-1.16-3.756-1.393M162.924 129.452c-1.238-.453-2.74.043-3.963.379-1.311.365-2.572.744-3.934.859.561.34 1.033.783 1.346 1.373.016.041.035.082.051.125 1.521-1.357 3.383-2.232 5.584-2.027.527.047 1.035.137 1.543.252.008-.402-.19-.801-.627-.961M187.564 137.274c-1.381-1.086-2.449-2.348-4.09-3.1a4.356 4.356 0 0 0-.225-.057c-1.859-.383-4.543-.793-6.527-.244.568.576.961 1.322 1.115 2.303l.211.012a.788.788 0 0 1 .441-.176c1.217-.045 2.52.117 3.822.467a8.068 8.068 0 0 1 2.291.789c.846.365 1.658.793 2.43 1.293.055-.395.293-.799.646-.924.131-.037.254-.076.389-.115a.633.633 0 0 0-.023-.115c-.149.028-.314-.01-.48-.133M133.451 136.753c-.092.408-.6.791-1.049.781-.102.725-.127 1.783-.385 2.307.012-.02-.047.039-.139.088-.158.086-.262.168-.42.219-.604.225-1.215.236-1.807.508-.488.232-.711.807-.648 1.33.607.082 1.217.139 1.807.135 2.748-.041 3.557-2.873 2.859-4.809-.012-.059-.035-.105-.053-.162a7.81 7.81 0 0 0-.086-.619h-.041c-.01.072-.018.146-.038.222M130.256 150.774c.166-1.465 1.146-2.627 1.465-4.021.119-.523-.207-1.248-.762-1.227a16 16 0 0 0-2.053 4.74c-.311 1.195-.561 2.58-.357 3.82.115.672.381 1.127.689 1.594.076.041.16.072.234.105a16.136 16.136 0 0 1 1.672-1.244c-.074-.678-.457-1.027-.734-1.629-.305-.659-.23-1.442-.154-2.138M126.543 151.728c.096.232.238.367.396.438.072-.562.172-1.062.264-1.424.484-2.029 1.174-4.568 2.5-6.461v-.004c-.824-.07-1.674-.207-2.531-.32-.6 1.002-.842 2.166-.926 3.314-.1 1.32-.242 3.21.297 4.457M145.496 157.505c-.469-1.121-.746-2.289-.803-3.404a17.92 17.92 0 0 1 .762-6.143c-.086.02-.178.041-.27.09-1.531.703-2.166 3.688-2.525 5.094-.432 1.684-.654 4.068.668 5.461a9.855 9.855 0 0 1 1.949-.291c.143-.245.219-.524.219-.807M136.438 166.763c.004.004.004.008.008.008a2.557 2.557 0 0 0-.238.568.875.875 0 0 0-.018.381c-.031.127-.047.26-.031.389.012.129.049.254.088.365 0 .008-.008.012-.016.016.055.162.111.324.166.492.422 1.447.723 2.955.811 4.471.207-.109.389-.297.484-.564.789-2.27-.346-4.57-.008-6.867.055-.365-.08-.617-.287-.748a8.505 8.505 0 0 0-.781 1.111 2.5 2.5 0 0 0-.178.378M152.289 169.862c.332.15-.252-.109.082.059.234.117.016-.014.234.211.314.328.568.707.783 1.092.527.908.801 1.822 1.523 2.443.211.176.484.168.738.07-.088-.273-.166-.549-.246-.83-.373-1.312-.873-2.627-1.215-3.961-.742.197-1.564.27-2.465.205.052.327.232.553.566.711M145.719 193.112c-.27.785-.627 1.539-1.045 2.262a.822.822 0 0 0 .369.215c.008 0 .008 0 .016.008 1.564-.096 3.156.039 4.551.652.062-.191.09-.391.039-.572-.215-.891-.918-1.168-1.676-1.604a13.868 13.868 0 0 0-1.191-.588c-.092-.031-.182-.072-.277-.088 0-.357-.055-.707-.305-.992-.188-.215-.414-.277-.676-.262.226.208.341.547.195.969M156.092 183.329a.96.96 0 0 0 .234-.078c1.25-.545 2.303-.275 3.604-.279.092 0 .176-.014.25-.031-1.066-.992-1.934-2.291-2.6-3.746-1.139 2.334-2.914 4.287-5.045 5.826 1.227.507 2.707-.889 3.557-1.692M176.473 178.183c-.607-1.078-.449-2.094-.273-3.242.062-.428-.123-.691-.398-.803.1-.338.184-.672.248-.963.225-1.182.627-2.041 1.215-2.58 1.254-.404 2.926-.285 4.199-.146a.94.94 0 0 0 .865-.367c-.484-.471-1.096-.857-1.906-1.113-1.92-.602-3.826-.521-5.703.088.207 1.994.336 3.994.102 6.01a14.005 14.005 0 0 1-1.197 4.289c.02.053.055.098.078.146 1.58.027 3.344.693 4.678 1.621a1.08 1.08 0 0 0-.146-.309c-.62-.866-1.235-1.711-1.762-2.631" fill="#EAA1A9"/><path d="M180.895 160.077c-.135-.484-.27-.973-.412-1.455-.02.035-.027.068-.043.096-.18.48.054 1.078.455 1.359" fill="#E67A87"/><path d="M182.982 154.054c.299-.684.699-1.287 1.418-1.764.373-.242.561-.631.611-1.021a1.195 1.195 0 0 1-.092-.66c-1.674.385-3.541.889-4.838 1.904 0 .018 0 .029-.004.047.98 1.32 1.697 2.883 2.246 4.512.051.85.084 1.691.08 2.533 1.185-1.358 1.033-3.612.579-5.551M196.135 158.954c.199-.609.799-.986 1.006-1.588a15.13 15.13 0 0 0 .574-2.236c.365-.316.867-.486 1.33-.617.596-.158 1.23-.129 1.818.016.68.18 1.08.74 1.676 1.043.592.295 1.287-.031 1.488-.607-.674-.986-1.461-1.867-2.402-2.541-1.209-.869-2.461-1.234-3.949-1.455-.773-.113-1.648-.061-2.387-.322 1.1 1.947 1.303 4.584 1.084 7.115a20.478 20.478 0 0 1-.85 1.752c.272-.087.522-.288.612-.56M203.354 149.774c.67.766 1.146 1.672 1.531 2.602 1.879 2.232 3.379 5.121 4.113 7.906a.807.807 0 0 1 .445-.146c.094 0 .189.01.281.018.035-.041.062-.088.096-.135-.211-1.137-.227-2.316-.643-3.439a1.026 1.026 0 0 1-.021-.645 15.45 15.45 0 0 0-.451-.83 1.365 1.365 0 0 0-.66-.492 14.738 14.738 0 0 0-.4-1.297c-1.148-1.797-2.502-3.541-4.098-4.945-.393.321-.582.952-.193 1.403M167.799 148.817a1.202 1.202 0 0 0-.438-.922 1.826 1.826 0 0 0-.492-.293c-.027-.35.008-.744-.027-1.143.988-1.072 1.914-2.184 3.037-3.15a1.614 1.614 0 0 1-.15-.074c-.369-.232-.406-.65-.254-1-.477.811-1.152 1.586-1.963 2.289-2.453 2.141-5.811 2.789-8.398 4.604.357.986.596 2.006.789 2.877.1.463.191.932.273 1.406.246-.342.549-.666.881-.975 0-.008.006-.012.006-.025l-.006-.076c.049-.004.096-.018.145-.021 1.75-1.523 4.445-2.588 7.01-3.174-.055-.055-.111-.115-.178-.166-.069-.059-.151-.106-.235-.157" fill="#EAA1A9"/><path d="M190.959 141.052a9.239 9.239 0 0 0-1.158-.15c.082.1.162.193.24.291.326.068.615-.001.918-.141M188.232 139.431c.217.176.424.354.627.529.016-.184.074-.377.174-.541a7.666 7.666 0 0 0-.801.012" fill="#E67A87"/><path d="M213.496 184.894c-1.172.262-2.49.318-3.59-.031a.86.86 0 0 0 .195.477c.111.43.412.777.889.842.545 1.008 1.025 2.008.953 3.264-.059 1.254 1.049 1.57 1.842 1.158l.031.404a.68.68 0 0 0 .033.199c.439.176.861.365 1.27.588.004-2.446-.42-4.741-1.623-6.901M187.768 187.522a.418.418 0 0 0 .08.039c.039.025.086.049.137.08a6.503 6.503 0 0 1 2.443-.104c.189-.27.285-.588.193-.922-.189-.721-.842-1.197-1.504-1.547-.23-.127-.623-.334-.953-.381a.908.908 0 0 1 .162.619 7.937 7.937 0 0 1-.558 2.216M185.711 195.946c2.727 4.93 9.377 2.406 12.279-1.096.174-.205.336-.42.496-.635a1.056 1.056 0 0 1-.465-1.176c.004-.016.008-.039.016-.055-1.934.658-3.506 2.096-5.475 2.754-1.041.35-2.258.533-3.35.35-1.148-.199-1.633-1.111-2.49-1.73-.842-.604-1.619.445-1.607 1.191a.724.724 0 0 1 .596.397M167.854 189.937a2.71 2.71 0 0 0-.582 1.477 2.196 2.196 0 0 0-.111.158c-.41.73-.576 1.508-.783 2.287 3.883.842 7.969.723 11.695-.738 1.98-.777 3.918-1.85 5.389-3.367.014-.016.035-.031.051-.047-.17-.445-.561-.771-1.096-.525-3.191 1.438-6.113 2.764-9.688 3.105a7.307 7.307 0 0 1-.416.039.593.593 0 0 0-.434-.277c-.816-.119-1.654-.5-2.334-.945a2.238 2.238 0 0 1-.719-.738 4.23 4.23 0 0 0 .258-.555c.111-.445.033-.875-.182-1.168a6.087 6.087 0 0 0-.865 1.111l-.183.183M120.338 215.247c.453 2.145.584 3.979 3.164 4.525 1.121.51 2.684.51 4.145.295.846.104 1.771-.031 2.676-.262.172-.523.064-1.145-.42-1.477-1.73-1.168-4.209-.373-6.281-.857-.342-.422-.461-.992-.551-1.51-.207-1.166.328-2.111.361-3.24a1.072 1.072 0 0 0-.158-.57c0-.088-.008-.166-.025-.246-1 .953-2.135 1.953-3.287 2.803.175.08.317.246.376.539M141.328 221.497a7.429 7.429 0 0 1-.83-1.834c-.354.07-.641.238-1.061.5-.941.596-2.057.873-3.152 1.088-1.953.389-3.715-.215-5.637-.35a.887.887 0 0 0-.822.404c1.564 1.119 3.395 2.057 5.348 2.16 2.422.128 4.224-.737 6.154-1.968M118.191 224.569c-2.326 1.176-4.633.5-7.154.293-.404-.031-.686.238-.811.588a7.64 7.64 0 0 0 2.287 1.35c2.1.803 4.057.834 6.121.771.311-.191.58-.43.826-.707a9.661 9.661 0 0 1-.455-.984c-.199-.502-.01-1.033.328-1.398-.284-.143-.665-.151-1.142.087M130.113 229.038c-.434.176-.834.732-.902 1.256 3.08.443 6.5.166 9.549-.16.066-.047.121-.102.178-.15a19.184 19.184 0 0 1-.922-.451c-.816-.453-.213-1.676.592-1.715-1.305-.246-2.576.666-3.898.816-1.544.183-3.124-.174-4.597.404M149.195 226.435c-.508.549-1.023.961-1.738 1.238-.938.357-1.668.311-2.469.961-.15.119-.26.27-.322.438 1.037.127 2.084.135 3.148-.096 3.033-.658 5.217-2.684 7.121-4.938.018-.025.033-.033.053-.057a1.248 1.248 0 0 1-.035-.143 25.168 25.168 0 0 1-4.467-1.93c-.008.15.008.293.051.438-.135 1.446-.289 2.954-1.342 4.089M174.254 214.454c.516.881.758 1.889.457 2.865-.354 1.176-1.926 1.596-2.76 2.375a1.561 1.561 0 0 0-.484 1.477 27.08 27.08 0 0 0 6.24-2.637c.012-.008.016-.031.021-.039l.09-.262a.864.864 0 0 1-.096-.516c.15-1.764-.404-3.445-1.396-4.932-.426-.635-.869-1.27-1.438-1.785-.158-.152-.361-.35-.576-.477-.201.008-.416.023-.615.031l-3.492-.223a10.763 10.763 0 0 1-2.322 2.795c.217.031.471-.008.758-.158 2.111-1.127 4.433-.539 5.613 1.486" fill="#EAA1A9"/><path d="M177.568 209.944c-.234.062-.473.127-.715.182.184.223.346.438.488.643.045.057.084.121.119.184a.54.54 0 0 0 .039-.104c.177-.27.216-.627.069-.905" fill="#E67A87"/><path d="M158.93 211.731a3.957 3.957 0 0 0-.684.293.938.938 0 0 0-.309.254c-.072.031-.139.072-.215.111-1.85.787-3.814-.016-5.367 1.414a.595.595 0 0 0-.158.215c2.779.594 5.693.705 8.463-.018 2.828-.73 4.717-2.135 6.742-3.795a3.57 3.57 0 0 0 .031-.404c-.23-.057-.461-.111-.691-.168-1.572-.389-3.287-.713-4.74-1.469a.505.505 0 0 1-.047.096c-.754 1.397-1.715 2.604-3.025 3.471M194.635 200.083c.723 1.738.771 4.201.15 6.383a5.58 5.58 0 0 1 2.836-.135 1.31 1.31 0 0 0 .352-.381c.596-.984-.289-1.564-.762-2.318-.432-.707-.461-1.549-.389-2.35.068-.883.5-1.16 1.199-1.611.527-.326.797-1.295.385-1.803-.996.889-2.326 1.666-3.768 2.215h-.003M205.641 207.911c.002.27.082.541.248.771.199.357.238.697.129 1.031a2.005 2.005 0 0 0-.238.111c.062-.016.119-.039.178-.055.949-.303 1.238.832.908 1.451a7.244 7.244 0 0 1-.498.787c1.969.023 3.75.547 5.732-.023a11.17 11.17 0 0 0 4.645-2.701c.213-.205.42-.42.627-.635.693-1.246 1.166-2.637 1.572-4.025-2.688 4.773-8.68 5.614-13.303 3.288M206.43 197.177c-.361.73-.861 1.375-1.518 1.842.264.27.66.422 1.068.27.523-.174.992.246 1.438.629.553.482.928 1.119 1.496 1.596.58.492 1.211-.111 1.434-.66-.881-1.644-2.119-2.962-3.918-3.677M211.078 165.847c.596.48 1.211.936 1.818 1.404.695.543 1.334 1.162 1.977 1.768a.022.022 0 0 1 .02-.012c.365-.115.648.023.906.264.088.078.146.18.215.275.051.07.094.143.135.213a3.333 3.333 0 0 0 .404.498.843.843 0 0 1 .23.457c.131.102.258.201.396.305.543.395 1.061.188 1.381-.24a10.757 10.757 0 0 0-2.588-3.996 20.856 20.856 0 0 0-3.695-2.891c-.893-.531-2.021-.955-2.887-1.576v.004c.354 2.93-.221 6.025-1.68 8.646a.916.916 0 0 0 .43-.256c1.231-1.289 2.454-3.037 2.938-4.863" fill="#EAA1A9"/><path d="M185.773 151.718c1.68-.125 3.113-.309 4.768.166 2.07.586 2.414 1.83 3.141 3.525.145.342.381.48.639.492-.021-1.76-.258-3.789-1.535-5-1.672-1.578-4.994-.945-7.016-.492-.273.062-.559.131-.85.195-.027.229 0 .473.088.664a.744.744 0 0 0 .765.45M169.836 152.696c1.354-.279 2.969-.215 4.244-.645.236-.082.443-.27.57-.504a8.238 8.238 0 0 0-.619-.139c-2.545-.451-5.375-.172-7.797.689-1.322.473-2.771 1.041-3.811 1.996-.811.746-1.104 1.529-1.611 2.453a1.006 1.006 0 0 1-.287.287c.016.451.012.91-.004 1.357 1.863-1.645 3.195-3.596 5.625-4.596 1.172-.484 2.454-.646 3.69-.898M171.689 173.06c-1.322 3.131-2.707 7.086-7.043 6.502-3.725-.508-4.844-5.109-5.979-7.922-.143-.348-.404-.496-.68-.508 1.521 5.092 2.391 11.643 8.484 10.9 5.506-.68 6.645-4.902 6.566-9.684-.463-.146-1.094.106-1.348.712M146.945 150.478a9.594 9.594 0 0 0-.203 2.986c.143 1.615.543 3.318 1.568 4.654.02.025.043.051.066.074.238.725.625 1.412 1.098 2.049.186-.33.262-.736.135-1.057-1.434-3.609-2.629-6.676-1.707-10.594.135-.529-.076-.906-.395-1.064-.004.031-.016.068-.02.096-.333.897-.491 1.887-.542 2.856M133.982 168.126c-.229-.492-.615-1.109-.988-1.773-.281.346-.449.857-.338 1.211.383 1.256.846 2.451 1.105 3.748.258 1.357.309 2.748.658 4.102.197.758.961.834 1.426.467-.053-1.428-.338-2.883-.719-4.127a14.351 14.351 0 0 0-1.144-3.628M130.076 187.808c-.102 0-.211 0-.32.023-1.234.223-2.229.994-3.514 1.152-1.184.143-2.342-.15-3.43-.557-1.16-.436-2.129-1.318-2.902-2.215-.949-1.119-1.207-2.373-1.934-3.572a.819.819 0 0 0-.334-.311c.25 1.469.688 2.898 1.41 4.256.439 1.453 1.162 2.787 2.389 3.787 3.064 2.494 6.809.754 9.707-1.539a1.15 1.15 0 0 0-1.072-1.024M154.5 175.335c-1.346 3.105-4.17 5.561-7.115 7.277-1.65.955-3.545 1.662-5.471 1.908-1.723.215-3.326-.342-5.033-.428-.461-.023-.773.404-.822.832.41.16.85.295 1.314.391 2.311.467 4.789.373 7.066-.199 4.406-1.104 9.314-3.604 11.803-7.387a.854.854 0 0 1 .182-.207c.092-.18.184-.357.275-.529a46.955 46.955 0 0 1-.873-2.676c-.525.063-1.041.375-1.326 1.018M119.398 194.755c-.422.145-.842.303-1.268.398-1.258.293-2.576.27-3.861.205-2.383-.111-4.586-.77-6.924-.977a.618.618 0 0 0-.492.168c.9.77 1.908 1.381 3.049 1.777.078.016.15.039.219.049 2.377 1.111 5.113 1.453 7.629.65.297-.096.541-.047.711.07a28.649 28.649 0 0 0 2.961-2.619.96.96 0 0 0-.332-.064c-.588-.007-1.141.161-1.692.343M104.836 214.358c-2.523.58-4.748 1.811-7.375 2.129-2.439.293-4.84-.23-7.078-1.129a8.954 8.954 0 0 1-1.66-.85c-2.457-1.588-3.68-4.088-3.898-7.074-.027-.412-.281-.58-.572-.572a8.889 8.889 0 0 0 .061 2.654.756.756 0 0 0 .104.285c.062 2 1.143 3.891 2 5.986 1.684.484 3.359 1.023 5.066 1.445 2.277.547 4.723 1.096 7.09.754 1.93-.287 3.484-1.754 5.303-2.422.334-.119.588-.062.764.088.016 0 .039-.016.055-.016.084-.018.166-.018.258-.033a.627.627 0 0 1 .369.072c.111-.396.238-.787.373-1.184-.21-.148-.495-.211-.86-.133M74.164 189.341a.891.891 0 0 0-.102-.73.797.797 0 0 0 .551-.389c.449-.859 1.076-1.533 1.846-2.145.318-.254.518-.619.434-1.008-.23.104-.465.238-.691.396-1.166.826-1.996 1.914-2.639 3.152-.957 1.818-1.334 3.859-1.244 5.883.326-.77.502-1.596.768-2.389.308-.944.784-1.835 1.077-2.77M85.365 172.04c-.018.012-.029.033-.045.045.27-.084.535-.178.803-.273-.23-.077-.496-.036-.758.228M85.027 177.13c.482-1.254 1.473-1.994 2.215-3.076a.828.828 0 0 0 .143-.449c-.787.309-1.615.631-2.449.883-.477 1.393-.926 2.768-.996 4.268-.027.504.078 1.121.154 1.74a.911.911 0 0 0 .1-.238c.216-1.064.447-2.109.833-3.128M74.621 176.603c1.283-1.248 3.887-.992 4.809-2.613.023-.041.039-.082.062-.127a4.384 4.384 0 0 1-.766-1.033.966.966 0 0 1-.166.105c-2.148.957-3.664 2.357-4.785 4.158.215.047.445-.023.656-.283.055-.079.124-.143.19-.207M81.887 169.7c-.807-2.441 1.203-4.627 3.156-5.912 1.031-.691 2.242-1.082 3.477-1.264 1.172-.17 2.264.221 3.406.15.266-.016.508-.143.707-.33.08-.068.15-.15.207-.236-3.232-1.734-8.146-.031-10.672 2.561-1.484 1.521-2.922 4.48-1.541 6.5.609.281 1.525-.662 1.26-1.469M94.244 173.198c-1.373-1.377-2.549-2.773-3.457-4.479-.293-.549-.814-.479-1.148-.168.115.473.318.934.648 1.373.012.008.023.02.031.027.688 1.727 2.584 3.27 4.006 4.238.166-.323.186-.727-.08-.991M98.73 176.228c-.604-.414-1.135-.086-1.389.436 1.008.965 1.785 2.129 3.049 2.838 1.143.629 2.27.789 3.525.883.027-.436.094-.871.205-1.293-.828-.24-1.666-.363-2.461-.822-1.03-.595-1.952-1.371-2.929-2.042M98.016 157.829c1.156-1.463 4.455-1.459 6.189-1.893 2.377-.6 4.553-1.467 6.756-2.469 1.057-.492 2.072-1.041 3.141-1.496 1.002-.426 3.748-1.105 4.525.098.18.275.588.338.883.256.039-.012.074-.02.111-.033a.977.977 0 0 0 .594-.512c-1.561-1.891-4.172-2.92-6.232-1.537-2.531.586-5.279 2.168-7.535 2.773-2.254.609-4.633.949-6.783 1.881-2.541 1.102-3.732 2.719-4.432 5.146-.02.428-.008.863.025 1.297.623.59 1.15 1.33 1.551 2.236.084.18.1.357.072.529.258-.213.432-.549.381-.928-.239-1.658-.354-3.946.754-5.348" fill="#F3D4D1"/><path d="M114.467 159.839a.987.987 0 0 0-.254-.285 13.814 13.814 0 0 1-.365-2.885c-.023-1.215-1.611-1.098-1.684.035-.031.59-.023 1.209.016 1.83.326.861.787 1.654 1.391 2.297 1.08 2.482 2.984 4.729 4.414 7.098a.627.627 0 0 1 .07.203 20.54 20.54 0 0 1 1.559-.33c-.549-1.195-1.51-2.234-2.252-3.324-1.028-1.502-1.973-3.079-2.895-4.639M76.428 166.14c.199-1.27.771-2.541 1.381-3.672.744-1.371 1.605-2.098 2.971-2.818.596-.318.738-1.576-.08-1.742-.023-.004-.055-.004-.084-.012-2.465 1.195-3.607 4.084-4.33 6.512a36.401 36.401 0 0 0-.676 2.609c.365-.079.74-.387.818-.877M83.479 157.259c.17-1.484.881-2.682 1.699-3.924.727-1.117 1.77-2.145 2.168-3.422.15-.473-.031-.871-.35-1.072-1.791 1.689-3.271 3.637-4.16 6.117-.5.938-.641 2.035-.611 3.121.459.192 1.166-.117 1.254-.82M97.207 141.497c2.191-3.289 5.318-5.006 9.121-6.221 1.961-.621 3.967-1.125 5.973-1.594 1.713-.4 3.699-.613 5.307-1.336.02-.014.031-.025.051-.033a.714.714 0 0 1 .131-.52c.133-.191.275-.361.418-.533-4.105.184-8.357 1.475-12.084 2.875-2.461.918-6.574 2.344-8.178 4.775-.73.783-1.453 1.838-1.629 2.906.275.132.63.07.89-.319M120.906 131.829c1.984-.959 3.787-2.15 5.844-3 2.387-.98 4.553-1.193 7.07-1.561 4.436-.627 9.027-.266 13.26 1.162.611.203 1.123-.055 1.449-.49 2.311 1.133 5.176.994 7.701.963 3.637-.047 7.039-.777 10.627.162 3.605.947 7.139 3.178 10.889 3.557 1.922.188 3.67.691 5.443 1.412.096.039.188.094.285.137 1.641.756 2.709 2.018 4.09 3.104.166.123.33.162.48.133.285-.061.52-.334.635-.637-1.846-2.1-3.834-3.896-6.832-4.504-1.945-.404-3.945-.295-5.902-.668-1.473-.287-2.637-.92-3.914-1.656-3.824-2.215-8.035-2.637-12.428-2.34-3.604.242-7.314.82-10.924.285-.623-.094-.596-.818-.258-1.262-4.514-1.346-9.619-1.146-14.168-.504-3.336.469-6.49 1.199-9.369 2.502-1.93.322-3.471 1.475-4.971 2.711.069.422.462.756.993.494M193.127 141.856c.066.062.15.119.213.184 1.002.959 1.125 2.492 2.34 3.289.463.305.953.061 1.219-.338a.883.883 0 0 1-.096-.18c-1.156-3.312-4.287-5.316-7.77-5.395-.1.166-.158.359-.174.547.332.299.646.613.941.941.373.02.766.066 1.154.146.763.158 1.525.422 2.173.806M136.197 133.985c-.008-.008-.008-.018-.008-.027-.006-.008-.006-.008-.014-.008-.01.018-.01.031-.018.049.019 0 .027-.014.04-.014" fill="#F3D4D1"/><path d="M139.172 134.304c1.83-.531 3.93-.617 5.721-.902a23.895 23.895 0 0 1 4.156-.309c.457 0 .885.039 1.289.113 1.336.229 2.447.779 3.752 1.393.115.051.227.074.338.088.17-.557.135-1.078-.254-1.488-1.184-1.256-3.748-1.199-5.352-1.162a33.705 33.705 0 0 0-3.85.293c-1.037.133-2.344.637-3.379.582-.814-.045-1.895.445-2.648.746a5.26 5.26 0 0 0-.793.355c-.008.012-.016.016-.033.02-.158.434-.582.783-.996.85-.004.113-.02.225-.035.338a.93.93 0 0 0 .182-.094c.572-.358 1.218-.624 1.902-.823M157.283 134.782c2.162-.775 4.1-1.24 6.449-.916 1.398.188 2.713.85 4.105 1.115 1.381.26 2.832.111 4.225.352.678.107 1.223-.48 1.262-1.074a5.655 5.655 0 0 0-.408-.086c-1.537-.279-3.109-.293-4.664-.488-1.938-.244-3.652-1.211-5.59-1.504-2.459-.369-4.303.447-5.924 2.164l-.07.375c.133.119.332.168.615.062M123.932 137.97c1.215-.941 2.818-1.572 4.279-2.061.711-.236 1.518-.418 2.268-.285.857.154.984.988 1.385 1.602.139.217.33.307.539.307.449.008.957-.369 1.049-.777.016-.082.023-.15.043-.229l.016-.1a5.626 5.626 0 0 0-.574-1.619 3.018 3.018 0 0 0-1.318-1.236c.143-.023.285-.035.42-.039-.727-.393-1.643-.555-2.596-.428a9.61 9.61 0 0 0-2.637.756c-.385.232-.766.484-1.143.766-1.254.479-2.215 1.572-2.891 2.797.111.546.58.989 1.16.546M100.311 146.851c-.115.012-.23.023-.342.07-.047.016-.254.076-.074.051-.434.043-.734.395-.768.803-.016.346.227.809.66.764.115-.008.23-.023.34-.07.049-.016.26-.068.076-.047a.858.858 0 0 0 .766-.801c.025-.35-.225-.815-.658-.77M111.752 142.397c-3.088.477-6.748 1.424-9.33 3.189-.723.496-.547 1.795.492 1.617 1.418-.24 2.756-.936 4.098-1.424a62.397 62.397 0 0 1 4.828-1.594c.834-.229.928-1.942-.088-1.788M130.676 160.741c.568-.383 1.014-.898 1.533-1.342.559-.479 1.186-.896 1.807-1.309.889-.594.381-2.291-.738-1.65-1.326.756-2.939 1.625-3.76 2.912-.465.715.224 2.028 1.158 1.389M108.768 182.159c-.057-.869-.111-1.633.117-2.488.246-.91.795-1.701 1.279-2.508.457-.756-.461-1.883-1.168-1.062-1.492 1.744-2.541 4.49-1.623 6.697.397.961 1.43.058 1.395-.639M99.527 191.405c-.471-1.271-1.107-2.518-.924-3.906.127-.984-1.166-1-1.473-.191-.676 1.803-.061 3.691.957 5.264.62.968 1.724-.405 1.44-1.167M100.521 197.581c-1.123-.57-2.191-1.189-2.975-2.166-.75-.945-1.977.531-1.334 1.365.914 1.158 2.133 1.961 3.533 2.508.907.35 1.599-1.285.776-1.707M76.578 195.231c-1.023 1.803-1.865 3.59-1.5 5.678.211 1.182 1.783.523 1.615-.5-.266-1.652.592-3.074 1.25-4.533.391-.867-.888-1.494-1.365-.645M169.729 143.235c.047.025.104.051.15.074 1.945 1.07 4.299-.086 6.436.232 2.615.377 4.025 2.211 5.299 4.195.254.398.584.406.875.23-.656-2.301-1.926-4.434-4.205-5.602-2.506-1.291-5.213-.877-7.797-.008-.445.156-.746-.033-.889-.342 0 .004-.004.004-.008.008-.037.074-.084.145-.115.211-.153.356-.12.776.254 1.002M205.799 166.896c-.986 2.125-1.857 4.352-4.221 5.426-.77.346-.82 1.719.15 1.605 1.672-.877 3.057-2.064 4.082-3.922a12.47 12.47 0 0 0 1.27-3.365c-.377-.33-1.008-.338-1.281.256M200.182 166.538c-.242-.443-.779-.703-1.295-.357-.592.395-1.045.941-1.561 1.414-.58.514-1.166 1.029-1.43 1.752-.139.406.014 1.127.541 1.24 1.616-.936 2.875-2.416 3.745-4.049M182.266 174.501c.619.326 1.205.484 1.738.744.266.207.527.389.805.561.123.119.234.248.338.402.672.957.826 2.191 1.711 3.025.592.543 1.434.07 1.465-.672a4.79 4.79 0 0 0-.008-.535c-.4-1.635-1.1-3.086-2.934-3.736-1.092-.383-2.246-.588-3.402-.721-.108.35-.051.754.287.932M198.482 194.208c1.607-2.217 2.318-4.852 1.127-7.463-.973-2.137-2.533-3.678-4.182-5.232-.189.301-.221.689.049.943 1.199 1.119 2.137 2.145 2.906 3.605 1.17 2.262.246 4.66-.346 6.924-.008.023-.012.031-.016.055-.129.5.109.953.462 1.168M173.611 188.11c.865-.795 2.234-.389 3.307-.557.824-.135 1.42-1.619.354-1.842-1.68-.365-3.605-.285-4.709 1.135-.608.788.115 2.122 1.048 1.264M165.453 195.446a1.01 1.01 0 0 1-.48.311c-1.029.285-2.09-.184-3.113-.357-1.445-.246-2.969-.51-4.438-.492-2.41.016-4.828.125-6.039 2.215-.02.07-.043.158-.059.238.516.469.969.984 1.357 1.539a.897.897 0 0 0 .309-.523c.691-3.002 6.67-1.977 8.949-1.73 2.037.223 4.002.809 6.025 1.072 2.607.365 4.756-.756 7.219-1.176.293-.057.482-.277.574-.539-3.417.72-7.069.665-10.304-.558M111.93 221.743c-.988.016-1.119-1.971-1.434-2.684-.42-.93-1.707-.334-1.697.508.008 1.795.578 4.533 2.973 4.479 1.306-.033 1.572-2.328.158-2.303M144.475 200.265c-.732.223-.846 1.764.076 1.613 3.445-.557 3.652 4.127 4.209 6.271a.878.878 0 0 0 1.715-.031c.781-3.217-1.745-9.146-6-7.853M169.998 217.169c.539-.174.984-.5 1.203-.969.104-.055.205-.104.309-.166.385-.184.557-.707.488-1.088-.07-.43-.535-.873-1.02-.666a6.54 6.54 0 0 0-.473.205v.008c-.178-.039-.357-.039-.5.033-.484.213-.818.49-1.064.951-.186.365-.262.779-.082 1.16a.936.936 0 0 0 1.139.532M163.105 220.226c1.537-.031 2.926-.73 4.152-1.564.518-.348.768-1.031.508-1.611a.966.966 0 0 0-1.416-.404c-1.045.707-2.156 1.111-3.34 1.541-.915.323-1.134 2.071.096 2.038M192.928 205.22c.184-1.572-.135-3.033-.23-4.557-1.111.238-2.242.332-3.303.23a1.28 1.28 0 0 0 .096.904c.104.396.404.723.793.818.512.562.867 1.238.887 2.008.031 1.199-1.225 1.588-1.914 2.367-.549.604-.549 2.096.615 2.039.4-.008.77-.102 1.111-.262 1.079-.895 1.765-1.967 1.945-3.547M208.438 205.538c3.201 1.062 6.762 1.324 8.523-1.914 2.148-3.945.33-8.328-3.398-10.242a.662.662 0 0 0 .119.254c.961 1.279 2.24 1.922 2.844 3.502.574 1.5.215 3.215-.553 4.564-.693 1.238-1.773 2.271-3.115 2.836-1.771.746-3.252.094-5.035.047-.48-.016-.854.238-1.078.588.479.127.885.23 1.123.324a.96.96 0 0 0 .57.041M206.033 194.819c-.172.023-.35.111-.529.27-.443.404-.812.896-1.131 1.389-.33.502-.691 1.049-.588 1.676a.761.761 0 0 0 .191.422c.092-.152.189-.303.273-.469a12.922 12.922 0 0 0 1.784-3.288M215.533 178.925c1.416-1.512 2.854-3.623 1.869-5.727-.48-1.016-1.779-.338-1.826.561-.039.668-.02 1.311-.234 1.951-.223.674-.723 1.42-1.158 1.992-.653.85.519 2.108 1.349 1.223M216.18 169.804a.13.13 0 0 1-.031-.045c-.041-.072-.088-.141-.131-.215-.072-.096-.135-.193-.219-.275-.262-.236-.541-.379-.91-.264-.008 0-.016.008-.02.012-.449.15-.715.582-.754 1.021-.072.693.33 1.373.812 1.873.426.438 1.061.426 1.494-.008.27-.283.441-.773.361-1.188a.86.86 0 0 0-.234-.461 3.703 3.703 0 0 1-.368-.45M126.893 211.587c-.293.08-.615.191-.857.383-.48.371-.715.785-.812 1.373-.084.539.225 1.008.613 1.35.307.27.902.373 1.295.197.496-.205.873-.705.777-1.254a1.39 1.39 0 0 0 .342-1.168c-.106-.627-.69-1.071-1.358-.881M133.125 195.731c.822-.047 1.445-.723 1.846-1.357.418-.65.479-1.412.156-2.072-.127-.373-.396-.682-.846-.666-.369.008-.668.229-.85.523-.051.055-.1.096-.123.119-.184.191-.326.453-.453.684-.215.412-.572.816-.666 1.277-.123.612.071 1.549.936 1.492M120.787 204.489c1.369-.666 2.6-1.611 3.807-2.51 1.314-.977 2.719-1.943 3.91-3.047.98-.938.123-2.645-1.246-2.018-1.373.627-2.604 1.668-3.779 2.58-1.295 1.025-2.631 2.025-3.852 3.121-.928.841-.102 2.486 1.16 1.874M129.869 178.792c-.816-1.199-.674-2.809-.885-4.17-.186-1.219-1.615-.621-1.758.287-.309 1.814.031 3.871 1.191 5.369.813 1.051 2.081-.576 1.452-1.486" fill="#F3D4D1"/><path d="M196.049 172.476c2.393-.426 4.326-2.662 5.482-4.992.285-1.244.346-2.584.342-3.889-.295-.018-.6.158-.73.596-.24.789-.557 1.582-.961 2.348-.873 1.633-2.129 3.113-3.748 4.053-.215.117-.426.236-.65.338-.788.36-.804 1.741.265 1.546M218.943 204.624c.043-.078.09-.15.131-.238 2.059-3.914.889-8.488-2.148-11.266.092-.143.15-.311.178-.508.326-2.906-.209-5.844-1.654-8.377 2.076-1.008 3.74-2.854 4.109-5.061.166-.959-1.203-1.035-1.473-.189-.525 1.693-2.383 2.578-4.074 2.932-.973.199-1.902.223-2.869.012-.795-.17-1.461-.531-2.291-.523-.664.004-1.195.773-1.033 1.365.307 1.131 1.104 1.773 2.088 2.092 1.1.35 2.418.293 3.59.031 1.203 2.16 1.627 4.455 1.623 6.9a10.05 10.05 0 0 0-1.27-.588 9.932 9.932 0 0 0-3.482-.658c-1.088-.008-1.277 1.785-.131 1.889a8.794 8.794 0 0 1 3.326.945c3.732 1.914 5.547 6.297 3.402 10.242-1.766 3.238-5.326 2.977-8.527 1.914a.969.969 0 0 1-.57-.049c-.234-.086-.645-.189-1.123-.316-1.018-.271-2.383-.627-3.285-1.152-.723.438-1.119 1.461-.428 2.098a11.106 11.106 0 0 0 2.611 1.793c4.617 2.325 10.613 1.484 13.3-3.288" fill="#231F20"/><path d="M203.992 199.534a4.03 4.03 0 0 0 .92-.516c.652-.467 1.156-1.111 1.514-1.842 1.803.723 3.037 2.033 3.918 3.676.158.295.307.596.445.906.428.984 1.746.135 1.561-.723-.568-2.668-2.645-4.939-5.32-5.828.17-1.15.062-2.35-.311-3.359a12.236 12.236 0 0 1-.686 2.971 13.1 13.1 0 0 1-1.783 3.287c-.084.166-.178.316-.273.469a6.594 6.594 0 0 1-.695.912c.177.119.411.168.71.047M195.346 178.009c-1.143-.729-2.369 1.105-1.516 1.963a87.576 87.576 0 0 0 1.598 1.537c1.648 1.559 3.209 3.1 4.182 5.229 1.191 2.619.48 5.246-1.127 7.479-.156.215-.322.43-.496.635-2.898 3.502-9.545 6.025-12.275 1.096a.71.71 0 0 0-.6-.396c-.5-.016-1.02.492-.873 1.08.719 2.787 2.76 4.023 5.156 4.264 1.061.109 2.191.008 3.307-.23.092 1.523.414 2.984.223 4.557-.18 1.58-.865 2.652-1.941 3.557-.381.318-.809.611-1.287.906-.428.254-.6 1.078-.301 1.492.08-.039.158-.064.238-.088 1.723-1.389 4.295-2.453 6.594-2.541.492-.062 1.008-.102 1.564-.158.977-.08 1.35-1.549.365-1.896a4.277 4.277 0 0 0-.535-.16c-.922-.213-1.914-.15-2.84.135.629-2.182.58-4.645-.146-6.383-.008 0-.008 0-.008-.008h.012c1.441-.549 2.775-1.326 3.768-2.207.043-.031.08-.064.123-.096 2.895-2.652 4.582-6.232 3.941-10.076-.628-3.765-3.886-7.617-7.126-9.691" fill="#231F20"/><path d="M186.092 190.39c2.75-1.096 5.426-.977 6.828 1.84.408.811 1.607.342 1.572-.482-.1-2.463-1.922-3.883-4.064-4.201a6.5 6.5 0 0 0-2.447.088c-.094.023-.193.055-.285.08.023-.064.053-.127.076-.191.281-.715.484-1.445.555-2.215a.93.93 0 0 0-.162-.619.895.895 0 0 0-1.533.127c-.951 1.754-1.699 3.414-3.119 4.891-.016.023-.037.039-.051.055-1.471 1.51-3.408 2.582-5.389 3.367-3.727 1.445-7.812 1.58-11.695.73.207-.787.373-1.549.783-2.287.035-.055.074-.111.111-.158a2.712 2.712 0 0 1 .582-1.477c.064-.064.119-.127.184-.176a6.19 6.19 0 0 1 .865-1.127c.088-.088.174-.174.27-.254a8.073 8.073 0 0 1 1.188-1.008c-.02-.041-.045-.072-.068-.104-.008-.016-.023-.016-.031-.023-.73 0-1.449.07-2.057.49-.074.049-.166.08-.254.113-1.822 1.158-3.422 3.293-3.553 5.422-.9-.324-2.012-.357-2.861-.461-1.887-.23-3.84-.158-5.729.016-2.049.191-5.738 1.145-5.973 3.518l-.225-.094c-1.391-.613-2.982-.748-4.551-.652a6.08 6.08 0 0 0-.531.039c.051-.086.096-.174.143-.262.422-.723.779-1.477 1.049-2.262.143-.422.035-.762-.191-.969-.35-.318-.984-.311-1.385.23-1.307 1.77-2.307 3.619-3.895 5.199-1.383 1.367-3.086 2.383-4.805 3.32-3.061 1.658-6.748 2.811-9.312 5.16-2.104 1.912-3.955 4.072-6.078 5.971-1.107.992-2.691 2.414-4.141 2.518-.281.086-.6.094-.934-.008-.098.016-.197.023-.297.031a2.69 2.69 0 0 1-2.104-.811c-.123.264-.176.549-.096.771 1.057 3.174 3.619 2.684 6.289 1.008-.979 2.652.881 5.311 3.469 6.305 1.691.643 3.609.604 5.359.078a.98.98 0 0 0 .254.357c4.152 3.438 10.385 4.725 14.586.611.973.961 2.254 1.748 3.848 2.238 1.189.367 1.852-1.707.654-2.072-2.998-.904-4.529-2.818-4.812-5.064-.785-1.635.215-4.352 1.457-6.336-.242-.43-.766-.668-1.191-.15-2.076 2.539-2.68 5.557-1.9 8.162.197.643.469 1.254.834 1.834-1.93 1.23-3.732 2.104-6.154 1.969-1.953-.104-3.783-1.041-5.344-2.16a4.015 4.015 0 0 1-.273-.197 9.813 9.813 0 0 0 1.127-.715c.275-.207.406-.516.418-.818-.254.078-.518.158-.779.23-.904.238-1.83.365-2.672.262-1.461.215-3.027.215-4.148-.295-2.58-.547-2.715-2.381-3.168-4.525-.055-.293-.197-.459-.373-.539 1.152-.85 2.283-1.85 3.287-2.803 1.43-1.357 2.588-2.611 3.16-3.191 2.709-2.725 6.539-4.002 9.949-5.781 2.33-1.215 4.582-2.865 6.359-4.85 2.287-.398 4.709-.461 6.709.785 1.104.246 2.223 1.295 2.725 2.215.881 1.604 1.111 3.391 1.158 5.178.318.205.738.174 1.049-.033.143-1.039.197-2.096.127-3.145-.318-1.492-.91-2.928-1.803-4.184a8.911 8.911 0 0 0-1.357-1.539c-.016-.025-.033-.033-.049-.049.033-.07.072-.127.107-.189 1.211-2.09 3.633-2.199 6.039-2.223 1.469-.01 2.992.254 4.438.5 1.02.174 2.084.643 3.113.357a.937.937 0 0 0 .48-.311c3.234 1.223 6.883 1.277 10.305.557a24.168 24.168 0 0 0 3.629-1.088c2.33-.922 4.791-2.479 6.543-4.479a.656.656 0 0 0 .161-.045M133.744 163.179a1.832 1.832 0 0 1-.09-.148c-.008 0-.012.008-.012.023 0-.016-.008-.027-.008-.053a4.504 4.504 0 0 1-.314-.639.684.684 0 0 0-.615-.068c-.385 1.145-.342 2.207-.119 3.281.127.26.27.523.408.779.373.664.76 1.281.988 1.77.525 1.117.922 2.35 1.145 3.629.381 1.244.666 2.693.719 4.125.043 1.33-.115 2.645-.6 3.777.389.004.816-.197 1.039-.693.779-1.75 1.018-3.631.918-5.51-.084-1.512-.385-3.023-.811-4.471-.047-.168-.107-.326-.162-.492.004-.004.012-.008.02-.016a1.599 1.599 0 0 1-.092-.365c-.016-.129 0-.264.029-.389a.94.94 0 0 1 .023-.383c.059-.197.127-.389.234-.566 0 0-.008 0-.008-.008a2.36 2.36 0 0 1 .182-.379c.215-.387.492-.754.773-1.111.076-.094.152-.189.227-.279a17.97 17.97 0 0 1 1.891-1.992c2.215-2.016 4.672-2.029 7.424-2.768.055-.018.111-.037.166-.062 1.215 1.467 2.861 2.545 4.84 2.76a.61.61 0 0 0 .447-.121.273.273 0 0 1-.09-.039 10.128 10.128 0 0 1-2.822-2.529c-.477-.639-.863-1.326-1.102-2.051-.02-.023-.043-.043-.066-.072-1.025-1.336-1.422-3.039-1.564-4.648a9.755 9.755 0 0 1 .199-2.994c.055-.967.213-1.955.547-2.854.008-.029.016-.064.023-.096.127-.631.35-1.254.568-1.773.434-1.047.926-2.113 1.561-3.09-.27-.133-.611-.109-.953.17-1.557 1.252-2.596 3.115-3.232 5.127-.643 2.053-.863 4.264-.766 6.139a10.3 10.3 0 0 0 .811 3.406c.115.27.23.541.365.801-.199 0-.393.004-.592.004-.666.035-1.314.129-1.945.287-2.525.629-4.744 2.203-6.502 4.107-.426.463-1.367 1.58-1.986 2.736-.223-.432-.443-.871-.662-1.301-.076-.159-.301-.702-.434-.961" fill="#231F20"/><path d="M83.891 183.878h-.074c-.031 0-.061 0-.084.008h-.184c-1.023.016-1.227 1.738-.127 1.795.057.008.104.008.152.016.039 0 .074.016.115 0h.074c.5.031.861-.5.889-.922a.972.972 0 0 0-.031-.324c-.07-.319-.301-.581-.73-.573" fill="#402867"/><path d="M205.369 214.55c3.809 2.158 8.961-.049 11.965-2.463 3.848-3.111 6.178-7.764 7.658-12.289 1.629-4.963 2.303-10.346 1.846-15.531-.344-3.914-1.488-9.146-4.922-11.729a.783.783 0 0 0-.385-.166c-.389-2.426-1.506-4.744-3.109-6.676-1.115-1.346-2.531-2.451-4.018-3.395-.773-.5-1.807-1.184-2.857-1.65.346-1.186.123-2.561-.25-3.816a.86.86 0 0 0-.043-.41c-1.914-5.062-5.34-10.164-10.625-12.457a13.536 13.536 0 0 0-2.027-.713c-.252-.059-.525-.938-.676-1.174a9.157 9.157 0 0 0-2.727-2.779c-1.137-.744-2.502-1.426-3.926-1.76a1.608 1.608 0 0 1-.137-.029c.021-.041.045-.08.057-.127.17-.387.197-.846-.043-1.209-1.582-2.367-3.525-4.205-6.186-5.424-1.791-.822-3.648-1.113-5.613-1.205-2.307-.105-4.078-.598-6.078-1.652-6.379-3.387-13.541-2.627-20.545-1.943a.793.793 0 0 0-.393-.371c-5.49-2.625-12.246-2.877-18.201-1.895-4.486.74-9.98 2.408-13.76 5.422a1.03 1.03 0 0 0-.508-.174c-2.189-.17-4.527.428-6.639.891-3.248.715-6.459 1.707-9.496 3.029-2.787 1.211-8.475 4.195-8.436 7.801-.061.025-.123.045-.188.086-6.209 3.627-12.592 7.951-14.084 15.174-3.072.297-4.68 3.973-5.613 6.363-1.299 3.312-2.072 7.191-1.914 10.748a.843.843 0 0 0 .072.312.58.58 0 0 0 .15.23c-.047.059-.092.115-.131.172-1.469 1.887-2.529 4.312-3.049 5.764-.846 2.355-1.994 7.723 1.385 8.668-1.227 2.715-1.668 6.059-1.17 8.869.074.42.32.635.598.684-.523 2.166-.07 4.715.461 6.717.715 2.715 1.334 5.756 2.898 8.209.061.088.119.184.184.27.439.65.947 1.264 1.559 1.803 3.209 2.859 8.205 3.613 12.264 4.787 2.756.803 5.605 1.43 8.496 1.375 1.107-.023 2.453-.271 3.414-.811 1.25-.699 2.258-2.002 3.588-2.518a.784.784 0 0 0 .15-.078c.072.008.143.023.219.031.107.016.215.023.318.016-.299 1.779-.299 3.598.139 5.375 1.588 6.439 10.004 9.68 16.244 7.543.279-.096.508-.285.684-.516 1.791 1.484 4.064 2.422 6.514 2.945 4.133.873 9.492.865 13.533-.43.398-.127.691-.49.842-.904a2.48 2.48 0 0 0 .08-.254c.32.064.65.119.98.166 1.357.191 2.719.223 4.014.049 3.51-.477 8.174-5.986 11.592-5.797l10.711-.539c8.031-.826 10.299-8.885 20.992-6.535 2.629.572 5.348-.412 7.855-1.373 1.852-.691 4.07-2.002 5.754-3.541.037.334.205.642.533.834m-98.254-3.264a23.717 23.717 0 0 0-1.422 3.207c-.135.396-.262.787-.373 1.184a.621.621 0 0 0-.369-.072 12.67 12.67 0 0 0-.258.025c-.016.008-.039.023-.055.023-.176-.15-.43-.215-.764-.088-1.818.668-3.373 2.135-5.303 2.422-2.367.342-4.812-.207-7.09-.754-1.707-.422-3.383-.961-5.066-1.453-.857-2.088-1.938-3.979-2-5.979a.708.708 0 0 1-.104-.285 8.923 8.923 0 0 1-.061-2.654 8.215 8.215 0 0 1 .408-1.715.715.715 0 0 0-.34.215 5.756 5.756 0 0 0-.977 1.383c-.615-1.469-.857-2.947-.887-4.486a2.904 2.904 0 0 1-.074-.438c-.088-1.088-.096-2.176-.088-3.254a.695.695 0 0 0-.438-.08c-.371.73-.697 1.469-.947 2.254-.012.041-.033.064-.047.104a12.908 12.908 0 0 0 .217 4.057 3.195 3.195 0 0 1-.154-.182c.051.189.119.381.18.564a45.692 45.692 0 0 0 1.104 3.008c.043 0 .086 0 .135-.008.09.184.189.357.293.531-.334 1.875-.039 3.955.723 5.719l.189.436c-.197-.07-.404-.119-.605-.182-1.061-.318-2.109-.691-3.094-1.191-1.604-.811-2.58-1.986-3.326-3.326-.738-1.334-1.252-2.82-1.918-4.258-.861-1.855-1.773-4.826-1.322-7.16a.836.836 0 0 1-.062-.477c.213-1.557.943-2.883 1.547-4.295-.213-.057-.477-.023-.77.135a5.104 5.104 0 0 0-1.596 1.326c-.047-.35-.072-.691-.088-1.041-.086-2.016.291-4.064 1.24-5.883.65-1.23 1.484-2.334 2.65-3.152.223-.166.457-.285.684-.396.158-.072.314-.145.469-.191 1.15-.785 2.512-1.277 3.91-1.461.02-.373-.154-.762-.541-.881-2.473-.814-4.906.568-6.617 2.357-.389.414-.746.842-1.053 1.279-.027.031-.051.07-.074.104a.765.765 0 0 0-.277-.049c-.699-.023-1.064-.428-1.217-1.016-.428-1.637.732-4.732 1.041-5.549.35-.926.758-1.783 1.25-2.566 1.117-1.803 2.633-3.205 4.781-4.164a.757.757 0 0 0 .166-.102c.227.414.484.754.766 1.029.23.234.477.426.742.576.691.395 1.479.529 2.299.5.035-.004.064-.004.096-.004-.035.098-.066.199-.104.301-.627 1.885-.834 4.061-.631 5.93.043.416.107.818.195 1.199.07.324.289.738.674.801.072.016.146.023.215.039.381.064.666-.086.873-.393.404-.607.35-1.465.242-2.314-.076-.619-.182-1.238-.154-1.74.07-1.5.52-2.875.996-4.27.834-.252 1.662-.574 2.449-.881.611-.244 1.199-.484 1.73-.664.266-.092.461-.283.588-.508.961 1.572 2.469 2.887 4.176 3.598.885.357 1.453-1.162.744-1.639a4.19 4.19 0 0 1-.299-.199c-1.426-.977-3.318-2.512-4.01-4.238-.008-.008-.016-.021-.023-.029a3.594 3.594 0 0 1-.652-1.371c-.223-.895-.082-1.834.238-2.734-.293.016-.594.188-.777.598-.643 1.459-.623 3.002-.135 4.441a1.298 1.298 0 0 0-.207.029c-.785.195-1.699.576-2.635.924-.264.098-.533.191-.803.275-.215.07-.428.129-.635.188a.86.86 0 0 0-.6.135c-1.242.219-2.418.062-3.307-1.021-.057-.072-.104-.143-.152-.215-1.381-2.021.061-4.98 1.541-6.502 2.525-2.592 7.439-4.297 10.672-2.561.324.172.635.385.928.631a5.509 5.509 0 0 1 1.395 1.865c.154.316.385.461.619.48-.123.244-.16.531-.023.805 1.068 2.174 3.711 4.354 6.244 4.732 3.168.475 5.09-2.656 4.518-5.326-.119-.549-.568-.734-.984-.643-.143.896-.365 1.867-.914 2.568a2.829 2.829 0 0 1-.705.668c-.014.021-.023.041-.049.061-.531.559-1.6.293-2.277.277-1.691-.045-3.613-1.945-4.309-3.285-.139-.27-.338-.402-.543-.432.07-.125.127-.26.143-.404a.992.992 0 0 0-.068-.531c-.408-.904-.932-1.648-1.555-2.238a4.791 4.791 0 0 0-.41-.361.819.819 0 0 0 .242-.41c.045-.18.092-.354.139-.525.707-2.424 1.895-4.045 4.436-5.143 2.146-.932 4.529-1.271 6.787-1.881 2.252-.607 5-2.188 7.539-2.773 2.049-1.381 4.67-.357 6.225 1.537.262.312.494.654.684 1.016.35-.248.588-.76.42-1.227-.5-1.389-1.223-2.273-2.096-2.803.307-.459.191-1.238-.492-1.25-.439-.004-.707.367-.75.756-3.402-.791-8.189 1.982-11.389 2.783-1.383.348-2.852.678-4.289 1.09-4.271 1.229-8.225 3.133-8.654 8.053-2.008-1.004-4.51-1.021-6.898-.387.316-.723.373-1.484.6-2.23l.012-.045c.119-.369-.012-.861-.445-.988-.439-.129-.807.223-.941.586-.225.6-.242 1.316-.535 1.877-.199.375-.215.875.158 1.158-2.111.75-4.053 1.977-5.391 3.441-.27.291-.512.609-.738.938-.992 1.451-1.564 3.221-1.557 4.963 0 .504.049 1.012.152 1.51a2.793 2.793 0 0 0-.668.041c-.758.113-1.469.463-2.129.963a2.82 2.82 0 0 0-.301.244c.004-1.762.254-3.525.639-5.252a39.28 39.28 0 0 1 .68-2.611c.723-2.432 1.865-5.316 4.334-6.516.191-.086.381-.176.592-.248a1.7 1.7 0 0 0 .389.793c.18.195.418.273.648.242-.016-.193-.02-.396-.027-.602-.021-1.084.115-2.182.615-3.121.893-2.477 2.365-4.428 4.164-6.113 2.549-2.391 5.744-4.248 8.85-6.328.047.08.094.17.154.252.111.174.242.252.393.275a2.482 2.482 0 0 1-.08-1.225c.176-1.068.898-2.123 1.629-2.906 1.604-2.432 5.717-3.857 8.178-4.775 3.727-1.4 7.979-2.691 12.092-2.875-.15.172-.293.342-.426.533a.718.718 0 0 0-.131.52.8.8 0 0 0 .375.557c.635-.488 1.254-1.02 1.881-1.535 1.496-1.236 3.041-2.389 4.975-2.711 2.869-1.303 6.029-2.033 9.359-2.502 4.555-.643 9.664-.842 14.17.504-.334.443-.357 1.168.262 1.262 3.613.535 7.32-.043 10.924-.285 4.393-.297 8.607.125 12.432 2.34 1.273.736 2.434 1.369 3.91 1.656 1.957.373 3.961.264 5.906.668 2.994.607 4.982 2.404 6.824 4.504.166.189.334.381.5.576a5.395 5.395 0 0 0-1.107.18c-.131.035-.258.076-.389.111-.357.129-.592.529-.646.924a16.587 16.587 0 0 0-4.721-2.086c-1.303-.346-2.607-.508-3.822-.463a.737.737 0 0 0-.441.176.915.915 0 0 0-.18.209l-.035-.221c-.154-.98-.543-1.727-1.111-2.301-1.58-1.609-4.498-1.867-7.129-2.047-2.098-.141-4.01-.971-6.043-1.418a12.005 12.005 0 0 0-1.539-.248c-2.205-.209-4.066.668-5.588 2.025a2.104 2.104 0 0 0-.051-.127c-.312-.59-.785-1.033-1.35-1.375-1.154-.697-2.707-.938-4.113-1.02a23.686 23.686 0 0 0-1.35-.031c-3.199-.021-6.256.66-9.305 1.467-.795.209-2.16.561-3.094 1.18-.25-1.096-.932-1.789-1.82-2.201-2.121-.977-5.447-.359-7.258.49-.373.17-.762.377-1.152.6-1.428.809-2.904 1.93-4.004 3.244-11.803 5.35-27.107 7.219-34.611 18.289-.4.59-.789 1.195-1.143 1.846-.5.914.727 1.855 1.275.85 6.645-12.094 21.238-12.361 32.814-17.68-.057.293-.092.59-.092.885 0 .574.322.893.707.979.203-.699.504-1.451.893-2.164.676-1.219 1.637-2.312 2.898-2.797.365-.281.754-.527 1.135-.762.498-.307.99-.578 1.438-.814a9.311 9.311 0 0 1 4.148-1.047c1.676-.02 2.23 1.074 3.467 1.83a.96.96 0 0 0 .318.121c.008 0 .008 0 .014.006 0 .008 0 .021.008.029-.014 0-.021.012-.039.012a.753.753 0 0 0-.461.406c-.227.471-.355.975-.57 1.451-.635-1.377-1.684-2.391-3.09-2.32a3.265 3.265 0 0 0-.42.039 2.95 2.95 0 0 1 1.314 1.236 5.36 5.36 0 0 1 .574 1.619c.008.027.021.062.029.1.035.203.059.412.082.623.018.053.041.105.057.158.689 1.939-.115 4.771-2.859 4.809a13.036 13.036 0 0 1-1.811-.135c-3.092-.422-6.252-1.576-8.633 1.156-.314.361-.318.975-.1 1.381 1.334-.9 3.434-1.121 5.088-.73.596.023 1.199.094 1.812.166.857.113 1.707.25 2.535.32v.004c-1.33 1.893-2.023 4.432-2.504 6.461-.092.361-.184.861-.258 1.424-.227 1.734-.234 4.096.963 5.121-1.969 2.148-3.438 4.768-4.502 7.475a26.854 26.854 0 0 0-.982 3.006 1.16 1.16 0 0 0-.645-.176c-.682.008-1.412.082-2.166.211-.51.086-1.025.195-1.559.33a.617.617 0 0 0-.07-.203c-1.43-2.369-3.334-4.611-4.414-7.098-.604-.643-1.064-1.436-1.387-2.297-.492-1.322-.654-2.785-.471-4.057-.096.098-.18.229-.238.398-.398 1.277-.492 2.619-.357 3.973-1.152-.811-2.629-1.318-3.898-1.68 1.357 1.168 3.008 2.438 3.938 3.982.211.354.385.723.508 1.107a.58.58 0 0 0 .326.125 17.197 17.197 0 0 0 4.1 6.117c.057.049.117.111.172.162-.055.025-.119.045-.176.066a26.88 26.88 0 0 0-4.85 2.275c-3.463 2.092-6.328 4.947-7.115 8.082a6.825 6.825 0 0 0-.205 1.293c-1.256-.09-2.383-.25-3.525-.883-1.256-.703-2.041-1.865-3.049-2.836a.286.286 0 0 1-.045-.043c-.643-.609-1.477-.039-1.566.66a.905.905 0 0 0 .078.539 8.006 8.006 0 0 0 2.025 2.562v.008a7.22 7.22 0 0 0-1.871 1.83c-1.154 1.611-1.723 3.67-1.584 5.646-.258.357-.5.738-.723 1.135-.066-.008-.127-.016-.201-.016-.738-.008-1.529.016-2.307 0-1.576.404-3.359.047-4.598-.85-.104-.08-.199-.15-.293-.23a3.703 3.703 0 0 1-.906-1.158c-.254.27-.416.643-.381 1.016.027.324.088.611.172.873.893 2.842 4.58 2.834 7.387 2.826-.396 1.176-.635 2.383-.635 3.533-.111-.094-.27-.143-.488-.119a5.439 5.439 0 0 0-.83.184c-3.311 1.055-4.207 5.684-3.891 9.424.184.215.254.492.111.842a.058.058 0 0 0-.008.023c.15 1.08.408 2.057.738 2.779.238.541.658.611 1.039.445-.443-1.771-.666-3.805-.201-5.615.1-.689.293-1.357.627-1.953.199-1.262.672-2.451 1.596-3.508a7.25 7.25 0 0 1 1.092-1.01.893.893 0 0 0 .285-.396c.232 1.572.99 2.953 2.479 3.844.777.467 1.746.809 2.945.961a.859.859 0 0 0 .615-.16c-1.52-1.055-3.107-2.365-3.727-3.93-.414-.666-.656-1.453-.656-2.438.008-1.469.52-2.922 1.268-4.232a6.687 6.687 0 0 0 1.385 2.16c.297.318.607.357.869.238-.889-2.215-1.906-6.344-.404-8.027.404-1.15 1.199-2.135 2.488-2.719.135-.059.25-.146.346-.25.416.213.85.385 1.299.527a7.648 7.648 0 0 0 3.203.342c.012 0 .027 0 .043-.004 0 .02.008.039.012.055.291 1.088.867 2.191 1.791 3.287.08.088.154.176.23.271.326.363.719.293.992.047-.83-1.531-1.676-3.533-1.449-4.994a3.243 3.243 0 0 1 .039-.785c.367-4.654 6.908-8.305 12.332-9.498 1.215-.271 2.365-.412 3.381-.418h.145c.09 0 .174-.012.254-.023a41.318 41.318 0 0 0-.549 4.143c-.189 2.309-.262 4.879.279 7.193a10.7 10.7 0 0 0 .479 1.568c.375.949 1.713.312 1.695-.521-.055-2.572-.42-5.09-.293-7.666.131-2.828.662-5.613 1.523-8.318 1.367-4.289 3.914-8.346 7.838-10.732.965-1.129 2.389-1.959 3.857-2.439.033-.578-.324-1.133-1.062-.955a14.668 14.668 0 0 0-4.471 1.928 15.88 15.88 0 0 0-1.664 1.242c-.035.031-.074.055-.115.09a1.393 1.393 0 0 0-.127-.193c-.309-.467-.574-.924-.682-1.596-.207-1.238.047-2.621.357-3.82a15.92 15.92 0 0 1 2.049-4.736c.293-.445.605-.885.947-1.295 1.291-.217 2.441-.85 3.328-2.316.281-.473.455-1.074.547-1.738 1.25-1.346 3.148-1.303 4.891-1.512.973-.109 1.18-1.586.115-1.715a8.281 8.281 0 0 0-4.771.923c.182-.273.326-.574.434-.826.004-.008.008-.012.008-.016.25-.582.535-1.184.631-1.812.02-.115.031-.225.035-.338.418-.07.838-.416 1-.852.014-.004.018-.012.029-.02.254-.146.52-.256.793-.357.754-.303 1.834-.789 2.652-.744 1.031.057 2.338-.447 3.375-.582a33.903 33.903 0 0 1 3.85-.297c1.604-.033 4.168-.088 5.352 1.164.389.408.424.936.254 1.49a4.32 4.32 0 0 1-.504 1.07c-.289 1.154-1.178 2.176-1.98 3.275-.025.037-.053.074-.08.115-.055.064-.104.125-.162.174.082.391.324.74.65.846.027-.037.049-.068.084-.105 1.312-1.305 2.668-2.557 3.779-4.012.201-.436.357-.887.453-1.33.023-.127.047-.252.066-.379 1.625-1.711 3.469-2.531 5.928-2.16 1.938.291 3.652 1.262 5.594 1.506 1.551.193 3.119.209 4.66.484.139.023.277.055.408.086 1.803.438 2.557 1.492 2.871 3.316.186 1.074 1.588.717 1.699-.195.107.127.27.207.488.217 2.98.039 7.264 1.691 9.873 4.223.186.033.369.111.535.26 1.369 1.221 2.402 2.893 2.445 4.703a.687.687 0 0 1-.031.273c.424.053.893-.232.881-.812-.035-1.861-.818-3.578-2.045-5.049-.078-.098-.158-.191-.24-.289a15.215 15.215 0 0 0-.941-.943c-.203-.176-.41-.354-.625-.529.268-.016.537-.023.799-.012 3.482.078 6.619 2.082 7.766 5.395.02.053.059.117.1.18.119.158.305.307.48.334 2.373.336 4.414 1.479 6.172 3.041 1.592 1.404 2.945 3.15 4.09 4.949.381.594.734 1.191 1.064 1.789.162.273.309.553.455.83a1.02 1.02 0 0 0 .018.643c.416 1.121.432 2.301.643 3.438.008.047.012.094.023.135h-.119a3.285 3.285 0 0 0-.277-.016.866.866 0 0 0-.453.145c-.73-2.785-2.229-5.67-4.109-7.904a18.362 18.362 0 0 0-1.031-1.127c-1.264-1.236-2.771-2-4.533-2.309-1.188-.205-2.887-.436-4.047-.029a.97.97 0 0 0-.631.814 5.46 5.46 0 0 0-.809-.785c-2.014-1.566-5.035-1.24-7.404-.805-.676.125-1.375.264-2.076.434a.957.957 0 0 0 .062-.594c-.588-2.926-1.877-5.67-4.586-7.324-2.834-1.732-6.699-1.174-9.658-.135-.023.004-.043.02-.062.031.219-1.332-.23-2.703-1.684-3.986-.357-.305-.715-.211-.984.053.572 1.041.996 2.158.834 3.213.166.477.195.992-.012 1.6-.438 1.293-2.188 2.033-3.301 2.682-2.119 1.242-4.469 2.16-6.74 3.119-.34-.555-.75-1.055-1.246-1.432-.92-.713-1.896.779-1.508 1.555.766 1.549 1.631 2.906 2.111 4.594.611 2.145.857 4.398.801 6.617-.078 3.061-.896 6.184-3.301 7.66-.314-.01-.613.162-.822.408-.73.295-1.58.457-2.557.457-1.184.008-1.391 1.943-.143 2.061.059 0 .109 0 .166.004.9.064 1.719-.008 2.465-.205.342 1.336.834 2.645 1.215 3.961.08.281.162.557.246.83.047.195.115.387.176.58.266.9.555 1.793.873 2.676.035.104.066.203.105.305a.937.937 0 0 0-.381.225.917.917 0 0 0-.182.207c-2.494 3.783-7.396 6.283-11.803 7.387-2.277.572-4.756.666-7.066.207a9.254 9.254 0 0 1-1.318-.398c-1.562-.609-2.811-1.631-4.271-2.555-1.104-.699-1.865.773-1.596 1.635.027.088.064.184.096.27.5 1.367 1.395 2.383 2.525 3.121-.508.484-1.072.977-1.668 1.438-2.898 2.293-6.631 4.033-9.695 1.531-1.23-1-1.949-2.318-2.389-3.779-.727-1.357-1.16-2.787-1.418-4.256-.242-1.404-.316-2.852-.312-4.318a.978.978 0 0 0-1.064.699c-.373 1.309-.346 2.777-.146 4.215.154 1.137.416 2.264.682 3.279.6 2.334 1.656 5.018 3.658 6.598a6.637 6.637 0 0 0 1.631.969c-.215.238-.441.477-.664.707a29.771 29.771 0 0 1-2.957 2.619c-.174-.127-.41-.166-.719-.062-2.512.795-5.248.453-7.631-.658a.893.893 0 0 1-.213-.057c-1.145-.381-2.152-1-3.053-1.77-1.283-1.072-2.34-2.438-3.236-3.828-.361.223-.619.707-.43 1.152.51 1.135 1.232 2.215 2.109 3.191 2.244 2.484 5.498 4.264 8.832 4.469.223.016.441.025.66.025-.188.104-.383.197-.572.293-1.088.547-2.23 1-3.422 1.35a5.66 5.66 0 0 1-.5.119c-1.406.303-2.852.223-4.264.508-1.016.207-.977 1.668-.15 2.033.031.016.066.023.094.039 1.898.795 4.197.383 6.312-.412a49.179 49.179 0 0 0-5.171 7.791m75.766-62.301c-1.514.479-2.959 1.143-4.113 2.117-1.354-1.248-3.076-2.117-5.316-2.398-1.311-.166-3.234-.012-5.24.436-2.564.586-5.256 1.65-7.006 3.174-.053.041-.1.08-.148.123a6.985 6.985 0 0 0-.885.975 19.722 19.722 0 0 0-.273-1.406c-.189-.871-.428-1.891-.781-2.877 2.58-1.814 5.941-2.463 8.395-4.604.811-.703 1.49-1.479 1.963-2.289.031-.066.078-.137.111-.211.008-.004.008-.004.008-.008.143.309.443.498.893.342 2.584-.869 5.291-1.283 7.797.008 2.273 1.168 3.549 3.301 4.209 5.602l.15.555c.041.2.125.348.236.461m10.539 66.366c-1.539.104-3.1.111-4.648.104a1.121 1.121 0 0 1-.461.088c-.924-.023-1.869-.064-2.787-.207-.127 0-.254.016-.373.023-.023-.039-.055-.078-.082-.111-.764-.143-1.502-.357-2.195-.697-.08.062-.164.127-.244.205a22.718 22.718 0 0 1-3.096 2.613c.41-2.184-.861-4.646-2.068-6.416-.039-.062-.078-.127-.127-.184a8.866 8.866 0 0 0-.484-.643c.242-.055.477-.119.715-.182a17.005 17.005 0 0 0 3.58-1.461c.734-1.279 1.729-2.422 2.557-3.645-.182-.119-.412-.135-.686-.023-3.617 1.523-6.693 3.057-10.756 2.93-1.27-.049-2.535-.238-3.783-.484-2.551.047-5.184-.516-7.66-.057.047.16.135.303.293.414.285.207.58.389.895.547 1.447.756 3.162 1.08 4.738 1.469.223.057.457.111.688.168.119.016.238.047.361.086-.131.104-.266.215-.4.318-2.014 1.66-3.906 3.064-6.738 3.795-2.766.723-5.68.611-8.463.018a26.215 26.215 0 0 1-2.102-.549c-1.031-.311-1.562 1.412-.562 1.77 5.652 2.033 13.625 1.963 18.35-2.111a10.607 10.607 0 0 0 2.322-2.795l3.496.215c.199 0 .41-.016.619-.033.211.137.414.334.572.486.564.516 1.012 1.15 1.434 1.785.996 1.486 1.555 3.168 1.4 4.932a.913.913 0 0 0 .092.516.55.55 0 0 0 .127.166c-.072.049-.15.088-.23.135a27.185 27.185 0 0 1-6.244 2.637c-6.725 1.906-14.275 1.422-20.596-1.484-1.008-.461-1.77 1.412-.881 1.945.162.094.33.189.5.277a25.048 25.048 0 0 0 4.457 1.93c.053.016.096.031.145.047-.037.033-.068.064-.107.096-.016.023-.037.039-.053.057-1.9 2.254-4.084 4.271-7.121 4.938-1.061.23-2.107.223-3.141.096-1.98-.246-3.93-.93-5.879-1.254a.544.544 0 0 0-.18 0c-.812.039-1.412 1.262-.596 1.715.299.15.607.301.922.451.08.041.15.072.227.104-.135.016-.266.033-.4.047-3.057.326-6.473.613-9.545.16-2.35-.342-4.498-1.111-6.133-2.621-1.361-.643-2.572-1.604-3.252-2.803a4.44 4.44 0 0 1-.396-.492c-.039.031-.072.072-.104.104-.338.365-.527.896-.334 1.398.141.34.295.666.461.984.119.221.246.436.377.658-.4.008-.805.031-1.203.049-2.064.062-4.021.031-6.121-.771a7.598 7.598 0 0 1-2.287-1.35 8.071 8.071 0 0 1-2.6-4.326c-1.688-7.312 5.248-13.166 8.07-19.271.127-.07.26-.15.373-.221 3.217-1.891 5.816-4.662 8.266-7.369 3.906.135 7.916-3.111 10.369-5.947 3.086 1.098 7.016.873 9.83.248 2.867-.645 5.652-1.844 8-3.543 2.131-1.539 3.906-3.492 5.045-5.822.666 1.457 1.533 2.75 2.6 3.742 1.744 1.621 4.025 2.445 6.85 1.875a8.786 8.786 0 0 0 4.676-2.605c.043-.016.088-.023.135-.039 2.867-1.152 4.883 1.492 7.221 2.453.861.365 1.502-.922 1.184-1.557-.361-.689-1.027-1.373-1.861-1.949-1.338-.924-3.105-1.592-4.682-1.621-.047 0-.094-.004-.143-.004.02-.047.039-.094.061-.141a13.98 13.98 0 0 0 1.205-4.285c.23-2.018.102-4.016-.105-6.01 1.877-.609 3.783-.691 5.703-.088.811.252 1.422.639 1.906 1.109.465.453.814.996 1.107 1.586-.996-.082-2.02-.07-2.984-.045-1.041.025-1.242 1.74-.131 1.809a38.6 38.6 0 0 1 1.658.141c1.16.133 2.311.338 3.398.721 1.838.65 2.533 2.098 2.934 3.736.068.244.119.496.168.748.246 1.213 1.969.812 1.936-.316-.086-2.305-1.027-4.428-3.127-5.688a6.218 6.218 0 0 0-1.365-.621c-.627-4.984-6.955-6.523-11.443-5.156-.262-2.166-.52-4.32-.436-6.496a1.249 1.249 0 0 0-.076-.488c-.67 2.057-1.17 4.154-1.432 6.289.227 1.969.473 4.057.504 6.053.078 4.777-1.064 9.002-6.566 9.686-6.09.738-6.967-5.811-8.484-10.904-.377-1.281-.797-2.473-1.361-3.432 2.172-1.756 3.295-4.805 3.721-7.637.09-.619.146-1.246.17-1.871.02-.449.023-.906.008-1.357a.9.9 0 0 0 .287-.289c.508-.924.801-1.707 1.611-2.447 1.039-.959 2.488-1.529 3.811-1.996 2.422-.865 5.252-1.143 7.793-.693.215.039.42.084.627.137 3.502.91 4.871 3.932 5.828 7.074.143.484.281.975.412 1.455.234.85.453 1.684.695 2.463.107.33.307.488.535.535.191-1.152.271-2.312.279-3.471a38.837 38.837 0 0 0-.08-2.527c-.549-1.635-1.266-3.195-2.246-4.518a.097.097 0 0 0-.025-.027c.014-.008.021-.008.029-.014 1.297-1.016 3.164-1.523 4.838-1.91.295-.066.576-.133.85-.195 2.018-.459 5.348-1.09 7.016.488 1.277 1.211 1.514 3.244 1.535 5.004 0 .406-.004.801-.012 1.162-.051 2.018-.42 3.973-.781 5.949.676-1.168 1.369-2.318 1.996-3.506.311-.568.596-1.148.85-1.746.219-2.533.02-5.168-1.084-7.115.744.256 1.613.207 2.387.32 1.484.221 2.74.586 3.949 1.457.941.67 1.729 1.553 2.406 2.541 1.307 1.916 2.176 4.244 2.844 6.254.582 1.748.6 3.627.205 5.42a12.464 12.464 0 0 1-1.266 3.365c-1.029 1.854-2.414 3.045-4.086 3.924-1.084.572-2.293 1.025-3.588 1.439-1.076.342-1.246 2.309.115 2.312 3.719.012 6.887-2.854 8.797-5.639.234-.35.461-.711.662-1.076a14.462 14.462 0 0 0 1.676-8.648v-.004c.869.623 1.99 1.047 2.887 1.578a20.374 20.374 0 0 1 3.691 2.891 10.736 10.736 0 0 1 2.596 3.996c.607 1.643.846 3.41.914 5.293.061 1.523 1.846 1.316 2.064-.051.035-.162.047-.332.068-.498 4.172 6.807 3.643 15.461 1.361 22.861-1.141 3.699-2.887 7.367-5.602 10.266-.203.223-.414.43-.627.635a11.245 11.245 0 0 1-4.645 2.701c-1.982.57-3.764.047-5.732.016.189-.254.355-.523.498-.779.326-.619.037-1.754-.908-1.451-.059.016-.115.031-.178.055-2.033.707-3.785 2.564-5.666 3.605-2.034 1.121-4.364 1.763-6.698 1.914M244.381 41.622h3.543c1.193-.004 2.242-.115 3.162-.342.906-.229 1.684-.529 2.326-.908.641-.369 1.148-.787 1.529-1.252h.166v2.502h7.619V4.392h-7.619v10.289h-.166c-.381-.475-.889-.906-1.529-1.293-.643-.385-1.42-.695-2.326-.92-.92-.229-1.969-.338-3.162-.35h-3.543c-1.801 0-3.326.318-4.604.965-1.252.639-2.217 1.615-2.883 2.918-.658 1.322-.996 2.98-1.004 4.996v11.758c.02 3.037.754 5.279 2.207 6.719 1.458 1.443 3.549 2.16 6.284 2.148zm-.815-18.391c-.012-1.408.279-2.443.879-3.107.588-.662 1.553-.988 2.875-.977h2.611c.936 0 1.799.15 2.58.461a4.25 4.25 0 0 1 1.871 1.459c.467.662.709 1.504.725 2.541v6.422c-.016 1.033-.258 1.879-.725 2.541a4.164 4.164 0 0 1-1.871 1.451c-.781.318-1.645.473-2.58.473h-2.611c-1.322.008-2.287-.318-2.875-.98-.6-.662-.891-1.699-.879-3.104v-7.18zM275.799 13.013c-1.473.598-2.6 1.52-3.379 2.797-.777 1.264-1.162 2.904-1.178 4.91v12.305c.016 2.006.4 3.646 1.178 4.914.779 1.273 1.906 2.195 3.379 2.797 1.477.594 3.256.9 5.348.887h5.287c2.08.014 3.889-.215 5.439-.674 1.545-.477 2.74-1.271 3.594-2.4.857-1.117 1.293-2.658 1.309-4.6v-1.195l-7.24-1.361v1.361c.008.914-.27 1.578-.83 1.975-.551.398-1.445.594-2.66.582h-4.244c-1.205 0-2.068-.244-2.576-.744-.512-.506-.762-1.273-.742-2.305v-2.83h18.293v-8.164c-.016-2.014-.404-3.701-1.182-5.055-.783-1.357-1.91-2.375-3.375-3.066-1.48-.68-3.264-1.023-5.355-1.023h-5.717c-2.093-.006-3.873.291-5.349.889zm10.414 5.316c.936 0 1.643.127 2.119.375.484.23.795.59.969 1.047.162.465.242 1.027.234 1.676v2.184h-11.053v-2.289c-.012-.635.061-1.178.23-1.625.172-.443.488-.781.965-1.018.48-.234 1.195-.35 2.123-.35h4.413zM142.014 23.608c.012-1.037.25-1.879.727-2.541a4.215 4.215 0 0 1 1.869-1.459c.779-.311 1.641-.461 2.578-.461h2.445c1.326-.012 2.285.314 2.877.965.6.652.891 1.67.883 3.057v18.453h7.674V20.997c-.01-2.016-.342-3.674-1.01-4.996-.658-1.303-1.623-2.279-2.889-2.918-1.252-.646-2.787-.965-4.594-.965h-3.379c-1.195.012-2.246.121-3.168.35-.904.225-1.684.535-2.318.92-.643.387-1.15.818-1.527 1.293h-.168v-2.562h-7.617v29.504h7.617V23.608zM111.832.147h7.887v7.025h-7.887zM208.141 40.739c1.477.594 3.252.895 5.355.883h6.635c2.098.012 3.877-.289 5.354-.883 1.473-.605 2.598-1.527 3.375-2.795.787-1.273 1.172-2.918 1.18-4.92V20.717c-.008-2.004-.393-3.646-1.18-4.91-.777-1.277-1.902-2.199-3.375-2.793-1.477-.598-3.256-.896-5.354-.893h-6.635c-2.104-.004-3.879.295-5.355.893-1.477.594-2.596 1.516-3.375 2.793-.785 1.264-1.17 2.906-1.184 4.91v12.307c.014 2.002.398 3.646 1.184 4.92.779 1.268 1.898 2.19 3.375 2.795zm3.064-18.656c-.02-1.008.234-1.75.742-2.223.508-.484 1.373-.723 2.58-.715h4.57c1.207-.008 2.068.23 2.58.715.512.473.758 1.215.734 2.223v9.416c.023 1.037-.223 1.789-.734 2.279-.512.48-1.373.725-2.58.717h-4.57c-1.207 0-2.072-.236-2.58-.717-.508-.482-.762-1.219-.742-2.223v-9.472zM173.877 5.28c-1.473.602-2.596 1.525-3.375 2.793-.783 1.273-1.172 2.914-1.184 4.92v20.033c.012 2.004.4 3.646 1.184 4.914.779 1.273 1.902 2.195 3.375 2.797 1.484.594 3.256.898 5.348.885h8.006c2.094.014 3.871-.291 5.352-.885 1.469-.602 2.598-1.523 3.371-2.797.785-1.268 1.17-2.91 1.184-4.914v-3.215l-7.623-2.18v3.922c.016 1.004-.23 1.74-.746 2.225-.504.479-1.365.715-2.572.715h-5.936c-1.211 0-2.072-.236-2.572-.715-.512-.484-.762-1.221-.746-2.225V14.354c-.016-1.008.234-1.752.746-2.225.5-.479 1.361-.723 2.572-.717h5.936c1.207-.006 2.068.238 2.572.717.516.473.762 1.217.746 2.225v3.428l7.623-1.959v-2.83c-.014-2.006-.398-3.646-1.184-4.92-.773-1.268-1.902-2.191-3.371-2.793-1.48-.596-3.258-.898-5.352-.885h-8.006c-2.092-.013-3.864.29-5.348.885M42.922 23.608c.008-1.037.254-1.879.723-2.541a4.289 4.289 0 0 1 1.891-1.459c.785-.311 1.658-.461 2.611-.461h2.342c.883-.012 1.572.104 2.088.346.508.248.867.654 1.084 1.213.211.561.318 1.305.311 2.252v2.279l7.674-1.959v-2.281c-.014-2.016-.334-3.674-1.012-4.996-.656-1.303-1.617-2.279-2.879-2.918-1.264-.646-2.795-.965-4.602-.965h-3.049c-1.195.012-2.248.121-3.164.35-.908.225-1.691.535-2.318.92-.65.387-1.154.818-1.541 1.293h-.158v-2.562h-7.621v29.504h7.621V23.608h-.001zM129.029 34.493h-9.306V12.118h-17.582v7.029h9.902v15.346h-10.986v7.133h27.972zM22.607 40.737c1.469-.605 2.594-1.523 3.375-2.797.783-1.268 1.172-2.914 1.18-4.918v-3.914a7.901 7.901 0 0 0-.445-2.672 6.067 6.067 0 0 0-1.432-2.285c-.656-.662-1.518-1.148-2.586-1.467 1.068-.32 1.93-.814 2.586-1.475a6.018 6.018 0 0 0 1.432-2.281 7.903 7.903 0 0 0 .445-2.668v-3.268c-.008-2.004-.396-3.646-1.18-4.92-.781-1.268-1.906-2.191-3.375-2.793-1.48-.596-3.254-.896-5.355-.885H.223v37.23h17.029c2.102.01 3.875-.293 5.355-.887zM7.84 11.417h8.381c.818 0 1.461.098 1.934.316.48.211.826.525 1.035.959.207.436.307.992.303 1.664v1.852c.016 1.004-.23 1.766-.738 2.273-.5.516-1.342.768-2.533.768H7.841v-7.832H7.84zm0 23.076v-8.324h8.381c1.191 0 2.033.236 2.533.711.508.484.754 1.221.738 2.229v2.447c.004.67-.096 1.223-.303 1.656-.209.439-.555.754-1.035.965-.473.211-1.115.316-1.934.316H7.84zM68.15 38.212a6.033 6.033 0 0 0 2.918 2.617c1.279.539 2.803.807 4.59.793h2.723c1.756-.008 3.191-.207 4.318-.588 1.129-.391 2.01-.9 2.652-1.535h.168v2.123h7.232V21.427c-.008-2.029-.42-3.74-1.23-5.121-.818-1.381-1.98-2.428-3.486-3.123-1.508-.705-3.318-1.061-5.406-1.061h-4.844c-2.035.012-3.756.293-5.16.857-1.41.549-2.484 1.346-3.217 2.369-.723 1.037-1.082 2.262-1.094 3.684v.66l7.232 1.734v-.707c-.008-.525.088-.969.258-1.322.17-.353.465-.629.869-.801.42-.174.988-.27 1.707-.27h3.645c1.246-.012 2.137.25 2.684.783.551.535.811 1.377.811 2.541v3.373h-.168c-.658-.611-1.607-1.104-2.842-1.465-1.238-.355-2.771-.543-4.566-.551h-2.285c-1.768-.008-3.283.264-4.559.807a6.129 6.129 0 0 0-2.941 2.635c-.693 1.191-1.035 2.773-1.039 4.721v2.293c.003 1.964.345 3.554 1.03 4.749zm6.205-6.549c0-.947.258-1.621.777-2.049.525-.414 1.318-.631 2.379-.623h3.211c.557 0 1.104.041 1.668.115a6.827 6.827 0 0 1 1.545.385c.471.195.85.457 1.131.793.295.33.436.752.453 1.27v1.203c-.018.482-.15.893-.434 1.223-.281.334-.646.586-1.1.789a6.222 6.222 0 0 1-1.553.41c-.559.094-1.131.131-1.711.131H77.51c-1.061.012-1.854-.188-2.379-.594-.52-.41-.777-1.105-.777-2.072v-.981h.001zM2.814 74.622h94.797v2.48H2.814zM204.715 74.62h94.801v2.482h-94.801z" fill="#231F20"/><path d="M97.611 77.103v17.658h107.107V56.959H97.611v20.144zm2.008-18.127h103.086v33.777H99.619V58.976z" fill="#231F20"/><g fill="#231F20"><path d="M131.456 86.998h-14.517v-2.607l5.522-5.552c1.631-1.67 2.712-2.854 3.245-3.552.533-.698.92-1.355 1.165-1.971a5.297 5.297 0 0 0 .366-1.978c0-.967-.291-1.729-.872-2.285s-1.384-.835-2.41-.835c-.82 0-1.614.151-2.38.454-.766.303-1.653.85-2.659 1.641l-1.86-2.271c1.191-1.006 2.349-1.719 3.472-2.139a10.16 10.16 0 0 1 3.589-.63c1.992 0 3.589.521 4.79 1.56 1.201 1.041 1.802 2.439 1.802 4.197 0 .967-.173 1.885-.52 2.754-.347.869-.879 1.766-1.597 2.688-.718.924-1.912 2.171-3.582 3.743l-3.721 3.604v.146h10.166v3.033h.001zM148.58 76.29c0 3.721-.598 6.484-1.794 8.291-1.196 1.807-3.025 2.71-5.486 2.71-2.383 0-4.189-.933-5.42-2.798-1.231-1.865-1.846-4.6-1.846-8.203 0-3.779.598-6.564 1.794-8.356 1.196-1.792 3.02-2.688 5.471-2.688 2.393 0 4.204.938 5.435 2.812 1.231 1.874 1.846 4.618 1.846 8.232zm-11.06 0c0 2.92.3 5.005.901 6.255s1.56 1.875 2.878 1.875 2.283-.635 2.893-1.904c.61-1.269.916-3.345.916-6.226 0-2.871-.305-4.948-.916-6.233-.61-1.283-1.575-1.926-2.893-1.926-1.318 0-2.278.63-2.878 1.89-.6 1.26-.901 3.349-.901 6.269zM161.295 86.998h-3.442V73.17c0-1.65.039-2.959.117-3.926-.225.234-.501.493-.828.776-.327.283-1.423 1.182-3.288 2.695l-1.729-2.183 6.299-4.951h2.871v21.417zM170.743 86.998l8.467-18.354h-11.133v-3.032h14.81v2.402l-8.423 18.984z"/></g></g></svg>